  0
SECTION
  2
HEADER
  9
$ACADVER
  1
AC1015
  9
$ACADMAINTVER
 70
     6
  9
$DWGCODEPAGE
  3
ANSI_1252
  9
$INSBASE
 10
0.0
 20
0.0
 30
0.0
  9
$EXTMIN
 10
7.3557645
 20
-19.6442355
 30
0.0
  9
$EXTMAX
 10
46.6442355
 20
19.6442355
 30
0.0
  9
$LIMMIN
 10
0.0
 20
0.0
  9
$LIMMAX
 10
420.0
 20
297.0
  9
$ORTHOMODE
 70
     0
  9
$REGENMODE
 70
     1
  9
$FILLMODE
 70
     1
  9
$QTEXTMODE
 70
     0
  9
$MIRRTEXT
 70
     1
  9
$LTSCALE
 40
1.0
  9
$ATTMODE
 70
     1
  9
$TEXTSIZE
 40
3.5
  9
$TRACEWID
 40
1.0
  9
$TEXTSTYLE
  7
Standard
  9
$CLAYER
  8
0
  9
$CELTYPE
  6
ByLayer
  9
$CECOLOR
 62
   256
  9
$CELTSCALE
 40
1.0
  9
$DISPSILH
 70
     0
  9
$DIMSCALE
 40
1.0
  9
$DIMASZ
 40
3.302
  9
$DIMEXO
 40
0.0
  9
$DIMDLI
 40
3.75
  9
$DIMRND
 40
0.0
  9
$DIMDLE
 40
0.0
  9
$DIMEXE
 40
3.175
  9
$DIMTP
 40
0.0
  9
$DIMTM
 40
0.0
  9
$DIMTXT
 40
3.5
  9
$DIMCEN
 40
2.5
  9
$DIMTSZ
 40
0.0
  9
$DIMTOL
 70
     0
  9
$DIMLIM
 70
     0
  9
$DIMTIH
 70
     1
  9
$DIMTOH
 70
     1
  9
$DIMSE1
 70
     0
  9
$DIMSE2
 70
     0
  9
$DIMTAD
 70
     1
  9
$DIMZIN
 70
     1
  9
$DIMBLK
  1

  9
$DIMASO
 70
     1
  9
$DIMSHO
 70
     1
  9
$DIMPOST
  1

  9
$DIMAPOST
  1

  9
$DIMALT
 70
     0
  9
$DIMALTD
 70
     3
  9
$DIMALTF
 40
0.0393700787
  9
$DIMLFAC
 40
1.0
  9
$DIMTOFL
 70
     1
  9
$DIMTVP
 40
0.0
  9
$DIMTIX
 70
     0
  9
$DIMSOXD
 70
     0
  9
$DIMSAH
 70
     0
  9
$DIMBLK1
  1

  9
$DIMBLK2
  1

  9
$DIMSTYLE
  2
ISO-25
  9
$DIMCLRD
 70
     0
  9
$DIMCLRE
 70
     0
  9
$DIMCLRT
 70
     0
  9
$DIMTFAC
 40
1.0
  9
$DIMGAP
 40
1.524
  9
$DIMJUST
 70
     0
  9
$DIMSD1
 70
     0
  9
$DIMSD2
 70
     0
  9
$DIMTOLJ
 70
     0
  9
$DIMTZIN
 70
     1
  9
$DIMALTZ
 70
     0
  9
$DIMALTTZ
 70
     0
  9
$DIMUPT
 70
     0
  9
$DIMDEC
 70
     2
  9
$DIMTDEC
 70
     2
  9
$DIMALTU
 70
     2
  9
$DIMALTTD
 70
     3
  9
$DIMTXSTY
  7
Standard
  9
$DIMAUNIT
 70
     0
  9
$DIMADEC
 70
     4
  9
$DIMALTRND
 40
0.0
  9
$DIMAZIN
 70
     0
  9
$DIMDSEP
 70
    44
  9
$DIMATFIT
 70
     3
  9
$DIMFRAC
 70
     0
  9
$DIMLDRBLK
  1

  9
$DIMLUNIT
 70
     2
  9
$DIMLWD
 70
    -2
  9
$DIMLWE
 70
    -2
  9
$DIMTMOVE
 70
     0
  9
$LUNITS
 70
     2
  9
$LUPREC
 70
     2
  9
$SKETCHINC
 40
1.0
  9
$FILLETRAD
 40
0.0
  9
$AUNITS
 70
     0
  9
$AUPREC
 70
     4
  9
$MENU
  1
.
  9
$ELEVATION
 40
0.0
  9
$PELEVATION
 40
0.0
  9
$THICKNESS
 40
0.0
  9
$LIMCHECK
 70
     0
  9
$CHAMFERA
 40
0.0
  9
$CHAMFERB
 40
0.0
  9
$CHAMFERC
 40
0.0
  9
$CHAMFERD
 40
0.0
  9
$SKPOLY
 70
     0
  9
$TDCREATE
 40
2460887.697652905
  9
$TDUCREATE
 40
2460887.989319572
  9
$TDUPDATE
 40
2460887.697678982
  9
$TDUUPDATE
 40
2460887.989345649
  9
$TDINDWG
 40
0.0000000116
  9
$TDUSRTIMER
 40
0.0000000116
  9
$USRTIMER
 70
     1
  9
$ANGBASE
 50
0.0
  9
$ANGDIR
 70
     0
  9
$PDMODE
 70
     0
  9
$PDSIZE
 40
-1.0
  9
$PLINEWID
 40
0.0
  9
$SPLFRAME
 70
     0
  9
$SPLINETYPE
 70
     6
  9
$SPLINESEGS
 70
     8
  9
$HANDSEED
  5
465
  9
$SURFTAB1
 70
     6
  9
$SURFTAB2
 70
     6
  9
$SURFTYPE
 70
     6
  9
$SURFU
 70
     6
  9
$SURFV
 70
     6
  9
$UCSBASE
  2

  9
$UCSNAME
  2

  9
$UCSORG
 10
0.0
 20
0.0
 30
0.0
  9
$UCSXDIR
 10
1.0
 20
0.0
 30
0.0
  9
$UCSYDIR
 10
0.0
 20
1.0
 30
0.0
  9
$UCSORTHOREF
  2

  9
$UCSORTHOVIEW
 70
     0
  9
$UCSORGTOP
 10
0.0
 20
0.0
 30
0.0
  9
$UCSORGBOTTOM
 10
0.0
 20
0.0
 30
0.0
  9
$UCSORGLEFT
 10
0.0
 20
0.0
 30
0.0
  9
$UCSORGRIGHT
 10
0.0
 20
0.0
 30
0.0
  9
$UCSORGFRONT
 10
0.0
 20
0.0
 30
0.0
  9
$UCSORGBACK
 10
0.0
 20
0.0
 30
0.0
  9
$PUCSBASE
  2

  9
$PUCSNAME
  2

  9
$PUCSORG
 10
0.0
 20
0.0
 30
0.0
  9
$PUCSXDIR
 10
1.0
 20
0.0
 30
0.0
  9
$PUCSYDIR
 10
0.0
 20
1.0
 30
0.0
  9
$PUCSORTHOREF
  2

  9
$PUCSORTHOVIEW
 70
     0
  9
$PUCSORGTOP
 10
0.0
 20
0.0
 30
0.0
  9
$PUCSORGBOTTOM
 10
0.0
 20
0.0
 30
0.0
  9
$PUCSORGLEFT
 10
0.0
 20
0.0
 30
0.0
  9
$PUCSORGRIGHT
 10
0.0
 20
0.0
 30
0.0
  9
$PUCSORGFRONT
 10
0.0
 20
0.0
 30
0.0
  9
$PUCSORGBACK
 10
0.0
 20
0.0
 30
0.0
  9
$USERI1
 70
     0
  9
$USERI2
 70
     0
  9
$USERI3
 70
     0
  9
$USERI4
 70
     0
  9
$USERI5
 70
     0
  9
$USERR1
 40
0.0
  9
$USERR2
 40
0.0
  9
$USERR3
 40
0.0
  9
$USERR4
 40
0.0
  9
$USERR5
 40
0.0
  9
$WORLDVIEW
 70
     1
  9
$SHADEDGE
 70
     3
  9
$SHADEDIF
 70
    70
  9
$TILEMODE
 70
     1
  9
$MAXACTVP
 70
    64
  9
$PINSBASE
 10
0.0
 20
0.0
 30
0.0
  9
$PLIMCHECK
 70
     0
  9
$PEXTMIN
 10
1.0000000000E+20
 20
1.0000000000E+20
 30
1.0000000000E+20
  9
$PEXTMAX
 10
-1.0000000000E+20
 20
-1.0000000000E+20
 30
-1.0000000000E+20
  9
$PLIMMIN
 10
0.0
 20
0.0
  9
$PLIMMAX
 10
420.0
 20
297.0
  9
$UNITMODE
 70
     0
  9
$VISRETAIN
 70
     1
  9
$PLINEGEN
 70
     0
  9
$PSLTSCALE
 70
     1
  9
$TREEDEPTH
 70
  3020
  9
$CMLSTYLE
  2
Standard
  9
$CMLJUST
 70
     0
  9
$CMLSCALE
 40
20.0
  9
$PROXYGRAPHICS
 70
     1
  9
$MEASUREMENT
 70
     1
  9
$CELWEIGHT
370
    -1
  9
$ENDCAPS
280
     0
  9
$JOINSTYLE
280
     0
  9
$LWDISPLAY
290
     1
  9
$INSUNITS
 70
     4
  9
$HYPERLINKBASE
  1

  9
$STYLESHEET
  1

  9
$XEDIT
290
     1
  9
$CEPSNTYPE
380
     0
  9
$PSTYLEMODE
290
     1
  9
$FINGERPRINTGUID
  2
{c212a13a-40be-4456-bafd-e9fd884191d8}
  9
$VERSIONGUID
  2
{FAEB1C32-E019-11D5-929B-00C0DF256EC4}
  9
$EXTNAMES
290
     1
  9
$PSVPSCALE
 40
0.0
  9
$OLESTARTUP
290
     0
  0
ENDSEC
  0
SECTION
  2
CLASSES
  0
CLASS
  1
ACDBDICTIONARYWDFLT
  2
AcDbDictionaryWithDefault
  3
ObjectDBX Classes
 90
        0
280
     0
281
     0
  0
CLASS
  1
VISUALSTYLE
  2
AcDbVisualStyle
  3
ObjectDBX Classes
 90
     4095
280
     0
281
     0
  0
CLASS
  1
MATERIAL
  2
AcDbMaterial
  3
ObjectDBX Classes
 90
     1153
280
     0
281
     0
  0
CLASS
  1
SCALE
  2
AcDbScale
  3
ObjectDBX Classes
 90
     1153
280
     0
281
     0
  0
CLASS
  1
TABLESTYLE
  2
AcDbTableStyle
  3
ObjectDBX Classes
 90
     4095
280
     0
281
     0
  0
CLASS
  1
MLEADERSTYLE
  2
AcDbMLeaderStyle
  3
ACDB_MLEADERSTYLE_CLASS
 90
     4095
280
     0
281
     0
  0
CLASS
  1
SUN
  2
AcDbSun
  3
SCENEOE
 90
     1153
280
     0
281
     0
  0
CLASS
  1
ACDBPLACEHOLDER
  2
AcDbPlaceHolder
  3
ObjectDBX Classes
 90
        0
280
     0
281
     0
  0
CLASS
  1
LAYOUT
  2
AcDbLayout
  3
ObjectDBX Classes
 90
        0
280
     0
281
     0
  0
ENDSEC
  0
SECTION
  2
TABLES
  0
TABLE
  2
VPORT
  5
8
330
0
100
AcDbSymbolTable
 70
     1
  0
VPORT
  5
29
330
8
100
AcDbSymbolTableRecord
100
AcDbViewportTableRecord
  2
*Active
 70
     0
 10
0.0
 20
0.0
 11
1.0
 21
1.0
 12
27.0
 22
0.0
 13
0.0
 23
0.0
 14
10.0
 24
10.0
 15
10.0
 25
10.0
 16
0.0
 26
0.0
 36
1.0
 17
0.0
 27
0.0
 37
0.0
 40
40.07424042
 41
1.0
 42
50.0
 43
0.0
 44
0.0
 50
0.0
 51
0.0
 71
     0
 72
   100
 73
     1
 74
     3
 75
     0
 76
     0
 77
     0
 78
     0
281
     0
 65
     1
110
0.0
120
0.0
130
0.0
111
1.0
121
0.0
131
0.0
112
0.0
122
1.0
132
0.0
 79
     0
146
0.0
  0
ENDTAB
  0
TABLE
  2
LTYPE
  5
5
330
0
100
AcDbSymbolTable
 70
     6
  0
LTYPE
  5
14
330
5
100
AcDbSymbolTableRecord
100
AcDbLinetypeTableRecord
  2
ByBlock
 70
     0
  3

 72
    65
 73
     0
 40
0.0
  0
LTYPE
  5
15
330
5
100
AcDbSymbolTableRecord
100
AcDbLinetypeTableRecord
  2
ByLayer
 70
     0
  3

 72
    65
 73
     0
 40
0.0
  0
LTYPE
  5
16
330
5
100
AcDbSymbolTableRecord
100
AcDbLinetypeTableRecord
  2
Continuous
 70
     0
  3
Solid line
 72
    65
 73
     0
 40
0.0
  0
LTYPE
  5
5E
330
5
100
AcDbSymbolTableRecord
100
AcDbLinetypeTableRecord
  2
HIDDEN
 70
     0
  3
Hidden __ __ __ __ __ __ __ __ __ __ __ __ __ __
 72
    65
 73
     2
 40
1.905
 49
1.27
 74
     0
 49
-0.635
 74
     0
  0
LTYPE
  5
5F
330
5
100
AcDbSymbolTableRecord
100
AcDbLinetypeTableRecord
  2
PHANTOM
 70
     0
  3
Phantom ______  __  __  ______  __  __  ______
 72
    65
 73
     6
 40
12.7
 49
6.35
 74
     0
 49
-1.27
 74
     0
 49
1.27
 74
     0
 49
-1.27
 74
     0
 49
1.27
 74
     0
 49
-1.27
 74
     0
  0
LTYPE
  5
60
330
5
100
AcDbSymbolTableRecord
100
AcDbLinetypeTableRecord
  2
CENTER
 70
     0
  3
Center ____ _ ____ _ ____ _ ____ _ ____ _ ____
 72
    65
 73
     4
 40
10.16
 49
6.35
 74
     0
 49
-1.27
 74
     0
 49
1.27
 74
     0
 49
-1.27
 74
     0
  0
LTYPE
  5
61
330
5
100
AcDbSymbolTableRecord
100
AcDbLinetypeTableRecord
  2
CENTERX2
 70
     0
  3
Center (2x) ________  __  ________  __  _____
 72
    65
 73
     4
 40
20.32
 49
12.7
 74
     0
 49
-2.54
 74
     0
 49
2.54
 74
     0
 49
-2.54
 74
     0
  0
LTYPE
  5
62
330
5
100
AcDbSymbolTableRecord
100
AcDbLinetypeTableRecord
  2
DOT2
 70
     0
  3
Dot (.5x) ........................................
 72
    65
 73
     2
 40
0.635
 49
0.0
 74
     0
 49
-0.635
 74
     0
  0
ENDTAB
  0
TABLE
  2
LAYER
  5
2
330
0
100
AcDbSymbolTable
 70
     1
  0
LAYER
  5
10
330
2
100
AcDbSymbolTableRecord
100
AcDbLayerTableRecord
  2
0
 70
     0
 62
     7
  6
Continuous
370
    -3
390
F
  0
ENDTAB
  0
TABLE
  2
STYLE
  5
3
330
0
100
AcDbSymbolTable
 70
     2
  0
STYLE
  5
11
330
3
100
AcDbSymbolTableRecord
100
AcDbTextStyleTableRecord
  2
Standard
 70
     0
 40
0.0
 41
1.0
 50
0.0
 71
     0
 42
3.5
  3
txt
  4

  0
STYLE
  5
461
330
3
100
AcDbSymbolTableRecord
100
AcDbTextStyleTableRecord
  2
SLDTEXTSTYLE0
 70
     0
 40
0.0
 41
0.7
 50
0.0
 71
     0
 42
3.5
  3
TXT
  4

  0
ENDTAB
  0
TABLE
  2
VIEW
  5
6
330
0
100
AcDbSymbolTable
 70
     0
  0
ENDTAB
  0
TABLE
  2
UCS
  5
7
330
0
100
AcDbSymbolTable
 70
     0
  0
ENDTAB
  0
TABLE
  2
APPID
  5
9
330
0
100
AcDbSymbolTable
 70
     1
  0
APPID
  5
12
330
9
100
AcDbSymbolTableRecord
100
AcDbRegAppTableRecord
  2
ACAD
 70
     0
  0
ENDTAB
  0
TABLE
  2
DIMSTYLE
  5
A
330
0
100
AcDbSymbolTable
 70
     1
100
AcDbDimStyleTable
  0
DIMSTYLE
105
27
330
A
100
AcDbSymbolTableRecord
100
AcDbDimStyleTableRecord
  2
ISO-25
 70
     0
 41
2.5
 42
0.625
 43
3.75
 44
1.25
 73
     0
 74
     0
 77
     1
 78
     8
140
2.5
141
2.5
143
0.0393700787
147
0.625
171
     3
172
     1
178
     0
271
     2
272
     2
274
     3
278
    44
283
     0
284
     8
340
11
  0
ENDTAB
  0
TABLE
  2
BLOCK_RECORD
  5
1
330
0
100
AcDbSymbolTable
 70
     1
  0
BLOCK_RECORD
  5
1F
330
1
100
AcDbSymbolTableRecord
100
AcDbBlockTableRecord
  2
*Model_Space
340
22
  0
BLOCK_RECORD
  5
1B
330
1
100
AcDbSymbolTableRecord
100
AcDbBlockTableRecord
  2
*Paper_Space
340
1E
  0
BLOCK_RECORD
  5
23
330
1
100
AcDbSymbolTableRecord
100
AcDbBlockTableRecord
  2
*Paper_Space0
340
26
  0
ENDTAB
  0
ENDSEC
  0
SECTION
  2
BLOCKS
  0
BLOCK
  5
20
330
1F
100
AcDbEntity
  8
0
100
AcDbBlockBegin
  2
*Model_Space
 70
     0
 10
0.0
 20
0.0
 30
0.0
  3
*Model_Space
  1

  0
ENDBLK
  5
21
330
1F
100
AcDbEntity
  8
0
100
AcDbBlockEnd
  0
BLOCK
  5
1C
330
1B
100
AcDbEntity
 67
     1
  8
0
100
AcDbBlockBegin
  2
*Paper_Space
 70
     0
 10
0.0
 20
0.0
 30
0.0
  3
*Paper_Space
  1

  0
ENDBLK
  5
1D
330
1B
100
AcDbEntity
 67
     1
  8
0
100
AcDbBlockEnd
  0
BLOCK
  5
24
330
23
100
AcDbEntity
  8
0
100
AcDbBlockBegin
  2
*Paper_Space0
 70
     0
 10
0.0
 20
0.0
 30
0.0
  3
*Paper_Space0
  1

  0
ENDBLK
  5
25
330
23
100
AcDbEntity
  8
0
100
AcDbBlockEnd
  0
ENDSEC
  0
SECTION
  2
ENTITIES
  0
ARC
  5
63
330
1F
100
AcDbEntity
  8
0
  6
Continuous
 62
     7
370
    25
100
AcDbCircle
 10
27.0000272743
 20
0.0000053224
 30
0.0
 40
19.80000000000001
100
AcDbArc
 50
187.190950943
 51
190.80905495
  0
LINE
  5
64
330
1F
100
AcDbEntity
  8
0
  6
Continuous
 62
     7
370
    25
100
AcDbLine
 10
7.5513263
 20
-3.7132184
 30
0.0
 11
7.9072966
 21
-3.8391092
 31
0.0
  0
LINE
  5
65
330
1F
100
AcDbEntity
  8
0
  6
Continuous
 62
     7
370
    25
100
AcDbLine
 10
7.9072966
 20
-3.8391092
 30
0.0
 11
8.2784255
 21
-3.9537132
 31
0.0
  0
LINE
  5
66
330
1F
100
AcDbEntity
  8
0
  6
Continuous
 62
     7
370
    25
100
AcDbLine
 10
8.2784255
 20
-3.9537132
 30
0.0
 11
8.6265541
 21
-4.0454557
 31
0.0
  0
LINE
  5
67
330
1F
100
AcDbEntity
  8
0
  6
Continuous
 62
     7
370
    25
100
AcDbLine
 10
8.6265541
 20
-4.0454557
 30
0.0
 11
8.9484659
 21
-4.1160549
 31
0.0
  0
LINE
  5
68
330
1F
100
AcDbEntity
  8
0
  6
Continuous
 62
     7
370
    25
100
AcDbLine
 10
8.9484659
 20
-4.1160549
 30
0.0
 11
9.2443438
 21
-4.1680798
 31
0.0
  0
LINE
  5
69
330
1F
100
AcDbEntity
  8
0
  6
Continuous
 62
     7
370
    25
100
AcDbLine
 10
9.2443438
 20
-4.1680798
 30
0.0
 11
9.514574
 21
-4.2039813
 31
0.0
  0
LINE
  5
6A
330
1F
100
AcDbEntity
  8
0
  6
Continuous
 62
     7
370
    25
100
AcDbLine
 10
9.514574
 20
-4.2039813
 30
0.0
 11
9.7549137
 21
-4.2256845
 31
0.0
  0
LINE
  5
6B
330
1F
100
AcDbEntity
  8
0
  6
Continuous
 62
     7
370
    25
100
AcDbLine
 10
9.7549137
 20
-4.2256845
 30
0.0
 11
9.9642394
 21
-4.2358151
 31
0.0
  0
LINE
  5
6C
330
1F
100
AcDbEntity
  8
0
  6
Continuous
 62
     7
370
    25
100
AcDbLine
 10
9.9642394
 20
-4.2358151
 30
0.0
 11
10.1464458
 21
-4.2370402
 31
0.0
  0
LINE
  5
6D
330
1F
100
AcDbEntity
  8
0
  6
Continuous
 62
     7
370
    25
100
AcDbLine
 10
10.1464458
 20
-4.2370402
 30
0.0
 11
10.4203237
 21
-4.2223271
 31
0.0
  0
LINE
  5
6E
330
1F
100
AcDbEntity
  8
0
  6
Continuous
 62
     7
370
    25
100
AcDbLine
 10
10.4203237
 20
-4.2223271
 30
0.0
 11
10.5764882
 21
-4.2010377
 31
0.0
  0
LINE
  5
6F
330
1F
100
AcDbEntity
  8
0
  6
Continuous
 62
     7
370
    25
100
AcDbLine
 10
10.5764882
 20
-4.2010377
 30
0.0
 11
10.6808311
 21
-4.1809613
 31
0.0
  0
LINE
  5
70
330
1F
100
AcDbEntity
  8
0
  6
Continuous
 62
     7
370
    25
100
AcDbLine
 10
10.6808311
 20
-4.1809613
 30
0.0
 11
10.8798411
 21
-4.156528
 31
0.0
  0
LINE
  5
71
330
1F
100
AcDbEntity
  8
0
  6
Continuous
 62
     7
370
    25
100
AcDbLine
 10
10.8798411
 20
-4.156528
 30
0.0
 11
11.0516298
 21
-4.1549449
 31
0.0
  0
LINE
  5
72
330
1F
100
AcDbEntity
  8
0
  6
Continuous
 62
     7
370
    25
100
AcDbLine
 10
11.0516298
 20
-4.1549449
 30
0.0
 11
11.1268344
 21
-4.1619797
 31
0.0
  0
LINE
  5
73
330
1F
100
AcDbEntity
  8
0
  6
Continuous
 62
     7
370
    25
100
AcDbLine
 10
11.1268344
 20
-4.1619797
 30
0.0
 11
11.194691
 21
-4.1738414
 31
0.0
  0
LINE
  5
74
330
1F
100
AcDbEntity
  8
0
  6
Continuous
 62
     7
370
    25
100
AcDbLine
 10
11.194691
 20
-4.1738414
 30
0.0
 11
11.2550154
 21
-4.1902219
 31
0.0
  0
LINE
  5
75
330
1F
100
AcDbEntity
  8
0
  6
Continuous
 62
     7
370
    25
100
AcDbLine
 10
11.2550154
 20
-4.1902219
 30
0.0
 11
11.3076517
 21
-4.2108037
 31
0.0
  0
LINE
  5
76
330
1F
100
AcDbEntity
  8
0
  6
Continuous
 62
     7
370
    25
100
AcDbLine
 10
11.3076517
 20
-4.2108037
 30
0.0
 11
11.3524665
 21
-4.2352728
 31
0.0
  0
LINE
  5
77
330
1F
100
AcDbEntity
  8
0
  6
Continuous
 62
     7
370
    25
100
AcDbLine
 10
11.3524665
 20
-4.2352728
 30
0.0
 11
11.3893134
 21
-4.2633086
 31
0.0
  0
LINE
  5
78
330
1F
100
AcDbEntity
  8
0
  6
Continuous
 62
     7
370
    25
100
AcDbLine
 10
11.3893134
 20
-4.2633086
 30
0.0
 11
11.4180685
 21
-4.294594
 31
0.0
  0
LINE
  5
79
330
1F
100
AcDbEntity
  8
0
  6
Continuous
 62
     7
370
    25
100
AcDbLine
 10
11.4180685
 20
-4.294594
 30
0.0
 11
11.4386236
 21
-4.3287961
 31
0.0
  0
LINE
  5
7A
330
1F
100
AcDbEntity
  8
0
  6
Continuous
 62
     7
370
    25
100
AcDbLine
 10
11.4386236
 20
-4.3287961
 30
0.0
 11
11.4485892
 21
-4.3561662
 31
0.0
  0
LINE
  5
7B
330
1F
100
AcDbEntity
  8
0
  6
Continuous
 62
     7
370
    25
100
AcDbLine
 10
11.4485892
 20
-4.3561662
 30
0.0
 11
11.5272235
 21
-4.6279173
 31
0.0
  0
LINE
  5
7C
330
1F
100
AcDbEntity
  8
0
  6
Continuous
 62
     7
370
    25
100
AcDbLine
 10
11.5272235
 20
-4.6279173
 30
0.0
 11
11.6404373
 21
-4.9906245
 31
0.0
  0
LINE
  5
7D
330
1F
100
AcDbEntity
  8
0
  6
Continuous
 62
     7
370
    25
100
AcDbLine
 10
11.6404373
 20
-4.9906245
 30
0.0
 11
11.7620393
 21
-5.3506061
 31
0.0
  0
LINE
  5
7E
330
1F
100
AcDbEntity
  8
0
  6
Continuous
 62
     7
370
    25
100
AcDbLine
 10
11.7620393
 20
-5.3506061
 30
0.0
 11
11.8581541
 21
-5.6166775
 31
0.0
  0
LINE
  5
7F
330
1F
100
AcDbEntity
  8
0
  6
Continuous
 62
     7
370
    25
100
AcDbLine
 10
11.8581541
 20
-5.6166775
 30
0.0
 11
11.8661795
 21
-5.6446779
 31
0.0
  0
LINE
  5
80
330
1F
100
AcDbEntity
  8
0
  6
Continuous
 62
     7
370
    25
100
AcDbLine
 10
11.8661795
 20
-5.6446779
 30
0.0
 11
11.8696536
 21
-5.68443
 31
0.0
  0
LINE
  5
81
330
1F
100
AcDbEntity
  8
0
  6
Continuous
 62
     7
370
    25
100
AcDbLine
 10
11.8696536
 20
-5.68443
 30
0.0
 11
11.8647793
 21
-5.7266422
 31
0.0
  0
LINE
  5
82
330
1F
100
AcDbEntity
  8
0
  6
Continuous
 62
     7
370
    25
100
AcDbLine
 10
11.8647793
 20
-5.7266422
 30
0.0
 11
11.8514486
 21
-5.7709818
 31
0.0
  0
LINE
  5
83
330
1F
100
AcDbEntity
  8
0
  6
Continuous
 62
     7
370
    25
100
AcDbLine
 10
11.8514486
 20
-5.7709818
 30
0.0
 11
11.8295752
 21
-5.8171191
 31
0.0
  0
LINE
  5
84
330
1F
100
AcDbEntity
  8
0
  6
Continuous
 62
     7
370
    25
100
AcDbLine
 10
11.8295752
 20
-5.8171191
 30
0.0
 11
11.7990892
 21
-5.864709
 31
0.0
  0
LINE
  5
85
330
1F
100
AcDbEntity
  8
0
  6
Continuous
 62
     7
370
    25
100
AcDbLine
 10
11.7990892
 20
-5.864709
 30
0.0
 11
11.759914
 21
-5.9134189
 31
0.0
  0
LINE
  5
86
330
1F
100
AcDbEntity
  8
0
  6
Continuous
 62
     7
370
    25
100
AcDbLine
 10
11.759914
 20
-5.9134189
 30
0.0
 11
11.711989
 21
-5.9629003
 31
0.0
  0
LINE
  5
87
330
1F
100
AcDbEntity
  8
0
  6
Continuous
 62
     7
370
    25
100
AcDbLine
 10
11.711989
 20
-5.9629003
 30
0.0
 11
11.6552821
 21
-6.0127958
 31
0.0
  0
LINE
  5
88
330
1F
100
AcDbEntity
  8
0
  6
Continuous
 62
     7
370
    25
100
AcDbLine
 10
11.6552821
 20
-6.0127958
 30
0.0
 11
11.5153716
 21
-6.1124899
 31
0.0
  0
LINE
  5
89
330
1F
100
AcDbEntity
  8
0
  6
Continuous
 62
     7
370
    25
100
AcDbLine
 10
11.5153716
 20
-6.1124899
 30
0.0
 11
11.3400076
 21
-6.209698
 31
0.0
  0
LINE
  5
8A
330
1F
100
AcDbEntity
  8
0
  6
Continuous
 62
     7
370
    25
100
AcDbLine
 10
11.3400076
 20
-6.209698
 30
0.0
 11
11.2437918
 21
-6.2547872
 31
0.0
  0
LINE
  5
8B
330
1F
100
AcDbEntity
  8
0
  6
Continuous
 62
     7
370
    25
100
AcDbLine
 10
11.2437918
 20
-6.2547872
 30
0.0
 11
11.1049385
 21
-6.3293548
 31
0.0
  0
LINE
  5
8C
330
1F
100
AcDbEntity
  8
0
  6
Continuous
 62
     7
370
    25
100
AcDbLine
 10
11.1049385
 20
-6.3293548
 30
0.0
 11
10.8747185
 21
-6.4784331
 31
0.0
  0
LINE
  5
8D
330
1F
100
AcDbEntity
  8
0
  6
Continuous
 62
     7
370
    25
100
AcDbLine
 10
10.8747185
 20
-6.4784331
 30
0.0
 11
10.7280305
 21
-6.5865225
 31
0.0
  0
LINE
  5
8E
330
1F
100
AcDbEntity
  8
0
  6
Continuous
 62
     7
370
    25
100
AcDbLine
 10
10.7280305
 20
-6.5865225
 30
0.0
 11
10.5646371
 21
-6.7177569
 31
0.0
  0
LINE
  5
8F
330
1F
100
AcDbEntity
  8
0
  6
Continuous
 62
     7
370
    25
100
AcDbLine
 10
10.5646371
 20
-6.7177569
 30
0.0
 11
10.382955
 21
-6.8765832
 31
0.0
  0
LINE
  5
90
330
1F
100
AcDbEntity
  8
0
  6
Continuous
 62
     7
370
    25
100
AcDbLine
 10
10.382955
 20
-6.8765832
 30
0.0
 11
10.1854366
 21
-7.0644654
 31
0.0
  0
LINE
  5
91
330
1F
100
AcDbEntity
  8
0
  6
Continuous
 62
     7
370
    25
100
AcDbLine
 10
10.1854366
 20
-7.0644654
 30
0.0
 11
9.9766458
 21
-7.2804672
 31
0.0
  0
LINE
  5
92
330
1F
100
AcDbEntity
  8
0
  6
Continuous
 62
     7
370
    25
100
AcDbLine
 10
9.9766458
 20
-7.2804672
 30
0.0
 11
9.7577108
 21
-7.5267981
 31
0.0
  0
LINE
  5
93
330
1F
100
AcDbEntity
  8
0
  6
Continuous
 62
     7
370
    25
100
AcDbLine
 10
9.7577108
 20
-7.5267981
 30
0.0
 11
9.5299938
 21
-7.8056442
 31
0.0
  0
LINE
  5
94
330
1F
100
AcDbEntity
  8
0
  6
Continuous
 62
     7
370
    25
100
AcDbLine
 10
9.5299938
 20
-7.8056442
 30
0.0
 11
9.2971067
 21
-8.1165049
 31
0.0
  0
LINE
  5
95
330
1F
100
AcDbEntity
  8
0
  6
Continuous
 62
     7
370
    25
100
AcDbLine
 10
9.2971067
 20
-8.1165049
 30
0.0
 11
9.0831172193
 21
-8.4275870627
 31
0.0
  0
ARC
  5
96
330
1F
100
AcDbEntity
  8
0
  6
Continuous
 62
     7
370
    25
100
AcDbCircle
 10
27.000019607
 20
0.000019607
 30
0.0
 40
19.7999986199171
100
AcDbArc
 50
205.1909730105
 51
208.8090775489
  0
LINE
  5
97
330
1F
100
AcDbEntity
  8
0
  6
Continuous
 62
     7
370
    25
100
AcDbLine
 10
9.6506600187
 20
-9.5414513082
 30
0.0
 11
10.02811
 21
-9.5511797
 31
0.0
  0
LINE
  5
98
330
1F
100
AcDbEntity
  8
0
  6
Continuous
 62
     7
370
    25
100
AcDbLine
 10
10.02811
 20
-9.5511797
 30
0.0
 11
10.4164891
 21
-9.5454894
 31
0.0
  0
LINE
  5
99
330
1F
100
AcDbEntity
  8
0
  6
Continuous
 62
     7
370
    25
100
AcDbLine
 10
10.4164891
 20
-9.5454894
 30
0.0
 11
10.7759291
 21
-9.525164
 31
0.0
  0
LINE
  5
9A
330
1F
100
AcDbEntity
  8
0
  6
Continuous
 62
     7
370
    25
100
AcDbLine
 10
10.7759291
 20
-9.525164
 30
0.0
 11
11.1039018
 21
-9.4928316
 31
0.0
  0
LINE
  5
9B
330
1F
100
AcDbEntity
  8
0
  6
Continuous
 62
     7
370
    25
100
AcDbLine
 10
11.1039018
 20
-9.4928316
 30
0.0
 11
11.401375
 21
-9.450879
 31
0.0
  0
LINE
  5
9C
330
1F
100
AcDbEntity
  8
0
  6
Continuous
 62
     7
370
    25
100
AcDbLine
 10
11.401375
 20
-9.450879
 30
0.0
 11
11.6694733
 21
-9.4015176
 31
0.0
  0
LINE
  5
9D
330
1F
100
AcDbEntity
  8
0
  6
Continuous
 62
     7
370
    25
100
AcDbLine
 10
11.6694733
 20
-9.4015176
 30
0.0
 11
11.9047566
 21
-9.3478895
 31
0.0
  0
LINE
  5
9E
330
1F
100
AcDbEntity
  8
0
  6
Continuous
 62
     7
370
    25
100
AcDbLine
 10
11.9047566
 20
-9.3478895
 30
0.0
 11
12.1069677
 21
-9.2928391
 31
0.0
  0
LINE
  5
9F
330
1F
100
AcDbEntity
  8
0
  6
Continuous
 62
     7
370
    25
100
AcDbLine
 10
12.1069677
 20
-9.2928391
 30
0.0
 11
12.2806348
 21
-9.2376993
 31
0.0
  0
LINE
  5
A0
330
1F
100
AcDbEntity
  8
0
  6
Continuous
 62
     7
370
    25
100
AcDbLine
 10
12.2806348
 20
-9.2376993
 30
0.0
 11
12.5365617
 21
-9.1390735
 31
0.0
  0
LINE
  5
A1
330
1F
100
AcDbEntity
  8
0
  6
Continuous
 62
     7
370
    25
100
AcDbLine
 10
12.5365617
 20
-9.1390735
 30
0.0
 11
12.6785041
 21
-9.0705685
 31
0.0
  0
LINE
  5
A2
330
1F
100
AcDbEntity
  8
0
  6
Continuous
 62
     7
370
    25
100
AcDbLine
 10
12.6785041
 20
-9.0705685
 30
0.0
 11
12.7715362
 21
-9.019231
 31
0.0
  0
LINE
  5
A3
330
1F
100
AcDbEntity
  8
0
  6
Continuous
 62
     7
370
    25
100
AcDbLine
 10
12.7715362
 20
-9.019231
 30
0.0
 11
12.9532556
 21
-8.9344961
 31
0.0
  0
LINE
  5
A4
330
1F
100
AcDbEntity
  8
0
  6
Continuous
 62
     7
370
    25
100
AcDbLine
 10
12.9532556
 20
-8.9344961
 30
0.0
 11
13.1161472
 21
-8.8799049
 31
0.0
  0
LINE
  5
A5
330
1F
100
AcDbEntity
  8
0
  6
Continuous
 62
     7
370
    25
100
AcDbLine
 10
13.1161472
 20
-8.8799049
 30
0.0
 11
13.1898449
 21
-8.8633558
 31
0.0
  0
LINE
  5
A6
330
1F
100
AcDbEntity
  8
0
  6
Continuous
 62
     7
370
    25
100
AcDbLine
 10
13.1898449
 20
-8.8633558
 30
0.0
 11
13.2580459
 21
-8.8536681
 31
0.0
  0
LINE
  5
A7
330
1F
100
AcDbEntity
  8
0
  6
Continuous
 62
     7
370
    25
100
AcDbLine
 10
13.2580459
 20
-8.8536681
 30
0.0
 11
13.3204795
 21
-8.8506057
 31
0.0
  0
LINE
  5
A8
330
1F
100
AcDbEntity
  8
0
  6
Continuous
 62
     7
370
    25
100
AcDbLine
 10
13.3204795
 20
-8.8506057
 30
0.0
 11
13.3768998
 21
-8.8539146
 31
0.0
  0
LINE
  5
A9
330
1F
100
AcDbEntity
  8
0
  6
Continuous
 62
     7
370
    25
100
AcDbLine
 10
13.3768998
 20
-8.8539146
 30
0.0
 11
13.4270825
 21
-8.8633376
 31
0.0
  0
LINE
  5
AA
330
1F
100
AcDbEntity
  8
0
  6
Continuous
 62
     7
370
    25
100
AcDbLine
 10
13.4270825
 20
-8.8633376
 30
0.0
 11
13.4707896
 21
-8.8786149
 31
0.0
  0
LINE
  5
AB
330
1F
100
AcDbEntity
  8
0
  6
Continuous
 62
     7
370
    25
100
AcDbLine
 10
13.4707896
 20
-8.8786149
 30
0.0
 11
13.5078051
 21
-8.8994833
 31
0.0
  0
LINE
  5
AC
330
1F
100
AcDbEntity
  8
0
  6
Continuous
 62
     7
370
    25
100
AcDbLine
 10
13.5078051
 20
-8.8994833
 30
0.0
 11
13.5379231
 21
-8.9256595
 31
0.0
  0
LINE
  5
AD
330
1F
100
AcDbEntity
  8
0
  6
Continuous
 62
     7
370
    25
100
AcDbLine
 10
13.5379231
 20
-8.9256595
 30
0.0
 11
13.5558588
 21
-8.9486105
 31
0.0
  0
LINE
  5
AE
330
1F
100
AcDbEntity
  8
0
  6
Continuous
 62
     7
370
    25
100
AcDbLine
 10
13.5558588
 20
-8.9486105
 30
0.0
 11
13.7146202
 21
-9.1827618
 31
0.0
  0
LINE
  5
AF
330
1F
100
AcDbEntity
  8
0
  6
Continuous
 62
     7
370
    25
100
AcDbLine
 10
13.7146202
 20
-9.1827618
 30
0.0
 11
13.9343755
 21
-9.4927318
 31
0.0
  0
LINE
  5
B0
330
1F
100
AcDbEntity
  8
0
  6
Continuous
 62
     7
370
    25
100
AcDbLine
 10
13.9343755
 20
-9.4927318
 30
0.0
 11
14.1612664
 21
-9.7975176
 31
0.0
  0
LINE
  5
B1
330
1F
100
AcDbEntity
  8
0
  6
Continuous
 62
     7
370
    25
100
AcDbLine
 10
14.1612664
 20
-9.7975176
 30
0.0
 11
14.3348976
 21
-10.0208654
 31
0.0
  0
LINE
  5
B2
330
1F
100
AcDbEntity
  8
0
  6
Continuous
 62
     7
370
    25
100
AcDbLine
 10
14.3348976
 20
-10.0208654
 30
0.0
 11
14.3511828
 21
-10.0450154
 31
0.0
  0
LINE
  5
B3
330
1F
100
AcDbEntity
  8
0
  6
Continuous
 62
     7
370
    25
100
AcDbLine
 10
14.3511828
 20
-10.0450154
 30
0.0
 11
14.3667709
 21
-10.0817483
 31
0.0
  0
LINE
  5
B4
330
1F
100
AcDbEntity
  8
0
  6
Continuous
 62
     7
370
    25
100
AcDbLine
 10
14.3667709
 20
-10.0817483
 30
0.0
 11
14.3751795
 21
-10.1234008
 31
0.0
  0
LINE
  5
B5
330
1F
100
AcDbEntity
  8
0
  6
Continuous
 62
     7
370
    25
100
AcDbLine
 10
14.3751795
 20
-10.1234008
 30
0.0
 11
14.3762029
 21
-10.1696897
 31
0.0
  0
LINE
  5
B6
330
1F
100
AcDbEntity
  8
0
  6
Continuous
 62
     7
370
    25
100
AcDbLine
 10
14.3762029
 20
-10.1696897
 30
0.0
 11
14.3696573
 21
-10.2203281
 31
0.0
  0
LINE
  5
B7
330
1F
100
AcDbEntity
  8
0
  6
Continuous
 62
     7
370
    25
100
AcDbLine
 10
14.3696573
 20
-10.2203281
 30
0.0
 11
14.3553695
 21
-10.2750095
 31
0.0
  0
LINE
  5
B8
330
1F
100
AcDbEntity
  8
0
  6
Continuous
 62
     7
370
    25
100
AcDbLine
 10
14.3553695
 20
-10.2750095
 30
0.0
 11
14.3331639
 21
-10.3334411
 31
0.0
  0
LINE
  5
B9
330
1F
100
AcDbEntity
  8
0
  6
Continuous
 62
     7
370
    25
100
AcDbLine
 10
14.3331639
 20
-10.3334411
 30
0.0
 11
14.3028751
 21
-10.3953104
 31
0.0
  0
LINE
  5
BA
330
1F
100
AcDbEntity
  8
0
  6
Continuous
 62
     7
370
    25
100
AcDbLine
 10
14.3028751
 20
-10.3953104
 30
0.0
 11
14.2643622
 21
-10.4602872
 31
0.0
  0
LINE
  5
BB
330
1F
100
AcDbEntity
  8
0
  6
Continuous
 62
     7
370
    25
100
AcDbLine
 10
14.2643622
 20
-10.4602872
 30
0.0
 11
14.1621065
 21
-10.5983367
 31
0.0
  0
LINE
  5
BC
330
1F
100
AcDbEntity
  8
0
  6
Continuous
 62
     7
370
    25
100
AcDbLine
 10
14.1621065
 20
-10.5983367
 30
0.0
 11
14.0253644
 21
-10.7449775
 31
0.0
  0
LINE
  5
BD
330
1F
100
AcDbEntity
  8
0
  6
Continuous
 62
     7
370
    25
100
AcDbLine
 10
14.0253644
 20
-10.7449775
 30
0.0
 11
13.9477911
 21
-10.8175922
 31
0.0
  0
LINE
  5
BE
330
1F
100
AcDbEntity
  8
0
  6
Continuous
 62
     7
370
    25
100
AcDbLine
 10
13.9477911
 20
-10.8175922
 30
0.0
 11
13.8387764
 21
-10.9314183
 31
0.0
  0
LINE
  5
BF
330
1F
100
AcDbEntity
  8
0
  6
Continuous
 62
     7
370
    25
100
AcDbLine
 10
13.8387764
 20
-10.9314183
 30
0.0
 11
13.6658919
 21
-11.1443421
 31
0.0
  0
LINE
  5
C0
330
1F
100
AcDbEntity
  8
0
  6
Continuous
 62
     7
370
    25
100
AcDbLine
 10
13.6658919
 20
-11.1443421
 30
0.0
 11
13.5597847
 21
-11.2924702
 31
0.0
  0
LINE
  5
C1
330
1F
100
AcDbEntity
  8
0
  6
Continuous
 62
     7
370
    25
100
AcDbLine
 10
13.5597847
 20
-11.2924702
 30
0.0
 11
13.4449421
 21
-11.4677729
 31
0.0
  0
LINE
  5
C2
330
1F
100
AcDbEntity
  8
0
  6
Continuous
 62
     7
370
    25
100
AcDbLine
 10
13.4449421
 20
-11.4677729
 30
0.0
 11
13.3212322
 21
-11.6749686
 31
0.0
  0
LINE
  5
C3
330
1F
100
AcDbEntity
  8
0
  6
Continuous
 62
     7
370
    25
100
AcDbLine
 10
13.3212322
 20
-11.6749686
 30
0.0
 11
13.1914397
 21
-11.9146917
 31
0.0
  0
LINE
  5
C4
330
1F
100
AcDbEntity
  8
0
  6
Continuous
 62
     7
370
    25
100
AcDbLine
 10
13.1914397
 20
-11.9146917
 30
0.0
 11
13.0596162
 21
-12.1846415
 31
0.0
  0
LINE
  5
C5
330
1F
100
AcDbEntity
  8
0
  6
Continuous
 62
     7
370
    25
100
AcDbLine
 10
13.0596162
 20
-12.1846415
 30
0.0
 11
12.9275171
 21
-12.4865708
 31
0.0
  0
LINE
  5
C6
330
1F
100
AcDbEntity
  8
0
  6
Continuous
 62
     7
370
    25
100
AcDbLine
 10
12.9275171
 20
-12.4865708
 30
0.0
 11
12.7971134
 21
-12.8221376
 31
0.0
  0
LINE
  5
C7
330
1F
100
AcDbEntity
  8
0
  6
Continuous
 62
     7
370
    25
100
AcDbLine
 10
12.7971134
 20
-12.8221376
 30
0.0
 11
12.6716859
 21
-13.1897498
 31
0.0
  0
LINE
  5
C8
330
1F
100
AcDbEntity
  8
0
  6
Continuous
 62
     7
370
    25
100
AcDbLine
 10
12.6716859
 20
-13.1897498
 30
0.0
 11
12.5642996
 21
-13.5517326
 31
0.0
  0
ARC
  5
C9
330
1F
100
AcDbEntity
  8
0
  6
Continuous
 62
     7
370
    25
100
AcDbCircle
 10
27.000019607
 20
0.000019607
 30
0.0
 40
19.8
100
AcDbArc
 50
223.1909479981
 51
226.8090520019
  0
LINE
  5
CA
330
1F
100
AcDbEntity
  8
0
  6
Continuous
 62
     7
370
    25
100
AcDbLine
 10
13.4482674
 20
-14.4357004
 30
0.0
 11
13.8102502
 21
-14.3283141
 31
0.0
  0
LINE
  5
CB
330
1F
100
AcDbEntity
  8
0
  6
Continuous
 62
     7
370
    25
100
AcDbLine
 10
13.8102502
 20
-14.3283141
 30
0.0
 11
14.1778624
 21
-14.2028866
 31
0.0
  0
LINE
  5
CC
330
1F
100
AcDbEntity
  8
0
  6
Continuous
 62
     7
370
    25
100
AcDbLine
 10
14.1778624
 20
-14.2028866
 30
0.0
 11
14.5134292
 21
-14.0724829
 31
0.0
  0
LINE
  5
CD
330
1F
100
AcDbEntity
  8
0
  6
Continuous
 62
     7
370
    25
100
AcDbLine
 10
14.5134292
 20
-14.0724829
 30
0.0
 11
14.8153585
 21
-13.9403838
 31
0.0
  0
LINE
  5
CE
330
1F
100
AcDbEntity
  8
0
  6
Continuous
 62
     7
370
    25
100
AcDbLine
 10
14.8153585
 20
-13.9403838
 30
0.0
 11
15.0853083
 21
-13.8085603
 31
0.0
  0
LINE
  5
CF
330
1F
100
AcDbEntity
  8
0
  6
Continuous
 62
     7
370
    25
100
AcDbLine
 10
15.0853083
 20
-13.8085603
 30
0.0
 11
15.3250314
 21
-13.6787678
 31
0.0
  0
LINE
  5
D0
330
1F
100
AcDbEntity
  8
0
  6
Continuous
 62
     7
370
    25
100
AcDbLine
 10
15.3250314
 20
-13.6787678
 30
0.0
 11
15.5322271
 21
-13.5550579
 31
0.0
  0
LINE
  5
D1
330
1F
100
AcDbEntity
  8
0
  6
Continuous
 62
     7
370
    25
100
AcDbLine
 10
15.5322271
 20
-13.5550579
 30
0.0
 11
15.7075298
 21
-13.4402153
 31
0.0
  0
LINE
  5
D2
330
1F
100
AcDbEntity
  8
0
  6
Continuous
 62
     7
370
    25
100
AcDbLine
 10
15.7075298
 20
-13.4402153
 30
0.0
 11
15.8556579
 21
-13.3341081
 31
0.0
  0
LINE
  5
D3
330
1F
100
AcDbEntity
  8
0
  6
Continuous
 62
     7
370
    25
100
AcDbLine
 10
15.8556579
 20
-13.3341081
 30
0.0
 11
16.0685817
 21
-13.1612236
 31
0.0
  0
LINE
  5
D4
330
1F
100
AcDbEntity
  8
0
  6
Continuous
 62
     7
370
    25
100
AcDbLine
 10
16.0685817
 20
-13.1612236
 30
0.0
 11
16.1824078
 21
-13.0522089
 31
0.0
  0
LINE
  5
D5
330
1F
100
AcDbEntity
  8
0
  6
Continuous
 62
     7
370
    25
100
AcDbLine
 10
16.1824078
 20
-13.0522089
 30
0.0
 11
16.2550225
 21
-12.9746356
 31
0.0
  0
LINE
  5
D6
330
1F
100
AcDbEntity
  8
0
  6
Continuous
 62
     7
370
    25
100
AcDbLine
 10
16.2550225
 20
-12.9746356
 30
0.0
 11
16.4016633
 21
-12.8378935
 31
0.0
  0
LINE
  5
D7
330
1F
100
AcDbEntity
  8
0
  6
Continuous
 62
     7
370
    25
100
AcDbLine
 10
16.4016633
 20
-12.8378935
 30
0.0
 11
16.5397128
 21
-12.7356378
 31
0.0
  0
LINE
  5
D8
330
1F
100
AcDbEntity
  8
0
  6
Continuous
 62
     7
370
    25
100
AcDbLine
 10
16.5397128
 20
-12.7356378
 30
0.0
 11
16.6046896
 21
-12.6971249
 31
0.0
  0
LINE
  5
D9
330
1F
100
AcDbEntity
  8
0
  6
Continuous
 62
     7
370
    25
100
AcDbLine
 10
16.6046896
 20
-12.6971249
 30
0.0
 11
16.6665589
 21
-12.6668361
 31
0.0
  0
LINE
  5
DA
330
1F
100
AcDbEntity
  8
0
  6
Continuous
 62
     7
370
    25
100
AcDbLine
 10
16.6665589
 20
-12.6668361
 30
0.0
 11
16.7249905
 21
-12.6446305
 31
0.0
  0
LINE
  5
DB
330
1F
100
AcDbEntity
  8
0
  6
Continuous
 62
     7
370
    25
100
AcDbLine
 10
16.7249905
 20
-12.6446305
 30
0.0
 11
16.7796719
 21
-12.6303427
 31
0.0
  0
LINE
  5
DC
330
1F
100
AcDbEntity
  8
0
  6
Continuous
 62
     7
370
    25
100
AcDbLine
 10
16.7796719
 20
-12.6303427
 30
0.0
 11
16.8303103
 21
-12.6237971
 31
0.0
  0
LINE
  5
DD
330
1F
100
AcDbEntity
  8
0
  6
Continuous
 62
     7
370
    25
100
AcDbLine
 10
16.8303103
 20
-12.6237971
 30
0.0
 11
16.8765992
 21
-12.6248205
 31
0.0
  0
LINE
  5
DE
330
1F
100
AcDbEntity
  8
0
  6
Continuous
 62
     7
370
    25
100
AcDbLine
 10
16.8765992
 20
-12.6248205
 30
0.0
 11
16.9182517
 21
-12.6332291
 31
0.0
  0
LINE
  5
DF
330
1F
100
AcDbEntity
  8
0
  6
Continuous
 62
     7
370
    25
100
AcDbLine
 10
16.9182517
 20
-12.6332291
 30
0.0
 11
16.9549846
 21
-12.6488172
 31
0.0
  0
LINE
  5
E0
330
1F
100
AcDbEntity
  8
0
  6
Continuous
 62
     7
370
    25
100
AcDbLine
 10
16.9549846
 20
-12.6488172
 30
0.0
 11
16.9791346
 21
-12.6651024
 31
0.0
  0
LINE
  5
E1
330
1F
100
AcDbEntity
  8
0
  6
Continuous
 62
     7
370
    25
100
AcDbLine
 10
16.9791346
 20
-12.6651024
 30
0.0
 11
17.2024824
 21
-12.8387336
 31
0.0
  0
LINE
  5
E2
330
1F
100
AcDbEntity
  8
0
  6
Continuous
 62
     7
370
    25
100
AcDbLine
 10
17.2024824
 20
-12.8387336
 30
0.0
 11
17.5072682
 21
-13.0656245
 31
0.0
  0
LINE
  5
E3
330
1F
100
AcDbEntity
  8
0
  6
Continuous
 62
     7
370
    25
100
AcDbLine
 10
17.5072682
 20
-13.0656245
 30
0.0
 11
17.8172382
 21
-13.2853798
 31
0.0
  0
LINE
  5
E4
330
1F
100
AcDbEntity
  8
0
  6
Continuous
 62
     7
370
    25
100
AcDbLine
 10
17.8172382
 20
-13.2853798
 30
0.0
 11
18.0513895
 21
-13.4441412
 31
0.0
  0
LINE
  5
E5
330
1F
100
AcDbEntity
  8
0
  6
Continuous
 62
     7
370
    25
100
AcDbLine
 10
18.0513895
 20
-13.4441412
 30
0.0
 11
18.0743405
 21
-13.4620769
 31
0.0
  0
LINE
  5
E6
330
1F
100
AcDbEntity
  8
0
  6
Continuous
 62
     7
370
    25
100
AcDbLine
 10
18.0743405
 20
-13.4620769
 30
0.0
 11
18.1005167
 21
-13.4921949
 31
0.0
  0
LINE
  5
E7
330
1F
100
AcDbEntity
  8
0
  6
Continuous
 62
     7
370
    25
100
AcDbLine
 10
18.1005167
 20
-13.4921949
 30
0.0
 11
18.1213851
 21
-13.5292104
 31
0.0
  0
LINE
  5
E8
330
1F
100
AcDbEntity
  8
0
  6
Continuous
 62
     7
370
    25
100
AcDbLine
 10
18.1213851
 20
-13.5292104
 30
0.0
 11
18.1366624
 21
-13.5729175
 31
0.0
  0
LINE
  5
E9
330
1F
100
AcDbEntity
  8
0
  6
Continuous
 62
     7
370
    25
100
AcDbLine
 10
18.1366624
 20
-13.5729175
 30
0.0
 11
18.1460854
 21
-13.6231002
 31
0.0
  0
LINE
  5
EA
330
1F
100
AcDbEntity
  8
0
  6
Continuous
 62
     7
370
    25
100
AcDbLine
 10
18.1460854
 20
-13.6231002
 30
0.0
 11
18.1493943
 21
-13.6795205
 31
0.0
  0
LINE
  5
EB
330
1F
100
AcDbEntity
  8
0
  6
Continuous
 62
     7
370
    25
100
AcDbLine
 10
18.1493943
 20
-13.6795205
 30
0.0
 11
18.1463319
 21
-13.7419541
 31
0.0
  0
LINE
  5
EC
330
1F
100
AcDbEntity
  8
0
  6
Continuous
 62
     7
370
    25
100
AcDbLine
 10
18.1463319
 20
-13.7419541
 30
0.0
 11
18.1366442
 21
-13.8101551
 31
0.0
  0
LINE
  5
ED
330
1F
100
AcDbEntity
  8
0
  6
Continuous
 62
     7
370
    25
100
AcDbLine
 10
18.1366442
 20
-13.8101551
 30
0.0
 11
18.1200951
 21
-13.8838528
 31
0.0
  0
LINE
  5
EE
330
1F
100
AcDbEntity
  8
0
  6
Continuous
 62
     7
370
    25
100
AcDbLine
 10
18.1200951
 20
-13.8838528
 30
0.0
 11
18.0655039
 21
-14.0467444
 31
0.0
  0
LINE
  5
EF
330
1F
100
AcDbEntity
  8
0
  6
Continuous
 62
     7
370
    25
100
AcDbLine
 10
18.0655039
 20
-14.0467444
 30
0.0
 11
17.980769
 21
-14.2284638
 31
0.0
  0
LINE
  5
F0
330
1F
100
AcDbEntity
  8
0
  6
Continuous
 62
     7
370
    25
100
AcDbLine
 10
17.980769
 20
-14.2284638
 30
0.0
 11
17.9294315
 21
-14.3214959
 31
0.0
  0
LINE
  5
F1
330
1F
100
AcDbEntity
  8
0
  6
Continuous
 62
     7
370
    25
100
AcDbLine
 10
17.9294315
 20
-14.3214959
 30
0.0
 11
17.8609265
 21
-14.4634383
 31
0.0
  0
LINE
  5
F2
330
1F
100
AcDbEntity
  8
0
  6
Continuous
 62
     7
370
    25
100
AcDbLine
 10
17.8609265
 20
-14.4634383
 30
0.0
 11
17.7623007
 21
-14.7193652
 31
0.0
  0
LINE
  5
F3
330
1F
100
AcDbEntity
  8
0
  6
Continuous
 62
     7
370
    25
100
AcDbLine
 10
17.7623007
 20
-14.7193652
 30
0.0
 11
17.7071609
 21
-14.8930323
 31
0.0
  0
LINE
  5
F4
330
1F
100
AcDbEntity
  8
0
  6
Continuous
 62
     7
370
    25
100
AcDbLine
 10
17.7071609
 20
-14.8930323
 30
0.0
 11
17.6521105
 21
-15.0952434
 31
0.0
  0
LINE
  5
F5
330
1F
100
AcDbEntity
  8
0
  6
Continuous
 62
     7
370
    25
100
AcDbLine
 10
17.6521105
 20
-15.0952434
 30
0.0
 11
17.5984824
 21
-15.3305267
 31
0.0
  0
LINE
  5
F6
330
1F
100
AcDbEntity
  8
0
  6
Continuous
 62
     7
370
    25
100
AcDbLine
 10
17.5984824
 20
-15.3305267
 30
0.0
 11
17.549121
 21
-15.598625
 31
0.0
  0
LINE
  5
F7
330
1F
100
AcDbEntity
  8
0
  6
Continuous
 62
     7
370
    25
100
AcDbLine
 10
17.549121
 20
-15.598625
 30
0.0
 11
17.5071684
 21
-15.8960982
 31
0.0
  0
LINE
  5
F8
330
1F
100
AcDbEntity
  8
0
  6
Continuous
 62
     7
370
    25
100
AcDbLine
 10
17.5071684
 20
-15.8960982
 30
0.0
 11
17.474836
 21
-16.2240709
 31
0.0
  0
LINE
  5
F9
330
1F
100
AcDbEntity
  8
0
  6
Continuous
 62
     7
370
    25
100
AcDbLine
 10
17.474836
 20
-16.2240709
 30
0.0
 11
17.4545106
 21
-16.5835109
 31
0.0
  0
LINE
  5
FA
330
1F
100
AcDbEntity
  8
0
  6
Continuous
 62
     7
370
    25
100
AcDbLine
 10
17.4545106
 20
-16.5835109
 30
0.0
 11
17.4488203
 21
-16.97189
 31
0.0
  0
LINE
  5
FB
330
1F
100
AcDbEntity
  8
0
  6
Continuous
 62
     7
370
    25
100
AcDbLine
 10
17.4488203
 20
-16.97189
 30
0.0
 11
17.4585487071
 21
-17.3493405736
 31
0.0
  0
ARC
  5
FC
330
1F
100
AcDbEntity
  8
0
  6
Continuous
 62
     7
370
    25
100
AcDbCircle
 10
27.0000053224
 20
0.0000272743
 30
0.0
 40
19.79999896628504
100
AcDbArc
 50
241.1909702272
 51
244.8090747023
  0
LINE
  5
FD
330
1F
100
AcDbEntity
  8
0
  6
Continuous
 62
     7
370
    25
100
AcDbLine
 10
18.5724134255
 20
-17.9168824449
 30
0.0
 11
18.8834951
 21
-17.7028933
 31
0.0
  0
LINE
  5
FE
330
1F
100
AcDbEntity
  8
0
  6
Continuous
 62
     7
370
    25
100
AcDbLine
 10
18.8834951
 20
-17.7028933
 30
0.0
 11
19.1943558
 21
-17.4700062
 31
0.0
  0
LINE
  5
FF
330
1F
100
AcDbEntity
  8
0
  6
Continuous
 62
     7
370
    25
100
AcDbLine
 10
19.1943558
 20
-17.4700062
 30
0.0
 11
19.4732019
 21
-17.2422892
 31
0.0
  0
LINE
  5
100
330
1F
100
AcDbEntity
  8
0
  6
Continuous
 62
     7
370
    25
100
AcDbLine
 10
19.4732019
 20
-17.2422892
 30
0.0
 11
19.7195328
 21
-17.0233542
 31
0.0
  0
LINE
  5
101
330
1F
100
AcDbEntity
  8
0
  6
Continuous
 62
     7
370
    25
100
AcDbLine
 10
19.7195328
 20
-17.0233542
 30
0.0
 11
19.9355346
 21
-16.8145634
 31
0.0
  0
LINE
  5
102
330
1F
100
AcDbEntity
  8
0
  6
Continuous
 62
     7
370
    25
100
AcDbLine
 10
19.9355346
 20
-16.8145634
 30
0.0
 11
20.1234168
 21
-16.617045
 31
0.0
  0
LINE
  5
103
330
1F
100
AcDbEntity
  8
0
  6
Continuous
 62
     7
370
    25
100
AcDbLine
 10
20.1234168
 20
-16.617045
 30
0.0
 11
20.2822431
 21
-16.4353629
 31
0.0
  0
LINE
  5
104
330
1F
100
AcDbEntity
  8
0
  6
Continuous
 62
     7
370
    25
100
AcDbLine
 10
20.2822431
 20
-16.4353629
 30
0.0
 11
20.4134775
 21
-16.2719695
 31
0.0
  0
LINE
  5
105
330
1F
100
AcDbEntity
  8
0
  6
Continuous
 62
     7
370
    25
100
AcDbLine
 10
20.4134775
 20
-16.2719695
 30
0.0
 11
20.5215669
 21
-16.1252815
 31
0.0
  0
LINE
  5
106
330
1F
100
AcDbEntity
  8
0
  6
Continuous
 62
     7
370
    25
100
AcDbLine
 10
20.5215669
 20
-16.1252815
 30
0.0
 11
20.6706452
 21
-15.8950615
 31
0.0
  0
LINE
  5
107
330
1F
100
AcDbEntity
  8
0
  6
Continuous
 62
     7
370
    25
100
AcDbLine
 10
20.6706452
 20
-15.8950615
 30
0.0
 11
20.7452128
 21
-15.7562082
 31
0.0
  0
LINE
  5
108
330
1F
100
AcDbEntity
  8
0
  6
Continuous
 62
     7
370
    25
100
AcDbLine
 10
20.7452128
 20
-15.7562082
 30
0.0
 11
20.790302
 21
-15.6599924
 31
0.0
  0
LINE
  5
109
330
1F
100
AcDbEntity
  8
0
  6
Continuous
 62
     7
370
    25
100
AcDbLine
 10
20.790302
 20
-15.6599924
 30
0.0
 11
20.8875101
 21
-15.4846284
 31
0.0
  0
LINE
  5
10A
330
1F
100
AcDbEntity
  8
0
  6
Continuous
 62
     7
370
    25
100
AcDbLine
 10
20.8875101
 20
-15.4846284
 30
0.0
 11
20.9872042
 21
-15.3447179
 31
0.0
  0
LINE
  5
10B
330
1F
100
AcDbEntity
  8
0
  6
Continuous
 62
     7
370
    25
100
AcDbLine
 10
20.9872042
 20
-15.3447179
 30
0.0
 11
21.0370997
 21
-15.288011
 31
0.0
  0
LINE
  5
10C
330
1F
100
AcDbEntity
  8
0
  6
Continuous
 62
     7
370
    25
100
AcDbLine
 10
21.0370997
 20
-15.288011
 30
0.0
 11
21.0865811
 21
-15.240086
 31
0.0
  0
LINE
  5
10D
330
1F
100
AcDbEntity
  8
0
  6
Continuous
 62
     7
370
    25
100
AcDbLine
 10
21.0865811
 20
-15.240086
 30
0.0
 11
21.135291
 21
-15.2009108
 31
0.0
  0
LINE
  5
10E
330
1F
100
AcDbEntity
  8
0
  6
Continuous
 62
     7
370
    25
100
AcDbLine
 10
21.135291
 20
-15.2009108
 30
0.0
 11
21.1828809
 21
-15.1704248
 31
0.0
  0
LINE
  5
10F
330
1F
100
AcDbEntity
  8
0
  6
Continuous
 62
     7
370
    25
100
AcDbLine
 10
21.1828809
 20
-15.1704248
 30
0.0
 11
21.2290182
 21
-15.1485514
 31
0.0
  0
LINE
  5
110
330
1F
100
AcDbEntity
  8
0
  6
Continuous
 62
     7
370
    25
100
AcDbLine
 10
21.2290182
 20
-15.1485514
 30
0.0
 11
21.2733578
 21
-15.1352207
 31
0.0
  0
LINE
  5
111
330
1F
100
AcDbEntity
  8
0
  6
Continuous
 62
     7
370
    25
100
AcDbLine
 10
21.2733578
 20
-15.1352207
 30
0.0
 11
21.31557
 21
-15.1303464
 31
0.0
  0
LINE
  5
112
330
1F
100
AcDbEntity
  8
0
  6
Continuous
 62
     7
370
    25
100
AcDbLine
 10
21.31557
 20
-15.1303464
 30
0.0
 11
21.3553221
 21
-15.1338205
 31
0.0
  0
LINE
  5
113
330
1F
100
AcDbEntity
  8
0
  6
Continuous
 62
     7
370
    25
100
AcDbLine
 10
21.3553221
 20
-15.1338205
 30
0.0
 11
21.3833225
 21
-15.1418459
 31
0.0
  0
LINE
  5
114
330
1F
100
AcDbEntity
  8
0
  6
Continuous
 62
     7
370
    25
100
AcDbLine
 10
21.3833225
 20
-15.1418459
 30
0.0
 11
21.6493939
 21
-15.2379607
 31
0.0
  0
LINE
  5
115
330
1F
100
AcDbEntity
  8
0
  6
Continuous
 62
     7
370
    25
100
AcDbLine
 10
21.6493939
 20
-15.2379607
 30
0.0
 11
22.0093755
 21
-15.3595627
 31
0.0
  0
LINE
  5
116
330
1F
100
AcDbEntity
  8
0
  6
Continuous
 62
     7
370
    25
100
AcDbLine
 10
22.0093755
 20
-15.3595627
 30
0.0
 11
22.3720827
 21
-15.4727765
 31
0.0
  0
LINE
  5
117
330
1F
100
AcDbEntity
  8
0
  6
Continuous
 62
     7
370
    25
100
AcDbLine
 10
22.3720827
 20
-15.4727765
 30
0.0
 11
22.6438338
 21
-15.5514108
 31
0.0
  0
LINE
  5
118
330
1F
100
AcDbEntity
  8
0
  6
Continuous
 62
     7
370
    25
100
AcDbLine
 10
22.6438338
 20
-15.5514108
 30
0.0
 11
22.6712039
 21
-15.5613764
 31
0.0
  0
LINE
  5
119
330
1F
100
AcDbEntity
  8
0
  6
Continuous
 62
     7
370
    25
100
AcDbLine
 10
22.6712039
 20
-15.5613764
 30
0.0
 11
22.705406
 21
-15.5819315
 31
0.0
  0
LINE
  5
11A
330
1F
100
AcDbEntity
  8
0
  6
Continuous
 62
     7
370
    25
100
AcDbLine
 10
22.705406
 20
-15.5819315
 30
0.0
 11
22.7366914
 21
-15.6106866
 31
0.0
  0
LINE
  5
11B
330
1F
100
AcDbEntity
  8
0
  6
Continuous
 62
     7
370
    25
100
AcDbLine
 10
22.7366914
 20
-15.6106866
 30
0.0
 11
22.7647272
 21
-15.6475335
 31
0.0
  0
LINE
  5
11C
330
1F
100
AcDbEntity
  8
0
  6
Continuous
 62
     7
370
    25
100
AcDbLine
 10
22.7647272
 20
-15.6475335
 30
0.0
 11
22.7891963
 21
-15.6923483
 31
0.0
  0
LINE
  5
11D
330
1F
100
AcDbEntity
  8
0
  6
Continuous
 62
     7
370
    25
100
AcDbLine
 10
22.7891963
 20
-15.6923483
 30
0.0
 11
22.8097781
 21
-15.7449846
 31
0.0
  0
LINE
  5
11E
330
1F
100
AcDbEntity
  8
0
  6
Continuous
 62
     7
370
    25
100
AcDbLine
 10
22.8097781
 20
-15.7449846
 30
0.0
 11
22.8261586
 21
-15.805309
 31
0.0
  0
LINE
  5
11F
330
1F
100
AcDbEntity
  8
0
  6
Continuous
 62
     7
370
    25
100
AcDbLine
 10
22.8261586
 20
-15.805309
 30
0.0
 11
22.8380203
 21
-15.8731656
 31
0.0
  0
LINE
  5
120
330
1F
100
AcDbEntity
  8
0
  6
Continuous
 62
     7
370
    25
100
AcDbLine
 10
22.8380203
 20
-15.8731656
 30
0.0
 11
22.8450551
 21
-15.9483702
 31
0.0
  0
LINE
  5
121
330
1F
100
AcDbEntity
  8
0
  6
Continuous
 62
     7
370
    25
100
AcDbLine
 10
22.8450551
 20
-15.9483702
 30
0.0
 11
22.843472
 21
-16.1201589
 31
0.0
  0
LINE
  5
122
330
1F
100
AcDbEntity
  8
0
  6
Continuous
 62
     7
370
    25
100
AcDbLine
 10
22.843472
 20
-16.1201589
 30
0.0
 11
22.8190387
 21
-16.3191689
 31
0.0
  0
LINE
  5
123
330
1F
100
AcDbEntity
  8
0
  6
Continuous
 62
     7
370
    25
100
AcDbLine
 10
22.8190387
 20
-16.3191689
 30
0.0
 11
22.7989623
 21
-16.4235118
 31
0.0
  0
LINE
  5
124
330
1F
100
AcDbEntity
  8
0
  6
Continuous
 62
     7
370
    25
100
AcDbLine
 10
22.7989623
 20
-16.4235118
 30
0.0
 11
22.7776729
 21
-16.5796763
 31
0.0
  0
LINE
  5
125
330
1F
100
AcDbEntity
  8
0
  6
Continuous
 62
     7
370
    25
100
AcDbLine
 10
22.7776729
 20
-16.5796763
 30
0.0
 11
22.7629598
 21
-16.8535542
 31
0.0
  0
LINE
  5
126
330
1F
100
AcDbEntity
  8
0
  6
Continuous
 62
     7
370
    25
100
AcDbLine
 10
22.7629598
 20
-16.8535542
 30
0.0
 11
22.7641849
 21
-17.0357606
 31
0.0
  0
LINE
  5
127
330
1F
100
AcDbEntity
  8
0
  6
Continuous
 62
     7
370
    25
100
AcDbLine
 10
22.7641849
 20
-17.0357606
 30
0.0
 11
22.7743155
 21
-17.2450863
 31
0.0
  0
LINE
  5
128
330
1F
100
AcDbEntity
  8
0
  6
Continuous
 62
     7
370
    25
100
AcDbLine
 10
22.7743155
 20
-17.2450863
 30
0.0
 11
22.7960187
 21
-17.485426
 31
0.0
  0
LINE
  5
129
330
1F
100
AcDbEntity
  8
0
  6
Continuous
 62
     7
370
    25
100
AcDbLine
 10
22.7960187
 20
-17.485426
 30
0.0
 11
22.8319202
 21
-17.7556562
 31
0.0
  0
LINE
  5
12A
330
1F
100
AcDbEntity
  8
0
  6
Continuous
 62
     7
370
    25
100
AcDbLine
 10
22.8319202
 20
-17.7556562
 30
0.0
 11
22.8839451
 21
-18.0515341
 31
0.0
  0
LINE
  5
12B
330
1F
100
AcDbEntity
  8
0
  6
Continuous
 62
     7
370
    25
100
AcDbLine
 10
22.8839451
 20
-18.0515341
 30
0.0
 11
22.9545443
 21
-18.3734459
 31
0.0
  0
LINE
  5
12C
330
1F
100
AcDbEntity
  8
0
  6
Continuous
 62
     7
370
    25
100
AcDbLine
 10
22.9545443
 20
-18.3734459
 30
0.0
 11
23.0462868
 21
-18.7215745
 31
0.0
  0
LINE
  5
12D
330
1F
100
AcDbEntity
  8
0
  6
Continuous
 62
     7
370
    25
100
AcDbLine
 10
23.0462868
 20
-18.7215745
 30
0.0
 11
23.1608908
 21
-19.0927034
 31
0.0
  0
LINE
  5
12E
330
1F
100
AcDbEntity
  8
0
  6
Continuous
 62
     7
370
    25
100
AcDbLine
 10
23.1608908
 20
-19.0927034
 30
0.0
 11
23.2867816
 21
-19.4486737
 31
0.0
  0
ARC
  5
12F
330
1F
100
AcDbEntity
  8
0
  6
Continuous
 62
     7
370
    25
100
AcDbCircle
 10
27.0000053224
 20
0.0000272743
 30
0.0
 40
19.8
100
AcDbArc
 50
259.19094505
 51
262.809049057
  0
LINE
  5
130
330
1F
100
AcDbEntity
  8
0
  6
Continuous
 62
     7
370
    25
100
AcDbLine
 10
24.5215098
 20
-19.6442355
 30
0.0
 11
24.75124
 21
-19.34459
 31
0.0
  0
LINE
  5
131
330
1F
100
AcDbEntity
  8
0
  6
Continuous
 62
     7
370
    25
100
AcDbLine
 10
24.75124
 20
-19.34459
 30
0.0
 11
24.97492
 21
-19.02704
 31
0.0
  0
LINE
  5
132
330
1F
100
AcDbEntity
  8
0
  6
Continuous
 62
     7
370
    25
100
AcDbLine
 10
24.97492
 20
-19.02704
 30
0.0
 11
25.16975
 21
-18.7243
 31
0.0
  0
LINE
  5
133
330
1F
100
AcDbEntity
  8
0
  6
Continuous
 62
     7
370
    25
100
AcDbLine
 10
25.16975
 20
-18.7243
 30
0.0
 11
25.33637
 21
-18.43996
 31
0.0
  0
LINE
  5
134
330
1F
100
AcDbEntity
  8
0
  6
Continuous
 62
     7
370
    25
100
AcDbLine
 10
25.33637
 20
-18.43996
 30
0.0
 11
25.47728
 21
-18.17464
 31
0.0
  0
LINE
  5
135
330
1F
100
AcDbEntity
  8
0
  6
Continuous
 62
     7
370
    25
100
AcDbLine
 10
25.47728
 20
-18.17464
 30
0.0
 11
25.59493
 21
-17.92873
 31
0.0
  0
LINE
  5
136
330
1F
100
AcDbEntity
  8
0
  6
Continuous
 62
     7
370
    25
100
AcDbLine
 10
25.59493
 20
-17.92873
 30
0.0
 11
25.68984
 21
-17.70686
 31
0.0
  0
LINE
  5
137
330
1F
100
AcDbEntity
  8
0
  6
Continuous
 62
     7
370
    25
100
AcDbLine
 10
25.68984
 20
-17.70686
 30
0.0
 11
25.76416
 21
-17.51091
 31
0.0
  0
LINE
  5
138
330
1F
100
AcDbEntity
  8
0
  6
Continuous
 62
     7
370
    25
100
AcDbLine
 10
25.76416
 20
-17.51091
 30
0.0
 11
25.82163
 21
-17.338
 31
0.0
  0
LINE
  5
139
330
1F
100
AcDbEntity
  8
0
  6
Continuous
 62
     7
370
    25
100
AcDbLine
 10
25.82163
 20
-17.338
 30
0.0
 11
25.89227
 21
-17.07298
 31
0.0
  0
LINE
  5
13A
330
1F
100
AcDbEntity
  8
0
  6
Continuous
 62
     7
370
    25
100
AcDbLine
 10
25.89227
 20
-17.07298
 30
0.0
 11
25.92028
 21
-16.91788
 31
0.0
  0
LINE
  5
13B
330
1F
100
AcDbEntity
  8
0
  6
Continuous
 62
     7
370
    25
100
AcDbLine
 10
25.92028
 20
-16.91788
 30
0.0
 11
25.93343
 21
-16.81244
 31
0.0
  0
LINE
  5
13C
330
1F
100
AcDbEntity
  8
0
  6
Continuous
 62
     7
370
    25
100
AcDbLine
 10
25.93343
 20
-16.81244
 30
0.0
 11
25.97169
 21
-16.61562
 31
0.0
  0
LINE
  5
13D
330
1F
100
AcDbEntity
  8
0
  6
Continuous
 62
     7
370
    25
100
AcDbLine
 10
25.97169
 20
-16.61562
 30
0.0
 11
26.02327
 21
-16.45175
 31
0.0
  0
LINE
  5
13E
330
1F
100
AcDbEntity
  8
0
  6
Continuous
 62
     7
370
    25
100
AcDbLine
 10
26.02327
 20
-16.45175
 30
0.0
 11
26.0532
 21
-16.3824
 31
0.0
  0
LINE
  5
13F
330
1F
100
AcDbEntity
  8
0
  6
Continuous
 62
     7
370
    25
100
AcDbLine
 10
26.0532
 20
-16.3824
 30
0.0
 11
26.08545
 21
-16.32153
 31
0.0
  0
LINE
  5
140
330
1F
100
AcDbEntity
  8
0
  6
Continuous
 62
     7
370
    25
100
AcDbLine
 10
26.08545
 20
-16.32153
 30
0.0
 11
26.11967
 21
-16.26922
 31
0.0
  0
LINE
  5
141
330
1F
100
AcDbEntity
  8
0
  6
Continuous
 62
     7
370
    25
100
AcDbLine
 10
26.11967
 20
-16.26922
 30
0.0
 11
26.15551
 21
-16.22552
 31
0.0
  0
LINE
  5
142
330
1F
100
AcDbEntity
  8
0
  6
Continuous
 62
     7
370
    25
100
AcDbLine
 10
26.15551
 20
-16.22552
 30
0.0
 11
26.19263
 21
-16.19046
 31
0.0
  0
LINE
  5
143
330
1F
100
AcDbEntity
  8
0
  6
Continuous
 62
     7
370
    25
100
AcDbLine
 10
26.19263
 20
-16.19046
 30
0.0
 11
26.23068
 21
-16.16408
 31
0.0
  0
LINE
  5
144
330
1F
100
AcDbEntity
  8
0
  6
Continuous
 62
     7
370
    25
100
AcDbLine
 10
26.23068
 20
-16.16408
 30
0.0
 11
26.26932
 21
-16.1464
 31
0.0
  0
LINE
  5
145
330
1F
100
AcDbEntity
  8
0
  6
Continuous
 62
     7
370
    25
100
AcDbLine
 10
26.26932
 20
-16.1464
 30
0.0
 11
26.3082
 21
-16.13742
 31
0.0
  0
LINE
  5
146
330
1F
100
AcDbEntity
  8
0
  6
Continuous
 62
     7
370
    25
100
AcDbLine
 10
26.3082
 20
-16.13742
 30
0.0
 11
26.33731
 21
-16.1364
 31
0.0
  0
LINE
  5
147
330
1F
100
AcDbEntity
  8
0
  6
Continuous
 62
     7
370
    25
100
AcDbLine
 10
26.33731
 20
-16.1364
 30
0.0
 11
26.62006
 21
-16.14559
 31
0.0
  0
LINE
  5
148
330
1F
100
AcDbEntity
  8
0
  6
Continuous
 62
     7
370
    25
100
AcDbLine
 10
26.62006
 20
-16.14559
 30
0.0
 11
27.0
 21
-16.15
 31
0.0
  0
LINE
  5
149
330
1F
100
AcDbEntity
  8
0
  6
Continuous
 62
     7
370
    25
100
AcDbLine
 10
27.0
 20
-16.15
 30
0.0
 11
27.37994
 21
-16.14559
 31
0.0
  0
LINE
  5
14A
330
1F
100
AcDbEntity
  8
0
  6
Continuous
 62
     7
370
    25
100
AcDbLine
 10
27.37994
 20
-16.14559
 30
0.0
 11
27.66269
 21
-16.1364
 31
0.0
  0
LINE
  5
14B
330
1F
100
AcDbEntity
  8
0
  6
Continuous
 62
     7
370
    25
100
AcDbLine
 10
27.66269
 20
-16.1364
 30
0.0
 11
27.6918
 21
-16.13742
 31
0.0
  0
LINE
  5
14C
330
1F
100
AcDbEntity
  8
0
  6
Continuous
 62
     7
370
    25
100
AcDbLine
 10
27.6918
 20
-16.13742
 30
0.0
 11
27.73068
 21
-16.1464
 31
0.0
  0
LINE
  5
14D
330
1F
100
AcDbEntity
  8
0
  6
Continuous
 62
     7
370
    25
100
AcDbLine
 10
27.73068
 20
-16.1464
 30
0.0
 11
27.76932
 21
-16.16408
 31
0.0
  0
LINE
  5
14E
330
1F
100
AcDbEntity
  8
0
  6
Continuous
 62
     7
370
    25
100
AcDbLine
 10
27.76932
 20
-16.16408
 30
0.0
 11
27.80737
 21
-16.19046
 31
0.0
  0
LINE
  5
14F
330
1F
100
AcDbEntity
  8
0
  6
Continuous
 62
     7
370
    25
100
AcDbLine
 10
27.80737
 20
-16.19046
 30
0.0
 11
27.84449
 21
-16.22552
 31
0.0
  0
LINE
  5
150
330
1F
100
AcDbEntity
  8
0
  6
Continuous
 62
     7
370
    25
100
AcDbLine
 10
27.84449
 20
-16.22552
 30
0.0
 11
27.88033
 21
-16.26922
 31
0.0
  0
LINE
  5
151
330
1F
100
AcDbEntity
  8
0
  6
Continuous
 62
     7
370
    25
100
AcDbLine
 10
27.88033
 20
-16.26922
 30
0.0
 11
27.91455
 21
-16.32153
 31
0.0
  0
LINE
  5
152
330
1F
100
AcDbEntity
  8
0
  6
Continuous
 62
     7
370
    25
100
AcDbLine
 10
27.91455
 20
-16.32153
 30
0.0
 11
27.9468
 21
-16.3824
 31
0.0
  0
LINE
  5
153
330
1F
100
AcDbEntity
  8
0
  6
Continuous
 62
     7
370
    25
100
AcDbLine
 10
27.9468
 20
-16.3824
 30
0.0
 11
27.97673
 21
-16.45175
 31
0.0
  0
LINE
  5
154
330
1F
100
AcDbEntity
  8
0
  6
Continuous
 62
     7
370
    25
100
AcDbLine
 10
27.97673
 20
-16.45175
 30
0.0
 11
28.02831
 21
-16.61562
 31
0.0
  0
LINE
  5
155
330
1F
100
AcDbEntity
  8
0
  6
Continuous
 62
     7
370
    25
100
AcDbLine
 10
28.02831
 20
-16.61562
 30
0.0
 11
28.06657
 21
-16.81244
 31
0.0
  0
LINE
  5
156
330
1F
100
AcDbEntity
  8
0
  6
Continuous
 62
     7
370
    25
100
AcDbLine
 10
28.06657
 20
-16.81244
 30
0.0
 11
28.07972
 21
-16.91788
 31
0.0
  0
LINE
  5
157
330
1F
100
AcDbEntity
  8
0
  6
Continuous
 62
     7
370
    25
100
AcDbLine
 10
28.07972
 20
-16.91788
 30
0.0
 11
28.10773
 21
-17.07298
 31
0.0
  0
LINE
  5
158
330
1F
100
AcDbEntity
  8
0
  6
Continuous
 62
     7
370
    25
100
AcDbLine
 10
28.10773
 20
-17.07298
 30
0.0
 11
28.17837
 21
-17.338
 31
0.0
  0
LINE
  5
159
330
1F
100
AcDbEntity
  8
0
  6
Continuous
 62
     7
370
    25
100
AcDbLine
 10
28.17837
 20
-17.338
 30
0.0
 11
28.23584
 21
-17.51091
 31
0.0
  0
LINE
  5
15A
330
1F
100
AcDbEntity
  8
0
  6
Continuous
 62
     7
370
    25
100
AcDbLine
 10
28.23584
 20
-17.51091
 30
0.0
 11
28.31016
 21
-17.70686
 31
0.0
  0
LINE
  5
15B
330
1F
100
AcDbEntity
  8
0
  6
Continuous
 62
     7
370
    25
100
AcDbLine
 10
28.31016
 20
-17.70686
 30
0.0
 11
28.40507
 21
-17.92873
 31
0.0
  0
LINE
  5
15C
330
1F
100
AcDbEntity
  8
0
  6
Continuous
 62
     7
370
    25
100
AcDbLine
 10
28.40507
 20
-17.92873
 30
0.0
 11
28.52272
 21
-18.17464
 31
0.0
  0
LINE
  5
15D
330
1F
100
AcDbEntity
  8
0
  6
Continuous
 62
     7
370
    25
100
AcDbLine
 10
28.52272
 20
-18.17464
 30
0.0
 11
28.66363
 21
-18.43996
 31
0.0
  0
LINE
  5
15E
330
1F
100
AcDbEntity
  8
0
  6
Continuous
 62
     7
370
    25
100
AcDbLine
 10
28.66363
 20
-18.43996
 30
0.0
 11
28.83025
 21
-18.7243
 31
0.0
  0
LINE
  5
15F
330
1F
100
AcDbEntity
  8
0
  6
Continuous
 62
     7
370
    25
100
AcDbLine
 10
28.83025
 20
-18.7243
 30
0.0
 11
29.02508
 21
-19.02704
 31
0.0
  0
LINE
  5
160
330
1F
100
AcDbEntity
  8
0
  6
Continuous
 62
     7
370
    25
100
AcDbLine
 10
29.02508
 20
-19.02704
 30
0.0
 11
29.24876
 21
-19.34459
 31
0.0
  0
LINE
  5
161
330
1F
100
AcDbEntity
  8
0
  6
Continuous
 62
     7
370
    25
100
AcDbLine
 10
29.24876
 20
-19.34459
 30
0.0
 11
29.4784902
 21
-19.6442355
 31
0.0
  0
ARC
  5
162
330
1F
100
AcDbEntity
  8
0
  6
Continuous
 62
     7
370
    25
100
AcDbCircle
 10
26.9999946776
 20
0.0000272743
 30
0.0
 40
19.8
100
AcDbArc
 50
277.190950943
 51
280.80905495
  0
LINE
  5
163
330
1F
100
AcDbEntity
  8
0
  6
Continuous
 62
     7
370
    25
100
AcDbLine
 10
30.7132184
 20
-19.4486737
 30
0.0
 11
30.8391092
 21
-19.0927034
 31
0.0
  0
LINE
  5
164
330
1F
100
AcDbEntity
  8
0
  6
Continuous
 62
     7
370
    25
100
AcDbLine
 10
30.8391092
 20
-19.0927034
 30
0.0
 11
30.9537132
 21
-18.7215745
 31
0.0
  0
LINE
  5
165
330
1F
100
AcDbEntity
  8
0
  6
Continuous
 62
     7
370
    25
100
AcDbLine
 10
30.9537132
 20
-18.7215745
 30
0.0
 11
31.0454557
 21
-18.3734459
 31
0.0
  0
LINE
  5
166
330
1F
100
AcDbEntity
  8
0
  6
Continuous
 62
     7
370
    25
100
AcDbLine
 10
31.0454557
 20
-18.3734459
 30
0.0
 11
31.1160549
 21
-18.0515341
 31
0.0
  0
LINE
  5
167
330
1F
100
AcDbEntity
  8
0
  6
Continuous
 62
     7
370
    25
100
AcDbLine
 10
31.1160549
 20
-18.0515341
 30
0.0
 11
31.1680798
 21
-17.7556562
 31
0.0
  0
LINE
  5
168
330
1F
100
AcDbEntity
  8
0
  6
Continuous
 62
     7
370
    25
100
AcDbLine
 10
31.1680798
 20
-17.7556562
 30
0.0
 11
31.2039813
 21
-17.485426
 31
0.0
  0
LINE
  5
169
330
1F
100
AcDbEntity
  8
0
  6
Continuous
 62
     7
370
    25
100
AcDbLine
 10
31.2039813
 20
-17.485426
 30
0.0
 11
31.2256845
 21
-17.2450863
 31
0.0
  0
LINE
  5
16A
330
1F
100
AcDbEntity
  8
0
  6
Continuous
 62
     7
370
    25
100
AcDbLine
 10
31.2256845
 20
-17.2450863
 30
0.0
 11
31.2358151
 21
-17.0357606
 31
0.0
  0
LINE
  5
16B
330
1F
100
AcDbEntity
  8
0
  6
Continuous
 62
     7
370
    25
100
AcDbLine
 10
31.2358151
 20
-17.0357606
 30
0.0
 11
31.2370402
 21
-16.8535542
 31
0.0
  0
LINE
  5
16C
330
1F
100
AcDbEntity
  8
0
  6
Continuous
 62
     7
370
    25
100
AcDbLine
 10
31.2370402
 20
-16.8535542
 30
0.0
 11
31.2223271
 21
-16.5796763
 31
0.0
  0
LINE
  5
16D
330
1F
100
AcDbEntity
  8
0
  6
Continuous
 62
     7
370
    25
100
AcDbLine
 10
31.2223271
 20
-16.5796763
 30
0.0
 11
31.2010377
 21
-16.4235118
 31
0.0
  0
LINE
  5
16E
330
1F
100
AcDbEntity
  8
0
  6
Continuous
 62
     7
370
    25
100
AcDbLine
 10
31.2010377
 20
-16.4235118
 30
0.0
 11
31.1809613
 21
-16.3191689
 31
0.0
  0
LINE
  5
16F
330
1F
100
AcDbEntity
  8
0
  6
Continuous
 62
     7
370
    25
100
AcDbLine
 10
31.1809613
 20
-16.3191689
 30
0.0
 11
31.156528
 21
-16.1201589
 31
0.0
  0
LINE
  5
170
330
1F
100
AcDbEntity
  8
0
  6
Continuous
 62
     7
370
    25
100
AcDbLine
 10
31.156528
 20
-16.1201589
 30
0.0
 11
31.1549449
 21
-15.9483702
 31
0.0
  0
LINE
  5
171
330
1F
100
AcDbEntity
  8
0
  6
Continuous
 62
     7
370
    25
100
AcDbLine
 10
31.1549449
 20
-15.9483702
 30
0.0
 11
31.1619797
 21
-15.8731656
 31
0.0
  0
LINE
  5
172
330
1F
100
AcDbEntity
  8
0
  6
Continuous
 62
     7
370
    25
100
AcDbLine
 10
31.1619797
 20
-15.8731656
 30
0.0
 11
31.1738414
 21
-15.805309
 31
0.0
  0
LINE
  5
173
330
1F
100
AcDbEntity
  8
0
  6
Continuous
 62
     7
370
    25
100
AcDbLine
 10
31.1738414
 20
-15.805309
 30
0.0
 11
31.1902219
 21
-15.7449846
 31
0.0
  0
LINE
  5
174
330
1F
100
AcDbEntity
  8
0
  6
Continuous
 62
     7
370
    25
100
AcDbLine
 10
31.1902219
 20
-15.7449846
 30
0.0
 11
31.2108037
 21
-15.6923483
 31
0.0
  0
LINE
  5
175
330
1F
100
AcDbEntity
  8
0
  6
Continuous
 62
     7
370
    25
100
AcDbLine
 10
31.2108037
 20
-15.6923483
 30
0.0
 11
31.2352728
 21
-15.6475335
 31
0.0
  0
LINE
  5
176
330
1F
100
AcDbEntity
  8
0
  6
Continuous
 62
     7
370
    25
100
AcDbLine
 10
31.2352728
 20
-15.6475335
 30
0.0
 11
31.2633086
 21
-15.6106866
 31
0.0
  0
LINE
  5
177
330
1F
100
AcDbEntity
  8
0
  6
Continuous
 62
     7
370
    25
100
AcDbLine
 10
31.2633086
 20
-15.6106866
 30
0.0
 11
31.294594
 21
-15.5819315
 31
0.0
  0
LINE
  5
178
330
1F
100
AcDbEntity
  8
0
  6
Continuous
 62
     7
370
    25
100
AcDbLine
 10
31.294594
 20
-15.5819315
 30
0.0
 11
31.3287961
 21
-15.5613764
 31
0.0
  0
LINE
  5
179
330
1F
100
AcDbEntity
  8
0
  6
Continuous
 62
     7
370
    25
100
AcDbLine
 10
31.3287961
 20
-15.5613764
 30
0.0
 11
31.3561662
 21
-15.5514108
 31
0.0
  0
LINE
  5
17A
330
1F
100
AcDbEntity
  8
0
  6
Continuous
 62
     7
370
    25
100
AcDbLine
 10
31.3561662
 20
-15.5514108
 30
0.0
 11
31.6279173
 21
-15.4727765
 31
0.0
  0
LINE
  5
17B
330
1F
100
AcDbEntity
  8
0
  6
Continuous
 62
     7
370
    25
100
AcDbLine
 10
31.6279173
 20
-15.4727765
 30
0.0
 11
31.9906245
 21
-15.3595627
 31
0.0
  0
LINE
  5
17C
330
1F
100
AcDbEntity
  8
0
  6
Continuous
 62
     7
370
    25
100
AcDbLine
 10
31.9906245
 20
-15.3595627
 30
0.0
 11
32.3506061
 21
-15.2379607
 31
0.0
  0
LINE
  5
17D
330
1F
100
AcDbEntity
  8
0
  6
Continuous
 62
     7
370
    25
100
AcDbLine
 10
32.3506061
 20
-15.2379607
 30
0.0
 11
32.6166775
 21
-15.1418459
 31
0.0
  0
LINE
  5
17E
330
1F
100
AcDbEntity
  8
0
  6
Continuous
 62
     7
370
    25
100
AcDbLine
 10
32.6166775
 20
-15.1418459
 30
0.0
 11
32.6446779
 21
-15.1338205
 31
0.0
  0
LINE
  5
17F
330
1F
100
AcDbEntity
  8
0
  6
Continuous
 62
     7
370
    25
100
AcDbLine
 10
32.6446779
 20
-15.1338205
 30
0.0
 11
32.68443
 21
-15.1303464
 31
0.0
  0
LINE
  5
180
330
1F
100
AcDbEntity
  8
0
  6
Continuous
 62
     7
370
    25
100
AcDbLine
 10
32.68443
 20
-15.1303464
 30
0.0
 11
32.7266422
 21
-15.1352207
 31
0.0
  0
LINE
  5
181
330
1F
100
AcDbEntity
  8
0
  6
Continuous
 62
     7
370
    25
100
AcDbLine
 10
32.7266422
 20
-15.1352207
 30
0.0
 11
32.7709818
 21
-15.1485514
 31
0.0
  0
LINE
  5
182
330
1F
100
AcDbEntity
  8
0
  6
Continuous
 62
     7
370
    25
100
AcDbLine
 10
32.7709818
 20
-15.1485514
 30
0.0
 11
32.8171191
 21
-15.1704248
 31
0.0
  0
LINE
  5
183
330
1F
100
AcDbEntity
  8
0
  6
Continuous
 62
     7
370
    25
100
AcDbLine
 10
32.8171191
 20
-15.1704248
 30
0.0
 11
32.864709
 21
-15.2009108
 31
0.0
  0
LINE
  5
184
330
1F
100
AcDbEntity
  8
0
  6
Continuous
 62
     7
370
    25
100
AcDbLine
 10
32.864709
 20
-15.2009108
 30
0.0
 11
32.9134189
 21
-15.240086
 31
0.0
  0
LINE
  5
185
330
1F
100
AcDbEntity
  8
0
  6
Continuous
 62
     7
370
    25
100
AcDbLine
 10
32.9134189
 20
-15.240086
 30
0.0
 11
32.9629003
 21
-15.288011
 31
0.0
  0
LINE
  5
186
330
1F
100
AcDbEntity
  8
0
  6
Continuous
 62
     7
370
    25
100
AcDbLine
 10
32.9629003
 20
-15.288011
 30
0.0
 11
33.0127958
 21
-15.3447179
 31
0.0
  0
LINE
  5
187
330
1F
100
AcDbEntity
  8
0
  6
Continuous
 62
     7
370
    25
100
AcDbLine
 10
33.0127958
 20
-15.3447179
 30
0.0
 11
33.1124899
 21
-15.4846284
 31
0.0
  0
LINE
  5
188
330
1F
100
AcDbEntity
  8
0
  6
Continuous
 62
     7
370
    25
100
AcDbLine
 10
33.1124899
 20
-15.4846284
 30
0.0
 11
33.209698
 21
-15.6599924
 31
0.0
  0
LINE
  5
189
330
1F
100
AcDbEntity
  8
0
  6
Continuous
 62
     7
370
    25
100
AcDbLine
 10
33.209698
 20
-15.6599924
 30
0.0
 11
33.2547872
 21
-15.7562082
 31
0.0
  0
LINE
  5
18A
330
1F
100
AcDbEntity
  8
0
  6
Continuous
 62
     7
370
    25
100
AcDbLine
 10
33.2547872
 20
-15.7562082
 30
0.0
 11
33.3293548
 21
-15.8950615
 31
0.0
  0
LINE
  5
18B
330
1F
100
AcDbEntity
  8
0
  6
Continuous
 62
     7
370
    25
100
AcDbLine
 10
33.3293548
 20
-15.8950615
 30
0.0
 11
33.4784331
 21
-16.1252815
 31
0.0
  0
LINE
  5
18C
330
1F
100
AcDbEntity
  8
0
  6
Continuous
 62
     7
370
    25
100
AcDbLine
 10
33.4784331
 20
-16.1252815
 30
0.0
 11
33.5865225
 21
-16.2719695
 31
0.0
  0
LINE
  5
18D
330
1F
100
AcDbEntity
  8
0
  6
Continuous
 62
     7
370
    25
100
AcDbLine
 10
33.5865225
 20
-16.2719695
 30
0.0
 11
33.7177569
 21
-16.4353629
 31
0.0
  0
LINE
  5
18E
330
1F
100
AcDbEntity
  8
0
  6
Continuous
 62
     7
370
    25
100
AcDbLine
 10
33.7177569
 20
-16.4353629
 30
0.0
 11
33.8765832
 21
-16.617045
 31
0.0
  0
LINE
  5
18F
330
1F
100
AcDbEntity
  8
0
  6
Continuous
 62
     7
370
    25
100
AcDbLine
 10
33.8765832
 20
-16.617045
 30
0.0
 11
34.0644654
 21
-16.8145634
 31
0.0
  0
LINE
  5
190
330
1F
100
AcDbEntity
  8
0
  6
Continuous
 62
     7
370
    25
100
AcDbLine
 10
34.0644654
 20
-16.8145634
 30
0.0
 11
34.2804672
 21
-17.0233542
 31
0.0
  0
LINE
  5
191
330
1F
100
AcDbEntity
  8
0
  6
Continuous
 62
     7
370
    25
100
AcDbLine
 10
34.2804672
 20
-17.0233542
 30
0.0
 11
34.5267981
 21
-17.2422892
 31
0.0
  0
LINE
  5
192
330
1F
100
AcDbEntity
  8
0
  6
Continuous
 62
     7
370
    25
100
AcDbLine
 10
34.5267981
 20
-17.2422892
 30
0.0
 11
34.8056442
 21
-17.4700062
 31
0.0
  0
LINE
  5
193
330
1F
100
AcDbEntity
  8
0
  6
Continuous
 62
     7
370
    25
100
AcDbLine
 10
34.8056442
 20
-17.4700062
 30
0.0
 11
35.1165049
 21
-17.7028933
 31
0.0
  0
LINE
  5
194
330
1F
100
AcDbEntity
  8
0
  6
Continuous
 62
     7
370
    25
100
AcDbLine
 10
35.1165049
 20
-17.7028933
 30
0.0
 11
35.4275870627
 21
-17.9168827807
 31
0.0
  0
ARC
  5
195
330
1F
100
AcDbEntity
  8
0
  6
Continuous
 62
     7
370
    25
100
AcDbCircle
 10
26.999980393
 20
0.000019607
 30
0.0
 40
19.79999861991711
100
AcDbArc
 50
295.1909730105
 51
298.8090775489
  0
LINE
  5
196
330
1F
100
AcDbEntity
  8
0
  6
Continuous
 62
     7
370
    25
100
AcDbLine
 10
36.5414513082
 20
-17.3493399813
 30
0.0
 11
36.5511797
 21
-16.97189
 31
0.0
  0
LINE
  5
197
330
1F
100
AcDbEntity
  8
0
  6
Continuous
 62
     7
370
    25
100
AcDbLine
 10
36.5511797
 20
-16.97189
 30
0.0
 11
36.5454894
 21
-16.5835109
 31
0.0
  0
LINE
  5
198
330
1F
100
AcDbEntity
  8
0
  6
Continuous
 62
     7
370
    25
100
AcDbLine
 10
36.5454894
 20
-16.5835109
 30
0.0
 11
36.525164
 21
-16.2240709
 31
0.0
  0
LINE
  5
199
330
1F
100
AcDbEntity
  8
0
  6
Continuous
 62
     7
370
    25
100
AcDbLine
 10
36.525164
 20
-16.2240709
 30
0.0
 11
36.4928316
 21
-15.8960982
 31
0.0
  0
LINE
  5
19A
330
1F
100
AcDbEntity
  8
0
  6
Continuous
 62
     7
370
    25
100
AcDbLine
 10
36.4928316
 20
-15.8960982
 30
0.0
 11
36.450879
 21
-15.598625
 31
0.0
  0
LINE
  5
19B
330
1F
100
AcDbEntity
  8
0
  6
Continuous
 62
     7
370
    25
100
AcDbLine
 10
36.450879
 20
-15.598625
 30
0.0
 11
36.4015176
 21
-15.3305267
 31
0.0
  0
LINE
  5
19C
330
1F
100
AcDbEntity
  8
0
  6
Continuous
 62
     7
370
    25
100
AcDbLine
 10
36.4015176
 20
-15.3305267
 30
0.0
 11
36.3478895
 21
-15.0952434
 31
0.0
  0
LINE
  5
19D
330
1F
100
AcDbEntity
  8
0
  6
Continuous
 62
     7
370
    25
100
AcDbLine
 10
36.3478895
 20
-15.0952434
 30
0.0
 11
36.2928391
 21
-14.8930323
 31
0.0
  0
LINE
  5
19E
330
1F
100
AcDbEntity
  8
0
  6
Continuous
 62
     7
370
    25
100
AcDbLine
 10
36.2928391
 20
-14.8930323
 30
0.0
 11
36.2376993
 21
-14.7193652
 31
0.0
  0
LINE
  5
19F
330
1F
100
AcDbEntity
  8
0
  6
Continuous
 62
     7
370
    25
100
AcDbLine
 10
36.2376993
 20
-14.7193652
 30
0.0
 11
36.1390735
 21
-14.4634383
 31
0.0
  0
LINE
  5
1A0
330
1F
100
AcDbEntity
  8
0
  6
Continuous
 62
     7
370
    25
100
AcDbLine
 10
36.1390735
 20
-14.4634383
 30
0.0
 11
36.0705685
 21
-14.3214959
 31
0.0
  0
LINE
  5
1A1
330
1F
100
AcDbEntity
  8
0
  6
Continuous
 62
     7
370
    25
100
AcDbLine
 10
36.0705685
 20
-14.3214959
 30
0.0
 11
36.019231
 21
-14.2284638
 31
0.0
  0
LINE
  5
1A2
330
1F
100
AcDbEntity
  8
0
  6
Continuous
 62
     7
370
    25
100
AcDbLine
 10
36.019231
 20
-14.2284638
 30
0.0
 11
35.9344961
 21
-14.0467444
 31
0.0
  0
LINE
  5
1A3
330
1F
100
AcDbEntity
  8
0
  6
Continuous
 62
     7
370
    25
100
AcDbLine
 10
35.9344961
 20
-14.0467444
 30
0.0
 11
35.8799049
 21
-13.8838528
 31
0.0
  0
LINE
  5
1A4
330
1F
100
AcDbEntity
  8
0
  6
Continuous
 62
     7
370
    25
100
AcDbLine
 10
35.8799049
 20
-13.8838528
 30
0.0
 11
35.8633558
 21
-13.8101551
 31
0.0
  0
LINE
  5
1A5
330
1F
100
AcDbEntity
  8
0
  6
Continuous
 62
     7
370
    25
100
AcDbLine
 10
35.8633558
 20
-13.8101551
 30
0.0
 11
35.8536681
 21
-13.7419541
 31
0.0
  0
LINE
  5
1A6
330
1F
100
AcDbEntity
  8
0
  6
Continuous
 62
     7
370
    25
100
AcDbLine
 10
35.8536681
 20
-13.7419541
 30
0.0
 11
35.8506057
 21
-13.6795205
 31
0.0
  0
LINE
  5
1A7
330
1F
100
AcDbEntity
  8
0
  6
Continuous
 62
     7
370
    25
100
AcDbLine
 10
35.8506057
 20
-13.6795205
 30
0.0
 11
35.8539146
 21
-13.6231002
 31
0.0
  0
LINE
  5
1A8
330
1F
100
AcDbEntity
  8
0
  6
Continuous
 62
     7
370
    25
100
AcDbLine
 10
35.8539146
 20
-13.6231002
 30
0.0
 11
35.8633376
 21
-13.5729175
 31
0.0
  0
LINE
  5
1A9
330
1F
100
AcDbEntity
  8
0
  6
Continuous
 62
     7
370
    25
100
AcDbLine
 10
35.8633376
 20
-13.5729175
 30
0.0
 11
35.8786149
 21
-13.5292104
 31
0.0
  0
LINE
  5
1AA
330
1F
100
AcDbEntity
  8
0
  6
Continuous
 62
     7
370
    25
100
AcDbLine
 10
35.8786149
 20
-13.5292104
 30
0.0
 11
35.8994833
 21
-13.4921949
 31
0.0
  0
LINE
  5
1AB
330
1F
100
AcDbEntity
  8
0
  6
Continuous
 62
     7
370
    25
100
AcDbLine
 10
35.8994833
 20
-13.4921949
 30
0.0
 11
35.9256595
 21
-13.4620769
 31
0.0
  0
LINE
  5
1AC
330
1F
100
AcDbEntity
  8
0
  6
Continuous
 62
     7
370
    25
100
AcDbLine
 10
35.9256595
 20
-13.4620769
 30
0.0
 11
35.9486105
 21
-13.4441412
 31
0.0
  0
LINE
  5
1AD
330
1F
100
AcDbEntity
  8
0
  6
Continuous
 62
     7
370
    25
100
AcDbLine
 10
35.9486105
 20
-13.4441412
 30
0.0
 11
36.1827618
 21
-13.2853798
 31
0.0
  0
LINE
  5
1AE
330
1F
100
AcDbEntity
  8
0
  6
Continuous
 62
     7
370
    25
100
AcDbLine
 10
36.1827618
 20
-13.2853798
 30
0.0
 11
36.4927318
 21
-13.0656245
 31
0.0
  0
LINE
  5
1AF
330
1F
100
AcDbEntity
  8
0
  6
Continuous
 62
     7
370
    25
100
AcDbLine
 10
36.4927318
 20
-13.0656245
 30
0.0
 11
36.7975176
 21
-12.8387336
 31
0.0
  0
LINE
  5
1B0
330
1F
100
AcDbEntity
  8
0
  6
Continuous
 62
     7
370
    25
100
AcDbLine
 10
36.7975176
 20
-12.8387336
 30
0.0
 11
37.0208654
 21
-12.6651024
 31
0.0
  0
LINE
  5
1B1
330
1F
100
AcDbEntity
  8
0
  6
Continuous
 62
     7
370
    25
100
AcDbLine
 10
37.0208654
 20
-12.6651024
 30
0.0
 11
37.0450154
 21
-12.6488172
 31
0.0
  0
LINE
  5
1B2
330
1F
100
AcDbEntity
  8
0
  6
Continuous
 62
     7
370
    25
100
AcDbLine
 10
37.0450154
 20
-12.6488172
 30
0.0
 11
37.0817483
 21
-12.6332291
 31
0.0
  0
LINE
  5
1B3
330
1F
100
AcDbEntity
  8
0
  6
Continuous
 62
     7
370
    25
100
AcDbLine
 10
37.0817483
 20
-12.6332291
 30
0.0
 11
37.1234008
 21
-12.6248205
 31
0.0
  0
LINE
  5
1B4
330
1F
100
AcDbEntity
  8
0
  6
Continuous
 62
     7
370
    25
100
AcDbLine
 10
37.1234008
 20
-12.6248205
 30
0.0
 11
37.1696897
 21
-12.6237971
 31
0.0
  0
LINE
  5
1B5
330
1F
100
AcDbEntity
  8
0
  6
Continuous
 62
     7
370
    25
100
AcDbLine
 10
37.1696897
 20
-12.6237971
 30
0.0
 11
37.2203281
 21
-12.6303427
 31
0.0
  0
LINE
  5
1B6
330
1F
100
AcDbEntity
  8
0
  6
Continuous
 62
     7
370
    25
100
AcDbLine
 10
37.2203281
 20
-12.6303427
 30
0.0
 11
37.2750095
 21
-12.6446305
 31
0.0
  0
LINE
  5
1B7
330
1F
100
AcDbEntity
  8
0
  6
Continuous
 62
     7
370
    25
100
AcDbLine
 10
37.2750095
 20
-12.6446305
 30
0.0
 11
37.3334411
 21
-12.6668361
 31
0.0
  0
LINE
  5
1B8
330
1F
100
AcDbEntity
  8
0
  6
Continuous
 62
     7
370
    25
100
AcDbLine
 10
37.3334411
 20
-12.6668361
 30
0.0
 11
37.3953104
 21
-12.6971249
 31
0.0
  0
LINE
  5
1B9
330
1F
100
AcDbEntity
  8
0
  6
Continuous
 62
     7
370
    25
100
AcDbLine
 10
37.3953104
 20
-12.6971249
 30
0.0
 11
37.4602872
 21
-12.7356378
 31
0.0
  0
LINE
  5
1BA
330
1F
100
AcDbEntity
  8
0
  6
Continuous
 62
     7
370
    25
100
AcDbLine
 10
37.4602872
 20
-12.7356378
 30
0.0
 11
37.5983367
 21
-12.8378935
 31
0.0
  0
LINE
  5
1BB
330
1F
100
AcDbEntity
  8
0
  6
Continuous
 62
     7
370
    25
100
AcDbLine
 10
37.5983367
 20
-12.8378935
 30
0.0
 11
37.7449775
 21
-12.9746356
 31
0.0
  0
LINE
  5
1BC
330
1F
100
AcDbEntity
  8
0
  6
Continuous
 62
     7
370
    25
100
AcDbLine
 10
37.7449775
 20
-12.9746356
 30
0.0
 11
37.8175922
 21
-13.0522089
 31
0.0
  0
LINE
  5
1BD
330
1F
100
AcDbEntity
  8
0
  6
Continuous
 62
     7
370
    25
100
AcDbLine
 10
37.8175922
 20
-13.0522089
 30
0.0
 11
37.9314183
 21
-13.1612236
 31
0.0
  0
LINE
  5
1BE
330
1F
100
AcDbEntity
  8
0
  6
Continuous
 62
     7
370
    25
100
AcDbLine
 10
37.9314183
 20
-13.1612236
 30
0.0
 11
38.1443421
 21
-13.3341081
 31
0.0
  0
LINE
  5
1BF
330
1F
100
AcDbEntity
  8
0
  6
Continuous
 62
     7
370
    25
100
AcDbLine
 10
38.1443421
 20
-13.3341081
 30
0.0
 11
38.2924702
 21
-13.4402153
 31
0.0
  0
LINE
  5
1C0
330
1F
100
AcDbEntity
  8
0
  6
Continuous
 62
     7
370
    25
100
AcDbLine
 10
38.2924702
 20
-13.4402153
 30
0.0
 11
38.4677729
 21
-13.5550579
 31
0.0
  0
LINE
  5
1C1
330
1F
100
AcDbEntity
  8
0
  6
Continuous
 62
     7
370
    25
100
AcDbLine
 10
38.4677729
 20
-13.5550579
 30
0.0
 11
38.6749686
 21
-13.6787678
 31
0.0
  0
LINE
  5
1C2
330
1F
100
AcDbEntity
  8
0
  6
Continuous
 62
     7
370
    25
100
AcDbLine
 10
38.6749686
 20
-13.6787678
 30
0.0
 11
38.9146917
 21
-13.8085603
 31
0.0
  0
LINE
  5
1C3
330
1F
100
AcDbEntity
  8
0
  6
Continuous
 62
     7
370
    25
100
AcDbLine
 10
38.9146917
 20
-13.8085603
 30
0.0
 11
39.1846415
 21
-13.9403838
 31
0.0
  0
LINE
  5
1C4
330
1F
100
AcDbEntity
  8
0
  6
Continuous
 62
     7
370
    25
100
AcDbLine
 10
39.1846415
 20
-13.9403838
 30
0.0
 11
39.4865708
 21
-14.0724829
 31
0.0
  0
LINE
  5
1C5
330
1F
100
AcDbEntity
  8
0
  6
Continuous
 62
     7
370
    25
100
AcDbLine
 10
39.4865708
 20
-14.0724829
 30
0.0
 11
39.8221376
 21
-14.2028866
 31
0.0
  0
LINE
  5
1C6
330
1F
100
AcDbEntity
  8
0
  6
Continuous
 62
     7
370
    25
100
AcDbLine
 10
39.8221376
 20
-14.2028866
 30
0.0
 11
40.1897498
 21
-14.3283141
 31
0.0
  0
LINE
  5
1C7
330
1F
100
AcDbEntity
  8
0
  6
Continuous
 62
     7
370
    25
100
AcDbLine
 10
40.1897498
 20
-14.3283141
 30
0.0
 11
40.5517326
 21
-14.4357004
 31
0.0
  0
ARC
  5
1C8
330
1F
100
AcDbEntity
  8
0
  6
Continuous
 62
     7
370
    25
100
AcDbCircle
 10
26.999980393
 20
0.000019607
 30
0.0
 40
19.8
100
AcDbArc
 50
313.1909479981
 51
316.8090520019
  0
LINE
  5
1C9
330
1F
100
AcDbEntity
  8
0
  6
Continuous
 62
     7
370
    25
100
AcDbLine
 10
41.4357004
 20
-13.5517326
 30
0.0
 11
41.3283141
 21
-13.1897498
 31
0.0
  0
LINE
  5
1CA
330
1F
100
AcDbEntity
  8
0
  6
Continuous
 62
     7
370
    25
100
AcDbLine
 10
41.3283141
 20
-13.1897498
 30
0.0
 11
41.2028866
 21
-12.8221376
 31
0.0
  0
LINE
  5
1CB
330
1F
100
AcDbEntity
  8
0
  6
Continuous
 62
     7
370
    25
100
AcDbLine
 10
41.2028866
 20
-12.8221376
 30
0.0
 11
41.0724829
 21
-12.4865708
 31
0.0
  0
LINE
  5
1CC
330
1F
100
AcDbEntity
  8
0
  6
Continuous
 62
     7
370
    25
100
AcDbLine
 10
41.0724829
 20
-12.4865708
 30
0.0
 11
40.9403838
 21
-12.1846415
 31
0.0
  0
LINE
  5
1CD
330
1F
100
AcDbEntity
  8
0
  6
Continuous
 62
     7
370
    25
100
AcDbLine
 10
40.9403838
 20
-12.1846415
 30
0.0
 11
40.8085603
 21
-11.9146917
 31
0.0
  0
LINE
  5
1CE
330
1F
100
AcDbEntity
  8
0
  6
Continuous
 62
     7
370
    25
100
AcDbLine
 10
40.8085603
 20
-11.9146917
 30
0.0
 11
40.6787678
 21
-11.6749686
 31
0.0
  0
LINE
  5
1CF
330
1F
100
AcDbEntity
  8
0
  6
Continuous
 62
     7
370
    25
100
AcDbLine
 10
40.6787678
 20
-11.6749686
 30
0.0
 11
40.5550579
 21
-11.4677729
 31
0.0
  0
LINE
  5
1D0
330
1F
100
AcDbEntity
  8
0
  6
Continuous
 62
     7
370
    25
100
AcDbLine
 10
40.5550579
 20
-11.4677729
 30
0.0
 11
40.4402153
 21
-11.2924702
 31
0.0
  0
LINE
  5
1D1
330
1F
100
AcDbEntity
  8
0
  6
Continuous
 62
     7
370
    25
100
AcDbLine
 10
40.4402153
 20
-11.2924702
 30
0.0
 11
40.3341081
 21
-11.1443421
 31
0.0
  0
LINE
  5
1D2
330
1F
100
AcDbEntity
  8
0
  6
Continuous
 62
     7
370
    25
100
AcDbLine
 10
40.3341081
 20
-11.1443421
 30
0.0
 11
40.1612236
 21
-10.9314183
 31
0.0
  0
LINE
  5
1D3
330
1F
100
AcDbEntity
  8
0
  6
Continuous
 62
     7
370
    25
100
AcDbLine
 10
40.1612236
 20
-10.9314183
 30
0.0
 11
40.0522089
 21
-10.8175922
 31
0.0
  0
LINE
  5
1D4
330
1F
100
AcDbEntity
  8
0
  6
Continuous
 62
     7
370
    25
100
AcDbLine
 10
40.0522089
 20
-10.8175922
 30
0.0
 11
39.9746356
 21
-10.7449775
 31
0.0
  0
LINE
  5
1D5
330
1F
100
AcDbEntity
  8
0
  6
Continuous
 62
     7
370
    25
100
AcDbLine
 10
39.9746356
 20
-10.7449775
 30
0.0
 11
39.8378935
 21
-10.5983367
 31
0.0
  0
LINE
  5
1D6
330
1F
100
AcDbEntity
  8
0
  6
Continuous
 62
     7
370
    25
100
AcDbLine
 10
39.8378935
 20
-10.5983367
 30
0.0
 11
39.7356378
 21
-10.4602872
 31
0.0
  0
LINE
  5
1D7
330
1F
100
AcDbEntity
  8
0
  6
Continuous
 62
     7
370
    25
100
AcDbLine
 10
39.7356378
 20
-10.4602872
 30
0.0
 11
39.6971249
 21
-10.3953104
 31
0.0
  0
LINE
  5
1D8
330
1F
100
AcDbEntity
  8
0
  6
Continuous
 62
     7
370
    25
100
AcDbLine
 10
39.6971249
 20
-10.3953104
 30
0.0
 11
39.6668361
 21
-10.3334411
 31
0.0
  0
LINE
  5
1D9
330
1F
100
AcDbEntity
  8
0
  6
Continuous
 62
     7
370
    25
100
AcDbLine
 10
39.6668361
 20
-10.3334411
 30
0.0
 11
39.6446305
 21
-10.2750095
 31
0.0
  0
LINE
  5
1DA
330
1F
100
AcDbEntity
  8
0
  6
Continuous
 62
     7
370
    25
100
AcDbLine
 10
39.6446305
 20
-10.2750095
 30
0.0
 11
39.6303427
 21
-10.2203281
 31
0.0
  0
LINE
  5
1DB
330
1F
100
AcDbEntity
  8
0
  6
Continuous
 62
     7
370
    25
100
AcDbLine
 10
39.6303427
 20
-10.2203281
 30
0.0
 11
39.6237971
 21
-10.1696897
 31
0.0
  0
LINE
  5
1DC
330
1F
100
AcDbEntity
  8
0
  6
Continuous
 62
     7
370
    25
100
AcDbLine
 10
39.6237971
 20
-10.1696897
 30
0.0
 11
39.6248205
 21
-10.1234008
 31
0.0
  0
LINE
  5
1DD
330
1F
100
AcDbEntity
  8
0
  6
Continuous
 62
     7
370
    25
100
AcDbLine
 10
39.6248205
 20
-10.1234008
 30
0.0
 11
39.6332291
 21
-10.0817483
 31
0.0
  0
LINE
  5
1DE
330
1F
100
AcDbEntity
  8
0
  6
Continuous
 62
     7
370
    25
100
AcDbLine
 10
39.6332291
 20
-10.0817483
 30
0.0
 11
39.6488172
 21
-10.0450154
 31
0.0
  0
LINE
  5
1DF
330
1F
100
AcDbEntity
  8
0
  6
Continuous
 62
     7
370
    25
100
AcDbLine
 10
39.6488172
 20
-10.0450154
 30
0.0
 11
39.6651024
 21
-10.0208654
 31
0.0
  0
LINE
  5
1E0
330
1F
100
AcDbEntity
  8
0
  6
Continuous
 62
     7
370
    25
100
AcDbLine
 10
39.6651024
 20
-10.0208654
 30
0.0
 11
39.8387336
 21
-9.7975176
 31
0.0
  0
LINE
  5
1E1
330
1F
100
AcDbEntity
  8
0
  6
Continuous
 62
     7
370
    25
100
AcDbLine
 10
39.8387336
 20
-9.7975176
 30
0.0
 11
40.0656245
 21
-9.4927318
 31
0.0
  0
LINE
  5
1E2
330
1F
100
AcDbEntity
  8
0
  6
Continuous
 62
     7
370
    25
100
AcDbLine
 10
40.0656245
 20
-9.4927318
 30
0.0
 11
40.2853798
 21
-9.1827618
 31
0.0
  0
LINE
  5
1E3
330
1F
100
AcDbEntity
  8
0
  6
Continuous
 62
     7
370
    25
100
AcDbLine
 10
40.2853798
 20
-9.1827618
 30
0.0
 11
40.4441412
 21
-8.9486105
 31
0.0
  0
LINE
  5
1E4
330
1F
100
AcDbEntity
  8
0
  6
Continuous
 62
     7
370
    25
100
AcDbLine
 10
40.4441412
 20
-8.9486105
 30
0.0
 11
40.4620769
 21
-8.9256595
 31
0.0
  0
LINE
  5
1E5
330
1F
100
AcDbEntity
  8
0
  6
Continuous
 62
     7
370
    25
100
AcDbLine
 10
40.4620769
 20
-8.9256595
 30
0.0
 11
40.4921949
 21
-8.8994833
 31
0.0
  0
LINE
  5
1E6
330
1F
100
AcDbEntity
  8
0
  6
Continuous
 62
     7
370
    25
100
AcDbLine
 10
40.4921949
 20
-8.8994833
 30
0.0
 11
40.5292104
 21
-8.8786149
 31
0.0
  0
LINE
  5
1E7
330
1F
100
AcDbEntity
  8
0
  6
Continuous
 62
     7
370
    25
100
AcDbLine
 10
40.5292104
 20
-8.8786149
 30
0.0
 11
40.5729175
 21
-8.8633376
 31
0.0
  0
LINE
  5
1E8
330
1F
100
AcDbEntity
  8
0
  6
Continuous
 62
     7
370
    25
100
AcDbLine
 10
40.5729175
 20
-8.8633376
 30
0.0
 11
40.6231002
 21
-8.8539146
 31
0.0
  0
LINE
  5
1E9
330
1F
100
AcDbEntity
  8
0
  6
Continuous
 62
     7
370
    25
100
AcDbLine
 10
40.6231002
 20
-8.8539146
 30
0.0
 11
40.6795205
 21
-8.8506057
 31
0.0
  0
LINE
  5
1EA
330
1F
100
AcDbEntity
  8
0
  6
Continuous
 62
     7
370
    25
100
AcDbLine
 10
40.6795205
 20
-8.8506057
 30
0.0
 11
40.7419541
 21
-8.8536681
 31
0.0
  0
LINE
  5
1EB
330
1F
100
AcDbEntity
  8
0
  6
Continuous
 62
     7
370
    25
100
AcDbLine
 10
40.7419541
 20
-8.8536681
 30
0.0
 11
40.8101551
 21
-8.8633558
 31
0.0
  0
LINE
  5
1EC
330
1F
100
AcDbEntity
  8
0
  6
Continuous
 62
     7
370
    25
100
AcDbLine
 10
40.8101551
 20
-8.8633558
 30
0.0
 11
40.8838528
 21
-8.8799049
 31
0.0
  0
LINE
  5
1ED
330
1F
100
AcDbEntity
  8
0
  6
Continuous
 62
     7
370
    25
100
AcDbLine
 10
40.8838528
 20
-8.8799049
 30
0.0
 11
41.0467444
 21
-8.9344961
 31
0.0
  0
LINE
  5
1EE
330
1F
100
AcDbEntity
  8
0
  6
Continuous
 62
     7
370
    25
100
AcDbLine
 10
41.0467444
 20
-8.9344961
 30
0.0
 11
41.2284638
 21
-9.019231
 31
0.0
  0
LINE
  5
1EF
330
1F
100
AcDbEntity
  8
0
  6
Continuous
 62
     7
370
    25
100
AcDbLine
 10
41.2284638
 20
-9.019231
 30
0.0
 11
41.3214959
 21
-9.0705685
 31
0.0
  0
LINE
  5
1F0
330
1F
100
AcDbEntity
  8
0
  6
Continuous
 62
     7
370
    25
100
AcDbLine
 10
41.3214959
 20
-9.0705685
 30
0.0
 11
41.4634383
 21
-9.1390735
 31
0.0
  0
LINE
  5
1F1
330
1F
100
AcDbEntity
  8
0
  6
Continuous
 62
     7
370
    25
100
AcDbLine
 10
41.4634383
 20
-9.1390735
 30
0.0
 11
41.7193652
 21
-9.2376993
 31
0.0
  0
LINE
  5
1F2
330
1F
100
AcDbEntity
  8
0
  6
Continuous
 62
     7
370
    25
100
AcDbLine
 10
41.7193652
 20
-9.2376993
 30
0.0
 11
41.8930323
 21
-9.2928391
 31
0.0
  0
LINE
  5
1F3
330
1F
100
AcDbEntity
  8
0
  6
Continuous
 62
     7
370
    25
100
AcDbLine
 10
41.8930323
 20
-9.2928391
 30
0.0
 11
42.0952434
 21
-9.3478895
 31
0.0
  0
LINE
  5
1F4
330
1F
100
AcDbEntity
  8
0
  6
Continuous
 62
     7
370
    25
100
AcDbLine
 10
42.0952434
 20
-9.3478895
 30
0.0
 11
42.3305267
 21
-9.4015176
 31
0.0
  0
LINE
  5
1F5
330
1F
100
AcDbEntity
  8
0
  6
Continuous
 62
     7
370
    25
100
AcDbLine
 10
42.3305267
 20
-9.4015176
 30
0.0
 11
42.598625
 21
-9.450879
 31
0.0
  0
LINE
  5
1F6
330
1F
100
AcDbEntity
  8
0
  6
Continuous
 62
     7
370
    25
100
AcDbLine
 10
42.598625
 20
-9.450879
 30
0.0
 11
42.8960982
 21
-9.4928316
 31
0.0
  0
LINE
  5
1F7
330
1F
100
AcDbEntity
  8
0
  6
Continuous
 62
     7
370
    25
100
AcDbLine
 10
42.8960982
 20
-9.4928316
 30
0.0
 11
43.2240709
 21
-9.525164
 31
0.0
  0
LINE
  5
1F8
330
1F
100
AcDbEntity
  8
0
  6
Continuous
 62
     7
370
    25
100
AcDbLine
 10
43.2240709
 20
-9.525164
 30
0.0
 11
43.5835109
 21
-9.5454894
 31
0.0
  0
LINE
  5
1F9
330
1F
100
AcDbEntity
  8
0
  6
Continuous
 62
     7
370
    25
100
AcDbLine
 10
43.5835109
 20
-9.5454894
 30
0.0
 11
43.97189
 21
-9.5511797
 31
0.0
  0
LINE
  5
1FA
330
1F
100
AcDbEntity
  8
0
  6
Continuous
 62
     7
370
    25
100
AcDbLine
 10
43.97189
 20
-9.5511797
 30
0.0
 11
44.3493405736
 21
-9.5414512929
 31
0.0
  0
ARC
  5
1FB
330
1F
100
AcDbEntity
  8
0
  6
Continuous
 62
     7
370
    25
100
AcDbCircle
 10
26.9999727257
 20
0.0000053224
 30
0.0
 40
19.79999896628504
100
AcDbArc
 50
331.1909702272
 51
334.8090747023
  0
LINE
  5
1FC
330
1F
100
AcDbEntity
  8
0
  6
Continuous
 62
     7
370
    25
100
AcDbLine
 10
44.9168824449
 20
-8.4275865745
 30
0.0
 11
44.7028933
 21
-8.1165049
 31
0.0
  0
LINE
  5
1FD
330
1F
100
AcDbEntity
  8
0
  6
Continuous
 62
     7
370
    25
100
AcDbLine
 10
44.7028933
 20
-8.1165049
 30
0.0
 11
44.4700062
 21
-7.8056442
 31
0.0
  0
LINE
  5
1FE
330
1F
100
AcDbEntity
  8
0
  6
Continuous
 62
     7
370
    25
100
AcDbLine
 10
44.4700062
 20
-7.8056442
 30
0.0
 11
44.2422892
 21
-7.5267981
 31
0.0
  0
LINE
  5
1FF
330
1F
100
AcDbEntity
  8
0
  6
Continuous
 62
     7
370
    25
100
AcDbLine
 10
44.2422892
 20
-7.5267981
 30
0.0
 11
44.0233542
 21
-7.2804672
 31
0.0
  0
LINE
  5
200
330
1F
100
AcDbEntity
  8
0
  6
Continuous
 62
     7
370
    25
100
AcDbLine
 10
44.0233542
 20
-7.2804672
 30
0.0
 11
43.8145634
 21
-7.0644654
 31
0.0
  0
LINE
  5
201
330
1F
100
AcDbEntity
  8
0
  6
Continuous
 62
     7
370
    25
100
AcDbLine
 10
43.8145634
 20
-7.0644654
 30
0.0
 11
43.617045
 21
-6.8765832
 31
0.0
  0
LINE
  5
202
330
1F
100
AcDbEntity
  8
0
  6
Continuous
 62
     7
370
    25
100
AcDbLine
 10
43.617045
 20
-6.8765832
 30
0.0
 11
43.4353629
 21
-6.7177569
 31
0.0
  0
LINE
  5
203
330
1F
100
AcDbEntity
  8
0
  6
Continuous
 62
     7
370
    25
100
AcDbLine
 10
43.4353629
 20
-6.7177569
 30
0.0
 11
43.2719695
 21
-6.5865225
 31
0.0
  0
LINE
  5
204
330
1F
100
AcDbEntity
  8
0
  6
Continuous
 62
     7
370
    25
100
AcDbLine
 10
43.2719695
 20
-6.5865225
 30
0.0
 11
43.1252815
 21
-6.4784331
 31
0.0
  0
LINE
  5
205
330
1F
100
AcDbEntity
  8
0
  6
Continuous
 62
     7
370
    25
100
AcDbLine
 10
43.1252815
 20
-6.4784331
 30
0.0
 11
42.8950615
 21
-6.3293548
 31
0.0
  0
LINE
  5
206
330
1F
100
AcDbEntity
  8
0
  6
Continuous
 62
     7
370
    25
100
AcDbLine
 10
42.8950615
 20
-6.3293548
 30
0.0
 11
42.7562082
 21
-6.2547872
 31
0.0
  0
LINE
  5
207
330
1F
100
AcDbEntity
  8
0
  6
Continuous
 62
     7
370
    25
100
AcDbLine
 10
42.7562082
 20
-6.2547872
 30
0.0
 11
42.6599924
 21
-6.209698
 31
0.0
  0
LINE
  5
208
330
1F
100
AcDbEntity
  8
0
  6
Continuous
 62
     7
370
    25
100
AcDbLine
 10
42.6599924
 20
-6.209698
 30
0.0
 11
42.4846284
 21
-6.1124899
 31
0.0
  0
LINE
  5
209
330
1F
100
AcDbEntity
  8
0
  6
Continuous
 62
     7
370
    25
100
AcDbLine
 10
42.4846284
 20
-6.1124899
 30
0.0
 11
42.3447179
 21
-6.0127958
 31
0.0
  0
LINE
  5
20A
330
1F
100
AcDbEntity
  8
0
  6
Continuous
 62
     7
370
    25
100
AcDbLine
 10
42.3447179
 20
-6.0127958
 30
0.0
 11
42.288011
 21
-5.9629003
 31
0.0
  0
LINE
  5
20B
330
1F
100
AcDbEntity
  8
0
  6
Continuous
 62
     7
370
    25
100
AcDbLine
 10
42.288011
 20
-5.9629003
 30
0.0
 11
42.240086
 21
-5.9134189
 31
0.0
  0
LINE
  5
20C
330
1F
100
AcDbEntity
  8
0
  6
Continuous
 62
     7
370
    25
100
AcDbLine
 10
42.240086
 20
-5.9134189
 30
0.0
 11
42.2009108
 21
-5.864709
 31
0.0
  0
LINE
  5
20D
330
1F
100
AcDbEntity
  8
0
  6
Continuous
 62
     7
370
    25
100
AcDbLine
 10
42.2009108
 20
-5.864709
 30
0.0
 11
42.1704248
 21
-5.8171191
 31
0.0
  0
LINE
  5
20E
330
1F
100
AcDbEntity
  8
0
  6
Continuous
 62
     7
370
    25
100
AcDbLine
 10
42.1704248
 20
-5.8171191
 30
0.0
 11
42.1485514
 21
-5.7709818
 31
0.0
  0
LINE
  5
20F
330
1F
100
AcDbEntity
  8
0
  6
Continuous
 62
     7
370
    25
100
AcDbLine
 10
42.1485514
 20
-5.7709818
 30
0.0
 11
42.1352207
 21
-5.7266422
 31
0.0
  0
LINE
  5
210
330
1F
100
AcDbEntity
  8
0
  6
Continuous
 62
     7
370
    25
100
AcDbLine
 10
42.1352207
 20
-5.7266422
 30
0.0
 11
42.1303464
 21
-5.68443
 31
0.0
  0
LINE
  5
211
330
1F
100
AcDbEntity
  8
0
  6
Continuous
 62
     7
370
    25
100
AcDbLine
 10
42.1303464
 20
-5.68443
 30
0.0
 11
42.1338205
 21
-5.6446779
 31
0.0
  0
LINE
  5
212
330
1F
100
AcDbEntity
  8
0
  6
Continuous
 62
     7
370
    25
100
AcDbLine
 10
42.1338205
 20
-5.6446779
 30
0.0
 11
42.1418459
 21
-5.6166775
 31
0.0
  0
LINE
  5
213
330
1F
100
AcDbEntity
  8
0
  6
Continuous
 62
     7
370
    25
100
AcDbLine
 10
42.1418459
 20
-5.6166775
 30
0.0
 11
42.2379607
 21
-5.3506061
 31
0.0
  0
LINE
  5
214
330
1F
100
AcDbEntity
  8
0
  6
Continuous
 62
     7
370
    25
100
AcDbLine
 10
42.2379607
 20
-5.3506061
 30
0.0
 11
42.3595627
 21
-4.9906245
 31
0.0
  0
LINE
  5
215
330
1F
100
AcDbEntity
  8
0
  6
Continuous
 62
     7
370
    25
100
AcDbLine
 10
42.3595627
 20
-4.9906245
 30
0.0
 11
42.4727765
 21
-4.6279173
 31
0.0
  0
LINE
  5
216
330
1F
100
AcDbEntity
  8
0
  6
Continuous
 62
     7
370
    25
100
AcDbLine
 10
42.4727765
 20
-4.6279173
 30
0.0
 11
42.5514108
 21
-4.3561662
 31
0.0
  0
LINE
  5
217
330
1F
100
AcDbEntity
  8
0
  6
Continuous
 62
     7
370
    25
100
AcDbLine
 10
42.5514108
 20
-4.3561662
 30
0.0
 11
42.5613764
 21
-4.3287961
 31
0.0
  0
LINE
  5
218
330
1F
100
AcDbEntity
  8
0
  6
Continuous
 62
     7
370
    25
100
AcDbLine
 10
42.5613764
 20
-4.3287961
 30
0.0
 11
42.5819315
 21
-4.294594
 31
0.0
  0
LINE
  5
219
330
1F
100
AcDbEntity
  8
0
  6
Continuous
 62
     7
370
    25
100
AcDbLine
 10
42.5819315
 20
-4.294594
 30
0.0
 11
42.6106866
 21
-4.2633086
 31
0.0
  0
LINE
  5
21A
330
1F
100
AcDbEntity
  8
0
  6
Continuous
 62
     7
370
    25
100
AcDbLine
 10
42.6106866
 20
-4.2633086
 30
0.0
 11
42.6475335
 21
-4.2352728
 31
0.0
  0
LINE
  5
21B
330
1F
100
AcDbEntity
  8
0
  6
Continuous
 62
     7
370
    25
100
AcDbLine
 10
42.6475335
 20
-4.2352728
 30
0.0
 11
42.6923483
 21
-4.2108037
 31
0.0
  0
LINE
  5
21C
330
1F
100
AcDbEntity
  8
0
  6
Continuous
 62
     7
370
    25
100
AcDbLine
 10
42.6923483
 20
-4.2108037
 30
0.0
 11
42.7449846
 21
-4.1902219
 31
0.0
  0
LINE
  5
21D
330
1F
100
AcDbEntity
  8
0
  6
Continuous
 62
     7
370
    25
100
AcDbLine
 10
42.7449846
 20
-4.1902219
 30
0.0
 11
42.805309
 21
-4.1738414
 31
0.0
  0
LINE
  5
21E
330
1F
100
AcDbEntity
  8
0
  6
Continuous
 62
     7
370
    25
100
AcDbLine
 10
42.805309
 20
-4.1738414
 30
0.0
 11
42.8731656
 21
-4.1619797
 31
0.0
  0
LINE
  5
21F
330
1F
100
AcDbEntity
  8
0
  6
Continuous
 62
     7
370
    25
100
AcDbLine
 10
42.8731656
 20
-4.1619797
 30
0.0
 11
42.9483702
 21
-4.1549449
 31
0.0
  0
LINE
  5
220
330
1F
100
AcDbEntity
  8
0
  6
Continuous
 62
     7
370
    25
100
AcDbLine
 10
42.9483702
 20
-4.1549449
 30
0.0
 11
43.1201589
 21
-4.156528
 31
0.0
  0
LINE
  5
221
330
1F
100
AcDbEntity
  8
0
  6
Continuous
 62
     7
370
    25
100
AcDbLine
 10
43.1201589
 20
-4.156528
 30
0.0
 11
43.3191689
 21
-4.1809613
 31
0.0
  0
LINE
  5
222
330
1F
100
AcDbEntity
  8
0
  6
Continuous
 62
     7
370
    25
100
AcDbLine
 10
43.3191689
 20
-4.1809613
 30
0.0
 11
43.4235118
 21
-4.2010377
 31
0.0
  0
LINE
  5
223
330
1F
100
AcDbEntity
  8
0
  6
Continuous
 62
     7
370
    25
100
AcDbLine
 10
43.4235118
 20
-4.2010377
 30
0.0
 11
43.5796763
 21
-4.2223271
 31
0.0
  0
LINE
  5
224
330
1F
100
AcDbEntity
  8
0
  6
Continuous
 62
     7
370
    25
100
AcDbLine
 10
43.5796763
 20
-4.2223271
 30
0.0
 11
43.8535542
 21
-4.2370402
 31
0.0
  0
LINE
  5
225
330
1F
100
AcDbEntity
  8
0
  6
Continuous
 62
     7
370
    25
100
AcDbLine
 10
43.8535542
 20
-4.2370402
 30
0.0
 11
44.0357606
 21
-4.2358151
 31
0.0
  0
LINE
  5
226
330
1F
100
AcDbEntity
  8
0
  6
Continuous
 62
     7
370
    25
100
AcDbLine
 10
44.0357606
 20
-4.2358151
 30
0.0
 11
44.2450863
 21
-4.2256845
 31
0.0
  0
LINE
  5
227
330
1F
100
AcDbEntity
  8
0
  6
Continuous
 62
     7
370
    25
100
AcDbLine
 10
44.2450863
 20
-4.2256845
 30
0.0
 11
44.485426
 21
-4.2039813
 31
0.0
  0
LINE
  5
228
330
1F
100
AcDbEntity
  8
0
  6
Continuous
 62
     7
370
    25
100
AcDbLine
 10
44.485426
 20
-4.2039813
 30
0.0
 11
44.7556562
 21
-4.1680798
 31
0.0
  0
LINE
  5
229
330
1F
100
AcDbEntity
  8
0
  6
Continuous
 62
     7
370
    25
100
AcDbLine
 10
44.7556562
 20
-4.1680798
 30
0.0
 11
45.0515341
 21
-4.1160549
 31
0.0
  0
LINE
  5
22A
330
1F
100
AcDbEntity
  8
0
  6
Continuous
 62
     7
370
    25
100
AcDbLine
 10
45.0515341
 20
-4.1160549
 30
0.0
 11
45.3734459
 21
-4.0454557
 31
0.0
  0
LINE
  5
22B
330
1F
100
AcDbEntity
  8
0
  6
Continuous
 62
     7
370
    25
100
AcDbLine
 10
45.3734459
 20
-4.0454557
 30
0.0
 11
45.7215745
 21
-3.9537132
 31
0.0
  0
LINE
  5
22C
330
1F
100
AcDbEntity
  8
0
  6
Continuous
 62
     7
370
    25
100
AcDbLine
 10
45.7215745
 20
-3.9537132
 30
0.0
 11
46.0927034
 21
-3.8391092
 31
0.0
  0
LINE
  5
22D
330
1F
100
AcDbEntity
  8
0
  6
Continuous
 62
     7
370
    25
100
AcDbLine
 10
46.0927034
 20
-3.8391092
 30
0.0
 11
46.4486737
 21
-3.7132184
 31
0.0
  0
ARC
  5
22E
330
1F
100
AcDbEntity
  8
0
  6
Continuous
 62
     7
370
    25
100
AcDbCircle
 10
26.9999727257
 20
0.0000053224
 30
0.0
 40
19.8
100
AcDbArc
 50
349.19094505
 51
352.809049057
  0
LINE
  5
22F
330
1F
100
AcDbEntity
  8
0
  6
Continuous
 62
     7
370
    25
100
AcDbLine
 10
46.6442355
 20
-2.4784902
 30
0.0
 11
46.34459
 21
-2.24876
 31
0.0
  0
LINE
  5
230
330
1F
100
AcDbEntity
  8
0
  6
Continuous
 62
     7
370
    25
100
AcDbLine
 10
46.34459
 20
-2.24876
 30
0.0
 11
46.02704
 21
-2.02508
 31
0.0
  0
LINE
  5
231
330
1F
100
AcDbEntity
  8
0
  6
Continuous
 62
     7
370
    25
100
AcDbLine
 10
46.02704
 20
-2.02508
 30
0.0
 11
45.7243
 21
-1.83025
 31
0.0
  0
LINE
  5
232
330
1F
100
AcDbEntity
  8
0
  6
Continuous
 62
     7
370
    25
100
AcDbLine
 10
45.7243
 20
-1.83025
 30
0.0
 11
45.43996
 21
-1.66363
 31
0.0
  0
LINE
  5
233
330
1F
100
AcDbEntity
  8
0
  6
Continuous
 62
     7
370
    25
100
AcDbLine
 10
45.43996
 20
-1.66363
 30
0.0
 11
45.17464
 21
-1.52272
 31
0.0
  0
LINE
  5
234
330
1F
100
AcDbEntity
  8
0
  6
Continuous
 62
     7
370
    25
100
AcDbLine
 10
45.17464
 20
-1.52272
 30
0.0
 11
44.92873
 21
-1.40507
 31
0.0
  0
LINE
  5
235
330
1F
100
AcDbEntity
  8
0
  6
Continuous
 62
     7
370
    25
100
AcDbLine
 10
44.92873
 20
-1.40507
 30
0.0
 11
44.70686
 21
-1.31016
 31
0.0
  0
LINE
  5
236
330
1F
100
AcDbEntity
  8
0
  6
Continuous
 62
     7
370
    25
100
AcDbLine
 10
44.70686
 20
-1.31016
 30
0.0
 11
44.51091
 21
-1.23584
 31
0.0
  0
LINE
  5
237
330
1F
100
AcDbEntity
  8
0
  6
Continuous
 62
     7
370
    25
100
AcDbLine
 10
44.51091
 20
-1.23584
 30
0.0
 11
44.338
 21
-1.17837
 31
0.0
  0
LINE
  5
238
330
1F
100
AcDbEntity
  8
0
  6
Continuous
 62
     7
370
    25
100
AcDbLine
 10
44.338
 20
-1.17837
 30
0.0
 11
44.07298
 21
-1.10773
 31
0.0
  0
LINE
  5
239
330
1F
100
AcDbEntity
  8
0
  6
Continuous
 62
     7
370
    25
100
AcDbLine
 10
44.07298
 20
-1.10773
 30
0.0
 11
43.91788
 21
-1.07972
 31
0.0
  0
LINE
  5
23A
330
1F
100
AcDbEntity
  8
0
  6
Continuous
 62
     7
370
    25
100
AcDbLine
 10
43.91788
 20
-1.07972
 30
0.0
 11
43.81244
 21
-1.06657
 31
0.0
  0
LINE
  5
23B
330
1F
100
AcDbEntity
  8
0
  6
Continuous
 62
     7
370
    25
100
AcDbLine
 10
43.81244
 20
-1.06657
 30
0.0
 11
43.61562
 21
-1.02831
 31
0.0
  0
LINE
  5
23C
330
1F
100
AcDbEntity
  8
0
  6
Continuous
 62
     7
370
    25
100
AcDbLine
 10
43.61562
 20
-1.02831
 30
0.0
 11
43.45175
 21
-0.97673
 31
0.0
  0
LINE
  5
23D
330
1F
100
AcDbEntity
  8
0
  6
Continuous
 62
     7
370
    25
100
AcDbLine
 10
43.45175
 20
-0.97673
 30
0.0
 11
43.3824
 21
-0.9468
 31
0.0
  0
LINE
  5
23E
330
1F
100
AcDbEntity
  8
0
  6
Continuous
 62
     7
370
    25
100
AcDbLine
 10
43.3824
 20
-0.9468
 30
0.0
 11
43.32153
 21
-0.91455
 31
0.0
  0
LINE
  5
23F
330
1F
100
AcDbEntity
  8
0
  6
Continuous
 62
     7
370
    25
100
AcDbLine
 10
43.32153
 20
-0.91455
 30
0.0
 11
43.26922
 21
-0.88033
 31
0.0
  0
LINE
  5
240
330
1F
100
AcDbEntity
  8
0
  6
Continuous
 62
     7
370
    25
100
AcDbLine
 10
43.26922
 20
-0.88033
 30
0.0
 11
43.22552
 21
-0.84449
 31
0.0
  0
LINE
  5
241
330
1F
100
AcDbEntity
  8
0
  6
Continuous
 62
     7
370
    25
100
AcDbLine
 10
43.22552
 20
-0.84449
 30
0.0
 11
43.19046
 21
-0.80737
 31
0.0
  0
LINE
  5
242
330
1F
100
AcDbEntity
  8
0
  6
Continuous
 62
     7
370
    25
100
AcDbLine
 10
43.19046
 20
-0.80737
 30
0.0
 11
43.16408
 21
-0.76932
 31
0.0
  0
LINE
  5
243
330
1F
100
AcDbEntity
  8
0
  6
Continuous
 62
     7
370
    25
100
AcDbLine
 10
43.16408
 20
-0.76932
 30
0.0
 11
43.1464
 21
-0.73068
 31
0.0
  0
LINE
  5
244
330
1F
100
AcDbEntity
  8
0
  6
Continuous
 62
     7
370
    25
100
AcDbLine
 10
43.1464
 20
-0.73068
 30
0.0
 11
43.13742
 21
-0.6918
 31
0.0
  0
LINE
  5
245
330
1F
100
AcDbEntity
  8
0
  6
Continuous
 62
     7
370
    25
100
AcDbLine
 10
43.13742
 20
-0.6918
 30
0.0
 11
43.1364
 21
-0.66269
 31
0.0
  0
LINE
  5
246
330
1F
100
AcDbEntity
  8
0
  6
Continuous
 62
     7
370
    25
100
AcDbLine
 10
43.1364
 20
-0.66269
 30
0.0
 11
43.14559
 21
-0.37994
 31
0.0
  0
LINE
  5
247
330
1F
100
AcDbEntity
  8
0
  6
Continuous
 62
     7
370
    25
100
AcDbLine
 10
43.14559
 20
-0.37994
 30
0.0
 11
43.15
 21
0.0
 31
0.0
  0
LINE
  5
248
330
1F
100
AcDbEntity
  8
0
  6
Continuous
 62
     7
370
    25
100
AcDbLine
 10
43.15
 20
0.0
 30
0.0
 11
43.14559
 21
0.37994
 31
0.0
  0
LINE
  5
249
330
1F
100
AcDbEntity
  8
0
  6
Continuous
 62
     7
370
    25
100
AcDbLine
 10
43.14559
 20
0.37994
 30
0.0
 11
43.1364
 21
0.66269
 31
0.0
  0
LINE
  5
24A
330
1F
100
AcDbEntity
  8
0
  6
Continuous
 62
     7
370
    25
100
AcDbLine
 10
43.1364
 20
0.66269
 30
0.0
 11
43.13742
 21
0.6918
 31
0.0
  0
LINE
  5
24B
330
1F
100
AcDbEntity
  8
0
  6
Continuous
 62
     7
370
    25
100
AcDbLine
 10
43.13742
 20
0.6918
 30
0.0
 11
43.1464
 21
0.73068
 31
0.0
  0
LINE
  5
24C
330
1F
100
AcDbEntity
  8
0
  6
Continuous
 62
     7
370
    25
100
AcDbLine
 10
43.1464
 20
0.73068
 30
0.0
 11
43.16408
 21
0.76932
 31
0.0
  0
LINE
  5
24D
330
1F
100
AcDbEntity
  8
0
  6
Continuous
 62
     7
370
    25
100
AcDbLine
 10
43.16408
 20
0.76932
 30
0.0
 11
43.19046
 21
0.80737
 31
0.0
  0
LINE
  5
24E
330
1F
100
AcDbEntity
  8
0
  6
Continuous
 62
     7
370
    25
100
AcDbLine
 10
43.19046
 20
0.80737
 30
0.0
 11
43.22552
 21
0.84449
 31
0.0
  0
LINE
  5
24F
330
1F
100
AcDbEntity
  8
0
  6
Continuous
 62
     7
370
    25
100
AcDbLine
 10
43.22552
 20
0.84449
 30
0.0
 11
43.26922
 21
0.88033
 31
0.0
  0
LINE
  5
250
330
1F
100
AcDbEntity
  8
0
  6
Continuous
 62
     7
370
    25
100
AcDbLine
 10
43.26922
 20
0.88033
 30
0.0
 11
43.32153
 21
0.91455
 31
0.0
  0
LINE
  5
251
330
1F
100
AcDbEntity
  8
0
  6
Continuous
 62
     7
370
    25
100
AcDbLine
 10
43.32153
 20
0.91455
 30
0.0
 11
43.3824
 21
0.9468
 31
0.0
  0
LINE
  5
252
330
1F
100
AcDbEntity
  8
0
  6
Continuous
 62
     7
370
    25
100
AcDbLine
 10
43.3824
 20
0.9468
 30
0.0
 11
43.45175
 21
0.97673
 31
0.0
  0
LINE
  5
253
330
1F
100
AcDbEntity
  8
0
  6
Continuous
 62
     7
370
    25
100
AcDbLine
 10
43.45175
 20
0.97673
 30
0.0
 11
43.61562
 21
1.02831
 31
0.0
  0
LINE
  5
254
330
1F
100
AcDbEntity
  8
0
  6
Continuous
 62
     7
370
    25
100
AcDbLine
 10
43.61562
 20
1.02831
 30
0.0
 11
43.81244
 21
1.06657
 31
0.0
  0
LINE
  5
255
330
1F
100
AcDbEntity
  8
0
  6
Continuous
 62
     7
370
    25
100
AcDbLine
 10
43.81244
 20
1.06657
 30
0.0
 11
43.91788
 21
1.07972
 31
0.0
  0
LINE
  5
256
330
1F
100
AcDbEntity
  8
0
  6
Continuous
 62
     7
370
    25
100
AcDbLine
 10
43.91788
 20
1.07972
 30
0.0
 11
44.07298
 21
1.10773
 31
0.0
  0
LINE
  5
257
330
1F
100
AcDbEntity
  8
0
  6
Continuous
 62
     7
370
    25
100
AcDbLine
 10
44.07298
 20
1.10773
 30
0.0
 11
44.338
 21
1.17837
 31
0.0
  0
LINE
  5
258
330
1F
100
AcDbEntity
  8
0
  6
Continuous
 62
     7
370
    25
100
AcDbLine
 10
44.338
 20
1.17837
 30
0.0
 11
44.51091
 21
1.23584
 31
0.0
  0
LINE
  5
259
330
1F
100
AcDbEntity
  8
0
  6
Continuous
 62
     7
370
    25
100
AcDbLine
 10
44.51091
 20
1.23584
 30
0.0
 11
44.70686
 21
1.31016
 31
0.0
  0
LINE
  5
25A
330
1F
100
AcDbEntity
  8
0
  6
Continuous
 62
     7
370
    25
100
AcDbLine
 10
44.70686
 20
1.31016
 30
0.0
 11
44.92873
 21
1.40507
 31
0.0
  0
LINE
  5
25B
330
1F
100
AcDbEntity
  8
0
  6
Continuous
 62
     7
370
    25
100
AcDbLine
 10
44.92873
 20
1.40507
 30
0.0
 11
45.17464
 21
1.52272
 31
0.0
  0
LINE
  5
25C
330
1F
100
AcDbEntity
  8
0
  6
Continuous
 62
     7
370
    25
100
AcDbLine
 10
45.17464
 20
1.52272
 30
0.0
 11
45.43996
 21
1.66363
 31
0.0
  0
LINE
  5
25D
330
1F
100
AcDbEntity
  8
0
  6
Continuous
 62
     7
370
    25
100
AcDbLine
 10
45.43996
 20
1.66363
 30
0.0
 11
45.7243
 21
1.83025
 31
0.0
  0
LINE
  5
25E
330
1F
100
AcDbEntity
  8
0
  6
Continuous
 62
     7
370
    25
100
AcDbLine
 10
45.7243
 20
1.83025
 30
0.0
 11
46.02704
 21
2.02508
 31
0.0
  0
LINE
  5
25F
330
1F
100
AcDbEntity
  8
0
  6
Continuous
 62
     7
370
    25
100
AcDbLine
 10
46.02704
 20
2.02508
 30
0.0
 11
46.34459
 21
2.24876
 31
0.0
  0
LINE
  5
260
330
1F
100
AcDbEntity
  8
0
  6
Continuous
 62
     7
370
    25
100
AcDbLine
 10
46.34459
 20
2.24876
 30
0.0
 11
46.6442355
 21
2.4784902
 31
0.0
  0
ARC
  5
261
330
1F
100
AcDbEntity
  8
0
  6
Continuous
 62
     7
370
    25
100
AcDbCircle
 10
26.9999727257
 20
-0.0000053224
 30
0.0
 40
19.80000000000001
100
AcDbArc
 50
7.190950943
 51
10.80905495
  0
LINE
  5
262
330
1F
100
AcDbEntity
  8
0
  6
Continuous
 62
     7
370
    25
100
AcDbLine
 10
46.4486737
 20
3.7132184
 30
0.0
 11
46.0927034
 21
3.8391092
 31
0.0
  0
LINE
  5
263
330
1F
100
AcDbEntity
  8
0
  6
Continuous
 62
     7
370
    25
100
AcDbLine
 10
46.0927034
 20
3.8391092
 30
0.0
 11
45.7215745
 21
3.9537132
 31
0.0
  0
LINE
  5
264
330
1F
100
AcDbEntity
  8
0
  6
Continuous
 62
     7
370
    25
100
AcDbLine
 10
45.7215745
 20
3.9537132
 30
0.0
 11
45.3734459
 21
4.0454557
 31
0.0
  0
LINE
  5
265
330
1F
100
AcDbEntity
  8
0
  6
Continuous
 62
     7
370
    25
100
AcDbLine
 10
45.3734459
 20
4.0454557
 30
0.0
 11
45.0515341
 21
4.1160549
 31
0.0
  0
LINE
  5
266
330
1F
100
AcDbEntity
  8
0
  6
Continuous
 62
     7
370
    25
100
AcDbLine
 10
45.0515341
 20
4.1160549
 30
0.0
 11
44.7556562
 21
4.1680798
 31
0.0
  0
LINE
  5
267
330
1F
100
AcDbEntity
  8
0
  6
Continuous
 62
     7
370
    25
100
AcDbLine
 10
44.7556562
 20
4.1680798
 30
0.0
 11
44.485426
 21
4.2039813
 31
0.0
  0
LINE
  5
268
330
1F
100
AcDbEntity
  8
0
  6
Continuous
 62
     7
370
    25
100
AcDbLine
 10
44.485426
 20
4.2039813
 30
0.0
 11
44.2450863
 21
4.2256845
 31
0.0
  0
LINE
  5
269
330
1F
100
AcDbEntity
  8
0
  6
Continuous
 62
     7
370
    25
100
AcDbLine
 10
44.2450863
 20
4.2256845
 30
0.0
 11
44.0357606
 21
4.2358151
 31
0.0
  0
LINE
  5
26A
330
1F
100
AcDbEntity
  8
0
  6
Continuous
 62
     7
370
    25
100
AcDbLine
 10
44.0357606
 20
4.2358151
 30
0.0
 11
43.8535542
 21
4.2370402
 31
0.0
  0
LINE
  5
26B
330
1F
100
AcDbEntity
  8
0
  6
Continuous
 62
     7
370
    25
100
AcDbLine
 10
43.8535542
 20
4.2370402
 30
0.0
 11
43.5796763
 21
4.2223271
 31
0.0
  0
LINE
  5
26C
330
1F
100
AcDbEntity
  8
0
  6
Continuous
 62
     7
370
    25
100
AcDbLine
 10
43.5796763
 20
4.2223271
 30
0.0
 11
43.4235118
 21
4.2010377
 31
0.0
  0
LINE
  5
26D
330
1F
100
AcDbEntity
  8
0
  6
Continuous
 62
     7
370
    25
100
AcDbLine
 10
43.4235118
 20
4.2010377
 30
0.0
 11
43.3191689
 21
4.1809613
 31
0.0
  0
LINE
  5
26E
330
1F
100
AcDbEntity
  8
0
  6
Continuous
 62
     7
370
    25
100
AcDbLine
 10
43.3191689
 20
4.1809613
 30
0.0
 11
43.1201589
 21
4.156528
 31
0.0
  0
LINE
  5
26F
330
1F
100
AcDbEntity
  8
0
  6
Continuous
 62
     7
370
    25
100
AcDbLine
 10
43.1201589
 20
4.156528
 30
0.0
 11
42.9483702
 21
4.1549449
 31
0.0
  0
LINE
  5
270
330
1F
100
AcDbEntity
  8
0
  6
Continuous
 62
     7
370
    25
100
AcDbLine
 10
42.9483702
 20
4.1549449
 30
0.0
 11
42.8731656
 21
4.1619797
 31
0.0
  0
LINE
  5
271
330
1F
100
AcDbEntity
  8
0
  6
Continuous
 62
     7
370
    25
100
AcDbLine
 10
42.8731656
 20
4.1619797
 30
0.0
 11
42.805309
 21
4.1738414
 31
0.0
  0
LINE
  5
272
330
1F
100
AcDbEntity
  8
0
  6
Continuous
 62
     7
370
    25
100
AcDbLine
 10
42.805309
 20
4.1738414
 30
0.0
 11
42.7449846
 21
4.1902219
 31
0.0
  0
LINE
  5
273
330
1F
100
AcDbEntity
  8
0
  6
Continuous
 62
     7
370
    25
100
AcDbLine
 10
42.7449846
 20
4.1902219
 30
0.0
 11
42.6923483
 21
4.2108037
 31
0.0
  0
LINE
  5
274
330
1F
100
AcDbEntity
  8
0
  6
Continuous
 62
     7
370
    25
100
AcDbLine
 10
42.6923483
 20
4.2108037
 30
0.0
 11
42.6475335
 21
4.2352728
 31
0.0
  0
LINE
  5
275
330
1F
100
AcDbEntity
  8
0
  6
Continuous
 62
     7
370
    25
100
AcDbLine
 10
42.6475335
 20
4.2352728
 30
0.0
 11
42.6106866
 21
4.2633086
 31
0.0
  0
LINE
  5
276
330
1F
100
AcDbEntity
  8
0
  6
Continuous
 62
     7
370
    25
100
AcDbLine
 10
42.6106866
 20
4.2633086
 30
0.0
 11
42.5819315
 21
4.294594
 31
0.0
  0
LINE
  5
277
330
1F
100
AcDbEntity
  8
0
  6
Continuous
 62
     7
370
    25
100
AcDbLine
 10
42.5819315
 20
4.294594
 30
0.0
 11
42.5613764
 21
4.3287961
 31
0.0
  0
LINE
  5
278
330
1F
100
AcDbEntity
  8
0
  6
Continuous
 62
     7
370
    25
100
AcDbLine
 10
42.5613764
 20
4.3287961
 30
0.0
 11
42.5514108
 21
4.3561662
 31
0.0
  0
LINE
  5
279
330
1F
100
AcDbEntity
  8
0
  6
Continuous
 62
     7
370
    25
100
AcDbLine
 10
42.5514108
 20
4.3561662
 30
0.0
 11
42.4727765
 21
4.6279173
 31
0.0
  0
LINE
  5
27A
330
1F
100
AcDbEntity
  8
0
  6
Continuous
 62
     7
370
    25
100
AcDbLine
 10
42.4727765
 20
4.6279173
 30
0.0
 11
42.3595627
 21
4.9906245
 31
0.0
  0
LINE
  5
27B
330
1F
100
AcDbEntity
  8
0
  6
Continuous
 62
     7
370
    25
100
AcDbLine
 10
42.3595627
 20
4.9906245
 30
0.0
 11
42.2379607
 21
5.3506061
 31
0.0
  0
LINE
  5
27C
330
1F
100
AcDbEntity
  8
0
  6
Continuous
 62
     7
370
    25
100
AcDbLine
 10
42.2379607
 20
5.3506061
 30
0.0
 11
42.1418459
 21
5.6166775
 31
0.0
  0
LINE
  5
27D
330
1F
100
AcDbEntity
  8
0
  6
Continuous
 62
     7
370
    25
100
AcDbLine
 10
42.1418459
 20
5.6166775
 30
0.0
 11
42.1338205
 21
5.6446779
 31
0.0
  0
LINE
  5
27E
330
1F
100
AcDbEntity
  8
0
  6
Continuous
 62
     7
370
    25
100
AcDbLine
 10
42.1338205
 20
5.6446779
 30
0.0
 11
42.1303464
 21
5.68443
 31
0.0
  0
LINE
  5
27F
330
1F
100
AcDbEntity
  8
0
  6
Continuous
 62
     7
370
    25
100
AcDbLine
 10
42.1303464
 20
5.68443
 30
0.0
 11
42.1352207
 21
5.7266422
 31
0.0
  0
LINE
  5
280
330
1F
100
AcDbEntity
  8
0
  6
Continuous
 62
     7
370
    25
100
AcDbLine
 10
42.1352207
 20
5.7266422
 30
0.0
 11
42.1485514
 21
5.7709818
 31
0.0
  0
LINE
  5
281
330
1F
100
AcDbEntity
  8
0
  6
Continuous
 62
     7
370
    25
100
AcDbLine
 10
42.1485514
 20
5.7709818
 30
0.0
 11
42.1704248
 21
5.8171191
 31
0.0
  0
LINE
  5
282
330
1F
100
AcDbEntity
  8
0
  6
Continuous
 62
     7
370
    25
100
AcDbLine
 10
42.1704248
 20
5.8171191
 30
0.0
 11
42.2009108
 21
5.864709
 31
0.0
  0
LINE
  5
283
330
1F
100
AcDbEntity
  8
0
  6
Continuous
 62
     7
370
    25
100
AcDbLine
 10
42.2009108
 20
5.864709
 30
0.0
 11
42.240086
 21
5.9134189
 31
0.0
  0
LINE
  5
284
330
1F
100
AcDbEntity
  8
0
  6
Continuous
 62
     7
370
    25
100
AcDbLine
 10
42.240086
 20
5.9134189
 30
0.0
 11
42.288011
 21
5.9629003
 31
0.0
  0
LINE
  5
285
330
1F
100
AcDbEntity
  8
0
  6
Continuous
 62
     7
370
    25
100
AcDbLine
 10
42.288011
 20
5.9629003
 30
0.0
 11
42.3447179
 21
6.0127958
 31
0.0
  0
LINE
  5
286
330
1F
100
AcDbEntity
  8
0
  6
Continuous
 62
     7
370
    25
100
AcDbLine
 10
42.3447179
 20
6.0127958
 30
0.0
 11
42.4846284
 21
6.1124899
 31
0.0
  0
LINE
  5
287
330
1F
100
AcDbEntity
  8
0
  6
Continuous
 62
     7
370
    25
100
AcDbLine
 10
42.4846284
 20
6.1124899
 30
0.0
 11
42.6599924
 21
6.209698
 31
0.0
  0
LINE
  5
288
330
1F
100
AcDbEntity
  8
0
  6
Continuous
 62
     7
370
    25
100
AcDbLine
 10
42.6599924
 20
6.209698
 30
0.0
 11
42.7562082
 21
6.2547872
 31
0.0
  0
LINE
  5
289
330
1F
100
AcDbEntity
  8
0
  6
Continuous
 62
     7
370
    25
100
AcDbLine
 10
42.7562082
 20
6.2547872
 30
0.0
 11
42.8950615
 21
6.3293548
 31
0.0
  0
LINE
  5
28A
330
1F
100
AcDbEntity
  8
0
  6
Continuous
 62
     7
370
    25
100
AcDbLine
 10
42.8950615
 20
6.3293548
 30
0.0
 11
43.1252815
 21
6.4784331
 31
0.0
  0
LINE
  5
28B
330
1F
100
AcDbEntity
  8
0
  6
Continuous
 62
     7
370
    25
100
AcDbLine
 10
43.1252815
 20
6.4784331
 30
0.0
 11
43.2719695
 21
6.5865225
 31
0.0
  0
LINE
  5
28C
330
1F
100
AcDbEntity
  8
0
  6
Continuous
 62
     7
370
    25
100
AcDbLine
 10
43.2719695
 20
6.5865225
 30
0.0
 11
43.4353629
 21
6.7177569
 31
0.0
  0
LINE
  5
28D
330
1F
100
AcDbEntity
  8
0
  6
Continuous
 62
     7
370
    25
100
AcDbLine
 10
43.4353629
 20
6.7177569
 30
0.0
 11
43.617045
 21
6.8765832
 31
0.0
  0
LINE
  5
28E
330
1F
100
AcDbEntity
  8
0
  6
Continuous
 62
     7
370
    25
100
AcDbLine
 10
43.617045
 20
6.8765832
 30
0.0
 11
43.8145634
 21
7.0644654
 31
0.0
  0
LINE
  5
28F
330
1F
100
AcDbEntity
  8
0
  6
Continuous
 62
     7
370
    25
100
AcDbLine
 10
43.8145634
 20
7.0644654
 30
0.0
 11
44.0233542
 21
7.2804672
 31
0.0
  0
LINE
  5
290
330
1F
100
AcDbEntity
  8
0
  6
Continuous
 62
     7
370
    25
100
AcDbLine
 10
44.0233542
 20
7.2804672
 30
0.0
 11
44.2422892
 21
7.5267981
 31
0.0
  0
LINE
  5
291
330
1F
100
AcDbEntity
  8
0
  6
Continuous
 62
     7
370
    25
100
AcDbLine
 10
44.2422892
 20
7.5267981
 30
0.0
 11
44.4700062
 21
7.8056442
 31
0.0
  0
LINE
  5
292
330
1F
100
AcDbEntity
  8
0
  6
Continuous
 62
     7
370
    25
100
AcDbLine
 10
44.4700062
 20
7.8056442
 30
0.0
 11
44.7028933
 21
8.1165049
 31
0.0
  0
LINE
  5
293
330
1F
100
AcDbEntity
  8
0
  6
Continuous
 62
     7
370
    25
100
AcDbLine
 10
44.7028933
 20
8.1165049
 30
0.0
 11
44.9168827807
 21
8.4275870627
 31
0.0
  0
ARC
  5
294
330
1F
100
AcDbEntity
  8
0
  6
Continuous
 62
     7
370
    25
100
AcDbCircle
 10
26.999980393
 20
-0.000019607
 30
0.0
 40
19.79999861991711
100
AcDbArc
 50
25.1909730105
 51
28.8090775489
  0
LINE
  5
295
330
1F
100
AcDbEntity
  8
0
  6
Continuous
 62
     7
370
    25
100
AcDbLine
 10
44.3493399813
 20
9.5414513082
 30
0.0
 11
43.97189
 21
9.5511797
 31
0.0
  0
LINE
  5
296
330
1F
100
AcDbEntity
  8
0
  6
Continuous
 62
     7
370
    25
100
AcDbLine
 10
43.97189
 20
9.5511797
 30
0.0
 11
43.5835109
 21
9.5454894
 31
0.0
  0
LINE
  5
297
330
1F
100
AcDbEntity
  8
0
  6
Continuous
 62
     7
370
    25
100
AcDbLine
 10
43.5835109
 20
9.5454894
 30
0.0
 11
43.2240709
 21
9.525164
 31
0.0
  0
LINE
  5
298
330
1F
100
AcDbEntity
  8
0
  6
Continuous
 62
     7
370
    25
100
AcDbLine
 10
43.2240709
 20
9.525164
 30
0.0
 11
42.8960982
 21
9.4928316
 31
0.0
  0
LINE
  5
299
330
1F
100
AcDbEntity
  8
0
  6
Continuous
 62
     7
370
    25
100
AcDbLine
 10
42.8960982
 20
9.4928316
 30
0.0
 11
42.598625
 21
9.450879
 31
0.0
  0
LINE
  5
29A
330
1F
100
AcDbEntity
  8
0
  6
Continuous
 62
     7
370
    25
100
AcDbLine
 10
42.598625
 20
9.450879
 30
0.0
 11
42.3305267
 21
9.4015176
 31
0.0
  0
LINE
  5
29B
330
1F
100
AcDbEntity
  8
0
  6
Continuous
 62
     7
370
    25
100
AcDbLine
 10
42.3305267
 20
9.4015176
 30
0.0
 11
42.0952434
 21
9.3478895
 31
0.0
  0
LINE
  5
29C
330
1F
100
AcDbEntity
  8
0
  6
Continuous
 62
     7
370
    25
100
AcDbLine
 10
42.0952434
 20
9.3478895
 30
0.0
 11
41.8930323
 21
9.2928391
 31
0.0
  0
LINE
  5
29D
330
1F
100
AcDbEntity
  8
0
  6
Continuous
 62
     7
370
    25
100
AcDbLine
 10
41.8930323
 20
9.2928391
 30
0.0
 11
41.7193652
 21
9.2376993
 31
0.0
  0
LINE
  5
29E
330
1F
100
AcDbEntity
  8
0
  6
Continuous
 62
     7
370
    25
100
AcDbLine
 10
41.7193652
 20
9.2376993
 30
0.0
 11
41.4634383
 21
9.1390735
 31
0.0
  0
LINE
  5
29F
330
1F
100
AcDbEntity
  8
0
  6
Continuous
 62
     7
370
    25
100
AcDbLine
 10
41.4634383
 20
9.1390735
 30
0.0
 11
41.3214959
 21
9.0705685
 31
0.0
  0
LINE
  5
2A0
330
1F
100
AcDbEntity
  8
0
  6
Continuous
 62
     7
370
    25
100
AcDbLine
 10
41.3214959
 20
9.0705685
 30
0.0
 11
41.2284638
 21
9.019231
 31
0.0
  0
LINE
  5
2A1
330
1F
100
AcDbEntity
  8
0
  6
Continuous
 62
     7
370
    25
100
AcDbLine
 10
41.2284638
 20
9.019231
 30
0.0
 11
41.0467444
 21
8.9344961
 31
0.0
  0
LINE
  5
2A2
330
1F
100
AcDbEntity
  8
0
  6
Continuous
 62
     7
370
    25
100
AcDbLine
 10
41.0467444
 20
8.9344961
 30
0.0
 11
40.8838528
 21
8.8799049
 31
0.0
  0
LINE
  5
2A3
330
1F
100
AcDbEntity
  8
0
  6
Continuous
 62
     7
370
    25
100
AcDbLine
 10
40.8838528
 20
8.8799049
 30
0.0
 11
40.8101551
 21
8.8633558
 31
0.0
  0
LINE
  5
2A4
330
1F
100
AcDbEntity
  8
0
  6
Continuous
 62
     7
370
    25
100
AcDbLine
 10
40.8101551
 20
8.8633558
 30
0.0
 11
40.7419541
 21
8.8536681
 31
0.0
  0
LINE
  5
2A5
330
1F
100
AcDbEntity
  8
0
  6
Continuous
 62
     7
370
    25
100
AcDbLine
 10
40.7419541
 20
8.8536681
 30
0.0
 11
40.6795205
 21
8.8506057
 31
0.0
  0
LINE
  5
2A6
330
1F
100
AcDbEntity
  8
0
  6
Continuous
 62
     7
370
    25
100
AcDbLine
 10
40.6795205
 20
8.8506057
 30
0.0
 11
40.6231002
 21
8.8539146
 31
0.0
  0
LINE
  5
2A7
330
1F
100
AcDbEntity
  8
0
  6
Continuous
 62
     7
370
    25
100
AcDbLine
 10
40.6231002
 20
8.8539146
 30
0.0
 11
40.5729175
 21
8.8633376
 31
0.0
  0
LINE
  5
2A8
330
1F
100
AcDbEntity
  8
0
  6
Continuous
 62
     7
370
    25
100
AcDbLine
 10
40.5729175
 20
8.8633376
 30
0.0
 11
40.5292104
 21
8.8786149
 31
0.0
  0
LINE
  5
2A9
330
1F
100
AcDbEntity
  8
0
  6
Continuous
 62
     7
370
    25
100
AcDbLine
 10
40.5292104
 20
8.8786149
 30
0.0
 11
40.4921949
 21
8.8994833
 31
0.0
  0
LINE
  5
2AA
330
1F
100
AcDbEntity
  8
0
  6
Continuous
 62
     7
370
    25
100
AcDbLine
 10
40.4921949
 20
8.8994833
 30
0.0
 11
40.4620769
 21
8.9256595
 31
0.0
  0
LINE
  5
2AB
330
1F
100
AcDbEntity
  8
0
  6
Continuous
 62
     7
370
    25
100
AcDbLine
 10
40.4620769
 20
8.9256595
 30
0.0
 11
40.4441412
 21
8.9486105
 31
0.0
  0
LINE
  5
2AC
330
1F
100
AcDbEntity
  8
0
  6
Continuous
 62
     7
370
    25
100
AcDbLine
 10
40.4441412
 20
8.9486105
 30
0.0
 11
40.2853798
 21
9.1827618
 31
0.0
  0
LINE
  5
2AD
330
1F
100
AcDbEntity
  8
0
  6
Continuous
 62
     7
370
    25
100
AcDbLine
 10
40.2853798
 20
9.1827618
 30
0.0
 11
40.0656245
 21
9.4927318
 31
0.0
  0
LINE
  5
2AE
330
1F
100
AcDbEntity
  8
0
  6
Continuous
 62
     7
370
    25
100
AcDbLine
 10
40.0656245
 20
9.4927318
 30
0.0
 11
39.8387336
 21
9.7975176
 31
0.0
  0
LINE
  5
2AF
330
1F
100
AcDbEntity
  8
0
  6
Continuous
 62
     7
370
    25
100
AcDbLine
 10
39.8387336
 20
9.7975176
 30
0.0
 11
39.6651024
 21
10.0208654
 31
0.0
  0
LINE
  5
2B0
330
1F
100
AcDbEntity
  8
0
  6
Continuous
 62
     7
370
    25
100
AcDbLine
 10
39.6651024
 20
10.0208654
 30
0.0
 11
39.6488172
 21
10.0450154
 31
0.0
  0
LINE
  5
2B1
330
1F
100
AcDbEntity
  8
0
  6
Continuous
 62
     7
370
    25
100
AcDbLine
 10
39.6488172
 20
10.0450154
 30
0.0
 11
39.6332291
 21
10.0817483
 31
0.0
  0
LINE
  5
2B2
330
1F
100
AcDbEntity
  8
0
  6
Continuous
 62
     7
370
    25
100
AcDbLine
 10
39.6332291
 20
10.0817483
 30
0.0
 11
39.6248205
 21
10.1234008
 31
0.0
  0
LINE
  5
2B3
330
1F
100
AcDbEntity
  8
0
  6
Continuous
 62
     7
370
    25
100
AcDbLine
 10
39.6248205
 20
10.1234008
 30
0.0
 11
39.6237971
 21
10.1696897
 31
0.0
  0
LINE
  5
2B4
330
1F
100
AcDbEntity
  8
0
  6
Continuous
 62
     7
370
    25
100
AcDbLine
 10
39.6237971
 20
10.1696897
 30
0.0
 11
39.6303427
 21
10.2203281
 31
0.0
  0
LINE
  5
2B5
330
1F
100
AcDbEntity
  8
0
  6
Continuous
 62
     7
370
    25
100
AcDbLine
 10
39.6303427
 20
10.2203281
 30
0.0
 11
39.6446305
 21
10.2750095
 31
0.0
  0
LINE
  5
2B6
330
1F
100
AcDbEntity
  8
0
  6
Continuous
 62
     7
370
    25
100
AcDbLine
 10
39.6446305
 20
10.2750095
 30
0.0
 11
39.6668361
 21
10.3334411
 31
0.0
  0
LINE
  5
2B7
330
1F
100
AcDbEntity
  8
0
  6
Continuous
 62
     7
370
    25
100
AcDbLine
 10
39.6668361
 20
10.3334411
 30
0.0
 11
39.6971249
 21
10.3953104
 31
0.0
  0
LINE
  5
2B8
330
1F
100
AcDbEntity
  8
0
  6
Continuous
 62
     7
370
    25
100
AcDbLine
 10
39.6971249
 20
10.3953104
 30
0.0
 11
39.7356378
 21
10.4602872
 31
0.0
  0
LINE
  5
2B9
330
1F
100
AcDbEntity
  8
0
  6
Continuous
 62
     7
370
    25
100
AcDbLine
 10
39.7356378
 20
10.4602872
 30
0.0
 11
39.8378935
 21
10.5983367
 31
0.0
  0
LINE
  5
2BA
330
1F
100
AcDbEntity
  8
0
  6
Continuous
 62
     7
370
    25
100
AcDbLine
 10
39.8378935
 20
10.5983367
 30
0.0
 11
39.9746356
 21
10.7449775
 31
0.0
  0
LINE
  5
2BB
330
1F
100
AcDbEntity
  8
0
  6
Continuous
 62
     7
370
    25
100
AcDbLine
 10
39.9746356
 20
10.7449775
 30
0.0
 11
40.0522089
 21
10.8175922
 31
0.0
  0
LINE
  5
2BC
330
1F
100
AcDbEntity
  8
0
  6
Continuous
 62
     7
370
    25
100
AcDbLine
 10
40.0522089
 20
10.8175922
 30
0.0
 11
40.1612236
 21
10.9314183
 31
0.0
  0
LINE
  5
2BD
330
1F
100
AcDbEntity
  8
0
  6
Continuous
 62
     7
370
    25
100
AcDbLine
 10
40.1612236
 20
10.9314183
 30
0.0
 11
40.3341081
 21
11.1443421
 31
0.0
  0
LINE
  5
2BE
330
1F
100
AcDbEntity
  8
0
  6
Continuous
 62
     7
370
    25
100
AcDbLine
 10
40.3341081
 20
11.1443421
 30
0.0
 11
40.4402153
 21
11.2924702
 31
0.0
  0
LINE
  5
2BF
330
1F
100
AcDbEntity
  8
0
  6
Continuous
 62
     7
370
    25
100
AcDbLine
 10
40.4402153
 20
11.2924702
 30
0.0
 11
40.5550579
 21
11.4677729
 31
0.0
  0
LINE
  5
2C0
330
1F
100
AcDbEntity
  8
0
  6
Continuous
 62
     7
370
    25
100
AcDbLine
 10
40.5550579
 20
11.4677729
 30
0.0
 11
40.6787678
 21
11.6749686
 31
0.0
  0
LINE
  5
2C1
330
1F
100
AcDbEntity
  8
0
  6
Continuous
 62
     7
370
    25
100
AcDbLine
 10
40.6787678
 20
11.6749686
 30
0.0
 11
40.8085603
 21
11.9146917
 31
0.0
  0
LINE
  5
2C2
330
1F
100
AcDbEntity
  8
0
  6
Continuous
 62
     7
370
    25
100
AcDbLine
 10
40.8085603
 20
11.9146917
 30
0.0
 11
40.9403838
 21
12.1846415
 31
0.0
  0
LINE
  5
2C3
330
1F
100
AcDbEntity
  8
0
  6
Continuous
 62
     7
370
    25
100
AcDbLine
 10
40.9403838
 20
12.1846415
 30
0.0
 11
41.0724829
 21
12.4865708
 31
0.0
  0
LINE
  5
2C4
330
1F
100
AcDbEntity
  8
0
  6
Continuous
 62
     7
370
    25
100
AcDbLine
 10
41.0724829
 20
12.4865708
 30
0.0
 11
41.2028866
 21
12.8221376
 31
0.0
  0
LINE
  5
2C5
330
1F
100
AcDbEntity
  8
0
  6
Continuous
 62
     7
370
    25
100
AcDbLine
 10
41.2028866
 20
12.8221376
 30
0.0
 11
41.3283141
 21
13.1897498
 31
0.0
  0
LINE
  5
2C6
330
1F
100
AcDbEntity
  8
0
  6
Continuous
 62
     7
370
    25
100
AcDbLine
 10
41.3283141
 20
13.1897498
 30
0.0
 11
41.4357004
 21
13.5517326
 31
0.0
  0
ARC
  5
2C7
330
1F
100
AcDbEntity
  8
0
  6
Continuous
 62
     7
370
    25
100
AcDbCircle
 10
26.999980393
 20
-0.000019607
 30
0.0
 40
19.80000000000001
100
AcDbArc
 50
43.1909479981
 51
46.8090520019
  0
LINE
  5
2C8
330
1F
100
AcDbEntity
  8
0
  6
Continuous
 62
     7
370
    25
100
AcDbLine
 10
40.5517326
 20
14.4357004
 30
0.0
 11
40.1897498
 21
14.3283141
 31
0.0
  0
LINE
  5
2C9
330
1F
100
AcDbEntity
  8
0
  6
Continuous
 62
     7
370
    25
100
AcDbLine
 10
40.1897498
 20
14.3283141
 30
0.0
 11
39.8221376
 21
14.2028866
 31
0.0
  0
LINE
  5
2CA
330
1F
100
AcDbEntity
  8
0
  6
Continuous
 62
     7
370
    25
100
AcDbLine
 10
39.8221376
 20
14.2028866
 30
0.0
 11
39.4865708
 21
14.0724829
 31
0.0
  0
LINE
  5
2CB
330
1F
100
AcDbEntity
  8
0
  6
Continuous
 62
     7
370
    25
100
AcDbLine
 10
39.4865708
 20
14.0724829
 30
0.0
 11
39.1846415
 21
13.9403838
 31
0.0
  0
LINE
  5
2CC
330
1F
100
AcDbEntity
  8
0
  6
Continuous
 62
     7
370
    25
100
AcDbLine
 10
39.1846415
 20
13.9403838
 30
0.0
 11
38.9146917
 21
13.8085603
 31
0.0
  0
LINE
  5
2CD
330
1F
100
AcDbEntity
  8
0
  6
Continuous
 62
     7
370
    25
100
AcDbLine
 10
38.9146917
 20
13.8085603
 30
0.0
 11
38.6749686
 21
13.6787678
 31
0.0
  0
LINE
  5
2CE
330
1F
100
AcDbEntity
  8
0
  6
Continuous
 62
     7
370
    25
100
AcDbLine
 10
38.6749686
 20
13.6787678
 30
0.0
 11
38.4677729
 21
13.5550579
 31
0.0
  0
LINE
  5
2CF
330
1F
100
AcDbEntity
  8
0
  6
Continuous
 62
     7
370
    25
100
AcDbLine
 10
38.4677729
 20
13.5550579
 30
0.0
 11
38.2924702
 21
13.4402153
 31
0.0
  0
LINE
  5
2D0
330
1F
100
AcDbEntity
  8
0
  6
Continuous
 62
     7
370
    25
100
AcDbLine
 10
38.2924702
 20
13.4402153
 30
0.0
 11
38.1443421
 21
13.3341081
 31
0.0
  0
LINE
  5
2D1
330
1F
100
AcDbEntity
  8
0
  6
Continuous
 62
     7
370
    25
100
AcDbLine
 10
38.1443421
 20
13.3341081
 30
0.0
 11
37.9314183
 21
13.1612236
 31
0.0
  0
LINE
  5
2D2
330
1F
100
AcDbEntity
  8
0
  6
Continuous
 62
     7
370
    25
100
AcDbLine
 10
37.9314183
 20
13.1612236
 30
0.0
 11
37.8175922
 21
13.0522089
 31
0.0
  0
LINE
  5
2D3
330
1F
100
AcDbEntity
  8
0
  6
Continuous
 62
     7
370
    25
100
AcDbLine
 10
37.8175922
 20
13.0522089
 30
0.0
 11
37.7449775
 21
12.9746356
 31
0.0
  0
LINE
  5
2D4
330
1F
100
AcDbEntity
  8
0
  6
Continuous
 62
     7
370
    25
100
AcDbLine
 10
37.7449775
 20
12.9746356
 30
0.0
 11
37.5983367
 21
12.8378935
 31
0.0
  0
LINE
  5
2D5
330
1F
100
AcDbEntity
  8
0
  6
Continuous
 62
     7
370
    25
100
AcDbLine
 10
37.5983367
 20
12.8378935
 30
0.0
 11
37.4602872
 21
12.7356378
 31
0.0
  0
LINE
  5
2D6
330
1F
100
AcDbEntity
  8
0
  6
Continuous
 62
     7
370
    25
100
AcDbLine
 10
37.4602872
 20
12.7356378
 30
0.0
 11
37.3953104
 21
12.6971249
 31
0.0
  0
LINE
  5
2D7
330
1F
100
AcDbEntity
  8
0
  6
Continuous
 62
     7
370
    25
100
AcDbLine
 10
37.3953104
 20
12.6971249
 30
0.0
 11
37.3334411
 21
12.6668361
 31
0.0
  0
LINE
  5
2D8
330
1F
100
AcDbEntity
  8
0
  6
Continuous
 62
     7
370
    25
100
AcDbLine
 10
37.3334411
 20
12.6668361
 30
0.0
 11
37.2750095
 21
12.6446305
 31
0.0
  0
LINE
  5
2D9
330
1F
100
AcDbEntity
  8
0
  6
Continuous
 62
     7
370
    25
100
AcDbLine
 10
37.2750095
 20
12.6446305
 30
0.0
 11
37.2203281
 21
12.6303427
 31
0.0
  0
LINE
  5
2DA
330
1F
100
AcDbEntity
  8
0
  6
Continuous
 62
     7
370
    25
100
AcDbLine
 10
37.2203281
 20
12.6303427
 30
0.0
 11
37.1696897
 21
12.6237971
 31
0.0
  0
LINE
  5
2DB
330
1F
100
AcDbEntity
  8
0
  6
Continuous
 62
     7
370
    25
100
AcDbLine
 10
37.1696897
 20
12.6237971
 30
0.0
 11
37.1234008
 21
12.6248205
 31
0.0
  0
LINE
  5
2DC
330
1F
100
AcDbEntity
  8
0
  6
Continuous
 62
     7
370
    25
100
AcDbLine
 10
37.1234008
 20
12.6248205
 30
0.0
 11
37.0817483
 21
12.6332291
 31
0.0
  0
LINE
  5
2DD
330
1F
100
AcDbEntity
  8
0
  6
Continuous
 62
     7
370
    25
100
AcDbLine
 10
37.0817483
 20
12.6332291
 30
0.0
 11
37.0450154
 21
12.6488172
 31
0.0
  0
LINE
  5
2DE
330
1F
100
AcDbEntity
  8
0
  6
Continuous
 62
     7
370
    25
100
AcDbLine
 10
37.0450154
 20
12.6488172
 30
0.0
 11
37.0208654
 21
12.6651024
 31
0.0
  0
LINE
  5
2DF
330
1F
100
AcDbEntity
  8
0
  6
Continuous
 62
     7
370
    25
100
AcDbLine
 10
37.0208654
 20
12.6651024
 30
0.0
 11
36.7975176
 21
12.8387336
 31
0.0
  0
LINE
  5
2E0
330
1F
100
AcDbEntity
  8
0
  6
Continuous
 62
     7
370
    25
100
AcDbLine
 10
36.7975176
 20
12.8387336
 30
0.0
 11
36.4927318
 21
13.0656245
 31
0.0
  0
LINE
  5
2E1
330
1F
100
AcDbEntity
  8
0
  6
Continuous
 62
     7
370
    25
100
AcDbLine
 10
36.4927318
 20
13.0656245
 30
0.0
 11
36.1827618
 21
13.2853798
 31
0.0
  0
LINE
  5
2E2
330
1F
100
AcDbEntity
  8
0
  6
Continuous
 62
     7
370
    25
100
AcDbLine
 10
36.1827618
 20
13.2853798
 30
0.0
 11
35.9486105
 21
13.4441412
 31
0.0
  0
LINE
  5
2E3
330
1F
100
AcDbEntity
  8
0
  6
Continuous
 62
     7
370
    25
100
AcDbLine
 10
35.9486105
 20
13.4441412
 30
0.0
 11
35.9256595
 21
13.4620769
 31
0.0
  0
LINE
  5
2E4
330
1F
100
AcDbEntity
  8
0
  6
Continuous
 62
     7
370
    25
100
AcDbLine
 10
35.9256595
 20
13.4620769
 30
0.0
 11
35.8994833
 21
13.4921949
 31
0.0
  0
LINE
  5
2E5
330
1F
100
AcDbEntity
  8
0
  6
Continuous
 62
     7
370
    25
100
AcDbLine
 10
35.8994833
 20
13.4921949
 30
0.0
 11
35.8786149
 21
13.5292104
 31
0.0
  0
LINE
  5
2E6
330
1F
100
AcDbEntity
  8
0
  6
Continuous
 62
     7
370
    25
100
AcDbLine
 10
35.8786149
 20
13.5292104
 30
0.0
 11
35.8633376
 21
13.5729175
 31
0.0
  0
LINE
  5
2E7
330
1F
100
AcDbEntity
  8
0
  6
Continuous
 62
     7
370
    25
100
AcDbLine
 10
35.8633376
 20
13.5729175
 30
0.0
 11
35.8539146
 21
13.6231002
 31
0.0
  0
LINE
  5
2E8
330
1F
100
AcDbEntity
  8
0
  6
Continuous
 62
     7
370
    25
100
AcDbLine
 10
35.8539146
 20
13.6231002
 30
0.0
 11
35.8506057
 21
13.6795205
 31
0.0
  0
LINE
  5
2E9
330
1F
100
AcDbEntity
  8
0
  6
Continuous
 62
     7
370
    25
100
AcDbLine
 10
35.8506057
 20
13.6795205
 30
0.0
 11
35.8536681
 21
13.7419541
 31
0.0
  0
LINE
  5
2EA
330
1F
100
AcDbEntity
  8
0
  6
Continuous
 62
     7
370
    25
100
AcDbLine
 10
35.8536681
 20
13.7419541
 30
0.0
 11
35.8633558
 21
13.8101551
 31
0.0
  0
LINE
  5
2EB
330
1F
100
AcDbEntity
  8
0
  6
Continuous
 62
     7
370
    25
100
AcDbLine
 10
35.8633558
 20
13.8101551
 30
0.0
 11
35.8799049
 21
13.8838528
 31
0.0
  0
LINE
  5
2EC
330
1F
100
AcDbEntity
  8
0
  6
Continuous
 62
     7
370
    25
100
AcDbLine
 10
35.8799049
 20
13.8838528
 30
0.0
 11
35.9344961
 21
14.0467444
 31
0.0
  0
LINE
  5
2ED
330
1F
100
AcDbEntity
  8
0
  6
Continuous
 62
     7
370
    25
100
AcDbLine
 10
35.9344961
 20
14.0467444
 30
0.0
 11
36.019231
 21
14.2284638
 31
0.0
  0
LINE
  5
2EE
330
1F
100
AcDbEntity
  8
0
  6
Continuous
 62
     7
370
    25
100
AcDbLine
 10
36.019231
 20
14.2284638
 30
0.0
 11
36.0705685
 21
14.3214959
 31
0.0
  0
LINE
  5
2EF
330
1F
100
AcDbEntity
  8
0
  6
Continuous
 62
     7
370
    25
100
AcDbLine
 10
36.0705685
 20
14.3214959
 30
0.0
 11
36.1390735
 21
14.4634383
 31
0.0
  0
LINE
  5
2F0
330
1F
100
AcDbEntity
  8
0
  6
Continuous
 62
     7
370
    25
100
AcDbLine
 10
36.1390735
 20
14.4634383
 30
0.0
 11
36.2376993
 21
14.7193652
 31
0.0
  0
LINE
  5
2F1
330
1F
100
AcDbEntity
  8
0
  6
Continuous
 62
     7
370
    25
100
AcDbLine
 10
36.2376993
 20
14.7193652
 30
0.0
 11
36.2928391
 21
14.8930323
 31
0.0
  0
LINE
  5
2F2
330
1F
100
AcDbEntity
  8
0
  6
Continuous
 62
     7
370
    25
100
AcDbLine
 10
36.2928391
 20
14.8930323
 30
0.0
 11
36.3478895
 21
15.0952434
 31
0.0
  0
LINE
  5
2F3
330
1F
100
AcDbEntity
  8
0
  6
Continuous
 62
     7
370
    25
100
AcDbLine
 10
36.3478895
 20
15.0952434
 30
0.0
 11
36.4015176
 21
15.3305267
 31
0.0
  0
LINE
  5
2F4
330
1F
100
AcDbEntity
  8
0
  6
Continuous
 62
     7
370
    25
100
AcDbLine
 10
36.4015176
 20
15.3305267
 30
0.0
 11
36.450879
 21
15.598625
 31
0.0
  0
LINE
  5
2F5
330
1F
100
AcDbEntity
  8
0
  6
Continuous
 62
     7
370
    25
100
AcDbLine
 10
36.450879
 20
15.598625
 30
0.0
 11
36.4928316
 21
15.8960982
 31
0.0
  0
LINE
  5
2F6
330
1F
100
AcDbEntity
  8
0
  6
Continuous
 62
     7
370
    25
100
AcDbLine
 10
36.4928316
 20
15.8960982
 30
0.0
 11
36.525164
 21
16.2240709
 31
0.0
  0
LINE
  5
2F7
330
1F
100
AcDbEntity
  8
0
  6
Continuous
 62
     7
370
    25
100
AcDbLine
 10
36.525164
 20
16.2240709
 30
0.0
 11
36.5454894
 21
16.5835109
 31
0.0
  0
LINE
  5
2F8
330
1F
100
AcDbEntity
  8
0
  6
Continuous
 62
     7
370
    25
100
AcDbLine
 10
36.5454894
 20
16.5835109
 30
0.0
 11
36.5511797
 21
16.97189
 31
0.0
  0
LINE
  5
2F9
330
1F
100
AcDbEntity
  8
0
  6
Continuous
 62
     7
370
    25
100
AcDbLine
 10
36.5511797
 20
16.97189
 30
0.0
 11
36.5414512929
 21
17.3493405736
 31
0.0
  0
ARC
  5
2FA
330
1F
100
AcDbEntity
  8
0
  6
Continuous
 62
     7
370
    25
100
AcDbCircle
 10
26.9999946776
 20
-0.0000272743
 30
0.0
 40
19.79999896628504
100
AcDbArc
 50
61.1909702272
 51
64.8090747023
  0
LINE
  5
2FB
330
1F
100
AcDbEntity
  8
0
  6
Continuous
 62
     7
370
    25
100
AcDbLine
 10
35.4275865745
 20
17.9168824449
 30
0.0
 11
35.1165049
 21
17.7028933
 31
0.0
  0
LINE
  5
2FC
330
1F
100
AcDbEntity
  8
0
  6
Continuous
 62
     7
370
    25
100
AcDbLine
 10
35.1165049
 20
17.7028933
 30
0.0
 11
34.8056442
 21
17.4700062
 31
0.0
  0
LINE
  5
2FD
330
1F
100
AcDbEntity
  8
0
  6
Continuous
 62
     7
370
    25
100
AcDbLine
 10
34.8056442
 20
17.4700062
 30
0.0
 11
34.5267981
 21
17.2422892
 31
0.0
  0
LINE
  5
2FE
330
1F
100
AcDbEntity
  8
0
  6
Continuous
 62
     7
370
    25
100
AcDbLine
 10
34.5267981
 20
17.2422892
 30
0.0
 11
34.2804672
 21
17.0233542
 31
0.0
  0
LINE
  5
2FF
330
1F
100
AcDbEntity
  8
0
  6
Continuous
 62
     7
370
    25
100
AcDbLine
 10
34.2804672
 20
17.0233542
 30
0.0
 11
34.0644654
 21
16.8145634
 31
0.0
  0
LINE
  5
300
330
1F
100
AcDbEntity
  8
0
  6
Continuous
 62
     7
370
    25
100
AcDbLine
 10
34.0644654
 20
16.8145634
 30
0.0
 11
33.8765832
 21
16.617045
 31
0.0
  0
LINE
  5
301
330
1F
100
AcDbEntity
  8
0
  6
Continuous
 62
     7
370
    25
100
AcDbLine
 10
33.8765832
 20
16.617045
 30
0.0
 11
33.7177569
 21
16.4353629
 31
0.0
  0
LINE
  5
302
330
1F
100
AcDbEntity
  8
0
  6
Continuous
 62
     7
370
    25
100
AcDbLine
 10
33.7177569
 20
16.4353629
 30
0.0
 11
33.5865225
 21
16.2719695
 31
0.0
  0
LINE
  5
303
330
1F
100
AcDbEntity
  8
0
  6
Continuous
 62
     7
370
    25
100
AcDbLine
 10
33.5865225
 20
16.2719695
 30
0.0
 11
33.4784331
 21
16.1252815
 31
0.0
  0
LINE
  5
304
330
1F
100
AcDbEntity
  8
0
  6
Continuous
 62
     7
370
    25
100
AcDbLine
 10
33.4784331
 20
16.1252815
 30
0.0
 11
33.3293548
 21
15.8950615
 31
0.0
  0
LINE
  5
305
330
1F
100
AcDbEntity
  8
0
  6
Continuous
 62
     7
370
    25
100
AcDbLine
 10
33.3293548
 20
15.8950615
 30
0.0
 11
33.2547872
 21
15.7562082
 31
0.0
  0
LINE
  5
306
330
1F
100
AcDbEntity
  8
0
  6
Continuous
 62
     7
370
    25
100
AcDbLine
 10
33.2547872
 20
15.7562082
 30
0.0
 11
33.209698
 21
15.6599924
 31
0.0
  0
LINE
  5
307
330
1F
100
AcDbEntity
  8
0
  6
Continuous
 62
     7
370
    25
100
AcDbLine
 10
33.209698
 20
15.6599924
 30
0.0
 11
33.1124899
 21
15.4846284
 31
0.0
  0
LINE
  5
308
330
1F
100
AcDbEntity
  8
0
  6
Continuous
 62
     7
370
    25
100
AcDbLine
 10
33.1124899
 20
15.4846284
 30
0.0
 11
33.0127958
 21
15.3447179
 31
0.0
  0
LINE
  5
309
330
1F
100
AcDbEntity
  8
0
  6
Continuous
 62
     7
370
    25
100
AcDbLine
 10
33.0127958
 20
15.3447179
 30
0.0
 11
32.9629003
 21
15.288011
 31
0.0
  0
LINE
  5
30A
330
1F
100
AcDbEntity
  8
0
  6
Continuous
 62
     7
370
    25
100
AcDbLine
 10
32.9629003
 20
15.288011
 30
0.0
 11
32.9134189
 21
15.240086
 31
0.0
  0
LINE
  5
30B
330
1F
100
AcDbEntity
  8
0
  6
Continuous
 62
     7
370
    25
100
AcDbLine
 10
32.9134189
 20
15.240086
 30
0.0
 11
32.864709
 21
15.2009108
 31
0.0
  0
LINE
  5
30C
330
1F
100
AcDbEntity
  8
0
  6
Continuous
 62
     7
370
    25
100
AcDbLine
 10
32.864709
 20
15.2009108
 30
0.0
 11
32.8171191
 21
15.1704248
 31
0.0
  0
LINE
  5
30D
330
1F
100
AcDbEntity
  8
0
  6
Continuous
 62
     7
370
    25
100
AcDbLine
 10
32.8171191
 20
15.1704248
 30
0.0
 11
32.7709818
 21
15.1485514
 31
0.0
  0
LINE
  5
30E
330
1F
100
AcDbEntity
  8
0
  6
Continuous
 62
     7
370
    25
100
AcDbLine
 10
32.7709818
 20
15.1485514
 30
0.0
 11
32.7266422
 21
15.1352207
 31
0.0
  0
LINE
  5
30F
330
1F
100
AcDbEntity
  8
0
  6
Continuous
 62
     7
370
    25
100
AcDbLine
 10
32.7266422
 20
15.1352207
 30
0.0
 11
32.68443
 21
15.1303464
 31
0.0
  0
LINE
  5
310
330
1F
100
AcDbEntity
  8
0
  6
Continuous
 62
     7
370
    25
100
AcDbLine
 10
32.68443
 20
15.1303464
 30
0.0
 11
32.6446779
 21
15.1338205
 31
0.0
  0
LINE
  5
311
330
1F
100
AcDbEntity
  8
0
  6
Continuous
 62
     7
370
    25
100
AcDbLine
 10
32.6446779
 20
15.1338205
 30
0.0
 11
32.6166775
 21
15.1418459
 31
0.0
  0
LINE
  5
312
330
1F
100
AcDbEntity
  8
0
  6
Continuous
 62
     7
370
    25
100
AcDbLine
 10
32.6166775
 20
15.1418459
 30
0.0
 11
32.3506061
 21
15.2379607
 31
0.0
  0
LINE
  5
313
330
1F
100
AcDbEntity
  8
0
  6
Continuous
 62
     7
370
    25
100
AcDbLine
 10
32.3506061
 20
15.2379607
 30
0.0
 11
31.9906245
 21
15.3595627
 31
0.0
  0
LINE
  5
314
330
1F
100
AcDbEntity
  8
0
  6
Continuous
 62
     7
370
    25
100
AcDbLine
 10
31.9906245
 20
15.3595627
 30
0.0
 11
31.6279173
 21
15.4727765
 31
0.0
  0
LINE
  5
315
330
1F
100
AcDbEntity
  8
0
  6
Continuous
 62
     7
370
    25
100
AcDbLine
 10
31.6279173
 20
15.4727765
 30
0.0
 11
31.3561662
 21
15.5514108
 31
0.0
  0
LINE
  5
316
330
1F
100
AcDbEntity
  8
0
  6
Continuous
 62
     7
370
    25
100
AcDbLine
 10
31.3561662
 20
15.5514108
 30
0.0
 11
31.3287961
 21
15.5613764
 31
0.0
  0
LINE
  5
317
330
1F
100
AcDbEntity
  8
0
  6
Continuous
 62
     7
370
    25
100
AcDbLine
 10
31.3287961
 20
15.5613764
 30
0.0
 11
31.294594
 21
15.5819315
 31
0.0
  0
LINE
  5
318
330
1F
100
AcDbEntity
  8
0
  6
Continuous
 62
     7
370
    25
100
AcDbLine
 10
31.294594
 20
15.5819315
 30
0.0
 11
31.2633086
 21
15.6106866
 31
0.0
  0
LINE
  5
319
330
1F
100
AcDbEntity
  8
0
  6
Continuous
 62
     7
370
    25
100
AcDbLine
 10
31.2633086
 20
15.6106866
 30
0.0
 11
31.2352728
 21
15.6475335
 31
0.0
  0
LINE
  5
31A
330
1F
100
AcDbEntity
  8
0
  6
Continuous
 62
     7
370
    25
100
AcDbLine
 10
31.2352728
 20
15.6475335
 30
0.0
 11
31.2108037
 21
15.6923483
 31
0.0
  0
LINE
  5
31B
330
1F
100
AcDbEntity
  8
0
  6
Continuous
 62
     7
370
    25
100
AcDbLine
 10
31.2108037
 20
15.6923483
 30
0.0
 11
31.1902219
 21
15.7449846
 31
0.0
  0
LINE
  5
31C
330
1F
100
AcDbEntity
  8
0
  6
Continuous
 62
     7
370
    25
100
AcDbLine
 10
31.1902219
 20
15.7449846
 30
0.0
 11
31.1738414
 21
15.805309
 31
0.0
  0
LINE
  5
31D
330
1F
100
AcDbEntity
  8
0
  6
Continuous
 62
     7
370
    25
100
AcDbLine
 10
31.1738414
 20
15.805309
 30
0.0
 11
31.1619797
 21
15.8731656
 31
0.0
  0
LINE
  5
31E
330
1F
100
AcDbEntity
  8
0
  6
Continuous
 62
     7
370
    25
100
AcDbLine
 10
31.1619797
 20
15.8731656
 30
0.0
 11
31.1549449
 21
15.9483702
 31
0.0
  0
LINE
  5
31F
330
1F
100
AcDbEntity
  8
0
  6
Continuous
 62
     7
370
    25
100
AcDbLine
 10
31.1549449
 20
15.9483702
 30
0.0
 11
31.156528
 21
16.1201589
 31
0.0
  0
LINE
  5
320
330
1F
100
AcDbEntity
  8
0
  6
Continuous
 62
     7
370
    25
100
AcDbLine
 10
31.156528
 20
16.1201589
 30
0.0
 11
31.1809613
 21
16.3191689
 31
0.0
  0
LINE
  5
321
330
1F
100
AcDbEntity
  8
0
  6
Continuous
 62
     7
370
    25
100
AcDbLine
 10
31.1809613
 20
16.3191689
 30
0.0
 11
31.2010377
 21
16.4235118
 31
0.0
  0
LINE
  5
322
330
1F
100
AcDbEntity
  8
0
  6
Continuous
 62
     7
370
    25
100
AcDbLine
 10
31.2010377
 20
16.4235118
 30
0.0
 11
31.2223271
 21
16.5796763
 31
0.0
  0
LINE
  5
323
330
1F
100
AcDbEntity
  8
0
  6
Continuous
 62
     7
370
    25
100
AcDbLine
 10
31.2223271
 20
16.5796763
 30
0.0
 11
31.2370402
 21
16.8535542
 31
0.0
  0
LINE
  5
324
330
1F
100
AcDbEntity
  8
0
  6
Continuous
 62
     7
370
    25
100
AcDbLine
 10
31.2370402
 20
16.8535542
 30
0.0
 11
31.2358151
 21
17.0357606
 31
0.0
  0
LINE
  5
325
330
1F
100
AcDbEntity
  8
0
  6
Continuous
 62
     7
370
    25
100
AcDbLine
 10
31.2358151
 20
17.0357606
 30
0.0
 11
31.2256845
 21
17.2450863
 31
0.0
  0
LINE
  5
326
330
1F
100
AcDbEntity
  8
0
  6
Continuous
 62
     7
370
    25
100
AcDbLine
 10
31.2256845
 20
17.2450863
 30
0.0
 11
31.2039813
 21
17.485426
 31
0.0
  0
LINE
  5
327
330
1F
100
AcDbEntity
  8
0
  6
Continuous
 62
     7
370
    25
100
AcDbLine
 10
31.2039813
 20
17.485426
 30
0.0
 11
31.1680798
 21
17.7556562
 31
0.0
  0
LINE
  5
328
330
1F
100
AcDbEntity
  8
0
  6
Continuous
 62
     7
370
    25
100
AcDbLine
 10
31.1680798
 20
17.7556562
 30
0.0
 11
31.1160549
 21
18.0515341
 31
0.0
  0
LINE
  5
329
330
1F
100
AcDbEntity
  8
0
  6
Continuous
 62
     7
370
    25
100
AcDbLine
 10
31.1160549
 20
18.0515341
 30
0.0
 11
31.0454557
 21
18.3734459
 31
0.0
  0
LINE
  5
32A
330
1F
100
AcDbEntity
  8
0
  6
Continuous
 62
     7
370
    25
100
AcDbLine
 10
31.0454557
 20
18.3734459
 30
0.0
 11
30.9537132
 21
18.7215745
 31
0.0
  0
LINE
  5
32B
330
1F
100
AcDbEntity
  8
0
  6
Continuous
 62
     7
370
    25
100
AcDbLine
 10
30.9537132
 20
18.7215745
 30
0.0
 11
30.8391092
 21
19.0927034
 31
0.0
  0
LINE
  5
32C
330
1F
100
AcDbEntity
  8
0
  6
Continuous
 62
     7
370
    25
100
AcDbLine
 10
30.8391092
 20
19.0927034
 30
0.0
 11
30.7132184
 21
19.4486737
 31
0.0
  0
ARC
  5
32D
330
1F
100
AcDbEntity
  8
0
  6
Continuous
 62
     7
370
    25
100
AcDbCircle
 10
26.9999946776
 20
-0.0000272743
 30
0.0
 40
19.8
100
AcDbArc
 50
79.19094505
 51
82.809049057
  0
LINE
  5
32E
330
1F
100
AcDbEntity
  8
0
  6
Continuous
 62
     7
370
    25
100
AcDbLine
 10
29.4784902
 20
19.6442355
 30
0.0
 11
29.24876
 21
19.34459
 31
0.0
  0
LINE
  5
32F
330
1F
100
AcDbEntity
  8
0
  6
Continuous
 62
     7
370
    25
100
AcDbLine
 10
29.24876
 20
19.34459
 30
0.0
 11
29.02508
 21
19.02704
 31
0.0
  0
LINE
  5
330
330
1F
100
AcDbEntity
  8
0
  6
Continuous
 62
     7
370
    25
100
AcDbLine
 10
29.02508
 20
19.02704
 30
0.0
 11
28.83025
 21
18.7243
 31
0.0
  0
LINE
  5
331
330
1F
100
AcDbEntity
  8
0
  6
Continuous
 62
     7
370
    25
100
AcDbLine
 10
28.83025
 20
18.7243
 30
0.0
 11
28.66363
 21
18.43996
 31
0.0
  0
LINE
  5
332
330
1F
100
AcDbEntity
  8
0
  6
Continuous
 62
     7
370
    25
100
AcDbLine
 10
28.66363
 20
18.43996
 30
0.0
 11
28.52272
 21
18.17464
 31
0.0
  0
LINE
  5
333
330
1F
100
AcDbEntity
  8
0
  6
Continuous
 62
     7
370
    25
100
AcDbLine
 10
28.52272
 20
18.17464
 30
0.0
 11
28.40507
 21
17.92873
 31
0.0
  0
LINE
  5
334
330
1F
100
AcDbEntity
  8
0
  6
Continuous
 62
     7
370
    25
100
AcDbLine
 10
28.40507
 20
17.92873
 30
0.0
 11
28.31016
 21
17.70686
 31
0.0
  0
LINE
  5
335
330
1F
100
AcDbEntity
  8
0
  6
Continuous
 62
     7
370
    25
100
AcDbLine
 10
28.31016
 20
17.70686
 30
0.0
 11
28.23584
 21
17.51091
 31
0.0
  0
LINE
  5
336
330
1F
100
AcDbEntity
  8
0
  6
Continuous
 62
     7
370
    25
100
AcDbLine
 10
28.23584
 20
17.51091
 30
0.0
 11
28.17837
 21
17.338
 31
0.0
  0
LINE
  5
337
330
1F
100
AcDbEntity
  8
0
  6
Continuous
 62
     7
370
    25
100
AcDbLine
 10
28.17837
 20
17.338
 30
0.0
 11
28.10773
 21
17.07298
 31
0.0
  0
LINE
  5
338
330
1F
100
AcDbEntity
  8
0
  6
Continuous
 62
     7
370
    25
100
AcDbLine
 10
28.10773
 20
17.07298
 30
0.0
 11
28.07972
 21
16.91788
 31
0.0
  0
LINE
  5
339
330
1F
100
AcDbEntity
  8
0
  6
Continuous
 62
     7
370
    25
100
AcDbLine
 10
28.07972
 20
16.91788
 30
0.0
 11
28.06657
 21
16.81244
 31
0.0
  0
LINE
  5
33A
330
1F
100
AcDbEntity
  8
0
  6
Continuous
 62
     7
370
    25
100
AcDbLine
 10
28.06657
 20
16.81244
 30
0.0
 11
28.02831
 21
16.61562
 31
0.0
  0
LINE
  5
33B
330
1F
100
AcDbEntity
  8
0
  6
Continuous
 62
     7
370
    25
100
AcDbLine
 10
28.02831
 20
16.61562
 30
0.0
 11
27.97673
 21
16.45175
 31
0.0
  0
LINE
  5
33C
330
1F
100
AcDbEntity
  8
0
  6
Continuous
 62
     7
370
    25
100
AcDbLine
 10
27.97673
 20
16.45175
 30
0.0
 11
27.9468
 21
16.3824
 31
0.0
  0
LINE
  5
33D
330
1F
100
AcDbEntity
  8
0
  6
Continuous
 62
     7
370
    25
100
AcDbLine
 10
27.9468
 20
16.3824
 30
0.0
 11
27.91455
 21
16.32153
 31
0.0
  0
LINE
  5
33E
330
1F
100
AcDbEntity
  8
0
  6
Continuous
 62
     7
370
    25
100
AcDbLine
 10
27.91455
 20
16.32153
 30
0.0
 11
27.88033
 21
16.26922
 31
0.0
  0
LINE
  5
33F
330
1F
100
AcDbEntity
  8
0
  6
Continuous
 62
     7
370
    25
100
AcDbLine
 10
27.88033
 20
16.26922
 30
0.0
 11
27.84449
 21
16.22552
 31
0.0
  0
LINE
  5
340
330
1F
100
AcDbEntity
  8
0
  6
Continuous
 62
     7
370
    25
100
AcDbLine
 10
27.84449
 20
16.22552
 30
0.0
 11
27.80737
 21
16.19046
 31
0.0
  0
LINE
  5
341
330
1F
100
AcDbEntity
  8
0
  6
Continuous
 62
     7
370
    25
100
AcDbLine
 10
27.80737
 20
16.19046
 30
0.0
 11
27.76932
 21
16.16408
 31
0.0
  0
LINE
  5
342
330
1F
100
AcDbEntity
  8
0
  6
Continuous
 62
     7
370
    25
100
AcDbLine
 10
27.76932
 20
16.16408
 30
0.0
 11
27.73068
 21
16.1464
 31
0.0
  0
LINE
  5
343
330
1F
100
AcDbEntity
  8
0
  6
Continuous
 62
     7
370
    25
100
AcDbLine
 10
27.73068
 20
16.1464
 30
0.0
 11
27.6918
 21
16.13742
 31
0.0
  0
LINE
  5
344
330
1F
100
AcDbEntity
  8
0
  6
Continuous
 62
     7
370
    25
100
AcDbLine
 10
27.6918
 20
16.13742
 30
0.0
 11
27.66269
 21
16.1364
 31
0.0
  0
LINE
  5
345
330
1F
100
AcDbEntity
  8
0
  6
Continuous
 62
     7
370
    25
100
AcDbLine
 10
27.66269
 20
16.1364
 30
0.0
 11
27.37994
 21
16.14559
 31
0.0
  0
LINE
  5
346
330
1F
100
AcDbEntity
  8
0
  6
Continuous
 62
     7
370
    25
100
AcDbLine
 10
27.37994
 20
16.14559
 30
0.0
 11
27.0
 21
16.15
 31
0.0
  0
LINE
  5
347
330
1F
100
AcDbEntity
  8
0
  6
Continuous
 62
     7
370
    25
100
AcDbLine
 10
27.0
 20
16.15
 30
0.0
 11
26.62006
 21
16.14559
 31
0.0
  0
LINE
  5
348
330
1F
100
AcDbEntity
  8
0
  6
Continuous
 62
     7
370
    25
100
AcDbLine
 10
26.62006
 20
16.14559
 30
0.0
 11
26.33731
 21
16.1364
 31
0.0
  0
LINE
  5
349
330
1F
100
AcDbEntity
  8
0
  6
Continuous
 62
     7
370
    25
100
AcDbLine
 10
26.33731
 20
16.1364
 30
0.0
 11
26.3082
 21
16.13742
 31
0.0
  0
LINE
  5
34A
330
1F
100
AcDbEntity
  8
0
  6
Continuous
 62
     7
370
    25
100
AcDbLine
 10
26.3082
 20
16.13742
 30
0.0
 11
26.26932
 21
16.1464
 31
0.0
  0
LINE
  5
34B
330
1F
100
AcDbEntity
  8
0
  6
Continuous
 62
     7
370
    25
100
AcDbLine
 10
26.26932
 20
16.1464
 30
0.0
 11
26.23068
 21
16.16408
 31
0.0
  0
LINE
  5
34C
330
1F
100
AcDbEntity
  8
0
  6
Continuous
 62
     7
370
    25
100
AcDbLine
 10
26.23068
 20
16.16408
 30
0.0
 11
26.19263
 21
16.19046
 31
0.0
  0
LINE
  5
34D
330
1F
100
AcDbEntity
  8
0
  6
Continuous
 62
     7
370
    25
100
AcDbLine
 10
26.19263
 20
16.19046
 30
0.0
 11
26.15551
 21
16.22552
 31
0.0
  0
LINE
  5
34E
330
1F
100
AcDbEntity
  8
0
  6
Continuous
 62
     7
370
    25
100
AcDbLine
 10
26.15551
 20
16.22552
 30
0.0
 11
26.11967
 21
16.26922
 31
0.0
  0
LINE
  5
34F
330
1F
100
AcDbEntity
  8
0
  6
Continuous
 62
     7
370
    25
100
AcDbLine
 10
26.11967
 20
16.26922
 30
0.0
 11
26.08545
 21
16.32153
 31
0.0
  0
LINE
  5
350
330
1F
100
AcDbEntity
  8
0
  6
Continuous
 62
     7
370
    25
100
AcDbLine
 10
26.08545
 20
16.32153
 30
0.0
 11
26.0532
 21
16.3824
 31
0.0
  0
LINE
  5
351
330
1F
100
AcDbEntity
  8
0
  6
Continuous
 62
     7
370
    25
100
AcDbLine
 10
26.0532
 20
16.3824
 30
0.0
 11
26.02327
 21
16.45175
 31
0.0
  0
LINE
  5
352
330
1F
100
AcDbEntity
  8
0
  6
Continuous
 62
     7
370
    25
100
AcDbLine
 10
26.02327
 20
16.45175
 30
0.0
 11
25.97169
 21
16.61562
 31
0.0
  0
LINE
  5
353
330
1F
100
AcDbEntity
  8
0
  6
Continuous
 62
     7
370
    25
100
AcDbLine
 10
25.97169
 20
16.61562
 30
0.0
 11
25.93343
 21
16.81244
 31
0.0
  0
LINE
  5
354
330
1F
100
AcDbEntity
  8
0
  6
Continuous
 62
     7
370
    25
100
AcDbLine
 10
25.93343
 20
16.81244
 30
0.0
 11
25.92028
 21
16.91788
 31
0.0
  0
LINE
  5
355
330
1F
100
AcDbEntity
  8
0
  6
Continuous
 62
     7
370
    25
100
AcDbLine
 10
25.92028
 20
16.91788
 30
0.0
 11
25.89227
 21
17.07298
 31
0.0
  0
LINE
  5
356
330
1F
100
AcDbEntity
  8
0
  6
Continuous
 62
     7
370
    25
100
AcDbLine
 10
25.89227
 20
17.07298
 30
0.0
 11
25.82163
 21
17.338
 31
0.0
  0
LINE
  5
357
330
1F
100
AcDbEntity
  8
0
  6
Continuous
 62
     7
370
    25
100
AcDbLine
 10
25.82163
 20
17.338
 30
0.0
 11
25.76416
 21
17.51091
 31
0.0
  0
LINE
  5
358
330
1F
100
AcDbEntity
  8
0
  6
Continuous
 62
     7
370
    25
100
AcDbLine
 10
25.76416
 20
17.51091
 30
0.0
 11
25.68984
 21
17.70686
 31
0.0
  0
LINE
  5
359
330
1F
100
AcDbEntity
  8
0
  6
Continuous
 62
     7
370
    25
100
AcDbLine
 10
25.68984
 20
17.70686
 30
0.0
 11
25.59493
 21
17.92873
 31
0.0
  0
LINE
  5
35A
330
1F
100
AcDbEntity
  8
0
  6
Continuous
 62
     7
370
    25
100
AcDbLine
 10
25.59493
 20
17.92873
 30
0.0
 11
25.47728
 21
18.17464
 31
0.0
  0
LINE
  5
35B
330
1F
100
AcDbEntity
  8
0
  6
Continuous
 62
     7
370
    25
100
AcDbLine
 10
25.47728
 20
18.17464
 30
0.0
 11
25.33637
 21
18.43996
 31
0.0
  0
LINE
  5
35C
330
1F
100
AcDbEntity
  8
0
  6
Continuous
 62
     7
370
    25
100
AcDbLine
 10
25.33637
 20
18.43996
 30
0.0
 11
25.16975
 21
18.7243
 31
0.0
  0
LINE
  5
35D
330
1F
100
AcDbEntity
  8
0
  6
Continuous
 62
     7
370
    25
100
AcDbLine
 10
25.16975
 20
18.7243
 30
0.0
 11
24.97492
 21
19.02704
 31
0.0
  0
LINE
  5
35E
330
1F
100
AcDbEntity
  8
0
  6
Continuous
 62
     7
370
    25
100
AcDbLine
 10
24.97492
 20
19.02704
 30
0.0
 11
24.75124
 21
19.34459
 31
0.0
  0
LINE
  5
35F
330
1F
100
AcDbEntity
  8
0
  6
Continuous
 62
     7
370
    25
100
AcDbLine
 10
24.75124
 20
19.34459
 30
0.0
 11
24.5215098
 21
19.6442355
 31
0.0
  0
ARC
  5
360
330
1F
100
AcDbEntity
  8
0
  6
Continuous
 62
     7
370
    25
100
AcDbCircle
 10
27.0000053224
 20
-0.0000272743
 30
0.0
 40
19.80000000000001
100
AcDbArc
 50
97.190950943
 51
100.80905495
  0
LINE
  5
361
330
1F
100
AcDbEntity
  8
0
  6
Continuous
 62
     7
370
    25
100
AcDbLine
 10
23.2867816
 20
19.4486737
 30
0.0
 11
23.1608908
 21
19.0927034
 31
0.0
  0
LINE
  5
362
330
1F
100
AcDbEntity
  8
0
  6
Continuous
 62
     7
370
    25
100
AcDbLine
 10
23.1608908
 20
19.0927034
 30
0.0
 11
23.0462868
 21
18.7215745
 31
0.0
  0
LINE
  5
363
330
1F
100
AcDbEntity
  8
0
  6
Continuous
 62
     7
370
    25
100
AcDbLine
 10
23.0462868
 20
18.7215745
 30
0.0
 11
22.9545443
 21
18.3734459
 31
0.0
  0
LINE
  5
364
330
1F
100
AcDbEntity
  8
0
  6
Continuous
 62
     7
370
    25
100
AcDbLine
 10
22.9545443
 20
18.3734459
 30
0.0
 11
22.8839451
 21
18.0515341
 31
0.0
  0
LINE
  5
365
330
1F
100
AcDbEntity
  8
0
  6
Continuous
 62
     7
370
    25
100
AcDbLine
 10
22.8839451
 20
18.0515341
 30
0.0
 11
22.8319202
 21
17.7556562
 31
0.0
  0
LINE
  5
366
330
1F
100
AcDbEntity
  8
0
  6
Continuous
 62
     7
370
    25
100
AcDbLine
 10
22.8319202
 20
17.7556562
 30
0.0
 11
22.7960187
 21
17.485426
 31
0.0
  0
LINE
  5
367
330
1F
100
AcDbEntity
  8
0
  6
Continuous
 62
     7
370
    25
100
AcDbLine
 10
22.7960187
 20
17.485426
 30
0.0
 11
22.7743155
 21
17.2450863
 31
0.0
  0
LINE
  5
368
330
1F
100
AcDbEntity
  8
0
  6
Continuous
 62
     7
370
    25
100
AcDbLine
 10
22.7743155
 20
17.2450863
 30
0.0
 11
22.7641849
 21
17.0357606
 31
0.0
  0
LINE
  5
369
330
1F
100
AcDbEntity
  8
0
  6
Continuous
 62
     7
370
    25
100
AcDbLine
 10
22.7641849
 20
17.0357606
 30
0.0
 11
22.7629598
 21
16.8535542
 31
0.0
  0
LINE
  5
36A
330
1F
100
AcDbEntity
  8
0
  6
Continuous
 62
     7
370
    25
100
AcDbLine
 10
22.7629598
 20
16.8535542
 30
0.0
 11
22.7776729
 21
16.5796763
 31
0.0
  0
LINE
  5
36B
330
1F
100
AcDbEntity
  8
0
  6
Continuous
 62
     7
370
    25
100
AcDbLine
 10
22.7776729
 20
16.5796763
 30
0.0
 11
22.7989623
 21
16.4235118
 31
0.0
  0
LINE
  5
36C
330
1F
100
AcDbEntity
  8
0
  6
Continuous
 62
     7
370
    25
100
AcDbLine
 10
22.7989623
 20
16.4235118
 30
0.0
 11
22.8190387
 21
16.3191689
 31
0.0
  0
LINE
  5
36D
330
1F
100
AcDbEntity
  8
0
  6
Continuous
 62
     7
370
    25
100
AcDbLine
 10
22.8190387
 20
16.3191689
 30
0.0
 11
22.843472
 21
16.1201589
 31
0.0
  0
LINE
  5
36E
330
1F
100
AcDbEntity
  8
0
  6
Continuous
 62
     7
370
    25
100
AcDbLine
 10
22.843472
 20
16.1201589
 30
0.0
 11
22.8450551
 21
15.9483702
 31
0.0
  0
LINE
  5
36F
330
1F
100
AcDbEntity
  8
0
  6
Continuous
 62
     7
370
    25
100
AcDbLine
 10
22.8450551
 20
15.9483702
 30
0.0
 11
22.8380203
 21
15.8731656
 31
0.0
  0
LINE
  5
370
330
1F
100
AcDbEntity
  8
0
  6
Continuous
 62
     7
370
    25
100
AcDbLine
 10
22.8380203
 20
15.8731656
 30
0.0
 11
22.8261586
 21
15.805309
 31
0.0
  0
LINE
  5
371
330
1F
100
AcDbEntity
  8
0
  6
Continuous
 62
     7
370
    25
100
AcDbLine
 10
22.8261586
 20
15.805309
 30
0.0
 11
22.8097781
 21
15.7449846
 31
0.0
  0
LINE
  5
372
330
1F
100
AcDbEntity
  8
0
  6
Continuous
 62
     7
370
    25
100
AcDbLine
 10
22.8097781
 20
15.7449846
 30
0.0
 11
22.7891963
 21
15.6923483
 31
0.0
  0
LINE
  5
373
330
1F
100
AcDbEntity
  8
0
  6
Continuous
 62
     7
370
    25
100
AcDbLine
 10
22.7891963
 20
15.6923483
 30
0.0
 11
22.7647272
 21
15.6475335
 31
0.0
  0
LINE
  5
374
330
1F
100
AcDbEntity
  8
0
  6
Continuous
 62
     7
370
    25
100
AcDbLine
 10
22.7647272
 20
15.6475335
 30
0.0
 11
22.7366914
 21
15.6106866
 31
0.0
  0
LINE
  5
375
330
1F
100
AcDbEntity
  8
0
  6
Continuous
 62
     7
370
    25
100
AcDbLine
 10
22.7366914
 20
15.6106866
 30
0.0
 11
22.705406
 21
15.5819315
 31
0.0
  0
LINE
  5
376
330
1F
100
AcDbEntity
  8
0
  6
Continuous
 62
     7
370
    25
100
AcDbLine
 10
22.705406
 20
15.5819315
 30
0.0
 11
22.6712039
 21
15.5613764
 31
0.0
  0
LINE
  5
377
330
1F
100
AcDbEntity
  8
0
  6
Continuous
 62
     7
370
    25
100
AcDbLine
 10
22.6712039
 20
15.5613764
 30
0.0
 11
22.6438338
 21
15.5514108
 31
0.0
  0
LINE
  5
378
330
1F
100
AcDbEntity
  8
0
  6
Continuous
 62
     7
370
    25
100
AcDbLine
 10
22.6438338
 20
15.5514108
 30
0.0
 11
22.3720827
 21
15.4727765
 31
0.0
  0
LINE
  5
379
330
1F
100
AcDbEntity
  8
0
  6
Continuous
 62
     7
370
    25
100
AcDbLine
 10
22.3720827
 20
15.4727765
 30
0.0
 11
22.0093755
 21
15.3595627
 31
0.0
  0
LINE
  5
37A
330
1F
100
AcDbEntity
  8
0
  6
Continuous
 62
     7
370
    25
100
AcDbLine
 10
22.0093755
 20
15.3595627
 30
0.0
 11
21.6493939
 21
15.2379607
 31
0.0
  0
LINE
  5
37B
330
1F
100
AcDbEntity
  8
0
  6
Continuous
 62
     7
370
    25
100
AcDbLine
 10
21.6493939
 20
15.2379607
 30
0.0
 11
21.3833225
 21
15.1418459
 31
0.0
  0
LINE
  5
37C
330
1F
100
AcDbEntity
  8
0
  6
Continuous
 62
     7
370
    25
100
AcDbLine
 10
21.3833225
 20
15.1418459
 30
0.0
 11
21.3553221
 21
15.1338205
 31
0.0
  0
LINE
  5
37D
330
1F
100
AcDbEntity
  8
0
  6
Continuous
 62
     7
370
    25
100
AcDbLine
 10
21.3553221
 20
15.1338205
 30
0.0
 11
21.31557
 21
15.1303464
 31
0.0
  0
LINE
  5
37E
330
1F
100
AcDbEntity
  8
0
  6
Continuous
 62
     7
370
    25
100
AcDbLine
 10
21.31557
 20
15.1303464
 30
0.0
 11
21.2733578
 21
15.1352207
 31
0.0
  0
LINE
  5
37F
330
1F
100
AcDbEntity
  8
0
  6
Continuous
 62
     7
370
    25
100
AcDbLine
 10
21.2733578
 20
15.1352207
 30
0.0
 11
21.2290182
 21
15.1485514
 31
0.0
  0
LINE
  5
380
330
1F
100
AcDbEntity
  8
0
  6
Continuous
 62
     7
370
    25
100
AcDbLine
 10
21.2290182
 20
15.1485514
 30
0.0
 11
21.1828809
 21
15.1704248
 31
0.0
  0
LINE
  5
381
330
1F
100
AcDbEntity
  8
0
  6
Continuous
 62
     7
370
    25
100
AcDbLine
 10
21.1828809
 20
15.1704248
 30
0.0
 11
21.135291
 21
15.2009108
 31
0.0
  0
LINE
  5
382
330
1F
100
AcDbEntity
  8
0
  6
Continuous
 62
     7
370
    25
100
AcDbLine
 10
21.135291
 20
15.2009108
 30
0.0
 11
21.0865811
 21
15.240086
 31
0.0
  0
LINE
  5
383
330
1F
100
AcDbEntity
  8
0
  6
Continuous
 62
     7
370
    25
100
AcDbLine
 10
21.0865811
 20
15.240086
 30
0.0
 11
21.0370997
 21
15.288011
 31
0.0
  0
LINE
  5
384
330
1F
100
AcDbEntity
  8
0
  6
Continuous
 62
     7
370
    25
100
AcDbLine
 10
21.0370997
 20
15.288011
 30
0.0
 11
20.9872042
 21
15.3447179
 31
0.0
  0
LINE
  5
385
330
1F
100
AcDbEntity
  8
0
  6
Continuous
 62
     7
370
    25
100
AcDbLine
 10
20.9872042
 20
15.3447179
 30
0.0
 11
20.8875101
 21
15.4846284
 31
0.0
  0
LINE
  5
386
330
1F
100
AcDbEntity
  8
0
  6
Continuous
 62
     7
370
    25
100
AcDbLine
 10
20.8875101
 20
15.4846284
 30
0.0
 11
20.790302
 21
15.6599924
 31
0.0
  0
LINE
  5
387
330
1F
100
AcDbEntity
  8
0
  6
Continuous
 62
     7
370
    25
100
AcDbLine
 10
20.790302
 20
15.6599924
 30
0.0
 11
20.7452128
 21
15.7562082
 31
0.0
  0
LINE
  5
388
330
1F
100
AcDbEntity
  8
0
  6
Continuous
 62
     7
370
    25
100
AcDbLine
 10
20.7452128
 20
15.7562082
 30
0.0
 11
20.6706452
 21
15.8950615
 31
0.0
  0
LINE
  5
389
330
1F
100
AcDbEntity
  8
0
  6
Continuous
 62
     7
370
    25
100
AcDbLine
 10
20.6706452
 20
15.8950615
 30
0.0
 11
20.5215669
 21
16.1252815
 31
0.0
  0
LINE
  5
38A
330
1F
100
AcDbEntity
  8
0
  6
Continuous
 62
     7
370
    25
100
AcDbLine
 10
20.5215669
 20
16.1252815
 30
0.0
 11
20.4134775
 21
16.2719695
 31
0.0
  0
LINE
  5
38B
330
1F
100
AcDbEntity
  8
0
  6
Continuous
 62
     7
370
    25
100
AcDbLine
 10
20.4134775
 20
16.2719695
 30
0.0
 11
20.2822431
 21
16.4353629
 31
0.0
  0
LINE
  5
38C
330
1F
100
AcDbEntity
  8
0
  6
Continuous
 62
     7
370
    25
100
AcDbLine
 10
20.2822431
 20
16.4353629
 30
0.0
 11
20.1234168
 21
16.617045
 31
0.0
  0
LINE
  5
38D
330
1F
100
AcDbEntity
  8
0
  6
Continuous
 62
     7
370
    25
100
AcDbLine
 10
20.1234168
 20
16.617045
 30
0.0
 11
19.9355346
 21
16.8145634
 31
0.0
  0
LINE
  5
38E
330
1F
100
AcDbEntity
  8
0
  6
Continuous
 62
     7
370
    25
100
AcDbLine
 10
19.9355346
 20
16.8145634
 30
0.0
 11
19.7195328
 21
17.0233542
 31
0.0
  0
LINE
  5
38F
330
1F
100
AcDbEntity
  8
0
  6
Continuous
 62
     7
370
    25
100
AcDbLine
 10
19.7195328
 20
17.0233542
 30
0.0
 11
19.4732019
 21
17.2422892
 31
0.0
  0
LINE
  5
390
330
1F
100
AcDbEntity
  8
0
  6
Continuous
 62
     7
370
    25
100
AcDbLine
 10
19.4732019
 20
17.2422892
 30
0.0
 11
19.1943558
 21
17.4700062
 31
0.0
  0
LINE
  5
391
330
1F
100
AcDbEntity
  8
0
  6
Continuous
 62
     7
370
    25
100
AcDbLine
 10
19.1943558
 20
17.4700062
 30
0.0
 11
18.8834951
 21
17.7028933
 31
0.0
  0
LINE
  5
392
330
1F
100
AcDbEntity
  8
0
  6
Continuous
 62
     7
370
    25
100
AcDbLine
 10
18.8834951
 20
17.7028933
 30
0.0
 11
18.5724129373
 21
17.9168827807
 31
0.0
  0
ARC
  5
393
330
1F
100
AcDbEntity
  8
0
  6
Continuous
 62
     7
370
    25
100
AcDbCircle
 10
27.000019607
 20
-0.000019607
 30
0.0
 40
19.7999986199171
100
AcDbArc
 50
115.1909730105
 51
118.8090775489
  0
LINE
  5
394
330
1F
100
AcDbEntity
  8
0
  6
Continuous
 62
     7
370
    25
100
AcDbLine
 10
17.4585486918
 20
17.3493399813
 30
0.0
 11
17.4488203
 21
16.97189
 31
0.0
  0
LINE
  5
395
330
1F
100
AcDbEntity
  8
0
  6
Continuous
 62
     7
370
    25
100
AcDbLine
 10
17.4488203
 20
16.97189
 30
0.0
 11
17.4545106
 21
16.5835109
 31
0.0
  0
LINE
  5
396
330
1F
100
AcDbEntity
  8
0
  6
Continuous
 62
     7
370
    25
100
AcDbLine
 10
17.4545106
 20
16.5835109
 30
0.0
 11
17.474836
 21
16.2240709
 31
0.0
  0
LINE
  5
397
330
1F
100
AcDbEntity
  8
0
  6
Continuous
 62
     7
370
    25
100
AcDbLine
 10
17.474836
 20
16.2240709
 30
0.0
 11
17.5071684
 21
15.8960982
 31
0.0
  0
LINE
  5
398
330
1F
100
AcDbEntity
  8
0
  6
Continuous
 62
     7
370
    25
100
AcDbLine
 10
17.5071684
 20
15.8960982
 30
0.0
 11
17.549121
 21
15.598625
 31
0.0
  0
LINE
  5
399
330
1F
100
AcDbEntity
  8
0
  6
Continuous
 62
     7
370
    25
100
AcDbLine
 10
17.549121
 20
15.598625
 30
0.0
 11
17.5984824
 21
15.3305267
 31
0.0
  0
LINE
  5
39A
330
1F
100
AcDbEntity
  8
0
  6
Continuous
 62
     7
370
    25
100
AcDbLine
 10
17.5984824
 20
15.3305267
 30
0.0
 11
17.6521105
 21
15.0952434
 31
0.0
  0
LINE
  5
39B
330
1F
100
AcDbEntity
  8
0
  6
Continuous
 62
     7
370
    25
100
AcDbLine
 10
17.6521105
 20
15.0952434
 30
0.0
 11
17.7071609
 21
14.8930323
 31
0.0
  0
LINE
  5
39C
330
1F
100
AcDbEntity
  8
0
  6
Continuous
 62
     7
370
    25
100
AcDbLine
 10
17.7071609
 20
14.8930323
 30
0.0
 11
17.7623007
 21
14.7193652
 31
0.0
  0
LINE
  5
39D
330
1F
100
AcDbEntity
  8
0
  6
Continuous
 62
     7
370
    25
100
AcDbLine
 10
17.7623007
 20
14.7193652
 30
0.0
 11
17.8609265
 21
14.4634383
 31
0.0
  0
LINE
  5
39E
330
1F
100
AcDbEntity
  8
0
  6
Continuous
 62
     7
370
    25
100
AcDbLine
 10
17.8609265
 20
14.4634383
 30
0.0
 11
17.9294315
 21
14.3214959
 31
0.0
  0
LINE
  5
39F
330
1F
100
AcDbEntity
  8
0
  6
Continuous
 62
     7
370
    25
100
AcDbLine
 10
17.9294315
 20
14.3214959
 30
0.0
 11
17.980769
 21
14.2284638
 31
0.0
  0
LINE
  5
3A0
330
1F
100
AcDbEntity
  8
0
  6
Continuous
 62
     7
370
    25
100
AcDbLine
 10
17.980769
 20
14.2284638
 30
0.0
 11
18.0655039
 21
14.0467444
 31
0.0
  0
LINE
  5
3A1
330
1F
100
AcDbEntity
  8
0
  6
Continuous
 62
     7
370
    25
100
AcDbLine
 10
18.0655039
 20
14.0467444
 30
0.0
 11
18.1200951
 21
13.8838528
 31
0.0
  0
LINE
  5
3A2
330
1F
100
AcDbEntity
  8
0
  6
Continuous
 62
     7
370
    25
100
AcDbLine
 10
18.1200951
 20
13.8838528
 30
0.0
 11
18.1366442
 21
13.8101551
 31
0.0
  0
LINE
  5
3A3
330
1F
100
AcDbEntity
  8
0
  6
Continuous
 62
     7
370
    25
100
AcDbLine
 10
18.1366442
 20
13.8101551
 30
0.0
 11
18.1463319
 21
13.7419541
 31
0.0
  0
LINE
  5
3A4
330
1F
100
AcDbEntity
  8
0
  6
Continuous
 62
     7
370
    25
100
AcDbLine
 10
18.1463319
 20
13.7419541
 30
0.0
 11
18.1493943
 21
13.6795205
 31
0.0
  0
LINE
  5
3A5
330
1F
100
AcDbEntity
  8
0
  6
Continuous
 62
     7
370
    25
100
AcDbLine
 10
18.1493943
 20
13.6795205
 30
0.0
 11
18.1460854
 21
13.6231002
 31
0.0
  0
LINE
  5
3A6
330
1F
100
AcDbEntity
  8
0
  6
Continuous
 62
     7
370
    25
100
AcDbLine
 10
18.1460854
 20
13.6231002
 30
0.0
 11
18.1366624
 21
13.5729175
 31
0.0
  0
LINE
  5
3A7
330
1F
100
AcDbEntity
  8
0
  6
Continuous
 62
     7
370
    25
100
AcDbLine
 10
18.1366624
 20
13.5729175
 30
0.0
 11
18.1213851
 21
13.5292104
 31
0.0
  0
LINE
  5
3A8
330
1F
100
AcDbEntity
  8
0
  6
Continuous
 62
     7
370
    25
100
AcDbLine
 10
18.1213851
 20
13.5292104
 30
0.0
 11
18.1005167
 21
13.4921949
 31
0.0
  0
LINE
  5
3A9
330
1F
100
AcDbEntity
  8
0
  6
Continuous
 62
     7
370
    25
100
AcDbLine
 10
18.1005167
 20
13.4921949
 30
0.0
 11
18.0743405
 21
13.4620769
 31
0.0
  0
LINE
  5
3AA
330
1F
100
AcDbEntity
  8
0
  6
Continuous
 62
     7
370
    25
100
AcDbLine
 10
18.0743405
 20
13.4620769
 30
0.0
 11
18.0513895
 21
13.4441412
 31
0.0
  0
LINE
  5
3AB
330
1F
100
AcDbEntity
  8
0
  6
Continuous
 62
     7
370
    25
100
AcDbLine
 10
18.0513895
 20
13.4441412
 30
0.0
 11
17.8172382
 21
13.2853798
 31
0.0
  0
LINE
  5
3AC
330
1F
100
AcDbEntity
  8
0
  6
Continuous
 62
     7
370
    25
100
AcDbLine
 10
17.8172382
 20
13.2853798
 30
0.0
 11
17.5072682
 21
13.0656245
 31
0.0
  0
LINE
  5
3AD
330
1F
100
AcDbEntity
  8
0
  6
Continuous
 62
     7
370
    25
100
AcDbLine
 10
17.5072682
 20
13.0656245
 30
0.0
 11
17.2024824
 21
12.8387336
 31
0.0
  0
LINE
  5
3AE
330
1F
100
AcDbEntity
  8
0
  6
Continuous
 62
     7
370
    25
100
AcDbLine
 10
17.2024824
 20
12.8387336
 30
0.0
 11
16.9791346
 21
12.6651024
 31
0.0
  0
LINE
  5
3AF
330
1F
100
AcDbEntity
  8
0
  6
Continuous
 62
     7
370
    25
100
AcDbLine
 10
16.9791346
 20
12.6651024
 30
0.0
 11
16.9549846
 21
12.6488172
 31
0.0
  0
LINE
  5
3B0
330
1F
100
AcDbEntity
  8
0
  6
Continuous
 62
     7
370
    25
100
AcDbLine
 10
16.9549846
 20
12.6488172
 30
0.0
 11
16.9182517
 21
12.6332291
 31
0.0
  0
LINE
  5
3B1
330
1F
100
AcDbEntity
  8
0
  6
Continuous
 62
     7
370
    25
100
AcDbLine
 10
16.9182517
 20
12.6332291
 30
0.0
 11
16.8765992
 21
12.6248205
 31
0.0
  0
LINE
  5
3B2
330
1F
100
AcDbEntity
  8
0
  6
Continuous
 62
     7
370
    25
100
AcDbLine
 10
16.8765992
 20
12.6248205
 30
0.0
 11
16.8303103
 21
12.6237971
 31
0.0
  0
LINE
  5
3B3
330
1F
100
AcDbEntity
  8
0
  6
Continuous
 62
     7
370
    25
100
AcDbLine
 10
16.8303103
 20
12.6237971
 30
0.0
 11
16.7796719
 21
12.6303427
 31
0.0
  0
LINE
  5
3B4
330
1F
100
AcDbEntity
  8
0
  6
Continuous
 62
     7
370
    25
100
AcDbLine
 10
16.7796719
 20
12.6303427
 30
0.0
 11
16.7249905
 21
12.6446305
 31
0.0
  0
LINE
  5
3B5
330
1F
100
AcDbEntity
  8
0
  6
Continuous
 62
     7
370
    25
100
AcDbLine
 10
16.7249905
 20
12.6446305
 30
0.0
 11
16.6665589
 21
12.6668361
 31
0.0
  0
LINE
  5
3B6
330
1F
100
AcDbEntity
  8
0
  6
Continuous
 62
     7
370
    25
100
AcDbLine
 10
16.6665589
 20
12.6668361
 30
0.0
 11
16.6046896
 21
12.6971249
 31
0.0
  0
LINE
  5
3B7
330
1F
100
AcDbEntity
  8
0
  6
Continuous
 62
     7
370
    25
100
AcDbLine
 10
16.6046896
 20
12.6971249
 30
0.0
 11
16.5397128
 21
12.7356378
 31
0.0
  0
LINE
  5
3B8
330
1F
100
AcDbEntity
  8
0
  6
Continuous
 62
     7
370
    25
100
AcDbLine
 10
16.5397128
 20
12.7356378
 30
0.0
 11
16.4016633
 21
12.8378935
 31
0.0
  0
LINE
  5
3B9
330
1F
100
AcDbEntity
  8
0
  6
Continuous
 62
     7
370
    25
100
AcDbLine
 10
16.4016633
 20
12.8378935
 30
0.0
 11
16.2550225
 21
12.9746356
 31
0.0
  0
LINE
  5
3BA
330
1F
100
AcDbEntity
  8
0
  6
Continuous
 62
     7
370
    25
100
AcDbLine
 10
16.2550225
 20
12.9746356
 30
0.0
 11
16.1824078
 21
13.0522089
 31
0.0
  0
LINE
  5
3BB
330
1F
100
AcDbEntity
  8
0
  6
Continuous
 62
     7
370
    25
100
AcDbLine
 10
16.1824078
 20
13.0522089
 30
0.0
 11
16.0685817
 21
13.1612236
 31
0.0
  0
LINE
  5
3BC
330
1F
100
AcDbEntity
  8
0
  6
Continuous
 62
     7
370
    25
100
AcDbLine
 10
16.0685817
 20
13.1612236
 30
0.0
 11
15.8556579
 21
13.3341081
 31
0.0
  0
LINE
  5
3BD
330
1F
100
AcDbEntity
  8
0
  6
Continuous
 62
     7
370
    25
100
AcDbLine
 10
15.8556579
 20
13.3341081
 30
0.0
 11
15.7075298
 21
13.4402153
 31
0.0
  0
LINE
  5
3BE
330
1F
100
AcDbEntity
  8
0
  6
Continuous
 62
     7
370
    25
100
AcDbLine
 10
15.7075298
 20
13.4402153
 30
0.0
 11
15.5322271
 21
13.5550579
 31
0.0
  0
LINE
  5
3BF
330
1F
100
AcDbEntity
  8
0
  6
Continuous
 62
     7
370
    25
100
AcDbLine
 10
15.5322271
 20
13.5550579
 30
0.0
 11
15.3250314
 21
13.6787678
 31
0.0
  0
LINE
  5
3C0
330
1F
100
AcDbEntity
  8
0
  6
Continuous
 62
     7
370
    25
100
AcDbLine
 10
15.3250314
 20
13.6787678
 30
0.0
 11
15.0853083
 21
13.8085603
 31
0.0
  0
LINE
  5
3C1
330
1F
100
AcDbEntity
  8
0
  6
Continuous
 62
     7
370
    25
100
AcDbLine
 10
15.0853083
 20
13.8085603
 30
0.0
 11
14.8153585
 21
13.9403838
 31
0.0
  0
LINE
  5
3C2
330
1F
100
AcDbEntity
  8
0
  6
Continuous
 62
     7
370
    25
100
AcDbLine
 10
14.8153585
 20
13.9403838
 30
0.0
 11
14.5134292
 21
14.0724829
 31
0.0
  0
LINE
  5
3C3
330
1F
100
AcDbEntity
  8
0
  6
Continuous
 62
     7
370
    25
100
AcDbLine
 10
14.5134292
 20
14.0724829
 30
0.0
 11
14.1778624
 21
14.2028866
 31
0.0
  0
LINE
  5
3C4
330
1F
100
AcDbEntity
  8
0
  6
Continuous
 62
     7
370
    25
100
AcDbLine
 10
14.1778624
 20
14.2028866
 30
0.0
 11
13.8102502
 21
14.3283141
 31
0.0
  0
LINE
  5
3C5
330
1F
100
AcDbEntity
  8
0
  6
Continuous
 62
     7
370
    25
100
AcDbLine
 10
13.8102502
 20
14.3283141
 30
0.0
 11
13.4482674
 21
14.4357004
 31
0.0
  0
ARC
  5
3C6
330
1F
100
AcDbEntity
  8
0
  6
Continuous
 62
     7
370
    25
100
AcDbCircle
 10
27.000019607
 20
-0.000019607
 30
0.0
 40
19.8
100
AcDbArc
 50
133.1909479981
 51
136.8090520019
  0
LINE
  5
3C7
330
1F
100
AcDbEntity
  8
0
  6
Continuous
 62
     7
370
    25
100
AcDbLine
 10
12.5642996
 20
13.5517326
 30
0.0
 11
12.6716859
 21
13.1897498
 31
0.0
  0
LINE
  5
3C8
330
1F
100
AcDbEntity
  8
0
  6
Continuous
 62
     7
370
    25
100
AcDbLine
 10
12.6716859
 20
13.1897498
 30
0.0
 11
12.7971134
 21
12.8221376
 31
0.0
  0
LINE
  5
3C9
330
1F
100
AcDbEntity
  8
0
  6
Continuous
 62
     7
370
    25
100
AcDbLine
 10
12.7971134
 20
12.8221376
 30
0.0
 11
12.9275171
 21
12.4865708
 31
0.0
  0
LINE
  5
3CA
330
1F
100
AcDbEntity
  8
0
  6
Continuous
 62
     7
370
    25
100
AcDbLine
 10
12.9275171
 20
12.4865708
 30
0.0
 11
13.0596162
 21
12.1846415
 31
0.0
  0
LINE
  5
3CB
330
1F
100
AcDbEntity
  8
0
  6
Continuous
 62
     7
370
    25
100
AcDbLine
 10
13.0596162
 20
12.1846415
 30
0.0
 11
13.1914397
 21
11.9146917
 31
0.0
  0
LINE
  5
3CC
330
1F
100
AcDbEntity
  8
0
  6
Continuous
 62
     7
370
    25
100
AcDbLine
 10
13.1914397
 20
11.9146917
 30
0.0
 11
13.3212322
 21
11.6749686
 31
0.0
  0
LINE
  5
3CD
330
1F
100
AcDbEntity
  8
0
  6
Continuous
 62
     7
370
    25
100
AcDbLine
 10
13.3212322
 20
11.6749686
 30
0.0
 11
13.4449421
 21
11.4677729
 31
0.0
  0
LINE
  5
3CE
330
1F
100
AcDbEntity
  8
0
  6
Continuous
 62
     7
370
    25
100
AcDbLine
 10
13.4449421
 20
11.4677729
 30
0.0
 11
13.5597847
 21
11.2924702
 31
0.0
  0
LINE
  5
3CF
330
1F
100
AcDbEntity
  8
0
  6
Continuous
 62
     7
370
    25
100
AcDbLine
 10
13.5597847
 20
11.2924702
 30
0.0
 11
13.6658919
 21
11.1443421
 31
0.0
  0
LINE
  5
3D0
330
1F
100
AcDbEntity
  8
0
  6
Continuous
 62
     7
370
    25
100
AcDbLine
 10
13.6658919
 20
11.1443421
 30
0.0
 11
13.8387764
 21
10.9314183
 31
0.0
  0
LINE
  5
3D1
330
1F
100
AcDbEntity
  8
0
  6
Continuous
 62
     7
370
    25
100
AcDbLine
 10
13.8387764
 20
10.9314183
 30
0.0
 11
13.9477911
 21
10.8175922
 31
0.0
  0
LINE
  5
3D2
330
1F
100
AcDbEntity
  8
0
  6
Continuous
 62
     7
370
    25
100
AcDbLine
 10
13.9477911
 20
10.8175922
 30
0.0
 11
14.0253644
 21
10.7449775
 31
0.0
  0
LINE
  5
3D3
330
1F
100
AcDbEntity
  8
0
  6
Continuous
 62
     7
370
    25
100
AcDbLine
 10
14.0253644
 20
10.7449775
 30
0.0
 11
14.1621065
 21
10.5983367
 31
0.0
  0
LINE
  5
3D4
330
1F
100
AcDbEntity
  8
0
  6
Continuous
 62
     7
370
    25
100
AcDbLine
 10
14.1621065
 20
10.5983367
 30
0.0
 11
14.2643622
 21
10.4602872
 31
0.0
  0
LINE
  5
3D5
330
1F
100
AcDbEntity
  8
0
  6
Continuous
 62
     7
370
    25
100
AcDbLine
 10
14.2643622
 20
10.4602872
 30
0.0
 11
14.3028751
 21
10.3953104
 31
0.0
  0
LINE
  5
3D6
330
1F
100
AcDbEntity
  8
0
  6
Continuous
 62
     7
370
    25
100
AcDbLine
 10
14.3028751
 20
10.3953104
 30
0.0
 11
14.3331639
 21
10.3334411
 31
0.0
  0
LINE
  5
3D7
330
1F
100
AcDbEntity
  8
0
  6
Continuous
 62
     7
370
    25
100
AcDbLine
 10
14.3331639
 20
10.3334411
 30
0.0
 11
14.3553695
 21
10.2750095
 31
0.0
  0
LINE
  5
3D8
330
1F
100
AcDbEntity
  8
0
  6
Continuous
 62
     7
370
    25
100
AcDbLine
 10
14.3553695
 20
10.2750095
 30
0.0
 11
14.3696573
 21
10.2203281
 31
0.0
  0
LINE
  5
3D9
330
1F
100
AcDbEntity
  8
0
  6
Continuous
 62
     7
370
    25
100
AcDbLine
 10
14.3696573
 20
10.2203281
 30
0.0
 11
14.3762029
 21
10.1696897
 31
0.0
  0
LINE
  5
3DA
330
1F
100
AcDbEntity
  8
0
  6
Continuous
 62
     7
370
    25
100
AcDbLine
 10
14.3762029
 20
10.1696897
 30
0.0
 11
14.3751795
 21
10.1234008
 31
0.0
  0
LINE
  5
3DB
330
1F
100
AcDbEntity
  8
0
  6
Continuous
 62
     7
370
    25
100
AcDbLine
 10
14.3751795
 20
10.1234008
 30
0.0
 11
14.3667709
 21
10.0817483
 31
0.0
  0
LINE
  5
3DC
330
1F
100
AcDbEntity
  8
0
  6
Continuous
 62
     7
370
    25
100
AcDbLine
 10
14.3667709
 20
10.0817483
 30
0.0
 11
14.3511828
 21
10.0450154
 31
0.0
  0
LINE
  5
3DD
330
1F
100
AcDbEntity
  8
0
  6
Continuous
 62
     7
370
    25
100
AcDbLine
 10
14.3511828
 20
10.0450154
 30
0.0
 11
14.3348976
 21
10.0208654
 31
0.0
  0
LINE
  5
3DE
330
1F
100
AcDbEntity
  8
0
  6
Continuous
 62
     7
370
    25
100
AcDbLine
 10
14.3348976
 20
10.0208654
 30
0.0
 11
14.1612664
 21
9.7975176
 31
0.0
  0
LINE
  5
3DF
330
1F
100
AcDbEntity
  8
0
  6
Continuous
 62
     7
370
    25
100
AcDbLine
 10
14.1612664
 20
9.7975176
 30
0.0
 11
13.9343755
 21
9.4927318
 31
0.0
  0
LINE
  5
3E0
330
1F
100
AcDbEntity
  8
0
  6
Continuous
 62
     7
370
    25
100
AcDbLine
 10
13.9343755
 20
9.4927318
 30
0.0
 11
13.7146202
 21
9.1827618
 31
0.0
  0
LINE
  5
3E1
330
1F
100
AcDbEntity
  8
0
  6
Continuous
 62
     7
370
    25
100
AcDbLine
 10
13.7146202
 20
9.1827618
 30
0.0
 11
13.5558588
 21
8.9486105
 31
0.0
  0
LINE
  5
3E2
330
1F
100
AcDbEntity
  8
0
  6
Continuous
 62
     7
370
    25
100
AcDbLine
 10
13.5558588
 20
8.9486105
 30
0.0
 11
13.5379231
 21
8.9256595
 31
0.0
  0
LINE
  5
3E3
330
1F
100
AcDbEntity
  8
0
  6
Continuous
 62
     7
370
    25
100
AcDbLine
 10
13.5379231
 20
8.9256595
 30
0.0
 11
13.5078051
 21
8.8994833
 31
0.0
  0
LINE
  5
3E4
330
1F
100
AcDbEntity
  8
0
  6
Continuous
 62
     7
370
    25
100
AcDbLine
 10
13.5078051
 20
8.8994833
 30
0.0
 11
13.4707896
 21
8.8786149
 31
0.0
  0
LINE
  5
3E5
330
1F
100
AcDbEntity
  8
0
  6
Continuous
 62
     7
370
    25
100
AcDbLine
 10
13.4707896
 20
8.8786149
 30
0.0
 11
13.4270825
 21
8.8633376
 31
0.0
  0
LINE
  5
3E6
330
1F
100
AcDbEntity
  8
0
  6
Continuous
 62
     7
370
    25
100
AcDbLine
 10
13.4270825
 20
8.8633376
 30
0.0
 11
13.3768998
 21
8.8539146
 31
0.0
  0
LINE
  5
3E7
330
1F
100
AcDbEntity
  8
0
  6
Continuous
 62
     7
370
    25
100
AcDbLine
 10
13.3768998
 20
8.8539146
 30
0.0
 11
13.3204795
 21
8.8506057
 31
0.0
  0
LINE
  5
3E8
330
1F
100
AcDbEntity
  8
0
  6
Continuous
 62
     7
370
    25
100
AcDbLine
 10
13.3204795
 20
8.8506057
 30
0.0
 11
13.2580459
 21
8.8536681
 31
0.0
  0
LINE
  5
3E9
330
1F
100
AcDbEntity
  8
0
  6
Continuous
 62
     7
370
    25
100
AcDbLine
 10
13.2580459
 20
8.8536681
 30
0.0
 11
13.1898449
 21
8.8633558
 31
0.0
  0
LINE
  5
3EA
330
1F
100
AcDbEntity
  8
0
  6
Continuous
 62
     7
370
    25
100
AcDbLine
 10
13.1898449
 20
8.8633558
 30
0.0
 11
13.1161472
 21
8.8799049
 31
0.0
  0
LINE
  5
3EB
330
1F
100
AcDbEntity
  8
0
  6
Continuous
 62
     7
370
    25
100
AcDbLine
 10
13.1161472
 20
8.8799049
 30
0.0
 11
12.9532556
 21
8.9344961
 31
0.0
  0
LINE
  5
3EC
330
1F
100
AcDbEntity
  8
0
  6
Continuous
 62
     7
370
    25
100
AcDbLine
 10
12.9532556
 20
8.9344961
 30
0.0
 11
12.7715362
 21
9.019231
 31
0.0
  0
LINE
  5
3ED
330
1F
100
AcDbEntity
  8
0
  6
Continuous
 62
     7
370
    25
100
AcDbLine
 10
12.7715362
 20
9.019231
 30
0.0
 11
12.6785041
 21
9.0705685
 31
0.0
  0
LINE
  5
3EE
330
1F
100
AcDbEntity
  8
0
  6
Continuous
 62
     7
370
    25
100
AcDbLine
 10
12.6785041
 20
9.0705685
 30
0.0
 11
12.5365617
 21
9.1390735
 31
0.0
  0
LINE
  5
3EF
330
1F
100
AcDbEntity
  8
0
  6
Continuous
 62
     7
370
    25
100
AcDbLine
 10
12.5365617
 20
9.1390735
 30
0.0
 11
12.2806348
 21
9.2376993
 31
0.0
  0
LINE
  5
3F0
330
1F
100
AcDbEntity
  8
0
  6
Continuous
 62
     7
370
    25
100
AcDbLine
 10
12.2806348
 20
9.2376993
 30
0.0
 11
12.1069677
 21
9.2928391
 31
0.0
  0
LINE
  5
3F1
330
1F
100
AcDbEntity
  8
0
  6
Continuous
 62
     7
370
    25
100
AcDbLine
 10
12.1069677
 20
9.2928391
 30
0.0
 11
11.9047566
 21
9.3478895
 31
0.0
  0
LINE
  5
3F2
330
1F
100
AcDbEntity
  8
0
  6
Continuous
 62
     7
370
    25
100
AcDbLine
 10
11.9047566
 20
9.3478895
 30
0.0
 11
11.6694733
 21
9.4015176
 31
0.0
  0
LINE
  5
3F3
330
1F
100
AcDbEntity
  8
0
  6
Continuous
 62
     7
370
    25
100
AcDbLine
 10
11.6694733
 20
9.4015176
 30
0.0
 11
11.401375
 21
9.450879
 31
0.0
  0
LINE
  5
3F4
330
1F
100
AcDbEntity
  8
0
  6
Continuous
 62
     7
370
    25
100
AcDbLine
 10
11.401375
 20
9.450879
 30
0.0
 11
11.1039018
 21
9.4928316
 31
0.0
  0
LINE
  5
3F5
330
1F
100
AcDbEntity
  8
0
  6
Continuous
 62
     7
370
    25
100
AcDbLine
 10
11.1039018
 20
9.4928316
 30
0.0
 11
10.7759291
 21
9.525164
 31
0.0
  0
LINE
  5
3F6
330
1F
100
AcDbEntity
  8
0
  6
Continuous
 62
     7
370
    25
100
AcDbLine
 10
10.7759291
 20
9.525164
 30
0.0
 11
10.4164891
 21
9.5454894
 31
0.0
  0
LINE
  5
3F7
330
1F
100
AcDbEntity
  8
0
  6
Continuous
 62
     7
370
    25
100
AcDbLine
 10
10.4164891
 20
9.5454894
 30
0.0
 11
10.02811
 21
9.5511797
 31
0.0
  0
LINE
  5
3F8
330
1F
100
AcDbEntity
  8
0
  6
Continuous
 62
     7
370
    25
100
AcDbLine
 10
10.02811
 20
9.5511797
 30
0.0
 11
9.6506594264
 21
9.5414512929
 31
0.0
  0
ARC
  5
3F9
330
1F
100
AcDbEntity
  8
0
  6
Continuous
 62
     7
370
    25
100
AcDbCircle
 10
27.0000272743
 20
-0.0000053224
 30
0.0
 40
19.79999896628504
100
AcDbArc
 50
151.1909702272
 51
154.8090747023
  0
LINE
  5
3FA
330
1F
100
AcDbEntity
  8
0
  6
Continuous
 62
     7
370
    25
100
AcDbLine
 10
9.0831175551
 20
8.4275865745
 30
0.0
 11
9.2971067
 21
8.1165049
 31
0.0
  0
LINE
  5
3FB
330
1F
100
AcDbEntity
  8
0
  6
Continuous
 62
     7
370
    25
100
AcDbLine
 10
9.2971067
 20
8.1165049
 30
0.0
 11
9.5299938
 21
7.8056442
 31
0.0
  0
LINE
  5
3FC
330
1F
100
AcDbEntity
  8
0
  6
Continuous
 62
     7
370
    25
100
AcDbLine
 10
9.5299938
 20
7.8056442
 30
0.0
 11
9.7577108
 21
7.5267981
 31
0.0
  0
LINE
  5
3FD
330
1F
100
AcDbEntity
  8
0
  6
Continuous
 62
     7
370
    25
100
AcDbLine
 10
9.7577108
 20
7.5267981
 30
0.0
 11
9.9766458
 21
7.2804672
 31
0.0
  0
LINE
  5
3FE
330
1F
100
AcDbEntity
  8
0
  6
Continuous
 62
     7
370
    25
100
AcDbLine
 10
9.9766458
 20
7.2804672
 30
0.0
 11
10.1854366
 21
7.0644654
 31
0.0
  0
LINE
  5
3FF
330
1F
100
AcDbEntity
  8
0
  6
Continuous
 62
     7
370
    25
100
AcDbLine
 10
10.1854366
 20
7.0644654
 30
0.0
 11
10.382955
 21
6.8765832
 31
0.0
  0
LINE
  5
400
330
1F
100
AcDbEntity
  8
0
  6
Continuous
 62
     7
370
    25
100
AcDbLine
 10
10.382955
 20
6.8765832
 30
0.0
 11
10.5646371
 21
6.7177569
 31
0.0
  0
LINE
  5
401
330
1F
100
AcDbEntity
  8
0
  6
Continuous
 62
     7
370
    25
100
AcDbLine
 10
10.5646371
 20
6.7177569
 30
0.0
 11
10.7280305
 21
6.5865225
 31
0.0
  0
LINE
  5
402
330
1F
100
AcDbEntity
  8
0
  6
Continuous
 62
     7
370
    25
100
AcDbLine
 10
10.7280305
 20
6.5865225
 30
0.0
 11
10.8747185
 21
6.4784331
 31
0.0
  0
LINE
  5
403
330
1F
100
AcDbEntity
  8
0
  6
Continuous
 62
     7
370
    25
100
AcDbLine
 10
10.8747185
 20
6.4784331
 30
0.0
 11
11.1049385
 21
6.3293548
 31
0.0
  0
LINE
  5
404
330
1F
100
AcDbEntity
  8
0
  6
Continuous
 62
     7
370
    25
100
AcDbLine
 10
11.1049385
 20
6.3293548
 30
0.0
 11
11.2437918
 21
6.2547872
 31
0.0
  0
LINE
  5
405
330
1F
100
AcDbEntity
  8
0
  6
Continuous
 62
     7
370
    25
100
AcDbLine
 10
11.2437918
 20
6.2547872
 30
0.0
 11
11.3400076
 21
6.209698
 31
0.0
  0
LINE
  5
406
330
1F
100
AcDbEntity
  8
0
  6
Continuous
 62
     7
370
    25
100
AcDbLine
 10
11.3400076
 20
6.209698
 30
0.0
 11
11.5153716
 21
6.1124899
 31
0.0
  0
LINE
  5
407
330
1F
100
AcDbEntity
  8
0
  6
Continuous
 62
     7
370
    25
100
AcDbLine
 10
11.5153716
 20
6.1124899
 30
0.0
 11
11.6552821
 21
6.0127958
 31
0.0
  0
LINE
  5
408
330
1F
100
AcDbEntity
  8
0
  6
Continuous
 62
     7
370
    25
100
AcDbLine
 10
11.6552821
 20
6.0127958
 30
0.0
 11
11.711989
 21
5.9629003
 31
0.0
  0
LINE
  5
409
330
1F
100
AcDbEntity
  8
0
  6
Continuous
 62
     7
370
    25
100
AcDbLine
 10
11.711989
 20
5.9629003
 30
0.0
 11
11.759914
 21
5.9134189
 31
0.0
  0
LINE
  5
40A
330
1F
100
AcDbEntity
  8
0
  6
Continuous
 62
     7
370
    25
100
AcDbLine
 10
11.759914
 20
5.9134189
 30
0.0
 11
11.7990892
 21
5.864709
 31
0.0
  0
LINE
  5
40B
330
1F
100
AcDbEntity
  8
0
  6
Continuous
 62
     7
370
    25
100
AcDbLine
 10
11.7990892
 20
5.864709
 30
0.0
 11
11.8295752
 21
5.8171191
 31
0.0
  0
LINE
  5
40C
330
1F
100
AcDbEntity
  8
0
  6
Continuous
 62
     7
370
    25
100
AcDbLine
 10
11.8295752
 20
5.8171191
 30
0.0
 11
11.8514486
 21
5.7709818
 31
0.0
  0
LINE
  5
40D
330
1F
100
AcDbEntity
  8
0
  6
Continuous
 62
     7
370
    25
100
AcDbLine
 10
11.8514486
 20
5.7709818
 30
0.0
 11
11.8647793
 21
5.7266422
 31
0.0
  0
LINE
  5
40E
330
1F
100
AcDbEntity
  8
0
  6
Continuous
 62
     7
370
    25
100
AcDbLine
 10
11.8647793
 20
5.7266422
 30
0.0
 11
11.8696536
 21
5.68443
 31
0.0
  0
LINE
  5
40F
330
1F
100
AcDbEntity
  8
0
  6
Continuous
 62
     7
370
    25
100
AcDbLine
 10
11.8696536
 20
5.68443
 30
0.0
 11
11.8661795
 21
5.6446779
 31
0.0
  0
LINE
  5
410
330
1F
100
AcDbEntity
  8
0
  6
Continuous
 62
     7
370
    25
100
AcDbLine
 10
11.8661795
 20
5.6446779
 30
0.0
 11
11.8581541
 21
5.6166775
 31
0.0
  0
LINE
  5
411
330
1F
100
AcDbEntity
  8
0
  6
Continuous
 62
     7
370
    25
100
AcDbLine
 10
11.8581541
 20
5.6166775
 30
0.0
 11
11.7620393
 21
5.3506061
 31
0.0
  0
LINE
  5
412
330
1F
100
AcDbEntity
  8
0
  6
Continuous
 62
     7
370
    25
100
AcDbLine
 10
11.7620393
 20
5.3506061
 30
0.0
 11
11.6404373
 21
4.9906245
 31
0.0
  0
LINE
  5
413
330
1F
100
AcDbEntity
  8
0
  6
Continuous
 62
     7
370
    25
100
AcDbLine
 10
11.6404373
 20
4.9906245
 30
0.0
 11
11.5272235
 21
4.6279173
 31
0.0
  0
LINE
  5
414
330
1F
100
AcDbEntity
  8
0
  6
Continuous
 62
     7
370
    25
100
AcDbLine
 10
11.5272235
 20
4.6279173
 30
0.0
 11
11.4485892
 21
4.3561662
 31
0.0
  0
LINE
  5
415
330
1F
100
AcDbEntity
  8
0
  6
Continuous
 62
     7
370
    25
100
AcDbLine
 10
11.4485892
 20
4.3561662
 30
0.0
 11
11.4386236
 21
4.3287961
 31
0.0
  0
LINE
  5
416
330
1F
100
AcDbEntity
  8
0
  6
Continuous
 62
     7
370
    25
100
AcDbLine
 10
11.4386236
 20
4.3287961
 30
0.0
 11
11.4180685
 21
4.294594
 31
0.0
  0
LINE
  5
417
330
1F
100
AcDbEntity
  8
0
  6
Continuous
 62
     7
370
    25
100
AcDbLine
 10
11.4180685
 20
4.294594
 30
0.0
 11
11.3893134
 21
4.2633086
 31
0.0
  0
LINE
  5
418
330
1F
100
AcDbEntity
  8
0
  6
Continuous
 62
     7
370
    25
100
AcDbLine
 10
11.3893134
 20
4.2633086
 30
0.0
 11
11.3524665
 21
4.2352728
 31
0.0
  0
LINE
  5
419
330
1F
100
AcDbEntity
  8
0
  6
Continuous
 62
     7
370
    25
100
AcDbLine
 10
11.3524665
 20
4.2352728
 30
0.0
 11
11.3076517
 21
4.2108037
 31
0.0
  0
LINE
  5
41A
330
1F
100
AcDbEntity
  8
0
  6
Continuous
 62
     7
370
    25
100
AcDbLine
 10
11.3076517
 20
4.2108037
 30
0.0
 11
11.2550154
 21
4.1902219
 31
0.0
  0
LINE
  5
41B
330
1F
100
AcDbEntity
  8
0
  6
Continuous
 62
     7
370
    25
100
AcDbLine
 10
11.2550154
 20
4.1902219
 30
0.0
 11
11.194691
 21
4.1738414
 31
0.0
  0
LINE
  5
41C
330
1F
100
AcDbEntity
  8
0
  6
Continuous
 62
     7
370
    25
100
AcDbLine
 10
11.194691
 20
4.1738414
 30
0.0
 11
11.1268344
 21
4.1619797
 31
0.0
  0
LINE
  5
41D
330
1F
100
AcDbEntity
  8
0
  6
Continuous
 62
     7
370
    25
100
AcDbLine
 10
11.1268344
 20
4.1619797
 30
0.0
 11
11.0516298
 21
4.1549449
 31
0.0
  0
LINE
  5
41E
330
1F
100
AcDbEntity
  8
0
  6
Continuous
 62
     7
370
    25
100
AcDbLine
 10
11.0516298
 20
4.1549449
 30
0.0
 11
10.8798411
 21
4.156528
 31
0.0
  0
LINE
  5
41F
330
1F
100
AcDbEntity
  8
0
  6
Continuous
 62
     7
370
    25
100
AcDbLine
 10
10.8798411
 20
4.156528
 30
0.0
 11
10.6808311
 21
4.1809613
 31
0.0
  0
LINE
  5
420
330
1F
100
AcDbEntity
  8
0
  6
Continuous
 62
     7
370
    25
100
AcDbLine
 10
10.6808311
 20
4.1809613
 30
0.0
 11
10.5764882
 21
4.2010377
 31
0.0
  0
LINE
  5
421
330
1F
100
AcDbEntity
  8
0
  6
Continuous
 62
     7
370
    25
100
AcDbLine
 10
10.5764882
 20
4.2010377
 30
0.0
 11
10.4203237
 21
4.2223271
 31
0.0
  0
LINE
  5
422
330
1F
100
AcDbEntity
  8
0
  6
Continuous
 62
     7
370
    25
100
AcDbLine
 10
10.4203237
 20
4.2223271
 30
0.0
 11
10.1464458
 21
4.2370402
 31
0.0
  0
LINE
  5
423
330
1F
100
AcDbEntity
  8
0
  6
Continuous
 62
     7
370
    25
100
AcDbLine
 10
10.1464458
 20
4.2370402
 30
0.0
 11
9.9642394
 21
4.2358151
 31
0.0
  0
LINE
  5
424
330
1F
100
AcDbEntity
  8
0
  6
Continuous
 62
     7
370
    25
100
AcDbLine
 10
9.9642394
 20
4.2358151
 30
0.0
 11
9.7549137
 21
4.2256845
 31
0.0
  0
LINE
  5
425
330
1F
100
AcDbEntity
  8
0
  6
Continuous
 62
     7
370
    25
100
AcDbLine
 10
9.7549137
 20
4.2256845
 30
0.0
 11
9.514574
 21
4.2039813
 31
0.0
  0
LINE
  5
426
330
1F
100
AcDbEntity
  8
0
  6
Continuous
 62
     7
370
    25
100
AcDbLine
 10
9.514574
 20
4.2039813
 30
0.0
 11
9.2443438
 21
4.1680798
 31
0.0
  0
LINE
  5
427
330
1F
100
AcDbEntity
  8
0
  6
Continuous
 62
     7
370
    25
100
AcDbLine
 10
9.2443438
 20
4.1680798
 30
0.0
 11
8.9484659
 21
4.1160549
 31
0.0
  0
LINE
  5
428
330
1F
100
AcDbEntity
  8
0
  6
Continuous
 62
     7
370
    25
100
AcDbLine
 10
8.9484659
 20
4.1160549
 30
0.0
 11
8.6265541
 21
4.0454557
 31
0.0
  0
LINE
  5
429
330
1F
100
AcDbEntity
  8
0
  6
Continuous
 62
     7
370
    25
100
AcDbLine
 10
8.6265541
 20
4.0454557
 30
0.0
 11
8.2784255
 21
3.9537132
 31
0.0
  0
LINE
  5
42A
330
1F
100
AcDbEntity
  8
0
  6
Continuous
 62
     7
370
    25
100
AcDbLine
 10
8.2784255
 20
3.9537132
 30
0.0
 11
7.9072966
 21
3.8391092
 31
0.0
  0
LINE
  5
42B
330
1F
100
AcDbEntity
  8
0
  6
Continuous
 62
     7
370
    25
100
AcDbLine
 10
7.9072966
 20
3.8391092
 30
0.0
 11
7.5513263
 21
3.7132184
 31
0.0
  0
ARC
  5
42C
330
1F
100
AcDbEntity
  8
0
  6
Continuous
 62
     7
370
    25
100
AcDbCircle
 10
27.0000272743
 20
-0.0000053224
 30
0.0
 40
19.8
100
AcDbArc
 50
169.19094505
 51
172.809049057
  0
LINE
  5
42D
330
1F
100
AcDbEntity
  8
0
  6
Continuous
 62
     7
370
    25
100
AcDbLine
 10
7.3557645
 20
2.4784902
 30
0.0
 11
7.65541
 21
2.24876
 31
0.0
  0
LINE
  5
42E
330
1F
100
AcDbEntity
  8
0
  6
Continuous
 62
     7
370
    25
100
AcDbLine
 10
7.65541
 20
2.24876
 30
0.0
 11
7.97296
 21
2.02508
 31
0.0
  0
LINE
  5
42F
330
1F
100
AcDbEntity
  8
0
  6
Continuous
 62
     7
370
    25
100
AcDbLine
 10
7.97296
 20
2.02508
 30
0.0
 11
8.2757
 21
1.83025
 31
0.0
  0
LINE
  5
430
330
1F
100
AcDbEntity
  8
0
  6
Continuous
 62
     7
370
    25
100
AcDbLine
 10
8.2757
 20
1.83025
 30
0.0
 11
8.56004
 21
1.66363
 31
0.0
  0
LINE
  5
431
330
1F
100
AcDbEntity
  8
0
  6
Continuous
 62
     7
370
    25
100
AcDbLine
 10
8.56004
 20
1.66363
 30
0.0
 11
8.82536
 21
1.52272
 31
0.0
  0
LINE
  5
432
330
1F
100
AcDbEntity
  8
0
  6
Continuous
 62
     7
370
    25
100
AcDbLine
 10
8.82536
 20
1.52272
 30
0.0
 11
9.07127
 21
1.40507
 31
0.0
  0
LINE
  5
433
330
1F
100
AcDbEntity
  8
0
  6
Continuous
 62
     7
370
    25
100
AcDbLine
 10
9.07127
 20
1.40507
 30
0.0
 11
9.29314
 21
1.31016
 31
0.0
  0
LINE
  5
434
330
1F
100
AcDbEntity
  8
0
  6
Continuous
 62
     7
370
    25
100
AcDbLine
 10
9.29314
 20
1.31016
 30
0.0
 11
9.48909
 21
1.23584
 31
0.0
  0
LINE
  5
435
330
1F
100
AcDbEntity
  8
0
  6
Continuous
 62
     7
370
    25
100
AcDbLine
 10
9.48909
 20
1.23584
 30
0.0
 11
9.662
 21
1.17837
 31
0.0
  0
LINE
  5
436
330
1F
100
AcDbEntity
  8
0
  6
Continuous
 62
     7
370
    25
100
AcDbLine
 10
9.662
 20
1.17837
 30
0.0
 11
9.92702
 21
1.10773
 31
0.0
  0
LINE
  5
437
330
1F
100
AcDbEntity
  8
0
  6
Continuous
 62
     7
370
    25
100
AcDbLine
 10
9.92702
 20
1.10773
 30
0.0
 11
10.08212
 21
1.07972
 31
0.0
  0
LINE
  5
438
330
1F
100
AcDbEntity
  8
0
  6
Continuous
 62
     7
370
    25
100
AcDbLine
 10
10.08212
 20
1.07972
 30
0.0
 11
10.18756
 21
1.06657
 31
0.0
  0
LINE
  5
439
330
1F
100
AcDbEntity
  8
0
  6
Continuous
 62
     7
370
    25
100
AcDbLine
 10
10.18756
 20
1.06657
 30
0.0
 11
10.38438
 21
1.02831
 31
0.0
  0
LINE
  5
43A
330
1F
100
AcDbEntity
  8
0
  6
Continuous
 62
     7
370
    25
100
AcDbLine
 10
10.38438
 20
1.02831
 30
0.0
 11
10.54825
 21
0.97673
 31
0.0
  0
LINE
  5
43B
330
1F
100
AcDbEntity
  8
0
  6
Continuous
 62
     7
370
    25
100
AcDbLine
 10
10.54825
 20
0.97673
 30
0.0
 11
10.6176
 21
0.9468
 31
0.0
  0
LINE
  5
43C
330
1F
100
AcDbEntity
  8
0
  6
Continuous
 62
     7
370
    25
100
AcDbLine
 10
10.6176
 20
0.9468
 30
0.0
 11
10.67847
 21
0.91455
 31
0.0
  0
LINE
  5
43D
330
1F
100
AcDbEntity
  8
0
  6
Continuous
 62
     7
370
    25
100
AcDbLine
 10
10.67847
 20
0.91455
 30
0.0
 11
10.73078
 21
0.88033
 31
0.0
  0
LINE
  5
43E
330
1F
100
AcDbEntity
  8
0
  6
Continuous
 62
     7
370
    25
100
AcDbLine
 10
10.73078
 20
0.88033
 30
0.0
 11
10.77448
 21
0.84449
 31
0.0
  0
LINE
  5
43F
330
1F
100
AcDbEntity
  8
0
  6
Continuous
 62
     7
370
    25
100
AcDbLine
 10
10.77448
 20
0.84449
 30
0.0
 11
10.80954
 21
0.80737
 31
0.0
  0
LINE
  5
440
330
1F
100
AcDbEntity
  8
0
  6
Continuous
 62
     7
370
    25
100
AcDbLine
 10
10.80954
 20
0.80737
 30
0.0
 11
10.83592
 21
0.76932
 31
0.0
  0
LINE
  5
441
330
1F
100
AcDbEntity
  8
0
  6
Continuous
 62
     7
370
    25
100
AcDbLine
 10
10.83592
 20
0.76932
 30
0.0
 11
10.8536
 21
0.73068
 31
0.0
  0
LINE
  5
442
330
1F
100
AcDbEntity
  8
0
  6
Continuous
 62
     7
370
    25
100
AcDbLine
 10
10.8536
 20
0.73068
 30
0.0
 11
10.86258
 21
0.6918
 31
0.0
  0
LINE
  5
443
330
1F
100
AcDbEntity
  8
0
  6
Continuous
 62
     7
370
    25
100
AcDbLine
 10
10.86258
 20
0.6918
 30
0.0
 11
10.8636
 21
0.66269
 31
0.0
  0
LINE
  5
444
330
1F
100
AcDbEntity
  8
0
  6
Continuous
 62
     7
370
    25
100
AcDbLine
 10
10.8636
 20
0.66269
 30
0.0
 11
10.85441
 21
0.37994
 31
0.0
  0
LINE
  5
445
330
1F
100
AcDbEntity
  8
0
  6
Continuous
 62
     7
370
    25
100
AcDbLine
 10
10.85441
 20
0.37994
 30
0.0
 11
10.85
 21
0.0
 31
0.0
  0
LINE
  5
446
330
1F
100
AcDbEntity
  8
0
  6
Continuous
 62
     7
370
    25
100
AcDbLine
 10
10.85
 20
0.0
 30
0.0
 11
10.85441
 21
-0.37994
 31
0.0
  0
LINE
  5
447
330
1F
100
AcDbEntity
  8
0
  6
Continuous
 62
     7
370
    25
100
AcDbLine
 10
10.85441
 20
-0.37994
 30
0.0
 11
10.8636
 21
-0.66269
 31
0.0
  0
LINE
  5
448
330
1F
100
AcDbEntity
  8
0
  6
Continuous
 62
     7
370
    25
100
AcDbLine
 10
10.8636
 20
-0.66269
 30
0.0
 11
10.86258
 21
-0.6918
 31
0.0
  0
LINE
  5
449
330
1F
100
AcDbEntity
  8
0
  6
Continuous
 62
     7
370
    25
100
AcDbLine
 10
10.86258
 20
-0.6918
 30
0.0
 11
10.8536
 21
-0.73068
 31
0.0
  0
LINE
  5
44A
330
1F
100
AcDbEntity
  8
0
  6
Continuous
 62
     7
370
    25
100
AcDbLine
 10
10.8536
 20
-0.73068
 30
0.0
 11
10.83592
 21
-0.76932
 31
0.0
  0
LINE
  5
44B
330
1F
100
AcDbEntity
  8
0
  6
Continuous
 62
     7
370
    25
100
AcDbLine
 10
10.83592
 20
-0.76932
 30
0.0
 11
10.80954
 21
-0.80737
 31
0.0
  0
LINE
  5
44C
330
1F
100
AcDbEntity
  8
0
  6
Continuous
 62
     7
370
    25
100
AcDbLine
 10
10.80954
 20
-0.80737
 30
0.0
 11
10.77448
 21
-0.84449
 31
0.0
  0
LINE
  5
44D
330
1F
100
AcDbEntity
  8
0
  6
Continuous
 62
     7
370
    25
100
AcDbLine
 10
10.77448
 20
-0.84449
 30
0.0
 11
10.73078
 21
-0.88033
 31
0.0
  0
LINE
  5
44E
330
1F
100
AcDbEntity
  8
0
  6
Continuous
 62
     7
370
    25
100
AcDbLine
 10
10.73078
 20
-0.88033
 30
0.0
 11
10.67847
 21
-0.91455
 31
0.0
  0
LINE
  5
44F
330
1F
100
AcDbEntity
  8
0
  6
Continuous
 62
     7
370
    25
100
AcDbLine
 10
10.67847
 20
-0.91455
 30
0.0
 11
10.6176
 21
-0.9468
 31
0.0
  0
LINE
  5
450
330
1F
100
AcDbEntity
  8
0
  6
Continuous
 62
     7
370
    25
100
AcDbLine
 10
10.6176
 20
-0.9468
 30
0.0
 11
10.54825
 21
-0.97673
 31
0.0
  0
LINE
  5
451
330
1F
100
AcDbEntity
  8
0
  6
Continuous
 62
     7
370
    25
100
AcDbLine
 10
10.54825
 20
-0.97673
 30
0.0
 11
10.38438
 21
-1.02831
 31
0.0
  0
LINE
  5
452
330
1F
100
AcDbEntity
  8
0
  6
Continuous
 62
     7
370
    25
100
AcDbLine
 10
10.38438
 20
-1.02831
 30
0.0
 11
10.18756
 21
-1.06657
 31
0.0
  0
LINE
  5
453
330
1F
100
AcDbEntity
  8
0
  6
Continuous
 62
     7
370
    25
100
AcDbLine
 10
10.18756
 20
-1.06657
 30
0.0
 11
10.08212
 21
-1.07972
 31
0.0
  0
LINE
  5
454
330
1F
100
AcDbEntity
  8
0
  6
Continuous
 62
     7
370
    25
100
AcDbLine
 10
10.08212
 20
-1.07972
 30
0.0
 11
9.92702
 21
-1.10773
 31
0.0
  0
LINE
  5
455
330
1F
100
AcDbEntity
  8
0
  6
Continuous
 62
     7
370
    25
100
AcDbLine
 10
9.92702
 20
-1.10773
 30
0.0
 11
9.662
 21
-1.17837
 31
0.0
  0
LINE
  5
456
330
1F
100
AcDbEntity
  8
0
  6
Continuous
 62
     7
370
    25
100
AcDbLine
 10
9.662
 20
-1.17837
 30
0.0
 11
9.48909
 21
-1.23584
 31
0.0
  0
LINE
  5
457
330
1F
100
AcDbEntity
  8
0
  6
Continuous
 62
     7
370
    25
100
AcDbLine
 10
9.48909
 20
-1.23584
 30
0.0
 11
9.29314
 21
-1.31016
 31
0.0
  0
LINE
  5
458
330
1F
100
AcDbEntity
  8
0
  6
Continuous
 62
     7
370
    25
100
AcDbLine
 10
9.29314
 20
-1.31016
 30
0.0
 11
9.07127
 21
-1.40507
 31
0.0
  0
LINE
  5
459
330
1F
100
AcDbEntity
  8
0
  6
Continuous
 62
     7
370
    25
100
AcDbLine
 10
9.07127
 20
-1.40507
 30
0.0
 11
8.82536
 21
-1.52272
 31
0.0
  0
LINE
  5
45A
330
1F
100
AcDbEntity
  8
0
  6
Continuous
 62
     7
370
    25
100
AcDbLine
 10
8.82536
 20
-1.52272
 30
0.0
 11
8.56004
 21
-1.66363
 31
0.0
  0
LINE
  5
45B
330
1F
100
AcDbEntity
  8
0
  6
Continuous
 62
     7
370
    25
100
AcDbLine
 10
8.56004
 20
-1.66363
 30
0.0
 11
8.2757
 21
-1.83025
 31
0.0
  0
LINE
  5
45C
330
1F
100
AcDbEntity
  8
0
  6
Continuous
 62
     7
370
    25
100
AcDbLine
 10
8.2757
 20
-1.83025
 30
0.0
 11
7.97296
 21
-2.02508
 31
0.0
  0
LINE
  5
45D
330
1F
100
AcDbEntity
  8
0
  6
Continuous
 62
     7
370
    25
100
AcDbLine
 10
7.97296
 20
-2.02508
 30
0.0
 11
7.65541
 21
-2.24876
 31
0.0
  0
LINE
  5
45E
330
1F
100
AcDbEntity
  8
0
  6
Continuous
 62
     7
370
    25
100
AcDbLine
 10
7.65541
 20
-2.24876
 30
0.0
 11
7.3557645
 21
-2.4784902
 31
0.0
  0
LINE
  5
45F
330
1F
100
AcDbEntity
  8
0
  6
Continuous
 62
     7
370
    25
100
AcDbLine
 10
24.0050171218
 20
-0.7999946776
 30
0.0
 11
29.9950220922
 21
-0.7999946776
 31
0.0
  0
ARC
  5
460
330
1F
100
AcDbEntity
  8
0
  6
Continuous
 62
     7
370
    25
100
AcDbCircle
 10
27.000019607
 20
-0.000019607
 30
0.0
 40
3.100000000000001
100
AcDbArc
 50
345.0452285944
 51
194.9547714056
  0
MTEXT
  5
462
330
1F
100
AcDbEntity
  8
0
  6
Continuous
 62
     7
100
AcDbMText
 10
7.3557645
 20
-20.6638018917
 30
0.0
 40
4.83362
 41
0.0
 71
     1
 72
     1
  1
SOLIDWORKS Educational Product.
  7
SLDTEXTSTYLE0
 73
     1
 44
1.0
  0
MTEXT
  5
463
330
1F
100
AcDbEntity
  8
0
  6
Continuous
 62
     7
100
AcDbMText
 10
7.3557645
 20
-27.9142318917
 30
0.0
 40
4.83362
 41
0.0
 71
     1
 72
     1
  1
For Instructional Use Only.
  7
SLDTEXTSTYLE0
 73
     1
 44
1.0
  0
ENDSEC
  0
SECTION
  2
OBJECTS
  0
DICTIONARY
  5
C
330
0
100
AcDbDictionary
281
     1
  3
ACAD_GROUP
350
D
  3
ACAD_LAYOUT
350
1A
  3
ACAD_MLINESTYLE
350
17
  3
ACAD_PLOTSETTINGS
350
19
  3
ACAD_PLOTSTYLENAME
350
E
  3
ACAD_SCALELIST
350
47
  3
DWGPROPS
350
464
  0
DICTIONARY
  5
D
102
{ACAD_REACTORS
330
C
102
}
330
C
100
AcDbDictionary
281
     1
  0
DICTIONARY
  5
1A
102
{ACAD_REACTORS
330
C
102
}
330
C
100
AcDbDictionary
281
     1
  3
Layout1
350
1E
  3
Layout2
350
26
  3
Model
350
22
  0
DICTIONARY
  5
17
102
{ACAD_REACTORS
330
C
102
}
330
C
100
AcDbDictionary
281
     1
  3
Standard
350
18
  0
DICTIONARY
  5
19
102
{ACAD_REACTORS
330
C
102
}
330
C
100
AcDbDictionary
281
     1
  0
ACDBDICTIONARYWDFLT
  5
E
102
{ACAD_REACTORS
330
C
102
}
330
C
100
AcDbDictionary
281
     1
  3
Normal
350
F
100
AcDbDictionaryWithDefault
340
F
  0
DICTIONARY
  5
47
102
{ACAD_REACTORS
330
C
102
}
330
C
100
AcDbDictionary
281
     1
  3
A0
350
48
  3
A1
350
49
  3
A2
350
4A
  3
A3
350
4B
  3
A4
350
4C
  3
A5
350
4D
  3
A6
350
4E
  3
A7
350
4F
  3
A8
350
50
  3
A9
350
51
  3
B0
350
52
  3
B1
350
53
  3
B2
350
54
  3
B3
350
55
  3
B4
350
56
  3
B5
350
57
  3
B6
350
58
  0
XRECORD
  5
464
102
{ACAD_REACTORS
330
C
102
}
330
C
100
AcDbXrecord
280
     1
  1
DWGPROPS COOKIE
  2

  3

  4

  6

  7

  8
Connor
  9

300
=
301
=
302
=
303
=
304
=
305
=
306
=
307
=
308
=
309
=
 40
0.0
 41
2460887.989319572
 42
2460887.989345649
  1

 90
        0
  0
LAYOUT
  5
1E
102
{ACAD_REACTORS
330
1A
102
}
330
1A
100
AcDbPlotSettings
  1

  2
none_device
  4

  6

 40
0.0
 41
0.0
 42
0.0
 43
0.0
 44
0.0
 45
0.0
 46
0.0
 47
0.0
 48
0.0
 49
0.0
140
0.0
141
0.0
142
1.0
143
1.0
 70
   688
 72
     1
 73
     0
 74
     5
  7

 75
    16
147
1.0
148
0.0
149
0.0
100
AcDbLayout
  1
Layout1
 70
     1
 71
     1
 10
0.0
 20
0.0
 11
420.0
 21
297.0
 12
0.0
 22
0.0
 32
0.0
 14
1.0000000000E+20
 24
1.0000000000E+20
 34
1.0000000000E+20
 15
-1.0000000000E+20
 25
-1.0000000000E+20
 35
-1.0000000000E+20
146
0.0
 13
0.0
 23
0.0
 33
0.0
 16
1.0
 26
0.0
 36
0.0
 17
0.0
 27
1.0
 37
0.0
 76
     0
330
1B
  0
LAYOUT
  5
26
102
{ACAD_REACTORS
330
1A
102
}
330
1A
100
AcDbPlotSettings
  1

  2
none_device
  4

  6

 40
0.0
 41
0.0
 42
0.0
 43
0.0
 44
0.0
 45
0.0
 46
0.0
 47
0.0
 48
0.0
 49
0.0
140
0.0
141
0.0
142
1.0
143
1.0
 70
   688
 72
     1
 73
     0
 74
     5
  7

 75
    16
147
1.0
148
0.0
149
0.0
100
AcDbLayout
  1
Layout2
 70
     1
 71
     2
 10
0.0
 20
0.0
 11
0.0
 21
0.0
 12
0.0
 22
0.0
 32
0.0
 14
0.0
 24
0.0
 34
0.0
 15
0.0
 25
0.0
 35
0.0
146
0.0
 13
0.0
 23
0.0
 33
0.0
 16
1.0
 26
0.0
 36
0.0
 17
0.0
 27
1.0
 37
0.0
 76
     0
330
23
  0
LAYOUT
  5
22
102
{ACAD_REACTORS
330
1A
102
}
330
1A
100
AcDbPlotSettings
  1

  2
none_device
  4
ANSI_A_(11.00_x_8.50_Inches)
  6

 40
6.35
 41
19.05
 42
6.35000508
 43
19.05000254
 44
279.4
 45
215.9
 46
-13.5380552718
 47
88.89999873
 48
0.0
 49
0.0
140
0.0
141
0.0
142
0.2141849704
143
1.0
 70
  1696
 72
     0
 73
     0
 74
     0
  7

 75
     0
147
0.0179189148
148
-1300.4909072572
149
0.0
100
AcDbLayout
  1
Model
 70
     1
 71
     0
 10
0.0
 20
0.0
 11
420.0
 21
297.0
 12
0.0
 22
0.0
 32
0.0
 14
7.3557645
 24
-19.6442355
 34
0.0
 15
46.6442355
 25
19.6442355
 35
0.0
146
0.0
 13
0.0
 23
0.0
 33
0.0
 16
1.0
 26
0.0
 36
0.0
 17
0.0
 27
1.0
 37
0.0
 76
     0
330
1F
331
29
  0
MLINESTYLE
  5
18
102
{ACAD_REACTORS
330
17
102
}
330
17
100
AcDbMlineStyle
  2
Standard
 70
     0
  3

 62
   256
 51
90.0
 52
90.0
 71
     2
 49
0.5
 62
   256
  6
BYLAYER
 49
-0.5
 62
   256
  6
BYLAYER
  0
ACDBPLACEHOLDER
  5
F
102
{ACAD_REACTORS
330
E
102
}
330
E
  0
SCALE
  5
48
102
{ACAD_REACTORS
330
47
102
}
330
47
100
AcDbScale
 70
     0
300
1:1
140
1.0
141
1.0
290
     1
  0
SCALE
  5
49
102
{ACAD_REACTORS
330
47
102
}
330
47
100
AcDbScale
 70
     0
300
1:2
140
1.0
141
2.0
290
     0
  0
SCALE
  5
4A
102
{ACAD_REACTORS
330
47
102
}
330
47
100
AcDbScale
 70
     0
300
1:4
140
1.0
141
4.0
290
     0
  0
SCALE
  5
4B
102
{ACAD_REACTORS
330
47
102
}
330
47
100
AcDbScale
 70
     0
300
1:5
140
1.0
141
5.0
290
     0
  0
SCALE
  5
4C
102
{ACAD_REACTORS
330
47
102
}
330
47
100
AcDbScale
 70
     0
300
1:8
140
1.0
141
8.0
290
     0
  0
SCALE
  5
4D
102
{ACAD_REACTORS
330
47
102
}
330
47
100
AcDbScale
 70
     0
300
1:10
140
1.0
141
10.0
290
     0
  0
SCALE
  5
4E
102
{ACAD_REACTORS
330
47
102
}
330
47
100
AcDbScale
 70
     0
300
1:16
140
1.0
141
16.0
290
     0
  0
SCALE
  5
4F
102
{ACAD_REACTORS
330
47
102
}
330
47
100
AcDbScale
 70
     0
300
1:20
140
1.0
141
20.0
290
     0
  0
SCALE
  5
50
102
{ACAD_REACTORS
330
47
102
}
330
47
100
AcDbScale
 70
     0
300
1:30
140
1.0
141
30.0
290
     0
  0
SCALE
  5
51
102
{ACAD_REACTORS
330
47
102
}
330
47
100
AcDbScale
 70
     0
300
1:40
140
1.0
141
40.0
290
     0
  0
SCALE
  5
52
102
{ACAD_REACTORS
330
47
102
}
330
47
100
AcDbScale
 70
     0
300
1:50
140
1.0
141
50.0
290
     0
  0
SCALE
  5
53
102
{ACAD_REACTORS
330
47
102
}
330
47
100
AcDbScale
 70
     0
300
1:100
140
1.0
141
100.0
290
     0
  0
SCALE
  5
54
102
{ACAD_REACTORS
330
47
102
}
330
47
100
AcDbScale
 70
     0
300
2:1
140
2.0
141
1.0
290
     0
  0
SCALE
  5
55
102
{ACAD_REACTORS
330
47
102
}
330
47
100
AcDbScale
 70
     0
300
4:1
140
4.0
141
1.0
290
     0
  0
SCALE
  5
56
102
{ACAD_REACTORS
330
47
102
}
330
47
100
AcDbScale
 70
     0
300
8:1
140
8.0
141
1.0
290
     0
  0
SCALE
  5
57
102
{ACAD_REACTORS
330
47
102
}
330
47
100
AcDbScale
 70
     0
300
10:1
140
10.0
141
1.0
290
     0
  0
SCALE
  5
58
102
{ACAD_REACTORS
330
47
102
}
330
47
100
AcDbScale
 70
     0
300
100:1
140
100.0
141
1.0
290
     0
  0
ENDSEC
  0
EOF
