   0
SECTION
   2
ENTITIES
  0
LINE
  8
80
  6
CONTINUOUS
 62
11
 10
23.14052801
 20
13.43328879
 30
0.00000000
 11
22.39052801
 21
13.43328879
 31
0.00000000
  0
LINE
  8
80
  6
CONTINUOUS
 62
10
 10
22.39052801
 20
13.43328879
 30
0.00000000
 11
21.65862544
 21
13.43328879
 31
0.00000000
  0
ARC
  8
80
  6
CONTINUOUS
 62
10
 10
21.65862544
 20
17.43328879
 30
0.00000000
 40
4.00000000
 50
254.56330950
 51
270.00000000
  0
LINE
  8
80
  6
CONTINUOUS
 62
10
 10
20.59393168
 20
13.57758818
 30
0.00000000
 11
20.44326563
 21
13.61919235
 31
0.00000000
  0
ARC
  8
80
  6
CONTINUOUS
 62
10
 10
20.17709219
 20
12.65526719
 30
0.00000000
 40
1.00000000
 50
74.56330950
 51
105.79185732
  0
LINE
  8
80
  6
CONTINUOUS
 62
10
 10
19.90494869
 20
13.61752387
 30
0.00000000
 11
19.52297590
 21
13.50949510
 31
0.00000000
  0
ARC
  8
80
  6
CONTINUOUS
 62
10
 10
19.65904765
 20
13.02836676
 30
0.00000000
 40
0.50000000
 50
105.79185732
 51
165.16348341
  0
LINE
  8
80
  6
CONTINUOUS
 62
10
 10
19.17571746
 20
13.15639771
 30
0.00000000
 11
19.18471373
 21
13.19035955
 31
0.00000000
  0
ARC
  8
80
  6
CONTINUOUS
 62
10
 10
19.66804392
 20
13.06232861
 30
0.00000000
 40
0.50000000
 50
165.16348341
 51
237.21898900
  0
LINE
  8
80
  6
CONTINUOUS
 62
10
 10
19.39732912
 20
12.64195556
 30
0.00000000
 11
19.37890887
 21
12.65381796
 31
0.00000000
  0
ARC
  8
80
  6
CONTINUOUS
 62
10
 10
20.73248287
 20
14.75568319
 30
0.00000000
 40
2.50000000
 50
237.21898900
 51
263.88880111
  0
LINE
  8
80
  6
CONTINUOUS
 62
10
 10
20.46633682
 20
12.26989030
 30
0.00000000
 11
20.92795437
 21
12.22046636
 31
0.00000000
  0
ARC
  8
80
  6
CONTINUOUS
 62
10
 10
21.19410042
 20
14.70625925
 30
0.00000000
 40
2.50000000
 50
263.88880111
 51
282.86618057
  0
LINE
  8
80
  6
CONTINUOUS
 62
10
 10
21.75078720
 20
12.26902725
 30
0.00000000
 11
22.38058359
 21
12.41287868
 31
0.00000000
  0
ARC
  8
80
  6
CONTINUOUS
 62
10
 10
20.15383645
 20
22.16180669
 30
0.00000000
 40
10.00000000
 50
282.86618057
 51
292.19871288
  0
LINE
  8
80
  6
CONTINUOUS
 62
10
 10
23.93203633
 20
12.90301596
 30
0.00000000
 11
24.69151801
 21
13.21293479
 31
0.00000000
  0
LINE
  8
80
  6
CONTINUOUS
 62
10
 10
24.69151801
 20
13.21293479
 30
0.00000000
 11
24.48091064
 21
13.07455160
 31
0.00000000
  0
ARC
  8
80
  6
CONTINUOUS
 62
10
 10
18.98957354
 20
21.43189669
 30
0.00000000
 40
10.00000000
 50
284.32566622
 51
303.30760214
  0
LINE
  8
80
  6
CONTINUOUS
 62
10
 10
21.46390423
 20
11.74284680
 30
0.00000000
 11
21.51519788
 21
11.75594587
 31
0.00000000
  0
ARC
  8
80
  6
CONTINUOUS
 62
10
 10
21.02033175
 20
13.69375584
 30
0.00000000
 40
2.00000000
 50
260.22443017
 51
284.32566622
  0
LINE
  8
80
  6
CONTINUOUS
 62
10
 10
20.68075311
 20
11.72279507
 30
0.00000000
 11
19.18537701
 21
11.98043479
 31
0.00000000
  0
LINE
  8
80
  6
CONTINUOUS
 62
10
 10
19.18537701
 20
11.98043479
 30
0.00000000
 11
18.13219101
 21
12.16188979
 31
0.00000000
  0
LINE
  8
80
  6
CONTINUOUS
 62
10
 10
18.13219101
 20
12.16188979
 30
0.00000000
 11
17.91902360
 21
12.19861684
 31
0.00000000
  0
ARC
  8
80
  6
CONTINUOUS
 62
10
 10
17.57944283
 20
10.22765644
 30
0.00000000
 40
2.00000000
 50
80.22436803
 51
112.37171755
  0
LINE
  8
80
  6
CONTINUOUS
 62
10
 10
16.81821492
 20
12.07712449
 30
0.00000000
 11
16.47635601
 21
11.93641779
 31
0.00000000
  0
LINE
  8
80
  6
CONTINUOUS
 62
10
 10
16.47635601
 20
11.93641779
 30
0.00000000
 11
17.29089494
 21
12.03860605
 31
0.00000000
  0
ARC
  8
80
  6
CONTINUOUS
 62
10
 10
17.53985409
 20
10.05416171
 30
0.00000000
 40
2.00000000
 50
82.67872604
 51
97.15070288
  0
LINE
  8
80
  6
CONTINUOUS
 62
10
 10
17.79471987
 20
12.03785610
 30
0.00000000
 11
18.02735201
 21
12.00796744
 31
0.00000000
  0
ARC
  8
80
  6
CONTINUOUS
 62
10
 10
17.77248623
 20
10.02427305
 30
0.00000000
 40
2.00000000
 50
49.82801658
 51
82.67872604
  0
LINE
  8
80
  6
CONTINUOUS
 62
10
 10
19.06265448
 20
11.55249616
 30
0.00000000
 11
19.49811801
 21
11.18486579
 31
0.00000000
  0
LINE
  8
80
  6
CONTINUOUS
 62
10
 10
19.49811801
 20
11.18486579
 30
0.00000000
 11
18.74378539
 21
11.52586967
 31
0.00000000
  0
ARC
  8
80
  6
CONTINUOUS
 62
10
 10
17.91993468
 20
9.70343448
 30
0.00000000
 40
2.00000000
 50
65.67415998
 51
78.69794037
  0
LINE
  8
80
  6
CONTINUOUS
 62
10
 10
18.31189747
 20
11.66464971
 30
0.00000000
 11
18.26795886
 21
11.67343115
 31
0.00000000
  0
ARC
  8
80
  6
CONTINUOUS
 62
10
 10
18.07197747
 20
10.69282354
 30
0.00000000
 40
1.00000000
 50
78.69794037
 51
109.14295196
  0
LINE
  8
80
  6
CONTINUOUS
 62
10
 10
17.74405128
 20
11.63752689
 30
0.00000000
 11
17.47380140
 21
11.54371753
 31
0.00000000
  0
ARC
  8
80
  6
CONTINUOUS
 62
10
 10
17.63776450
 20
11.07136586
 30
0.00000000
 40
0.50000000
 50
109.14295196
 51
154.68295021
  0
ARC
  8
80
  6
CONTINUOUS
 62
10
 10
17.64124319
 20
11.07825031
 30
0.00000000
 40
0.50026003
 50
155.56612090
 51
209.99187287
  0
ARC
  8
80
  6
CONTINUOUS
 62
10
 10
17.64109514
 20
11.07798726
 30
0.00000000
 40
0.50000034
 50
209.97424638
 51
252.81295875
  0
LINE
  8
80
  6
CONTINUOUS
 62
10
 10
17.49334905
 20
10.60031433
 30
0.00000000
 11
17.42614541
 21
10.62110066
 31
0.00000000
  0
ARC
  8
80
  6
CONTINUOUS
 62
10
 10
18.01712913
 20
12.53179118
 30
0.00000000
 40
2.00000000
 50
252.81296619
 51
283.34621146
  0
LINE
  8
80
  6
CONTINUOUS
 62
10
 10
18.47879828
 20
10.58580515
 30
0.00000000
 11
19.00930201
 21
10.71166279
 31
0.00000000
  0
LINE
  8
80
  6
CONTINUOUS
 62
10
 10
19.00930201
 20
10.71166279
 30
0.00000000
 11
18.93351458
 21
10.65243516
 31
0.00000000
  0
ARC
  8
80
  6
CONTINUOUS
 62
10
 10
17.70198505
 20
12.22829524
 30
0.00000000
 40
2.00000000
 50
271.48679722
 51
308.00751069
  0
LINE
  8
80
  6
CONTINUOUS
 62
10
 10
17.75387823
 20
10.22896858
 30
0.00000000
 11
17.58825300
 21
10.22466973
 31
0.00000000
  0
ARC
  8
80
  6
CONTINUOUS
 62
10
 10
17.53635981
 20
12.22399639
 30
0.00000000
 40
2.00000000
 50
251.57726308
 51
271.48679722
  0
LINE
  8
80
  6
CONTINUOUS
 62
10
 10
16.90430870
 20
10.32649503
 30
0.00000000
 11
15.26782963
 21
10.87160053
 31
0.00000000
  0
ARC
  8
80
  6
CONTINUOUS
 62
10
 10
15.23622707
 20
10.77672547
 30
0.00000000
 40
0.10000000
 50
71.57726308
 51
248.53349487
  0
LINE
  8
80
  6
CONTINUOUS
 62
10
 10
15.19963135
 20
10.68366230
 30
0.00000000
 11
15.80512029
 21
10.44556266
 31
0.00000000
  0
ARC
  8
80
  6
CONTINUOUS
 62
10
 10
19.46469275
 20
19.75187930
 30
0.00000000
 40
10.00000000
 50
248.53349487
 51
256.11829148
  0
LINE
  8
80
  6
CONTINUOUS
 62
10
 10
17.06551143
 20
10.04394806
 30
0.00000000
 11
16.93724800
 21
10.07564659
 31
0.00000000
  0
ARC
  8
80
  6
CONTINUOUS
 62
10
 10
17.89692053
 20
13.95881909
 30
0.00000000
 40
4.00000000
 50
256.11829148
 51
274.27278778
  0
LINE
  8
80
  6
CONTINUOUS
 62
10
 10
18.19494098
 20
9.96993656
 30
0.00000000
 11
18.17437775
 21
9.96840023
 31
0.00000000
  0
ARC
  8
80
  6
CONTINUOUS
 62
10
 10
17.87635730
 20
13.95728275
 30
0.00000000
 40
4.00000000
 50
274.27278778
 51
293.89724051
  0
LINE
  8
80
  6
CONTINUOUS
 62
10
 10
19.49674751
 20
10.30018889
 30
0.00000000
 11
19.48546511
 21
10.29518987
 31
0.00000000
  0
ARC
  8
80
  6
CONTINUOUS
 62
10
 10
21.10585533
 20
6.63809600
 30
0.00000000
 40
4.00000000
 50
93.03726991
 51
113.89724051
  0
LINE
  8
80
  6
CONTINUOUS
 62
10
 10
20.89391318
 20
10.63247712
 30
0.00000000
 11
21.16291312
 21
10.64675028
 31
0.00000000
  0
ARC
  8
80
  6
CONTINUOUS
 62
10
 10
21.37485527
 20
6.65236916
 30
0.00000000
 40
4.00000000
 50
82.29349514
 51
93.03726991
  0
LINE
  8
80
  6
CONTINUOUS
 62
10
 10
21.91125004
 20
10.61624108
 30
0.00000000
 11
22.46499110
 21
10.54130834
 31
0.00000000
  0
ARC
  8
80
  6
CONTINUOUS
 62
10
 10
21.92859633
 20
6.57743641
 30
0.00000000
 40
4.00000000
 50
75.19660935
 51
82.29349514
  0
LINE
  8
80
  6
CONTINUOUS
 62
10
 10
22.95060822
 20
10.44466949
 30
0.00000000
 11
24.18835701
 21
10.11756379
 31
0.00000000
  0
LINE
  8
80
  6
CONTINUOUS
 62
10
 10
24.18835701
 20
10.11756379
 30
0.00000000
 11
22.95486396
 21
10.21351574
 31
0.00000000
  0
ARC
  8
80
  6
CONTINUOUS
 62
10
 10
22.17931881
 20
0.24363461
 30
0.00000000
 40
10.00000000
 50
85.55198710
 51
94.79340973
  0
LINE
  8
80
  6
CONTINUOUS
 62
10
 10
21.34368657
 20
10.20865939
 30
0.00000000
 11
21.18079236
 21
10.19499965
 31
0.00000000
  0
ARC
  8
80
  6
CONTINUOUS
 62
10
 10
21.51504526
 20
6.20898974
 30
0.00000000
 40
4.00000000
 50
94.79340973
 51
122.93314258
  0
ARC
  8
80
  6
CONTINUOUS
 62
10
 10
19.50350313
 20
9.31442019
 30
0.00000000
 40
0.30000000
 50
122.93314258
 51
265.82820983
  0
LINE
  8
80
  6
CONTINUOUS
 62
10
 10
19.48167898
 20
9.01521506
 30
0.00000000
 11
19.57232098
 21
9.00860360
 31
0.00000000
  0
ARC
  8
80
  6
CONTINUOUS
 62
10
 10
19.93605676
 20
13.99535567
 30
0.00000000
 40
5.00000000
 50
265.82820983
 51
290.33995033
  0
LINE
  8
80
  6
CONTINUOUS
 62
10
 10
21.67400439
 20
9.30712167
 30
0.00000000
 11
21.98063201
 21
9.42078979
 31
0.00000000
  0
LINE
  8
80
  6
CONTINUOUS
 62
10
 10
21.98063201
 20
9.42078979
 30
0.00000000
 11
21.54960157
 21
9.05298032
 31
0.00000000
  0
ARC
  8
80
  6
CONTINUOUS
 62
10
 10
20.25136950
 20
10.57435913
 30
0.00000000
 40
2.00000000
 50
272.73391027
 51
310.47498797
  0
LINE
  8
80
  6
CONTINUOUS
 62
10
 10
20.34676476
 20
8.57663549
 30
0.00000000
 11
20.11235437
 21
8.56544192
 31
0.00000000
  0
ARC
  8
80
  6
CONTINUOUS
 62
10
 10
20.01695911
 20
10.56316557
 30
0.00000000
 40
2.00000000
 50
254.99179635
 51
272.73391027
  0
LINE
  8
80
  6
CONTINUOUS
 62
10
 10
19.49904442
 20
8.63138805
 30
0.00000000
 11
18.83189633
 21
8.81025222
 31
0.00000000
  0
ARC
  8
80
  6
CONTINUOUS
 62
10
 10
19.34981102
 20
10.74202974
 30
0.00000000
 40
2.00000000
 50
250.12785409
 51
254.99179635
  0
LINE
  8
80
  6
CONTINUOUS
 62
10
 10
18.66996624
 20
8.86112276
 30
0.00000000
 11
17.54538901
 21
9.26759579
 31
0.00000000
  0
LINE
  8
80
  6
CONTINUOUS
 62
10
 10
17.54538901
 20
9.26759579
 30
0.00000000
 11
15.48093141
 21
9.99668492
 31
0.00000000
  0
ARC
  8
80
  6
CONTINUOUS
 62
10
 10
14.81491994
 20
8.11083531
 30
0.00000000
 40
2.00000000
 50
70.54868681
 51
74.34937419
  0
LINE
  8
80
  6
CONTINUOUS
 62
10
 10
15.35446145
 20
10.03668447
 30
0.00000000
 11
14.62408386
 21
10.24130539
 31
0.00000000
  0
ARC
  8
80
  6
CONTINUOUS
 62
10
 10
14.08454235
 20
8.31545624
 30
0.00000000
 40
2.00000000
 50
74.34937419
 51
99.90120849
  0
ARC
  8
80
  6
CONTINUOUS
 62
10
 10
13.77503257
 20
10.08864649
 30
0.00000000
 40
0.20000000
 50
99.90120849
 51
240.81983249
  0
ARC
  8
80
  6
CONTINUOUS
 62
10
 10
14.16067895
 20
10.78973759
 30
0.00000000
 40
1.00015412
 50
241.11302039
 51
274.33886686
  0
LINE
  8
80
  6
CONTINUOUS
 62
10
 10
14.23634576
 20
9.79244987
 30
0.00000000
 11
15.05369301
 21
9.85448279
 31
0.00000000
  0
LINE
  8
80
  6
CONTINUOUS
 62
10
 10
15.05369301
 20
9.85448279
 30
0.00000000
 11
14.89190719
 21
9.78671981
 31
0.00000000
  0
ARC
  8
80
  6
CONTINUOUS
 62
10
 10
12.18762694
 20
16.24325668
 30
0.00000000
 40
7.00000000
 50
270.51960896
 51
292.72606911
  0
LINE
  8
80
  6
CONTINUOUS
 62
10
 10
12.25110828
 20
9.24354453
 30
0.00000000
 11
12.19842257
 21
9.24306672
 31
0.00000000
  0
ARC
  8
80
  6
CONTINUOUS
 62
10
 10
12.18028504
 20
11.24298447
 30
0.00000000
 40
2.00000000
 50
240.08978698
 51
270.51960896
  0
LINE
  8
80
  6
CONTINUOUS
 62
10
 10
11.18300053
 20
9.50936872
 30
0.00000000
 11
11.12734336
 21
9.54138621
 31
0.00000000
  0
ARC
  8
80
  6
CONTINUOUS
 62
10
 10
13.12191239
 20
13.00861773
 30
0.00000000
 40
4.00000000
 50
223.37029631
 51
240.08978698
  0
LINE
  8
80
  6
CONTINUOUS
 62
10
 10
10.21418928
 20
10.26177476
 30
0.00000000
 11
9.82919501
 21
10.66931779
 31
0.00000000
  0
LINE
  8
80
  6
CONTINUOUS
 62
10
 10
9.82919501
 20
10.66931779
 30
0.00000000
 11
10.60939348
 21
10.29737729
 31
0.00000000
  0
ARC
  8
80
  6
CONTINUOUS
 62
10
 10
12.33070237
 20
13.90806914
 30
0.00000000
 40
4.00000000
 50
244.51167167
 51
262.48514385
  0
ARC
  8
80
  6
CONTINUOUS
 62
10
 10
11.83372599
 20
10.14070741
 30
0.00000000
 40
0.20000000
 50
262.48514385
 51
277.36145578
  0
ARC
  8
80
  6
CONTINUOUS
 62
10
 10
11.79528745
 20
10.43823468
 30
0.00000000
 40
0.50000000
 50
277.36145578
 51
70.46646258
  0
ARC
  8
80
  6
CONTINUOUS
 62
10
 10
11.29263067
 20
9.02494828
 30
0.00000000
 40
2.00001398
 50
70.43258861
 51
88.60670573
  0
LINE
  8
80
  6
CONTINUOUS
 62
10
 10
11.34126136
 20
11.02437094
 30
0.00000000
 11
10.01118673
 21
11.05672077
 31
0.00000000
  0
ARC
  8
80
  6
CONTINUOUS
 62
10
 10
10.25433295
 20
21.05376433
 30
0.00000000
 40
10.00000000
 50
260.78951514
 51
268.60673749
  0
ARC
  8
80
  6
CONTINUOUS
 62
10
 10
9.00836928
 20
13.15099828
 30
0.00000000
 40
2.00000000
 50
227.57596203
 51
259.78587919
  0
LINE
  8
80
  6
CONTINUOUS
 62
10
 10
7.65914499
 20
11.67465353
 30
0.00000000
 11
7.27128401
 21
12.02911779
 31
0.00000000
  0
LINE
  8
80
  6
CONTINUOUS
 62
10
 10
7.27128401
 20
12.02911779
 30
0.00000000
 11
8.27004864
 21
11.91246189
 31
0.00000000
  0
ARC
  8
80
  6
CONTINUOUS
 62
10
 10
8.38606018
 20
12.90570976
 30
0.00000000
 40
1.00000000
 50
263.33802750
 51
317.13883925
  0
ARC
  8
80
  6
CONTINUOUS
 62
10
 10
10.58922226
 20
10.86067911
 30
0.00000000
 40
2.00600626
 50
117.11982794
 51
137.12821520
  0
LINE
  8
80
  6
CONTINUOUS
 62
10
 10
9.67477840
 20
12.64613521
 30
0.00000000
 11
9.95200578
 21
12.78802895
 31
0.00000000
  0
ARC
  8
80
  6
CONTINUOUS
 62
10
 10
10.40762529
 20
11.89785433
 30
0.00000000
 40
1.00000000
 50
91.56827762
 51
117.10480179
  0
LINE
  8
80
  6
CONTINUOUS
 62
10
 10
10.38025710
 20
12.89747975
 30
0.00000000
 11
10.86943901
 21
12.91087279
 31
0.00000000
  0
LINE
  8
80
  6
CONTINUOUS
 62
10
 10
10.86943901
 20
12.91087279
 30
0.00000000
 11
10.30273783
 21
12.69306488
 31
0.00000000
  0
ARC
  8
80
  6
CONTINUOUS
 62
10
 10
10.66149582
 20
11.75963427
 30
0.00000000
 40
1.00000000
 50
111.02393909
 51
134.97953880
  0
LINE
  8
80
  6
CONTINUOUS
 62
10
 10
9.95464160
 20
12.46699352
 30
0.00000000
 11
9.80266292
 21
12.31512336
 31
0.00000000
  0
ARC
  8
80
  6
CONTINUOUS
 62
10
 10
10.50951714
 20
11.60776410
 30
0.00000000
 40
1.00000000
 50
134.97953880
 51
159.22080822
  0
ARC
  8
80
  6
CONTINUOUS
 62
10
 10
9.66805802
 20
11.92705480
 30
0.00000000
 40
0.10000000
 50
159.22080822
 51
244.02526928
  0
ARC
  8
80
  6
CONTINUOUS
 62
10
 10
9.84324790
 20
12.28664971
 30
0.00000000
 40
0.50000000
 50
244.02526928
 51
298.28377336
  0
LINE
  8
80
  6
CONTINUOUS
 62
10
 10
10.08016732
 20
11.84634392
 30
0.00000000
 11
10.35977012
 21
11.99679239
 31
0.00000000
  0
ARC
  8
80
  6
CONTINUOUS
 62
10
 10
9.88593129
 20
12.87740397
 30
0.00000000
 40
1.00000000
 50
298.28377336
 51
308.44380345
  0
LINE
  8
80
  6
CONTINUOUS
 62
10
 10
10.50767803
 20
12.09418562
 30
0.00000000
 11
10.79853002
 21
12.32507433
 31
0.00000000
  0
LINE
  8
80
  6
CONTINUOUS
 62
10
 10
10.79853002
 20
12.32507433
 30
0.00000000
 11
10.58307374
 21
12.01080680
 31
0.00000000
  0
ARC
  8
80
  6
CONTINUOUS
 62
10
 10
9.75829414
 20
12.57626114
 30
0.00000000
 40
1.00000000
 50
298.66904031
 51
325.56615242
  0
LINE
  8
80
  6
CONTINUOUS
 62
10
 10
10.23804360
 20
11.69885562
 30
0.00000000
 11
9.92823301
 21
11.52945679
 31
0.00000000
  0
LINE
  8
80
  6
CONTINUOUS
 62
10
 10
9.92823301
 20
11.52945679
 30
0.00000000
 11
10.43049564
 21
11.53858210
 31
0.00000000
  0
ARC
  8
80
  6
CONTINUOUS
 62
10
 10
10.39416484
 20
13.53825209
 30
0.00000000
 40
2.00000000
 50
271.04085804
 51
303.18944955
  0
LINE
  8
80
  6
CONTINUOUS
 62
10
 10
11.48898310
 20
11.86452184
 30
0.00000000
 11
12.35859189
 21
12.43334921
 31
0.00000000
  0
ARC
  8
80
  6
CONTINUOUS
 62
10
 10
12.08488732
 20
12.85178177
 30
0.00000000
 40
0.50000000
 50
303.18944955
 51
89.47474624
  0
LINE
  8
80
  6
CONTINUOUS
 62
10
 10
12.08947096
 20
13.35176076
 30
0.00000000
 11
11.84379013
 21
13.35401308
 31
0.00000000
  0
ARC
  8
80
  6
CONTINUOUS
 62
10
 10
11.79795373
 20
8.35422318
 30
0.00000000
 40
5.00000000
 50
89.47474624
 51
101.77661164
  0
LINE
  8
80
  6
CONTINUOUS
 62
10
 10
10.77747145
 20
13.24897710
 30
0.00000000
 11
9.94804301
 21
13.07605379
 31
0.00000000
  0
LINE
  8
80
  6
CONTINUOUS
 62
10
 10
9.94804301
 20
13.07605379
 30
0.00000000
 11
9.59660801
 21
13.01752279
 31
0.00000000
  0
LINE
  8
80
  6
CONTINUOUS
 62
10
 10
9.59660801
 20
13.01752279
 30
0.00000000
 11
9.92977594
 21
13.20570138
 31
0.00000000
  0
ARC
  8
80
  6
CONTINUOUS
 62
10
 10
12.38873790
 20
8.85213893
 30
0.00000000
 40
5.00000000
 50
88.68403824
 51
119.45845853
  0
ARC
  8
80
  6
CONTINUOUS
 62
10
 10
12.21676714
 20
8.85905238
 30
0.00000000
 40
5.00000000
 50
77.42020098
 51
86.71170930
  0
LINE
  8
80
  6
CONTINUOUS
 62
10
 10
13.30576286
 20
13.73902044
 30
0.00000000
 11
13.81008371
 21
13.62647806
 31
0.00000000
  0
ARC
  8
80
  6
CONTINUOUS
 62
10
 10
12.72108799
 20
8.74650999
 30
0.00000000
 40
5.00000000
 50
63.13827914
 51
77.42020098
  0
LINE
  8
80
  6
CONTINUOUS
 62
10
 10
14.98028199
 20
13.20700800
 30
0.00000000
 11
15.23442851
 21
13.07828553
 31
0.00000000
  0
ARC
  8
80
  6
CONTINUOUS
 62
10
 10
14.78258971
 20
12.18618593
 30
0.00000000
 40
1.00000000
 50
40.03995622
 51
63.13827914
  0
ARC
  8
80
  6
CONTINUOUS
 62
10
 10
15.16538770
 20
12.50784677
 30
0.00000000
 40
0.50000000
 50
331.80449352
 51
40.03995622
  0
LINE
  8
80
  6
CONTINUOUS
 62
10
 10
15.60605796
 20
12.27160594
 30
0.00000000
 11
15.56577109
 21
12.19645709
 31
0.00000000
  0
ARC
  8
80
  6
CONTINUOUS
 62
10
 10
15.12510083
 20
12.43269791
 30
0.00000000
 40
0.50000000
 50
299.96407166
 51
331.80449352
  0
LINE
  8
80
  6
CONTINUOUS
 62
10
 10
15.37482925
 20
11.99952853
 30
0.00000000
 11
15.21598333
 21
11.90795156
 31
0.00000000
  0
ARC
  8
80
  6
CONTINUOUS
 62
10
 10
14.71652649
 20
12.77429032
 30
0.00000000
 40
1.00000000
 50
283.75135982
 51
299.96407166
  0
LINE
  8
80
  6
CONTINUOUS
 62
10
 10
14.95423543
 20
11.80295390
 30
0.00000000
 11
14.32781401
 21
11.64965379
 31
0.00000000
  0
LINE
  8
80
  6
CONTINUOUS
 62
10
 10
14.32781401
 20
11.64965379
 30
0.00000000
 11
14.58507663
 21
11.93639715
 31
0.00000000
  0
ARC
  8
80
  6
CONTINUOUS
 62
10
 10
14.21290958
 20
12.27030086
 30
0.00000000
 40
0.50000000
 50
318.10193558
 51
55.04535252
  0
ARC
  8
80
  6
CONTINUOUS
 62
10
 10
14.26821495
 20
12.23674643
 30
0.00000000
 40
0.50000000
 50
62.46327164
 51
98.12437550
  0
LINE
  8
80
  6
CONTINUOUS
 62
10
 10
14.19755374
 20
12.73172824
 30
0.00000000
 11
14.06534916
 21
12.71285536
 31
0.00000000
  0
ARC
  8
80
  6
CONTINUOUS
 62
10
 10
14.34799398
 20
10.73292811
 30
0.00000000
 40
2.00000000
 50
98.12437550
 51
117.96259572
  0
LINE
  8
80
  6
CONTINUOUS
 62
10
 10
13.41020388
 20
12.49943589
 30
0.00000000
 11
13.44976556
 21
12.52043809
 31
0.00000000
  0
ARC
  8
80
  6
CONTINUOUS
 62
10
 10
14.38755566
 20
10.75393031
 30
0.00000000
 40
2.00000000
 50
117.96259572
 51
132.80496763
  0
LINE
  8
80
  6
CONTINUOUS
 62
10
 10
13.02854582
 20
12.22127222
 30
0.00000000
 11
12.57975901
 21
11.80561879
 31
0.00000000
  0
LINE
  8
80
  6
CONTINUOUS
 62
10
 10
12.57975901
 20
11.80561879
 30
0.00000000
 11
12.80684906
 21
11.67880595
 31
0.00000000
  0
ARC
  8
80
  6
CONTINUOUS
 62
10
 10
13.78196191
 20
13.42498891
 30
0.00000000
 40
2.00000000
 50
240.81990155
 51
260.54425101
  0
LINE
  8
80
  6
CONTINUOUS
 62
10
 10
13.45339026
 20
11.45216336
 30
0.00000000
 11
13.82052512
 21
11.39101750
 31
0.00000000
  0
ARC
  8
80
  6
CONTINUOUS
 62
10
 10
14.14909676
 20
13.36384306
 30
0.00000000
 40
2.00000000
 50
260.54425101
 51
284.22762002
  0
LINE
  8
80
  6
CONTINUOUS
 62
10
 10
14.64064614
 20
11.42518909
 30
0.00000000
 11
14.93570854
 21
11.50000272
 31
0.00000000
  0
ARC
  8
80
  6
CONTINUOUS
 62
10
 10
14.44415917
 20
13.43865669
 30
0.00000000
 40
2.00000000
 50
284.22762002
 51
304.36136199
  0
LINE
  8
80
  6
CONTINUOUS
 62
10
 10
15.57298007
 20
11.78766808
 30
0.00000000
 11
15.89981363
 21
12.01113211
 31
0.00000000
  0
ARC
  8
80
  6
CONTINUOUS
 62
10
 10
15.33540318
 20
12.83662641
 30
0.00000000
 40
1.00000000
 50
304.36136199
 51
340.54722152
  0
LINE
  8
80
  6
CONTINUOUS
 62
10
 10
16.27831946
 20
12.50359656
 30
0.00000000
 11
16.29792321
 21
12.55910117
 31
0.00000000
  0
ARC
  8
80
  6
CONTINUOUS
 62
10
 10
15.82646507
 20
12.72561610
 30
0.00000000
 40
0.50000000
 50
340.54722152
 51
57.61858057
  0
LINE
  8
80
  6
CONTINUOUS
 62
10
 10
16.09424154
 20
13.14786692
 30
0.00000000
 11
15.83562017
 21
13.31187541
 31
0.00000000
  0
ARC
  8
80
  6
CONTINUOUS
 62
10
 10
13.69340834
 20
9.93386883
 30
0.00000000
 40
4.00000000
 50
57.61858057
 51
73.71687893
  0
LINE
  8
80
  6
CONTINUOUS
 62
10
 10
14.81494412
 20
13.77342056
 30
0.00000000
 11
14.34342101
 21
13.91115279
 31
0.00000000
  0
LINE
  8
80
  6
CONTINUOUS
 62
10
 10
14.34342101
 20
13.91115279
 30
0.00000000
 11
15.23854854
 21
14.16554902
 31
0.00000000
  0
ARC
  8
80
  6
CONTINUOUS
 62
10
 10
17.97230017
 20
4.54647411
 30
0.00000000
 40
10.00000000
 50
96.28451175
 51
105.86520790
  0
LINE
  8
80
  6
CONTINUOUS
 62
10
 10
16.87764399
 20
14.48637994
 30
0.00000000
 11
18.08297366
 21
14.61911979
 31
0.00000000
  0
ARC
  8
80
  6
CONTINUOUS
 62
10
 10
19.17762984
 20
4.67921396
 30
0.00000000
 40
10.00000000
 50
89.66212911
 51
96.28451175
  0
LINE
  8
80
  6
CONTINUOUS
 62
10
 10
19.23659909
 20
14.67904009
 30
0.00000000
 11
19.74980485
 21
14.67601370
 31
0.00000000
  0
ARC
  8
80
  6
CONTINUOUS
 62
10
 10
19.69083560
 20
4.67618757
 30
0.00000000
 40
10.00000000
 50
78.83386815
 51
89.66212911
  0
LINE
  8
80
  6
CONTINUOUS
 62
10
 10
21.62738024
 20
14.48688555
 30
0.00000000
 11
22.11149401
 21
14.39132579
 31
0.00000000
  0
LINE
  8
80
  6
CONTINUOUS
 62
10
 10
22.11149401
 20
14.39132579
 30
0.00000000
 11
20.48999494
 21
14.39132579
 31
0.00000000
  0
ARC
  8
80
  6
CONTINUOUS
 62
10
 10
20.48999494
 20
4.39132579
 30
0.00000000
 40
10.00000000
 50
90.00000000
 51
93.42143091
  0
LINE
  8
80
  6
CONTINUOUS
 62
10
 10
19.89319743
 20
14.37350154
 30
0.00000000
 11
19.30556493
 21
14.33836916
 31
0.00000000
  0
ARC
  8
80
  6
CONTINUOUS
 62
10
 10
19.78300294
 20
6.35262856
 30
0.00000000
 40
8.00000000
 50
93.42143091
 51
109.28095619
  0
ARC
  8
80
  6
CONTINUOUS
 62
10
 10
17.30649787
 20
13.43195922
 30
0.00000000
 40
0.50000000
 50
109.28095619
 51
154.34305158
  0
LINE
  8
80
  6
CONTINUOUS
 62
10
 10
16.85579656
 20
13.64845017
 30
0.00000000
 11
16.81714911
 21
13.56799204
 31
0.00000000
  0
ARC
  8
80
  6
CONTINUOUS
 62
10
 10
17.08756989
 20
13.43809747
 30
0.00000000
 40
0.30000000
 50
154.34305158
 51
280.77680300
  0
LINE
  8
80
  6
CONTINUOUS
 62
10
 10
17.14366497
 20
13.14338856
 30
0.00000000
 11
17.26894870
 21
13.16723514
 31
0.00000000
  0
ARC
  8
80
  6
CONTINUOUS
 62
10
 10
16.52101427
 20
17.09668728
 30
0.00000000
 40
4.00000000
 50
280.77680300
 51
297.16459284
  0
ARC
  8
80
  6
CONTINUOUS
 62
10
 10
20.17892236
 20
9.98182042
 30
0.00000000
 40
4.00010374
 50
92.63070523
 51
117.25277289
  0
LINE
  8
80
  6
CONTINUOUS
 62
10
 10
19.99532425
 20
13.97770852
 30
0.00000000
 11
19.91025438
 21
13.97380007
 31
0.00000000
  0
ARC
  8
80
  6
CONTINUOUS
 62
10
 10
20.09383660
 20
9.97801510
 30
0.00000000
 40
4.00000000
 50
71.78702304
 51
92.63054555
  0
LINE
  8
80
  6
CONTINUOUS
 62
10
 10
21.34403688
 20
13.77762024
 30
0.00000000
 11
22.07658201
 21
13.53658779
 31
0.00000000
  0
LINE
  8
80
  6
CONTINUOUS
 62
10
 10
22.07658201
 20
13.53658779
 30
0.00000000
 11
22.39052801
 21
13.43328879
 31
0.00000000
  0
LINE
  8
80
  6
CONTINUOUS
 62
11
 10
22.39052801
 20
13.43328879
 30
0.00000000
 11
22.44893964
 21
13.41957451
 31
0.00000000
   0
ENDSEC
   0
EOF
