  0
SECTION
  2
HEADER
  9
$ACADVER
  1
AC1015
  9
$ACADMAINTVER
 70
     6
  9
$DWGCODEPAGE
  3
ANSI_1252
  9
$INSBASE
 10
0.0
 20
0.0
 30
0.0
  9
$EXTMIN
 10
0.0
 20
0.0
 30
0.0
  9
$EXTMAX
 10
34.0
 20
22.0
 30
0.0
  9
$LIMMIN
 10
0.0
 20
0.0
  9
$LIMMAX
 10
34.0
 20
22.0
  9
$ORTHOMODE
 70
     0
  9
$REGENMODE
 70
     1
  9
$FILLMODE
 70
     1
  9
$QTEXTMODE
 70
     0
  9
$MIRRTEXT
 70
     1
  9
$LTSCALE
 40
1.0
  9
$ATTMODE
 70
     1
  9
$TEXTSIZE
 40
0.1377952756
  9
$TRACEWID
 40
0.05
  9
$TEXTSTYLE
  7
Standard
  9
$CLAYER
  8
0
  9
$CELTYPE
  6
ByLayer
  9
$CECOLOR
 62
   256
  9
$CELTSCALE
 40
1.0
  9
$DISPSILH
 70
     0
  9
$DIMSCALE
 40
1.0
  9
$DIMASZ
 40
0.13
  9
$DIMEXO
 40
0.05
  9
$DIMDLI
 40
0.38
  9
$DIMRND
 40
0.0
  9
$DIMDLE
 40
0.0
  9
$DIMEXE
 40
0.125
  9
$DIMTP
 40
0.0
  9
$DIMTM
 40
0.0
  9
$DIMTXT
 40
0.1377952756
  9
$DIMCEN
 40
0.09
  9
$DIMTSZ
 40
0.0
  9
$DIMTOL
 70
     0
  9
$DIMLIM
 70
     0
  9
$DIMTIH
 70
     1
  9
$DIMTOH
 70
     1
  9
$DIMSE1
 70
     0
  9
$DIMSE2
 70
     0
  9
$DIMTAD
 70
     1
  9
$DIMZIN
 70
     1
  9
$DIMBLK
  1

  9
$DIMASO
 70
     1
  9
$DIMSHO
 70
     1
  9
$DIMPOST
  1

  9
$DIMAPOST
  1

  9
$DIMALT
 70
     0
  9
$DIMALTD
 70
     2
  9
$DIMALTF
 40
25.4
  9
$DIMLFAC
 40
1.0
  9
$DIMTOFL
 70
     0
  9
$DIMTVP
 40
0.0
  9
$DIMTIX
 70
     0
  9
$DIMSOXD
 70
     0
  9
$DIMSAH
 70
     0
  9
$DIMBLK1
  1

  9
$DIMBLK2
  1

  9
$DIMSTYLE
  2
Standard
  9
$DIMCLRD
 70
     0
  9
$DIMCLRE
 70
     0
  9
$DIMCLRT
 70
     0
  9
$DIMTFAC
 40
1.0
  9
$DIMGAP
 40
0.06
  9
$DIMJUST
 70
     0
  9
$DIMSD1
 70
     0
  9
$DIMSD2
 70
     0
  9
$DIMTOLJ
 70
     1
  9
$DIMTZIN
 70
     1
  9
$DIMALTZ
 70
     0
  9
$DIMALTTZ
 70
     0
  9
$DIMUPT
 70
     0
  9
$DIMDEC
 70
     4
  9
$DIMTDEC
 70
     4
  9
$DIMALTU
 70
     2
  9
$DIMALTTD
 70
     2
  9
$DIMTXSTY
  7
Standard
  9
$DIMAUNIT
 70
     0
  9
$DIMADEC
 70
     0
  9
$DIMALTRND
 40
0.0
  9
$DIMAZIN
 70
     0
  9
$DIMDSEP
 70
    46
  9
$DIMATFIT
 70
     3
  9
$DIMFRAC
 70
     0
  9
$DIMLDRBLK
  1

  9
$DIMLUNIT
 70
     2
  9
$DIMLWD
 70
    -2
  9
$DIMLWE
 70
    -2
  9
$DIMTMOVE
 70
     0
  9
$LUNITS
 70
     2
  9
$LUPREC
 70
     4
  9
$SKETCHINC
 40
0.1
  9
$FILLETRAD
 40
0.0
  9
$AUNITS
 70
     0
  9
$AUPREC
 70
     0
  9
$MENU
  1
.
  9
$ELEVATION
 40
0.0
  9
$PELEVATION
 40
0.0
  9
$THICKNESS
 40
0.0
  9
$LIMCHECK
 70
     0
  9
$CHAMFERA
 40
0.0
  9
$CHAMFERB
 40
0.0
  9
$CHAMFERC
 40
0.0
  9
$CHAMFERD
 40
0.0
  9
$SKPOLY
 70
     0
  9
$TDCREATE
 40
2460846.492565267
  9
$TDUCREATE
 40
2460846.784231933
  9
$TDUPDATE
 40
2460846.492565591
  9
$TDUUPDATE
 40
2460846.784232257
  9
$TDINDWG
 40
0.0000000116
  9
$TDUSRTIMER
 40
0.0000000116
  9
$USRTIMER
 70
     1
  9
$ANGBASE
 50
0.0
  9
$ANGDIR
 70
     0
  9
$PDMODE
 70
     0
  9
$PDSIZE
 40
-1.0
  9
$PLINEWID
 40
0.0
  9
$SPLFRAME
 70
     0
  9
$SPLINETYPE
 70
     6
  9
$SPLINESEGS
 70
     8
  9
$HANDSEED
  5
E2
  9
$SURFTAB1
 70
     6
  9
$SURFTAB2
 70
     6
  9
$SURFTYPE
 70
     6
  9
$SURFU
 70
     6
  9
$SURFV
 70
     6
  9
$UCSBASE
  2

  9
$UCSNAME
  2

  9
$UCSORG
 10
0.0
 20
0.0
 30
0.0
  9
$UCSXDIR
 10
1.0
 20
0.0
 30
0.0
  9
$UCSYDIR
 10
0.0
 20
1.0
 30
0.0
  9
$UCSORTHOREF
  2

  9
$UCSORTHOVIEW
 70
     0
  9
$UCSORGTOP
 10
0.0
 20
0.0
 30
0.0
  9
$UCSORGBOTTOM
 10
0.0
 20
0.0
 30
0.0
  9
$UCSORGLEFT
 10
0.0
 20
0.0
 30
0.0
  9
$UCSORGRIGHT
 10
0.0
 20
0.0
 30
0.0
  9
$UCSORGFRONT
 10
0.0
 20
0.0
 30
0.0
  9
$UCSORGBACK
 10
0.0
 20
0.0
 30
0.0
  9
$PUCSBASE
  2

  9
$PUCSNAME
  2

  9
$PUCSORG
 10
0.0
 20
0.0
 30
0.0
  9
$PUCSXDIR
 10
1.0
 20
0.0
 30
0.0
  9
$PUCSYDIR
 10
0.0
 20
1.0
 30
0.0
  9
$PUCSORTHOREF
  2

  9
$PUCSORTHOVIEW
 70
     0
  9
$PUCSORGTOP
 10
0.0
 20
0.0
 30
0.0
  9
$PUCSORGBOTTOM
 10
0.0
 20
0.0
 30
0.0
  9
$PUCSORGLEFT
 10
0.0
 20
0.0
 30
0.0
  9
$PUCSORGRIGHT
 10
0.0
 20
0.0
 30
0.0
  9
$PUCSORGFRONT
 10
0.0
 20
0.0
 30
0.0
  9
$PUCSORGBACK
 10
0.0
 20
0.0
 30
0.0
  9
$USERI1
 70
     0
  9
$USERI2
 70
     0
  9
$USERI3
 70
     0
  9
$USERI4
 70
     0
  9
$USERI5
 70
     0
  9
$USERR1
 40
0.0
  9
$USERR2
 40
0.0
  9
$USERR3
 40
0.0
  9
$USERR4
 40
0.0
  9
$USERR5
 40
0.0
  9
$WORLDVIEW
 70
     1
  9
$SHADEDGE
 70
     3
  9
$SHADEDIF
 70
    70
  9
$TILEMODE
 70
     1
  9
$MAXACTVP
 70
    64
  9
$PINSBASE
 10
0.0
 20
0.0
 30
0.0
  9
$PLIMCHECK
 70
     0
  9
$PEXTMIN
 10
1.0000000000E+20
 20
1.0000000000E+20
 30
1.0000000000E+20
  9
$PEXTMAX
 10
-1.0000000000E+20
 20
-1.0000000000E+20
 30
-1.0000000000E+20
  9
$PLIMMIN
 10
0.0
 20
0.0
  9
$PLIMMAX
 10
12.0
 20
9.0
  9
$UNITMODE
 70
     0
  9
$VISRETAIN
 70
     1
  9
$PLINEGEN
 70
     0
  9
$PSLTSCALE
 70
     1
  9
$TREEDEPTH
 70
  3020
  9
$CMLSTYLE
  2
Standard
  9
$CMLJUST
 70
     0
  9
$CMLSCALE
 40
1.0
  9
$PROXYGRAPHICS
 70
     1
  9
$MEASUREMENT
 70
     0
  9
$CELWEIGHT
370
    -1
  9
$ENDCAPS
280
     0
  9
$JOINSTYLE
280
     0
  9
$LWDISPLAY
290
     1
  9
$INSUNITS
 70
     1
  9
$HYPERLINKBASE
  1

  9
$STYLESHEET
  1

  9
$XEDIT
290
     1
  9
$CEPSNTYPE
380
     0
  9
$PSTYLEMODE
290
     1
  9
$FINGERPRINTGUID
  2
{d957e18f-b893-44cf-98a9-bb37ab773f4a}
  9
$VERSIONGUID
  2
{FAEB1C32-E019-11D5-929B-00C0DF256EC4}
  9
$EXTNAMES
290
     1
  9
$PSVPSCALE
 40
0.0
  9
$OLESTARTUP
290
     0
  0
ENDSEC
  0
SECTION
  2
CLASSES
  0
CLASS
  1
ACDBDICTIONARYWDFLT
  2
AcDbDictionaryWithDefault
  3
ObjectDBX Classes
 90
        0
280
     0
281
     0
  0
CLASS
  1
VISUALSTYLE
  2
AcDbVisualStyle
  3
ObjectDBX Classes
 90
     4095
280
     0
281
     0
  0
CLASS
  1
MATERIAL
  2
AcDbMaterial
  3
ObjectDBX Classes
 90
     1153
280
     0
281
     0
  0
CLASS
  1
SCALE
  2
AcDbScale
  3
ObjectDBX Classes
 90
     1153
280
     0
281
     0
  0
CLASS
  1
TABLESTYLE
  2
AcDbTableStyle
  3
ObjectDBX Classes
 90
     4095
280
     0
281
     0
  0
CLASS
  1
MLEADERSTYLE
  2
AcDbMLeaderStyle
  3
ACDB_MLEADERSTYLE_CLASS
 90
     4095
280
     0
281
     0
  0
CLASS
  1
SUN
  2
AcDbSun
  3
SCENEOE
 90
     1153
280
     0
281
     0
  0
CLASS
  1
ACDBPLACEHOLDER
  2
AcDbPlaceHolder
  3
ObjectDBX Classes
 90
        0
280
     0
281
     0
  0
CLASS
  1
LAYOUT
  2
AcDbLayout
  3
ObjectDBX Classes
 90
        0
280
     0
281
     0
  0
ENDSEC
  0
SECTION
  2
TABLES
  0
TABLE
  2
VPORT
  5
8
330
0
100
AcDbSymbolTable
 70
     1
  0
VPORT
  5
29
330
8
100
AcDbSymbolTableRecord
100
AcDbViewportTableRecord
  2
*Active
 70
     0
 10
0.0
 20
0.0
 11
1.0
 21
1.0
 12
17.0
 22
11.0
 13
0.0
 23
0.0
 14
0.5
 24
0.5
 15
0.5
 25
0.5
 16
0.0
 26
0.0
 36
1.0
 17
0.0
 27
0.0
 37
0.0
 40
22.0
 41
1.5454545455
 42
50.0
 43
0.0
 44
0.0
 50
0.0
 51
0.0
 71
     0
 72
  2000
 73
     1
 74
     3
 75
     0
 76
     0
 77
     0
 78
     0
281
     0
 65
     1
110
0.0
120
0.0
130
0.0
111
1.0
121
0.0
131
0.0
112
0.0
122
1.0
132
0.0
 79
     0
146
0.0
  0
ENDTAB
  0
TABLE
  2
LTYPE
  5
5
330
0
100
AcDbSymbolTable
 70
     6
  0
LTYPE
  5
14
330
5
100
AcDbSymbolTableRecord
100
AcDbLinetypeTableRecord
  2
ByBlock
 70
     0
  3

 72
    65
 73
     0
 40
0.0
  0
LTYPE
  5
15
330
5
100
AcDbSymbolTableRecord
100
AcDbLinetypeTableRecord
  2
ByLayer
 70
     0
  3

 72
    65
 73
     0
 40
0.0
  0
LTYPE
  5
16
330
5
100
AcDbSymbolTableRecord
100
AcDbLinetypeTableRecord
  2
Continuous
 70
     0
  3
Solid line
 72
    65
 73
     0
 40
0.0
  0
LTYPE
  5
5E
330
5
100
AcDbSymbolTableRecord
100
AcDbLinetypeTableRecord
  2
HIDDEN
 70
     0
  3
Hidden __ __ __ __ __ __ __ __ __ __ __ __ __ __
 72
    65
 73
     2
 40
0.075
 49
0.05
 74
     0
 49
-0.025
 74
     0
  0
LTYPE
  5
5F
330
5
100
AcDbSymbolTableRecord
100
AcDbLinetypeTableRecord
  2
PHANTOM
 70
     0
  3
Phantom ______  __  __  ______  __  __  ______
 72
    65
 73
     6
 40
0.5
 49
0.25
 74
     0
 49
-0.05
 74
     0
 49
0.05
 74
     0
 49
-0.05
 74
     0
 49
0.05
 74
     0
 49
-0.05
 74
     0
  0
LTYPE
  5
60
330
5
100
AcDbSymbolTableRecord
100
AcDbLinetypeTableRecord
  2
CENTER
 70
     0
  3
Center ____ _ ____ _ ____ _ ____ _ ____ _ ____
 72
    65
 73
     4
 40
0.4
 49
0.25
 74
     0
 49
-0.05
 74
     0
 49
0.05
 74
     0
 49
-0.05
 74
     0
  0
LTYPE
  5
61
330
5
100
AcDbSymbolTableRecord
100
AcDbLinetypeTableRecord
  2
CENTERX2
 70
     0
  3
Center (2x) ________  __  ________  __  _____
 72
    65
 73
     4
 40
0.8
 49
0.5
 74
     0
 49
-0.1
 74
     0
 49
0.1
 74
     0
 49
-0.1
 74
     0
  0
LTYPE
  5
62
330
5
100
AcDbSymbolTableRecord
100
AcDbLinetypeTableRecord
  2
DOT2
 70
     0
  3
Dot (.5x) ........................................
 72
    65
 73
     2
 40
0.025
 49
0.0
 74
     0
 49
-0.025
 74
     0
  0
ENDTAB
  0
TABLE
  2
LAYER
  5
2
330
0
100
AcDbSymbolTable
 70
     3
  0
LAYER
  5
10
330
2
100
AcDbSymbolTableRecord
100
AcDbLayerTableRecord
  2
0
 70
     0
 62
     7
  6
Continuous
370
    -3
390
F
  0
LAYER
  5
63
330
2
100
AcDbSymbolTableRecord
100
AcDbLayerTableRecord
  2
SLD-0
 70
     0
 62
   179
  6
Continuous
370
    -3
390
F
  0
LAYER
  5
64
330
2
100
AcDbSymbolTableRecord
100
AcDbLayerTableRecord
  2
80
 70
     0
 62
   179
  6
Continuous
370
    -3
390
F
  0
ENDTAB
  0
TABLE
  2
STYLE
  5
3
330
0
100
AcDbSymbolTable
 70
     2
  0
STYLE
  5
11
330
3
100
AcDbSymbolTableRecord
100
AcDbTextStyleTableRecord
  2
Standard
 70
     0
 40
0.0
 41
1.0
 50
0.0
 71
     0
 42
0.1377952756
  3
txt
  4

  0
STYLE
  5
DE
330
3
100
AcDbSymbolTableRecord
100
AcDbTextStyleTableRecord
  2
SLDTEXTSTYLE0
 70
     0
 40
0.0
 41
0.7
 50
0.0
 71
     0
 42
0.1377952756
  3
TXT
  4

  0
ENDTAB
  0
TABLE
  2
VIEW
  5
6
330
0
100
AcDbSymbolTable
 70
     0
  0
ENDTAB
  0
TABLE
  2
UCS
  5
7
330
0
100
AcDbSymbolTable
 70
     0
  0
ENDTAB
  0
TABLE
  2
APPID
  5
9
330
0
100
AcDbSymbolTable
 70
     1
  0
APPID
  5
12
330
9
100
AcDbSymbolTableRecord
100
AcDbRegAppTableRecord
  2
ACAD
 70
     0
  0
ENDTAB
  0
TABLE
  2
DIMSTYLE
  5
A
330
0
100
AcDbSymbolTable
 70
     1
100
AcDbDimStyleTable
  0
DIMSTYLE
105
27
330
A
100
AcDbSymbolTableRecord
100
AcDbDimStyleTableRecord
  2
Standard
 70
     0
178
     0
340
11
  0
ENDTAB
  0
TABLE
  2
BLOCK_RECORD
  5
1
330
0
100
AcDbSymbolTable
 70
     1
  0
BLOCK_RECORD
  5
1F
330
1
100
AcDbSymbolTableRecord
100
AcDbBlockTableRecord
  2
*Model_Space
340
22
  0
BLOCK_RECORD
  5
1B
330
1
100
AcDbSymbolTableRecord
100
AcDbBlockTableRecord
  2
*Paper_Space
340
1E
  0
BLOCK_RECORD
  5
23
330
1
100
AcDbSymbolTableRecord
100
AcDbBlockTableRecord
  2
*Paper_Space0
340
26
  0
ENDTAB
  0
ENDSEC
  0
SECTION
  2
BLOCKS
  0
BLOCK
  5
20
330
1F
100
AcDbEntity
  8
0
100
AcDbBlockBegin
  2
*Model_Space
 70
     0
 10
0.0
 20
0.0
 30
0.0
  3
*Model_Space
  1

  0
ENDBLK
  5
21
330
1F
100
AcDbEntity
  8
0
100
AcDbBlockEnd
  0
BLOCK
  5
1C
330
1B
100
AcDbEntity
 67
     1
  8
0
100
AcDbBlockBegin
  2
*Paper_Space
 70
     0
 10
0.0
 20
0.0
 30
0.0
  3
*Paper_Space
  1

  0
ENDBLK
  5
1D
330
1B
100
AcDbEntity
 67
     1
  8
0
100
AcDbBlockEnd
  0
BLOCK
  5
24
330
23
100
AcDbEntity
  8
0
100
AcDbBlockBegin
  2
*Paper_Space0
 70
     0
 10
0.0
 20
0.0
 30
0.0
  3
*Paper_Space0
  1

  0
ENDBLK
  5
25
330
23
100
AcDbEntity
  8
0
100
AcDbBlockEnd
  0
ENDSEC
  0
SECTION
  2
ENTITIES
  0
LINE
  5
65
330
1F
100
AcDbEntity
  8
80
  6
Continuous
 62
    11
100
AcDbLine
 10
23.1405280083
 20
13.4332888039
 30
0.0
 11
22.3905280083
 21
13.4332888039
 31
0.0
  0
LINE
  5
66
330
1F
100
AcDbEntity
  8
80
  6
Continuous
 62
     1
100
AcDbLine
 10
22.3905280083
 20
13.4332888039
 30
0.0
 11
21.6586254383
 21
13.4332888039
 31
0.0
  0
LINE
  5
67
330
1F
100
AcDbEntity
  8
80
  6
Continuous
 62
     1
100
AcDbLine
 10
20.5939316751
 20
13.5775881944
 30
0.0
 11
20.4432656283
 21
13.6191923639
 31
0.0
  0
LINE
  5
68
330
1F
100
AcDbEntity
  8
80
  6
Continuous
 62
     1
100
AcDbLine
 10
19.9049486912
 20
13.6175238902
 30
0.0
 11
19.5229758983
 21
13.5094951208
 31
0.0
  0
LINE
  5
69
330
1F
100
AcDbEntity
  8
80
  6
Continuous
 62
     1
100
AcDbLine
 10
19.175717454
 20
13.1563977293
 30
0.0
 11
19.1847137279
 21
13.1903595712
 31
0.0
  0
LINE
  5
6A
330
1F
100
AcDbEntity
  8
80
  6
Continuous
 62
     1
100
AcDbLine
 10
19.3973291225
 20
12.6419555876
 30
0.0
 11
19.3789088723
 21
12.6538179829
 31
0.0
  0
LINE
  5
6B
330
1F
100
AcDbEntity
  8
80
  6
Continuous
 62
     1
100
AcDbLine
 10
20.4663368208
 20
12.269890322
 30
0.0
 11
20.9279543711
 21
12.2204663795
 31
0.0
  0
LINE
  5
6C
330
1F
100
AcDbEntity
  8
80
  6
Continuous
 62
     1
100
AcDbLine
 10
21.7507872068
 20
12.269027267
 30
0.0
 11
22.3805835912
 21
12.4128786972
 31
0.0
  0
LINE
  5
6D
330
1F
100
AcDbEntity
  8
80
  6
Continuous
 62
     1
100
AcDbLine
 10
23.932036329
 20
12.9030159734
 30
0.0
 11
24.6915180138
 21
13.2129347991
 31
0.0
  0
LINE
  5
6E
330
1F
100
AcDbEntity
  8
80
  6
Continuous
 62
     1
100
AcDbLine
 10
24.6915180138
 20
13.2129347991
 30
0.0
 11
24.4809106438
 21
13.0745516091
 31
0.0
  0
LINE
  5
6F
330
1F
100
AcDbEntity
  8
80
  6
Continuous
 62
     1
100
AcDbLine
 10
21.4639042283
 20
11.7428468097
 30
0.0
 11
21.5151978857
 21
11.7559458746
 31
0.0
  0
LINE
  5
70
330
1F
100
AcDbEntity
  8
80
  6
Continuous
 62
     1
100
AcDbLine
 10
20.680753118
 20
11.7227950848
 30
0.0
 11
19.1853770154
 21
11.9804348028
 31
0.0
  0
LINE
  5
71
330
1F
100
AcDbEntity
  8
80
  6
Continuous
 62
     1
100
AcDbLine
 10
19.1853770154
 20
11.9804348028
 30
0.0
 11
18.1321910154
 21
12.1618898028
 31
0.0
  0
LINE
  5
72
330
1F
100
AcDbEntity
  8
80
  6
Continuous
 62
     1
100
AcDbLine
 10
18.1321910154
 20
12.1618898028
 30
0.0
 11
17.9190236054
 21
12.1986168528
 31
0.0
  0
LINE
  5
73
330
1F
100
AcDbEntity
  8
80
  6
Continuous
 62
     1
100
AcDbLine
 10
16.8182149279
 20
12.0771245036
 30
0.0
 11
16.4763560155
 21
11.9364178023
 31
0.0
  0
LINE
  5
74
330
1F
100
AcDbEntity
  8
80
  6
Continuous
 62
     1
100
AcDbLine
 10
16.4763560155
 20
11.9364178023
 30
0.0
 11
17.2908949455
 21
12.0386060623
 31
0.0
  0
LINE
  5
75
330
1F
100
AcDbEntity
  8
80
  6
Continuous
 62
     1
100
AcDbLine
 10
17.7947198772
 20
12.0378561116
 30
0.0
 11
18.0273520155
 21
12.0079674515
 31
0.0
  0
LINE
  5
76
330
1F
100
AcDbEntity
  8
80
  6
Continuous
 62
     1
100
AcDbLine
 10
19.0626544921
 20
11.5524961697
 30
0.0
 11
19.4981180154
 21
11.1848658013
 31
0.0
  0
LINE
  5
77
330
1F
100
AcDbEntity
  8
80
  6
Continuous
 62
     1
100
AcDbLine
 10
19.4981180154
 20
11.1848658013
 30
0.0
 11
18.7437853954
 21
11.5258696813
 31
0.0
  0
LINE
  5
78
330
1F
100
AcDbEntity
  8
80
  6
Continuous
 62
     1
100
AcDbLine
 10
18.3118974756
 20
11.6646497229
 30
0.0
 11
18.2679588664
 21
11.6734311646
 31
0.0
  0
LINE
  5
79
330
1F
100
AcDbEntity
  8
80
  6
Continuous
 62
     1
100
AcDbLine
 10
11.3412613583
 20
11.0243709349
 30
0.0
 11
10.0111867266
 21
11.0567207642
 31
0.0
  0
LINE
  5
7A
330
1F
100
AcDbEntity
  8
80
  6
Continuous
 62
     1
100
AcDbLine
 10
7.6591449979
 20
11.6746535247
 30
0.0
 11
7.27128401
 21
12.02911779
 31
0.0
  0
LINE
  5
7B
330
1F
100
AcDbEntity
  8
80
  6
Continuous
 62
     1
100
AcDbLine
 10
7.27128401
 20
12.02911779
 30
0.0
 11
8.27004864
 21
11.91246189
 31
0.0
  0
LINE
  5
7C
330
1F
100
AcDbEntity
  8
80
  6
Continuous
 62
     1
100
AcDbLine
 10
9.6747783965
 20
12.6461352097
 30
0.0
 11
9.9520057869
 21
12.7880289391
 31
0.0
  0
LINE
  5
7D
330
1F
100
AcDbEntity
  8
80
  6
Continuous
 62
     1
100
AcDbLine
 10
10.3802571075
 20
12.8974797362
 30
0.0
 11
10.8694390178
 21
12.9108727753
 31
0.0
  0
LINE
  5
7E
330
1F
100
AcDbEntity
  8
80
  6
Continuous
 62
     1
100
AcDbLine
 10
10.8694390178
 20
12.9108727753
 30
0.0
 11
10.3027378378
 21
12.6930648653
 31
0.0
  0
LINE
  5
7F
330
1F
100
AcDbEntity
  8
80
  6
Continuous
 62
     1
100
AcDbLine
 10
9.9546416106
 20
12.4669935096
 30
0.0
 11
9.8026629281
 21
12.3151233449
 31
0.0
  0
LINE
  5
80
330
1F
100
AcDbEntity
  8
80
  6
Continuous
 62
     1
100
AcDbLine
 10
10.0801673198
 20
11.8463439135
 30
0.0
 11
10.3597701241
 21
11.9967923855
 31
0.0
  0
LINE
  5
81
330
1F
100
AcDbEntity
  8
80
  6
Continuous
 62
     1
100
AcDbLine
 10
10.5076780354
 20
12.094185617
 30
0.0
 11
10.7985300218
 21
12.325074329
 31
0.0
  0
LINE
  5
82
330
1F
100
AcDbEntity
  8
80
  6
Continuous
 62
     1
100
AcDbLine
 10
10.7985300218
 20
12.325074329
 30
0.0
 11
10.5830737418
 21
12.010806799
 31
0.0
  0
LINE
  5
83
330
1F
100
AcDbEntity
  8
80
  6
Continuous
 62
     1
100
AcDbLine
 10
10.2380436042
 20
11.6988556155
 30
0.0
 11
9.9282330115
 21
11.5294567892
 31
0.0
  0
LINE
  5
84
330
1F
100
AcDbEntity
  8
80
  6
Continuous
 62
     1
100
AcDbLine
 10
9.9282330115
 20
11.5294567892
 30
0.0
 11
10.4304956415
 21
11.5385820992
 31
0.0
  0
LINE
  5
85
330
1F
100
AcDbEntity
  8
80
  6
Continuous
 62
     1
100
AcDbLine
 10
11.4889831059
 20
11.8645218349
 30
0.0
 11
12.3585918912
 21
12.4333492102
 31
0.0
  0
LINE
  5
86
330
1F
100
AcDbEntity
  8
80
  6
Continuous
 62
     1
100
AcDbLine
 10
12.0894709605
 20
13.3517607599
 30
0.0
 11
11.8437901309
 21
13.3540130801
 31
0.0
  0
LINE
  5
87
330
1F
100
AcDbEntity
  8
80
  6
Continuous
 62
     1
100
AcDbLine
 10
10.777471444
 20
13.2489770985
 30
0.0
 11
9.9480430107
 21
13.076053792
 31
0.0
  0
LINE
  5
88
330
1F
100
AcDbEntity
  8
80
  6
Continuous
 62
     1
100
AcDbLine
 10
9.9480430107
 20
13.076053792
 30
0.0
 11
9.5966080107
 21
13.017522792
 31
0.0
  0
LINE
  5
89
330
1F
100
AcDbEntity
  8
80
  6
Continuous
 62
     1
100
AcDbLine
 10
9.5966080107
 20
13.017522792
 30
0.0
 11
9.9297759407
 21
13.205701382
 31
0.0
  0
LINE
  5
8A
330
1F
100
AcDbEntity
  8
80
  6
Continuous
 62
     1
100
AcDbLine
 10
13.3057628694
 20
13.7390204406
 30
0.0
 11
13.8100837126
 21
13.6264780564
 31
0.0
  0
LINE
  5
8B
330
1F
100
AcDbEntity
  8
80
  6
Continuous
 62
     1
100
AcDbLine
 10
14.9802819996
 20
13.2070079946
 30
0.0
 11
15.234428514
 21
13.0782855304
 31
0.0
  0
LINE
  5
8C
330
1F
100
AcDbEntity
  8
80
  6
Continuous
 62
     1
100
AcDbLine
 10
15.6060579606
 20
12.2716059468
 30
0.0
 11
15.5657710956
 21
12.1964570897
 31
0.0
  0
LINE
  5
8D
330
1F
100
AcDbEntity
  8
80
  6
Continuous
 62
     1
100
AcDbLine
 10
15.3748292603
 20
11.9995285239
 30
0.0
 11
15.2159833378
 21
11.9079515576
 31
0.0
  0
LINE
  5
8E
330
1F
100
AcDbEntity
  8
80
  6
Continuous
 62
     1
100
AcDbLine
 10
14.9542354399
 20
11.8029538974
 30
0.0
 11
14.3278140145
 21
11.6496537958
 31
0.0
  0
LINE
  5
8F
330
1F
100
AcDbEntity
  8
80
  6
Continuous
 62
     1
100
AcDbLine
 10
14.3278140145
 20
11.6496537958
 30
0.0
 11
14.5850766345
 21
11.9363971558
 31
0.0
  0
LINE
  5
90
330
1F
100
AcDbEntity
  8
80
  6
Continuous
 62
     1
100
AcDbLine
 10
14.1975537514
 20
12.73172825
 30
0.0
 11
14.0653491653
 21
12.7128553679
 31
0.0
  0
LINE
  5
91
330
1F
100
AcDbEntity
  8
80
  6
Continuous
 62
     1
100
AcDbLine
 10
13.4102038845
 20
12.4994358978
 30
0.0
 11
13.4497655645
 21
12.5204381002
 31
0.0
  0
LINE
  5
92
330
1F
100
AcDbEntity
  8
80
  6
Continuous
 62
     1
100
AcDbLine
 10
13.0285458289
 20
12.2212722282
 30
0.0
 11
12.5797590133
 21
11.8056188019
 31
0.0
  0
LINE
  5
93
330
1F
100
AcDbEntity
  8
80
  6
Continuous
 62
     1
100
AcDbLine
 10
12.5797590133
 20
11.8056188019
 30
0.0
 11
12.8068490633
 21
11.6788059619
 31
0.0
  0
LINE
  5
94
330
1F
100
AcDbEntity
  8
80
  6
Continuous
 62
     1
100
AcDbLine
 10
13.4533902676
 20
11.4521633661
 30
0.0
 11
13.8205251233
 21
11.3910175119
 31
0.0
  0
LINE
  5
95
330
1F
100
AcDbEntity
  8
80
  6
Continuous
 62
     1
100
AcDbLine
 10
14.6406461404
 20
11.4251891001
 30
0.0
 11
14.9357085434
 21
11.5000027287
 31
0.0
  0
LINE
  5
96
330
1F
100
AcDbEntity
  8
80
  6
Continuous
 62
     1
100
AcDbLine
 10
15.5729800754
 20
11.787668095
 30
0.0
 11
15.8998136333
 21
12.0111321191
 31
0.0
  0
LINE
  5
97
330
1F
100
AcDbEntity
  8
80
  6
Continuous
 62
     1
100
AcDbLine
 10
16.2783194664
 20
12.5035965722
 30
0.0
 11
16.2979232116
 21
12.5591011804
 31
0.0
  0
LINE
  5
98
330
1F
100
AcDbEntity
  8
80
  6
Continuous
 62
     1
100
AcDbLine
 10
16.0942415503
 20
13.1478669331
 30
0.0
 11
15.8356201713
 21
13.3118754203
 31
0.0
  0
LINE
  5
99
330
1F
100
AcDbEntity
  8
80
  6
Continuous
 62
     1
100
AcDbLine
 10
14.8149441199
 20
13.773420569
 30
0.0
 11
14.3434210103
 21
13.911152798
 31
0.0
  0
LINE
  5
9A
330
1F
100
AcDbEntity
  8
80
  6
Continuous
 62
     1
100
AcDbLine
 10
14.3434210103
 20
13.911152798
 30
0.0
 11
15.2385485403
 21
14.165549028
 31
0.0
  0
LINE
  5
9B
330
1F
100
AcDbEntity
  8
80
  6
Continuous
 62
     1
100
AcDbLine
 10
16.8776439832
 20
14.486379949
 30
0.0
 11
18.0829736593
 21
14.6191198028
 31
0.0
  0
LINE
  5
9C
330
1F
100
AcDbEntity
  8
80
  6
Continuous
 62
     1
100
AcDbLine
 10
19.2365990922
 20
14.6790401057
 30
0.0
 11
19.7498048492
 21
14.6760137159
 31
0.0
  0
LINE
  5
9D
330
1F
100
AcDbEntity
  8
80
  6
Continuous
 62
     1
100
AcDbLine
 10
21.6273802412
 20
14.4868855657
 30
0.0
 11
22.1114940092
 21
14.391325806
 31
0.0
  0
LINE
  5
9E
330
1F
100
AcDbEntity
  8
80
  6
Continuous
 62
     1
100
AcDbLine
 10
22.1114940092
 20
14.391325806
 30
0.0
 11
20.4899949392
 21
14.391325806
 31
0.0
  0
LINE
  5
9F
330
1F
100
AcDbEntity
  8
80
  6
Continuous
 62
     1
100
AcDbLine
 10
19.8931974293
 20
14.3735015574
 30
0.0
 11
19.3055649292
 21
14.338369176
 31
0.0
  0
LINE
  5
A0
330
1F
100
AcDbEntity
  8
80
  6
Continuous
 62
     1
100
AcDbLine
 10
16.8557965601
 20
13.6484501872
 30
0.0
 11
16.8171491075
 21
13.5679920571
 31
0.0
  0
LINE
  5
A1
330
1F
100
AcDbEntity
  8
80
  6
Continuous
 62
     1
100
AcDbLine
 10
17.1436649709
 20
13.1433885779
 30
0.0
 11
17.268948699
 21
13.1672351582
 31
0.0
  0
LINE
  5
A2
330
1F
100
AcDbEntity
  8
80
  6
Continuous
 62
     1
100
AcDbLine
 10
19.9953242485
 20
13.9777085337
 30
0.0
 11
19.910254379
 21
13.9738000891
 31
0.0
  0
LINE
  5
A3
330
1F
100
AcDbEntity
  8
80
  6
Continuous
 62
     1
100
AcDbLine
 10
21.3440368796
 20
13.7776202588
 30
0.0
 11
22.0765820083
 21
13.5365878039
 31
0.0
  0
LINE
  5
A4
330
1F
100
AcDbEntity
  8
80
  6
Continuous
 62
     1
100
AcDbLine
 10
22.0765820083
 20
13.5365878039
 30
0.0
 11
22.3905280083
 21
13.4332888039
 31
0.0
  0
LINE
  5
A5
330
1F
100
AcDbEntity
  8
80
  6
Continuous
 62
    11
100
AcDbLine
 10
22.3905280083
 20
13.4332888039
 30
0.0
 11
22.4489396383
 21
13.4195745239
 31
0.0
  0
ARC
  5
A6
330
1F
100
AcDbEntity
  8
80
  6
Continuous
 62
     1
100
AcDbCircle
 10
21.6586254383
 20
17.4332888039
 30
0.0
 40
4.000000000000001
100
AcDbArc
 50
254.5633095
 51
270.0
  0
ARC
  5
A7
330
1F
100
AcDbEntity
  8
80
  6
Continuous
 62
     1
100
AcDbCircle
 10
20.1770921893
 20
12.6552672074
 30
0.0
 40
1.000000003560613
100
AcDbArc
 50
74.5633096601
 51
105.79185732
  0
ARC
  5
A8
330
1F
100
AcDbEntity
  8
80
  6
Continuous
 62
     1
100
AcDbCircle
 10
19.6590476482
 20
13.0283667811
 30
0.0
 40
0.5000000003496122
100
AcDbArc
 50
105.7918574662
 51
165.16348341
  0
ARC
  5
A9
330
1F
100
AcDbEntity
  8
80
  6
Continuous
 62
     1
100
AcDbCircle
 10
19.6680439207
 20
13.0623286305
 30
0.0
 40
0.4999999970813601
100
AcDbArc
 50
165.1634841891
 51
237.218989
  0
ARC
  5
AA
330
1F
100
AcDbEntity
  8
80
  6
Continuous
 62
     1
100
AcDbCircle
 10
20.7324828713
 20
14.7556832114
 30
0.0
 40
2.500000001855895
100
AcDbArc
 50
237.2189890189
 51
263.88880111
  0
ARC
  5
AB
330
1F
100
AcDbEntity
  8
80
  6
Continuous
 62
     1
100
AcDbCircle
 10
21.194100421
 20
14.7062592683
 30
0.0
 40
2.500000001190518
100
AcDbArc
 50
263.8888011226
 51
282.86618057
  0
ARC
  5
AC
330
1F
100
AcDbEntity
  8
80
  6
Continuous
 62
     1
100
AcDbCircle
 10
20.1538364522
 20
22.1618067031
 30
0.0
 40
10.00000000424152
100
AcDbArc
 50
282.8661805462
 51
292.19871288
  0
ARC
  5
AD
330
1F
100
AcDbEntity
  8
80
  6
Continuous
 62
     1
100
AcDbCircle
 10
18.9895735451
 20
21.4318966971
 30
0.0
 40
10.00000000247959
100
AcDbArc
 50
284.32566622
 51
303.3076021166
  0
ARC
  5
AE
330
1F
100
AcDbEntity
  8
80
  6
Continuous
 62
     1
100
AcDbCircle
 10
21.0203317547
 20
13.6937558487
 30
0.0
 40
1.999999995806574
100
AcDbArc
 50
260.22443017
 51
284.3256660888
  0
ARC
  5
AF
330
1F
100
AcDbEntity
  8
80
  6
Continuous
 62
     1
100
AcDbCircle
 10
17.5794428354
 20
10.2276564526
 30
0.0
 40
1.999999999715245
100
AcDbArc
 50
80.2243681716
 51
112.37171755
  0
ARC
  5
B0
330
1F
100
AcDbEntity
  8
80
  6
Continuous
 62
     1
100
AcDbCircle
 10
17.5398540955
 20
10.0541617219
 30
0.0
 40
1.999999999615844
100
AcDbArc
 50
82.67872604
 51
97.1507028995
  0
ARC
  5
B1
330
1F
100
AcDbEntity
  8
80
  6
Continuous
 62
     1
100
AcDbCircle
 10
17.7724862355
 20
10.0242730614
 30
0.0
 40
1.999999999841563
100
AcDbArc
 50
49.82801658
 51
82.6787260898
  0
ARC
  5
B2
330
1F
100
AcDbEntity
  8
80
  6
Continuous
 62
     1
100
AcDbCircle
 10
17.9199346861
 20
9.7034344929
 30
0.0
 40
2.00000000176473
100
AcDbArc
 50
65.6741599395
 51
78.69794037
  0
ARC
  5
B3
330
1F
100
AcDbEntity
  8
80
  6
Continuous
 62
     1
100
AcDbCircle
 10
18.0719774759
 20
10.6928235522
 30
0.0
 40
0.9999999975040602
100
AcDbArc
 50
78.697940581
 51
109.14295196
  0
ARC
  5
B4
330
1F
100
AcDbEntity
  8
80
  6
Continuous
 62
     1
100
AcDbCircle
 10
10.2543329466
 20
21.0537643236
 30
0.0
 40
10.00000000062095
100
AcDbArc
 50
260.78951514
 51
268.6067374731
  0
ARC
  5
B5
330
1F
100
AcDbEntity
  8
80
  6
Continuous
 62
     1
100
AcDbCircle
 10
9.0083692772
 20
13.150998277
 30
0.0
 40
1.999999995907311
100
AcDbArc
 50
227.57596203
 51
259.78587902
  0
ARC
  5
B6
330
1F
100
AcDbEntity
  8
80
  6
Continuous
 62
     1
100
AcDbCircle
 10
8.3860601797
 20
12.9057097578
 30
0.0
 40
1.000000002168178
100
AcDbArc
 50
263.3380274739
 51
317.13883925
  0
ARC
  5
B7
330
1F
100
AcDbEntity
  8
80
  6
Continuous
 62
     1
100
AcDbCircle
 10
10.5892222648
 20
10.8606791032
 30
0.0
 40
2.006006255342816
100
AcDbArc
 50
117.11982794
 51
137.1282151529
  0
ARC
  5
B8
330
1F
100
AcDbEntity
  8
80
  6
Continuous
 62
     1
100
AcDbCircle
 10
10.4076252978
 20
11.8978543173
 30
0.0
 40
0.999999997996195
100
AcDbArc
 50
91.56827762
 51
117.1048017956
  0
ARC
  5
B9
330
1F
100
AcDbEntity
  8
80
  6
Continuous
 62
     1
100
AcDbCircle
 10
10.6614958279
 20
11.7596342551
 30
0.0
 40
0.9999999997684544
100
AcDbArc
 50
111.0239395276
 51
134.9795388
  0
ARC
  5
BA
330
1F
100
AcDbEntity
  8
80
  6
Continuous
 62
     1
100
AcDbCircle
 10
10.5095171461
 20
11.6077640868
 30
0.0
 40
1.000000002759889
100
AcDbArc
 50
134.9795386908
 51
159.22080822
  0
ARC
  5
BB
330
1F
100
AcDbEntity
  8
80
  6
Continuous
 62
     1
100
AcDbCircle
 10
9.668058024
 20
11.9270547877
 30
0.0
 40
0.0999999995173153
100
AcDbArc
 50
159.2208123735
 51
244.02526928
  0
ARC
  5
BC
330
1F
100
AcDbEntity
  8
80
  6
Continuous
 62
     1
100
AcDbCircle
 10
9.843247906
 20
12.2866497018
 30
0.0
 40
0.4999999958452012
100
AcDbArc
 50
244.0252691786
 51
298.28377336
  0
ARC
  5
BD
330
1F
100
AcDbEntity
  8
80
  6
Continuous
 62
     1
100
AcDbCircle
 10
9.8859312931
 20
12.8774039673
 30
0.0
 40
0.9999999979114643
100
AcDbArc
 50
298.283773388
 51
308.44380345
  0
ARC
  5
BE
330
1F
100
AcDbEntity
  8
80
  6
Continuous
 62
     1
100
AcDbCircle
 10
9.7582941416
 20
12.5762611391
 30
0.0
 40
0.9999999998002469
100
AcDbArc
 50
298.66904031
 51
325.5661525451
  0
ARC
  5
BF
330
1F
100
AcDbEntity
  8
80
  6
Continuous
 62
     1
100
AcDbCircle
 10
10.3941648415
 20
13.5382520898
 30
0.0
 40
1.999999999491908
100
AcDbArc
 50
271.0408580031
 51
303.18944955
  0
ARC
  5
C0
330
1F
100
AcDbEntity
  8
80
  6
Continuous
 62
     1
100
AcDbCircle
 10
12.0848873209
 20
12.8517817706
 30
0.0
 40
0.4999999994535209
100
AcDbArc
 50
303.1894501554
 51
89.47474624
  0
ARC
  5
C1
330
1F
100
AcDbEntity
  8
80
  6
Continuous
 62
     1
100
AcDbCircle
 10
11.7979537309
 20
8.3542231811
 30
0.0
 40
5.00000000098535
100
AcDbArc
 50
89.4747461894
 51
101.77661164
  0
ARC
  5
C2
330
1F
100
AcDbEntity
  8
80
  6
Continuous
 62
     1
100
AcDbCircle
 10
12.3887379025
 20
8.8521389288
 30
0.0
 40
4.999999996338852
100
AcDbArc
 50
88.68403824
 51
119.4584585763
  0
ARC
  5
C3
330
1F
100
AcDbEntity
  8
80
  6
Continuous
 62
     1
100
AcDbCircle
 10
12.2167671425
 20
8.8590523758
 30
0.0
 40
5.000000000631744
100
AcDbArc
 50
77.42020098
 51
86.7117093322
  0
ARC
  5
C4
330
1F
100
AcDbEntity
  8
80
  6
Continuous
 62
     1
100
AcDbCircle
 10
12.7210879931
 20
8.7465099885
 30
0.0
 40
5.000000002119895
100
AcDbArc
 50
63.13827914
 51
77.4202010699
  0
ARC
  5
C5
330
1F
100
AcDbEntity
  8
80
  6
Continuous
 62
     1
100
AcDbCircle
 10
14.7825897138
 20
12.1861859298
 30
0.0
 40
0.9999999993763996
100
AcDbArc
 50
40.03995622
 51
63.1382791747
  0
ARC
  5
C6
330
1F
100
AcDbEntity
  8
80
  6
Continuous
 62
     1
100
AcDbCircle
 10
15.1653877044
 20
12.5078467704
 30
0.0
 40
0.5000000014312268
100
AcDbArc
 50
331.80449352
 51
40.0399550399
  0
ARC
  5
C7
330
1F
100
AcDbEntity
  8
80
  6
Continuous
 62
     1
100
AcDbCircle
 10
15.125100837
 20
12.432697909
 30
0.0
 40
0.5000000015413707
100
AcDbArc
 50
299.96407166
 51
331.8044940785
  0
ARC
  5
C8
330
1F
100
AcDbEntity
  8
80
  6
Continuous
 62
     1
100
AcDbCircle
 10
14.7165264955
 20
12.7742903215
 30
0.0
 40
0.9999999955252833
100
AcDbArc
 50
283.75135982
 51
299.9640716208
  0
ARC
  5
C9
330
1F
100
AcDbEntity
  8
80
  6
Continuous
 62
     1
100
AcDbCircle
 10
14.2129095847
 20
12.2703008656
 30
0.0
 40
0.5000000003287334
100
AcDbArc
 50
318.1019349222
 51
55.04535252
  0
ARC
  5
CA
330
1F
100
AcDbEntity
  8
80
  6
Continuous
 62
     1
100
AcDbCircle
 10
14.2682149554
 20
12.2367464369
 30
0.0
 40
0.500000001088292
100
AcDbArc
 50
62.4632719847
 51
98.1243755
  0
ARC
  5
CB
330
1F
100
AcDbEntity
  8
80
  6
Continuous
 62
     1
100
AcDbCircle
 10
14.3479939851
 20
10.7329281191
 30
0.0
 40
2.000000001195676
100
AcDbArc
 50
98.1243756266
 51
117.96259572
  0
ARC
  5
CC
330
1F
100
AcDbEntity
  8
80
  6
Continuous
 62
     1
100
AcDbCircle
 10
14.387555664
 20
10.7539303211
 30
0.0
 40
2.000000001057316
100
AcDbArc
 50
117.9625956868
 51
132.80496763
  0
ARC
  5
CD
330
1F
100
AcDbEntity
  8
80
  6
Continuous
 62
     1
100
AcDbCircle
 10
13.7819619133
 20
13.4249889219
 30
0.0
 40
2.000000000003687
100
AcDbArc
 50
240.8199013761
 51
260.54425101
  0
ARC
  5
CE
330
1F
100
AcDbEntity
  8
80
  6
Continuous
 62
     1
100
AcDbCircle
 10
14.149096763
 20
13.3638430703
 30
0.0
 40
2.000000001600201
100
AcDbArc
 50
260.5442511922
 51
284.22762002
  0
ARC
  5
CF
330
1F
100
AcDbEntity
  8
80
  6
Continuous
 62
     1
100
AcDbCircle
 10
14.4441591734
 20
13.4386566989
 30
0.0
 40
1.999999999818021
100
AcDbArc
 50
284.2276198179
 51
304.36136199
  0
ARC
  5
D0
330
1F
100
AcDbEntity
  8
80
  6
Continuous
 62
     1
100
AcDbCircle
 10
15.3354031826
 20
12.83662642
 30
0.0
 40
0.9999999988504242
100
AcDbArc
 50
304.3613620065
 51
340.54722152
  0
ARC
  5
D1
330
1F
100
AcDbEntity
  8
80
  6
Continuous
 62
     1
100
AcDbCircle
 10
15.8264650714
 20
12.7256161105
 30
0.0
 40
0.4999999998425824
100
AcDbArc
 50
340.5472207884
 51
57.61858057
  0
ARC
  5
D2
330
1F
100
AcDbEntity
  8
80
  6
Continuous
 62
     1
100
AcDbCircle
 10
13.6934083406
 20
9.9338688392
 30
0.0
 40
3.999999998694706
100
AcDbArc
 50
57.6185805743
 51
73.71687893
  0
ARC
  5
D3
330
1F
100
AcDbEntity
  8
80
  6
Continuous
 62
     1
100
AcDbCircle
 10
17.9723001696
 20
4.5464741203
 30
0.0
 40
10.00000000246798
100
AcDbArc
 50
96.28451175
 51
105.8652078562
  0
ARC
  5
D4
330
1F
100
AcDbEntity
  8
80
  6
Continuous
 62
     1
100
AcDbCircle
 10
19.1776298392
 20
4.6792139743
 30
0.0
 40
10.000000001542
100
AcDbArc
 50
89.66212911
 51
96.284511713
  0
ARC
  5
D5
330
1F
100
AcDbEntity
  8
80
  6
Continuous
 62
     1
100
AcDbCircle
 10
19.6908355992
 20
4.6761875859
 30
0.0
 40
10.00000000006691
100
AcDbArc
 50
78.83386815
 51
89.6621291272
  0
ARC
  5
D6
330
1F
100
AcDbEntity
  8
80
  6
Continuous
 62
     1
100
AcDbCircle
 10
20.4899949392
 20
4.391325806
 30
0.0
 40
10.0
100
AcDbArc
 50
90.0
 51
93.42143091
  0
ARC
  5
D7
330
1F
100
AcDbEntity
  8
80
  6
Continuous
 62
     1
100
AcDbCircle
 10
19.7830029392
 20
6.3526285755
 30
0.0
 40
7.999999999496285
100
AcDbArc
 50
93.4214309256
 51
109.28095619
  0
ARC
  5
D8
330
1F
100
AcDbEntity
  8
80
  6
Continuous
 62
     1
100
AcDbCircle
 10
17.3064978689
 20
13.4319592364
 30
0.0
 40
0.5000000014882776
100
AcDbArc
 50
109.2809565781
 51
154.34305158
  0
ARC
  5
D9
330
1F
100
AcDbEntity
  8
80
  6
Continuous
 62
     1
100
AcDbCircle
 10
17.0875698894
 20
13.4380974862
 30
0.0
 40
0.2999999979760789
100
AcDbArc
 50
154.3430512296
 51
280.776803
  0
ARC
  5
DA
330
1F
100
AcDbEntity
  8
80
  6
Continuous
 62
     1
100
AcDbCircle
 10
16.5210142694
 20
17.0966872962
 30
0.0
 40
4.000000002008129
100
AcDbArc
 50
280.7768030493
 51
297.16459284
  0
ARC
  5
DB
330
1F
100
AcDbEntity
  8
80
  6
Continuous
 62
     1
100
AcDbCircle
 10
20.1789223592
 20
9.9818204366
 30
0.0
 40
4.000103742455553
100
AcDbArc
 50
92.63070523
 51
117.2527729241
  0
ARC
  5
DC
330
1F
100
AcDbEntity
  8
80
  6
Continuous
 62
     1
100
AcDbCircle
 10
20.0938365992
 20
9.9780151164
 30
0.0
 40
3.999999997373627
100
AcDbArc
 50
71.78702304
 51
92.6305456529
  0
SPLINE
  5
DD
330
1F
100
AcDbEntity
  8
80
100
AcDbSpline
210
0.0
220
0.0
230
1.0
 70
     8
 71
     3
 72
     8
 73
     4
 74
     0
 42
0.00000001
 43
0.00000001
 40
0.0
 40
0.0
 40
0.0
 40
0.0
 40
1.0
 40
1.0
 40
1.0
 40
1.0
 10
11.34126135826412
 20
11.02437093486119
 30
0.0
 10
15.82499442204624
 20
10.91531840811135
 30
0.0
 10
15.71858148281045
 20
10.93444417798783
 30
0.0
 10
17.74405128588577
 20
11.63752689653345
 30
0.0
  0
MTEXT
  5
DF
330
1F
100
AcDbEntity
  8
0
  6
Continuous
 62
     7
100
AcDbMText
 10
0.0
 20
1.0615191818
 30
0.0
 40
0.3806
 41
0.0
 71
     1
 72
     1
  1
SOLIDWORKS Educational Product.
  7
SLDTEXTSTYLE0
 73
     1
 44
1.0
  0
MTEXT
  5
E0
330
1F
100
AcDbEntity
  8
0
  6
Continuous
 62
     7
100
AcDbMText
 10
0.0
 20
0.4906191818
 30
0.0
 40
0.3806
 41
0.0
 71
     1
 72
     1
  1
For Instructional Use Only.
  7
SLDTEXTSTYLE0
 73
     1
 44
1.0
  0
ENDSEC
  0
SECTION
  2
OBJECTS
  0
DICTIONARY
  5
C
330
0
100
AcDbDictionary
281
     1
  3
ACAD_GROUP
350
D
  3
ACAD_LAYOUT
350
1A
  3
ACAD_MLINESTYLE
350
17
  3
ACAD_PLOTSETTINGS
350
19
  3
ACAD_PLOTSTYLENAME
350
E
  3
ACAD_SCALELIST
350
47
  3
DWGPROPS
350
E1
  0
DICTIONARY
  5
D
102
{ACAD_REACTORS
330
C
102
}
330
C
100
AcDbDictionary
281
     1
  0
DICTIONARY
  5
1A
102
{ACAD_REACTORS
330
C
102
}
330
C
100
AcDbDictionary
281
     1
  3
Layout1
350
1E
  3
Layout2
350
26
  3
Model
350
22
  0
DICTIONARY
  5
17
102
{ACAD_REACTORS
330
C
102
}
330
C
100
AcDbDictionary
281
     1
  3
Standard
350
18
  0
DICTIONARY
  5
19
102
{ACAD_REACTORS
330
C
102
}
330
C
100
AcDbDictionary
281
     1
  0
ACDBDICTIONARYWDFLT
  5
E
102
{ACAD_REACTORS
330
C
102
}
330
C
100
AcDbDictionary
281
     1
  3
Normal
350
F
100
AcDbDictionaryWithDefault
340
F
  0
DICTIONARY
  5
47
102
{ACAD_REACTORS
330
C
102
}
330
C
100
AcDbDictionary
281
     1
  3
A0
350
48
  3
A1
350
49
  3
A2
350
4A
  3
A3
350
4B
  3
A4
350
4C
  3
A5
350
4D
  3
A6
350
4E
  3
A7
350
4F
  3
A8
350
50
  3
A9
350
51
  3
B1
350
52
  3
B2
350
53
  3
B3
350
54
  3
B4
350
55
  3
B5
350
56
  3
B6
350
57
  3
B7
350
58
  0
XRECORD
  5
E1
102
{ACAD_REACTORS
330
C
102
}
330
C
100
AcDbXrecord
280
     1
  1
DWGPROPS COOKIE
  2

  3

  4

  6

  7

  8
Connor
  9

300
=
301
=
302
=
303
=
304
=
305
=
306
=
307
=
308
=
309
=
 40
0.0
 41
2460846.784231933
 42
2460846.784232257
  1

 90
        0
  0
LAYOUT
  5
1E
102
{ACAD_REACTORS
330
1A
102
}
330
1A
100
AcDbPlotSettings
  1

  2
none_device
  4

  6

 40
0.0
 41
0.0
 42
0.0
 43
0.0
 44
0.0
 45
0.0
 46
0.0
 47
0.0
 48
0.0
 49
0.0
140
0.0
141
0.0
142
1.0
143
1.0
 70
   688
 72
     0
 73
     0
 74
     5
  7

 75
    16
147
1.0
148
0.0
149
0.0
100
AcDbLayout
  1
Layout1
 70
     1
 71
     1
 10
0.0
 20
0.0
 11
12.0
 21
9.0
 12
0.0
 22
0.0
 32
0.0
 14
1.0000000000E+20
 24
1.0000000000E+20
 34
1.0000000000E+20
 15
-1.0000000000E+20
 25
-1.0000000000E+20
 35
-1.0000000000E+20
146
0.0
 13
0.0
 23
0.0
 33
0.0
 16
1.0
 26
0.0
 36
0.0
 17
0.0
 27
1.0
 37
0.0
 76
     0
330
1B
  0
LAYOUT
  5
26
102
{ACAD_REACTORS
330
1A
102
}
330
1A
100
AcDbPlotSettings
  1

  2
none_device
  4

  6

 40
0.0
 41
0.0
 42
0.0
 43
0.0
 44
0.0
 45
0.0
 46
0.0
 47
0.0
 48
0.0
 49
0.0
140
0.0
141
0.0
142
1.0
143
1.0
 70
   688
 72
     0
 73
     0
 74
     5
  7

 75
    16
147
1.0
148
0.0
149
0.0
100
AcDbLayout
  1
Layout2
 70
     1
 71
     2
 10
0.0
 20
0.0
 11
0.0
 21
0.0
 12
0.0
 22
0.0
 32
0.0
 14
0.0
 24
0.0
 34
0.0
 15
0.0
 25
0.0
 35
0.0
146
0.0
 13
0.0
 23
0.0
 33
0.0
 16
1.0
 26
0.0
 36
0.0
 17
0.0
 27
1.0
 37
0.0
 76
     0
330
23
  0
LAYOUT
  5
22
102
{ACAD_REACTORS
330
1A
102
}
330
1A
100
AcDbPlotSettings
  1

  2
none_device
  4
Letter_(8.50_x_11.00_Inches)
  6

 40
6.35
 41
6.35
 42
6.35000508
 43
6.35000508
 44
215.9
 45
279.4
 46
0.0
 47
0.0
 48
0.0
 49
0.0
140
0.0
141
0.0
142
1.0
143
1.0
 70
  1712
 72
     0
 73
     0
 74
     0
  7

 75
     0
147
1.0
148
0.0
149
0.0
100
AcDbLayout
  1
Model
 70
     1
 71
     0
 10
0.0
 20
0.0
 11
34.0
 21
22.0
 12
0.0
 22
0.0
 32
0.0
 14
0.0
 24
0.0
 34
0.0
 15
34.0
 25
22.0
 35
0.0
146
0.0
 13
0.0
 23
0.0
 33
0.0
 16
1.0
 26
0.0
 36
0.0
 17
0.0
 27
1.0
 37
0.0
 76
     0
330
1F
331
29
  0
MLINESTYLE
  5
18
102
{ACAD_REACTORS
330
17
102
}
330
17
100
AcDbMlineStyle
  2
Standard
 70
     0
  3

 62
   256
 51
90.0
 52
90.0
 71
     2
 49
0.5
 62
   256
  6
BYLAYER
 49
-0.5
 62
   256
  6
BYLAYER
  0
ACDBPLACEHOLDER
  5
F
102
{ACAD_REACTORS
330
E
102
}
330
E
  0
SCALE
  5
48
102
{ACAD_REACTORS
330
47
102
}
330
47
100
AcDbScale
 70
     0
300
1:1
140
1.0
141
1.0
290
     1
  0
SCALE
  5
49
102
{ACAD_REACTORS
330
47
102
}
330
47
100
AcDbScale
 70
     0
300
1/128" = 1'-0"
140
0.0078125
141
12.0
290
     0
  0
SCALE
  5
4A
102
{ACAD_REACTORS
330
47
102
}
330
47
100
AcDbScale
 70
     0
300
1/64" = 1'-0"
140
0.015625
141
12.0
290
     0
  0
SCALE
  5
4B
102
{ACAD_REACTORS
330
47
102
}
330
47
100
AcDbScale
 70
     0
300
1/32" = 1'-0"
140
0.03125
141
12.0
290
     0
  0
SCALE
  5
4C
102
{ACAD_REACTORS
330
47
102
}
330
47
100
AcDbScale
 70
     0
300
1/16" = 1'-0"
140
0.0625
141
12.0
290
     0
  0
SCALE
  5
4D
102
{ACAD_REACTORS
330
47
102
}
330
47
100
AcDbScale
 70
     0
300
3/32" = 1'-0"
140
0.09375
141
12.0
290
     0
  0
SCALE
  5
4E
102
{ACAD_REACTORS
330
47
102
}
330
47
100
AcDbScale
 70
     0
300
1/8" = 1'-0"
140
0.125
141
12.0
290
     0
  0
SCALE
  5
4F
102
{ACAD_REACTORS
330
47
102
}
330
47
100
AcDbScale
 70
     0
300
3/16" = 1'-0"
140
0.1875
141
12.0
290
     0
  0
SCALE
  5
50
102
{ACAD_REACTORS
330
47
102
}
330
47
100
AcDbScale
 70
     0
300
1/4" = 1'-0"
140
0.25
141
12.0
290
     0
  0
SCALE
  5
51
102
{ACAD_REACTORS
330
47
102
}
330
47
100
AcDbScale
 70
     0
300
3/8" = 1'-0"
140
0.375
141
12.0
290
     0
  0
SCALE
  5
52
102
{ACAD_REACTORS
330
47
102
}
330
47
100
AcDbScale
 70
     0
300
1/2" = 1'-0"
140
0.5
141
12.0
290
     0
  0
SCALE
  5
53
102
{ACAD_REACTORS
330
47
102
}
330
47
100
AcDbScale
 70
     0
300
3/4" = 1'-0"
140
0.75
141
12.0
290
     0
  0
SCALE
  5
54
102
{ACAD_REACTORS
330
47
102
}
330
47
100
AcDbScale
 70
     0
300
1" = 1'-0"
140
1.0
141
12.0
290
     0
  0
SCALE
  5
55
102
{ACAD_REACTORS
330
47
102
}
330
47
100
AcDbScale
 70
     0
300
1-1/2" = 1'-0"
140
1.5
141
12.0
290
     0
  0
SCALE
  5
56
102
{ACAD_REACTORS
330
47
102
}
330
47
100
AcDbScale
 70
     0
300
3" = 1'-0"
140
3.0
141
12.0
290
     0
  0
SCALE
  5
57
102
{ACAD_REACTORS
330
47
102
}
330
47
100
AcDbScale
 70
     0
300
6" = 1'-0"
140
6.0
141
12.0
290
     0
  0
SCALE
  5
58
102
{ACAD_REACTORS
330
47
102
}
330
47
100
AcDbScale
 70
     0
300
1'-0" = 1'-0"
140
12.0
141
12.0
290
     0
  0
ENDSEC
  0
EOF
