   0
SECTION
   2
ENTITIES
  0
LINE
  8
1
  6
CONTINUOUS
 62
13
 10
12.55742379
 20
16.39176080
 30
0.00000000
 11
11.77649494
 21
16.68544975
 31
0.00000000
  0
ARC
  8
1
  6
CONTINUOUS
 62
13
 10
11.07248169
 20
14.81345473
 30
0.00000000
 40
2.00000000
 50
69.38990137
 51
110.29776265
  0
LINE
  8
1
  6
CONTINUOUS
 62
13
 10
10.37868363
 20
16.68925970
 30
0.00000000
 11
9.99961603
 21
16.54905516
 31
0.00000000
  0
ARC
  8
1
  6
CONTINUOUS
 62
13
 10
10.17306555
 20
16.08010392
 30
0.00000000
 40
0.50000000
 50
110.29776265
 51
159.81628556
  0
LINE
  8
1
  6
CONTINUOUS
 62
13
 10
9.70376998
 20
16.25261964
 30
0.00000000
 11
9.70991749
 21
16.26934275
 31
0.00000000
  0
ARC
  8
1
  6
CONTINUOUS
 62
13
 10
9.94456528
 20
16.18308489
 30
0.00000000
 40
0.25000000
 50
159.81628556
 51
195.58300053
  0
LINE
  8
1
  6
CONTINUOUS
 62
13
 10
9.70375470
 20
16.11592638
 30
0.00000000
 11
9.75376425
 21
15.93660688
 31
0.00000000
  0
ARC
  8
1
  6
CONTINUOUS
 62
13
 10
9.99457483
 20
16.00376539
 30
0.00000000
 40
0.25000000
 50
195.58300053
 51
234.83039860
  0
LINE
  8
1
  6
CONTINUOUS
 62
13
 10
9.85057516
 20
15.79940274
 30
0.00000000
 11
9.92134606
 21
15.74953558
 31
0.00000000
  0
ARC
  8
1
  6
CONTINUOUS
 62
13
 10
11.07334345
 20
17.38443680
 30
0.00000000
 40
2.00000000
 50
234.83039860
 51
255.29491828
  0
LINE
  8
1
  6
CONTINUOUS
 62
13
 10
10.56565598
 20
15.44994632
 30
0.00000000
 11
10.59817131
 21
15.44141300
 31
0.00000000
  0
ARC
  8
1
  6
CONTINUOUS
 62
13
 10
11.10585877
 20
17.37590348
 30
0.00000000
 40
2.00000000
 50
255.29491828
 51
291.24681795
  0
LINE
  8
1
  6
CONTINUOUS
 62
13
 10
11.83063133
 20
15.51184749
 30
0.00000000
 11
13.33835263
 21
16.09807184
 31
0.00000000
  0
LINE
  8
1
  6
CONTINUOUS
 62
13
 10
13.33835263
 20
16.09807184
 30
0.00000000
 11
12.55742379
 21
16.39176080
 31
0.00000000
  0
ARC
  8
0
  6
CONTINUOUS
 62
13
 10
19.44513537
 20
14.54049500
 30
0.00000000
 40
10.00000000
 50
246.42360939
 51
258.63484283
  0
LINE
  8
0
  6
CONTINUOUS
 62
13
 10
15.44542136
 20
5.37521880
 30
0.00000000
 11
15.32861063
 21
5.42619484
 31
0.00000000
  0
LINE
  8
0
  6
CONTINUOUS
 62
13
 10
15.32861063
 20
5.42619484
 30
0.00000000
 11
14.63208290
 21
5.52792244
 31
0.00000000
  0
ARC
  8
0
  6
CONTINUOUS
 62
13
 10
14.55982468
 20
5.03317124
 30
0.00000000
 40
0.50000000
 50
81.69072211
 51
213.18187596
  0
LINE
  8
0
  6
CONTINUOUS
 62
13
 10
14.14135594
 20
4.75952199
 30
0.00000000
 11
14.20401450
 21
4.66370354
 31
0.00000000
  0
ARC
  8
0
  6
CONTINUOUS
 62
13
 10
15.04095198
 20
5.21100204
 30
0.00000000
 40
1.00000000
 50
213.18187596
 51
254.92945074
  0
LINE
  8
0
  6
CONTINUOUS
 62
13
 10
14.78094377
 20
4.24539564
 30
0.00000000
 11
15.54510464
 21
4.03963054
 31
0.00000000
  0
ARC
  8
0
  6
CONTINUOUS
 62
13
 10
16.84514568
 20
8.86766257
 30
0.00000000
 40
5.00000000
 50
254.92945074
 51
290.18114891
  0
LINE
  8
0
  6
CONTINUOUS
 62
13
 10
18.57009270
 20
4.17462967
 30
0.00000000
 11
19.56744363
 21
4.54121084
 31
0.00000000
  0
LINE
  8
0
  6
CONTINUOUS
 62
13
 10
19.56744363
 20
4.54121084
 30
0.00000000
 11
19.59279817
 21
4.54158528
 31
0.00000000
  0
ARC
  8
0
  6
CONTINUOUS
 62
13
 10
19.44513537
 20
14.54049500
 30
0.00000000
 40
10.00000000
 50
258.63484283
 51
270.84607626
  0
LINE
  8
0
  6
CONTINUOUS
 62
13
 10
10.51365828
 20
3.32393894
 30
0.00000000
 11
11.41470628
 21
3.25572663
 31
0.00000000
  0
ARC
  8
0
  6
CONTINUOUS
 62
13
 10
11.64116819
 20
6.24716692
 30
0.00000000
 40
3.00000000
 50
265.67077789
 51
297.13316433
  0
LINE
  8
0
  6
CONTINUOUS
 62
13
 10
13.00934852
 20
3.57732000
 30
0.00000000
 11
13.32800163
 21
3.74061584
 31
0.00000000
  0
LINE
  8
0
  6
CONTINUOUS
 62
13
 10
13.32800163
 20
3.74061584
 30
0.00000000
 11
12.72901974
 21
3.99908326
 31
0.00000000
  0
ARC
  8
0
  6
CONTINUOUS
 62
13
 10
10.74802739
 20
-0.59174121
 30
0.00000000
 40
5.00000000
 50
66.65925947
 51
86.38105720
  0
LINE
  8
0
  6
CONTINUOUS
 62
13
 10
11.06362978
 20
4.39828836
 30
0.00000000
 11
10.58821286
 21
4.42835686
 31
0.00000000
  0
ARC
  8
0
  6
CONTINUOUS
 62
13
 10
10.52509239
 20
3.43035095
 30
0.00000000
 40
1.00000000
 50
86.38105720
 51
131.47631626
  0
LINE
  8
0
  6
CONTINUOUS
 62
13
 10
9.86278198
 20
4.17958051
 30
0.00000000
 11
9.46590450
 21
3.82874533
 31
0.00000000
  0
ARC
  8
0
  6
CONTINUOUS
 62
13
 10
9.63148210
 20
3.64143794
 30
0.00000000
 40
0.25000000
 50
131.47631626
 51
265.67077789
  0
LINE
  8
0
  6
CONTINUOUS
 62
13
 10
9.61261028
 20
3.39215125
 30
0.00000000
 11
10.51365828
 21
3.32393894
 31
0.00000000
  0
ARC
  8
1
  6
CONTINUOUS
 62
13
 10
19.66407006
 20
4.84016802
 30
0.00000000
 40
10.00000000
 50
86.63152050
 51
96.42397892
  0
LINE
  8
1
  6
CONTINUOUS
 62
13
 10
20.25164202
 20
14.82289106
 30
0.00000000
 11
20.23709213
 21
14.83208041
 31
0.00000000
  0
LINE
  8
1
  6
CONTINUOUS
 62
13
 10
20.23709213
 20
14.83208041
 30
0.00000000
 11
18.81290438
 21
15.17730642
 31
0.00000000
  0
ARC
  8
1
  6
CONTINUOUS
 62
13
 10
16.45710794
 20
5.45875596
 30
0.00000000
 40
10.00000000
 50
76.37420674
 51
94.96624087
  0
LINE
  8
1
  6
CONTINUOUS
 62
13
 10
15.59142032
 20
15.42121474
 30
0.00000000
 11
14.45765525
 21
15.32269625
 31
0.00000000
  0
ARC
  8
1
  6
CONTINUOUS
 62
13
 10
14.50093963
 20
14.82457331
 30
0.00000000
 40
0.50000000
 50
94.96624087
 51
173.92317601
  0
LINE
  8
1
  6
CONTINUOUS
 62
13
 10
14.00374921
 20
14.87750424
 30
0.00000000
 11
13.97908398
 21
14.64581901
 31
0.00000000
  0
ARC
  8
1
  6
CONTINUOUS
 62
13
 10
14.47627441
 20
14.59288808
 30
0.00000000
 40
0.50000000
 50
173.92317601
 51
269.33427152
  0
LINE
  8
1
  6
CONTINUOUS
 62
13
 10
14.47046496
 20
14.09292183
 30
0.00000000
 11
14.96860827
 21
14.08713357
 31
0.00000000
  0
ARC
  8
1
  6
CONTINUOUS
 62
13
 10
15.00346495
 20
17.08693106
 30
0.00000000
 40
3.00000000
 50
269.33427152
 51
280.67752526
  0
LINE
  8
1
  6
CONTINUOUS
 62
13
 10
15.55930844
 20
14.13887441
 30
0.00000000
 11
16.18095691
 21
14.25608358
 31
0.00000000
  0
ARC
  8
1
  6
CONTINUOUS
 62
13
 10
15.62511342
 20
17.20414023
 30
0.00000000
 40
3.00000000
 50
280.67752526
 51
286.21643734
  0
LINE
  8
1
  6
CONTINUOUS
 62
13
 10
16.46291319
 20
14.32349941
 30
0.00000000
 11
16.87140417
 21
14.44230410
 31
0.00000000
  0
ARC
  8
1
  6
CONTINUOUS
 62
13
 10
19.66407006
 20
4.84016802
 30
0.00000000
 40
10.00000000
 50
96.42397892
 51
106.21643734
  0
LINE
  8
0
  6
CONTINUOUS
 62
10
 10
35.95648863
 20
8.92254084
 30
0.00000000
 11
34.08203294
 21
9.31130245
 31
0.00000000
  0
ARC
  8
0
  6
CONTINUOUS
 62
10
 10
33.47279878
 20
6.37381479
 30
0.00000000
 40
3.00000000
 50
78.28298697
 51
111.92928426
  0
LINE
  8
0
  6
CONTINUOUS
 62
10
 10
32.35241291
 20
9.15675128
 30
0.00000000
 11
31.53769282
 21
8.82875210
 31
0.00000000
  0
ARC
  8
0
  6
CONTINUOUS
 62
10
 10
27.80307325
 20
18.10520706
 30
0.00000000
 40
10.00000000
 50
260.10269878
 51
291.92928426
  0
LINE
  8
0
  6
CONTINUOUS
 62
10
 10
26.08424626
 20
8.25403283
 30
0.00000000
 11
25.49094837
 21
8.35755109
 31
0.00000000
  0
ARC
  8
0
  6
CONTINUOUS
 62
10
 10
25.83471377
 20
10.32778594
 30
0.00000000
 40
2.00000000
 50
252.90871962
 51
260.10269878
  0
LINE
  8
0
  6
CONTINUOUS
 62
10
 10
25.24692404
 20
8.41611043
 30
0.00000000
 11
24.49344164
 21
8.64778637
 31
0.00000000
  0
ARC
  8
0
  6
CONTINUOUS
 62
10
 10
21.55449301
 20
-0.91059116
 30
0.00000000
 40
10.00000000
 50
72.90871962
 51
90.00000000
  0
LINE
  8
0
  6
CONTINUOUS
 62
10
 10
21.55449301
 20
9.08940884
 30
0.00000000
 11
21.33676504
 21
9.08940884
 31
0.00000000
  0
ARC
  8
0
  6
CONTINUOUS
 62
10
 10
21.33676504
 20
7.08940884
 30
0.00000000
 40
2.00000000
 50
90.00000000
 51
97.58930761
  0
LINE
  8
0
  6
CONTINUOUS
 62
10
 10
21.07262222
 20
9.07188925
 30
0.00000000
 11
16.92588834
 21
8.51938443
 31
0.00000000
  0
ARC
  8
0
  6
CONTINUOUS
 62
10
 10
16.99192405
 20
8.02376433
 30
0.00000000
 40
0.50000000
 50
97.58930761
 51
243.77478683
  0
LINE
  8
0
  6
CONTINUOUS
 62
10
 10
16.77097372
 20
7.57523233
 30
0.00000000
 11
16.88927516
 21
7.51695613
 31
0.00000000
  0
ARC
  8
0
  6
CONTINUOUS
 62
10
 10
17.77307646
 20
9.31108412
 30
0.00000000
 40
2.00000000
 50
243.77478683
 51
290.21164781
  0
LINE
  8
0
  6
CONTINUOUS
 62
10
 10
18.46405442
 20
7.43423851
 30
0.00000000
 11
19.45335563
 21
7.79845884
 31
0.00000000
  0
LINE
  8
0
  6
CONTINUOUS
 62
10
 10
19.45335563
 20
7.79845884
 30
0.00000000
 11
19.72523101
 21
7.88043189
 31
0.00000000
  0
ARC
  8
0
  6
CONTINUOUS
 62
10
 10
22.61196752
 20
-1.69384366
 30
0.00000000
 40
10.00000000
 50
77.83693374
 51
106.77856609
  0
LINE
  8
0
  6
CONTINUOUS
 62
10
 10
24.71891447
 20
8.08167549
 30
0.00000000
 11
24.98545021
 21
8.02422824
 31
0.00000000
  0
ARC
  8
0
  6
CONTINUOUS
 62
10
 10
22.87850326
 20
-1.75129090
 30
0.00000000
 40
10.00000000
 50
65.60457798
 51
77.83693374
  0
LINE
  8
0
  6
CONTINUOUS
 62
10
 10
27.00881990
 20
7.35587575
 30
0.00000000
 11
27.21487177
 21
7.26242632
 31
0.00000000
  0
ARC
  8
0
  6
CONTINUOUS
 62
10
 10
29.28003009
 20
11.81600965
 30
0.00000000
 40
5.00000000
 50
245.60457798
 51
267.10044996
  0
LINE
  8
0
  6
CONTINUOUS
 62
10
 10
29.02710461
 20
6.82241088
 30
0.00000000
 11
29.08955910
 21
6.81924756
 31
0.00000000
  0
ARC
  8
0
  6
CONTINUOUS
 62
10
 10
29.34248458
 20
11.81284633
 30
0.00000000
 40
5.00000000
 50
267.10044996
 51
290.99845395
  0
LINE
  8
0
  6
CONTINUOUS
 62
10
 10
31.13419837
 20
7.14489585
 30
0.00000000
 11
32.81614563
 21
7.79048284
 31
0.00000000
  0
LINE
  8
0
  6
CONTINUOUS
 62
10
 10
32.81614563
 20
7.79048284
 30
0.00000000
 11
31.35883806
 21
6.90701079
 31
0.00000000
  0
ARC
  8
0
  6
CONTINUOUS
 62
10
 10
28.76678159
 20
11.18266784
 30
0.00000000
 40
5.00000000
 50
270.00000000
 51
301.22574448
  0
LINE
  8
0
  6
CONTINUOUS
 62
10
 10
28.76678159
 20
6.18266784
 30
0.00000000
 11
28.56041658
 21
6.18266784
 31
0.00000000
  0
ARC
  8
0
  6
CONTINUOUS
 62
10
 10
28.56041658
 20
11.18266784
 30
0.00000000
 40
5.00000000
 50
255.76833729
 51
270.00000000
  0
LINE
  8
0
  6
CONTINUOUS
 62
10
 10
27.33120117
 20
6.33611964
 30
0.00000000
 11
24.68052658
 21
7.00840224
 31
0.00000000
  0
ARC
  8
0
  6
CONTINUOUS
 62
10
 10
23.45131117
 20
2.16185404
 30
0.00000000
 40
5.00000000
 50
75.76833729
 51
81.14157345
  0
LINE
  8
0
  6
CONTINUOUS
 62
10
 10
24.22127862
 20
7.10221335
 30
0.00000000
 11
23.48718212
 21
7.21662414
 31
0.00000000
  0
ARC
  8
0
  6
CONTINUOUS
 62
10
 10
22.71721468
 20
2.27626483
 30
0.00000000
 40
5.00000000
 50
81.14157345
 51
103.16354143
  0
LINE
  8
0
  6
CONTINUOUS
 62
10
 10
21.57855811
 20
7.14488488
 30
0.00000000
 11
21.22591588
 21
7.06241010
 31
0.00000000
  0
ARC
  8
0
  6
CONTINUOUS
 62
10
 10
21.45364720
 20
6.08868609
 30
0.00000000
 40
1.00000000
 50
103.16354143
 51
143.95325836
  0
LINE
  8
0
  6
CONTINUOUS
 62
10
 10
20.64510998
 20
6.67713114
 30
0.00000000
 11
20.57958347
 21
6.58709618
 31
0.00000000
  0
ARC
  8
0
  6
CONTINUOUS
 62
10
 10
20.98385208
 20
6.29287366
 30
0.00000000
 40
0.50000000
 50
143.95325836
 51
254.30198910
  0
LINE
  8
0
  6
CONTINUOUS
 62
10
 10
20.84856857
 20
5.81152309
 30
0.00000000
 11
21.07609271
 21
5.74757746
 31
0.00000000
  0
ARC
  8
0
  6
CONTINUOUS
 62
10
 10
21.34665974
 20
6.71027860
 30
0.00000000
 40
1.00000000
 50
254.30198910
 51
279.15595538
  0
LINE
  8
0
  6
CONTINUOUS
 62
10
 10
21.50578204
 20
5.72301972
 30
0.00000000
 11
23.48065663
 21
6.04132184
 31
0.00000000
  0
LINE
  8
0
  6
CONTINUOUS
 62
10
 10
23.48065663
 20
6.04132184
 30
0.00000000
 11
23.40959805
 21
6.03343207
 31
0.00000000
  0
ARC
  8
0
  6
CONTINUOUS
 62
10
 10
24.51313581
 20
-3.90549163
 30
0.00000000
 40
10.00000000
 50
73.79561113
 51
96.33570960
  0
LINE
  8
0
  6
CONTINUOUS
 62
10
 10
27.30378245
 20
5.69723149
 30
0.00000000
 11
28.85563463
 21
5.24624784
 31
0.00000000
  0
LINE
  8
0
  6
CONTINUOUS
 62
10
 10
28.85563463
 20
5.24624784
 30
0.00000000
 11
27.93070775
 21
5.22765568
 31
0.00000000
  0
ARC
  8
0
  6
CONTINUOUS
 62
10
 10
27.83022194
 20
10.22664584
 30
0.00000000
 40
5.00000000
 50
263.44191617
 51
271.15156018
  0
LINE
  8
0
  6
CONTINUOUS
 62
10
 10
27.25916997
 20
5.25936291
 30
0.00000000
 11
27.09008354
 21
5.27880154
 31
0.00000000
  0
ARC
  8
0
  6
CONTINUOUS
 62
10
 10
25.94797961
 20
-4.65576431
 30
0.00000000
 40
10.00000000
 50
83.44191617
 51
103.20727674
  0
LINE
  8
0
  6
CONTINUOUS
 62
10
 10
23.66323445
 20
5.07973463
 30
0.00000000
 11
22.74904463
 21
4.86519084
 31
0.00000000
  0
LINE
  8
0
  6
CONTINUOUS
 62
10
 10
22.74904463
 20
4.86519084
 30
0.00000000
 11
22.91405297
 21
4.83169730
 31
0.00000000
  0
ARC
  8
0
  6
CONTINUOUS
 62
10
 10
20.92480990
 20
-4.96845127
 30
0.00000000
 40
10.00000000
 50
65.71074267
 51
78.52593753
  0
LINE
  8
0
  6
CONTINUOUS
 62
10
 10
25.03824458
 20
4.14635290
 30
0.00000000
 11
25.85368863
 21
3.77834984
 31
0.00000000
  0
LINE
  8
0
  6
CONTINUOUS
 62
10
 10
25.85368863
 20
3.77834984
 30
0.00000000
 11
23.99165575
 21
4.18538004
 31
0.00000000
  0
ARC
  8
0
  6
CONTINUOUS
 62
10
 10
21.85613650
 20
-5.58393711
 30
0.00000000
 40
10.00000000
 50
77.66941419
 51
85.50603810
  0
LINE
  8
0
  6
CONTINUOUS
 62
10
 10
22.63967685
 20
4.38531886
 30
0.00000000
 11
22.50772902
 21
4.39568939
 31
0.00000000
  0
ARC
  8
0
  6
CONTINUOUS
 62
10
 10
22.27266691
 20
1.40491260
 30
0.00000000
 40
3.00000000
 50
85.50603810
 51
120.58213846
  0
LINE
  8
0
  6
CONTINUOUS
 62
10
 10
20.74634773
 20
3.98761462
 30
0.00000000
 11
19.99228223
 21
3.54197876
 31
0.00000000
  0
ARC
  8
0
  6
CONTINUOUS
 62
10
 10
18.46596305
 20
6.12468079
 30
0.00000000
 40
3.00000000
 50
288.69937952
 51
300.58213846
  0
LINE
  8
0
  6
CONTINUOUS
 62
10
 10
19.42777125
 20
3.28303954
 30
0.00000000
 11
18.24149823
 21
2.88152259
 31
0.00000000
  0
ARC
  8
0
  6
CONTINUOUS
 62
10
 10
16.31788183
 20
8.56480509
 30
0.00000000
 40
6.00000000
 50
252.36162539
 51
288.69937952
  0
LINE
  8
0
  6
CONTINUOUS
 62
10
 10
14.49983242
 20
2.84687747
 30
0.00000000
 11
13.75541063
 21
3.08357084
 31
0.00000000
  0
LINE
  8
0
  6
CONTINUOUS
 62
10
 10
13.75541063
 20
3.08357084
 30
0.00000000
 11
13.07145598
 21
2.78817323
 31
0.00000000
  0
ARC
  8
0
  6
CONTINUOUS
 62
10
 10
10.69247635
 20
8.29639036
 30
0.00000000
 40
6.00000000
 50
239.05421623
 51
293.35934625
  0
LINE
  8
0
  6
CONTINUOUS
 62
10
 10
7.60711586
 20
3.15046472
 30
0.00000000
 11
5.81692994
 21
4.22381270
 31
0.00000000
  0
LINE
  8
0
  6
CONTINUOUS
 62
10
 10
5.81692994
 20
4.22381270
 30
0.00000000
 11
6.26011578
 21
4.23144830
 31
0.00000000
  0
ARC
  8
0
  6
CONTINUOUS
 62
10
 10
6.15675779
 20
10.23055800
 30
0.00000000
 40
6.00000000
 50
270.98704491
 51
296.83802710
  0
LINE
  8
0
  6
CONTINUOUS
 62
10
 10
8.86557688
 20
4.87683974
 30
0.00000000
 11
8.99803363
 21
4.94385884
 31
0.00000000
  0
LINE
  8
0
  6
CONTINUOUS
 62
10
 10
8.99803363
 20
4.94385884
 30
0.00000000
 11
9.18939775
 21
5.02844063
 31
0.00000000
  0
ARC
  8
0
  6
CONTINUOUS
 62
10
 10
10.80646184
 20
1.36987483
 30
0.00000000
 40
4.00000000
 50
92.04392792
 51
113.84514052
  0
LINE
  8
0
  6
CONTINUOUS
 62
10
 10
10.66379902
 20
5.36732994
 30
0.00000000
 11
10.85881763
 21
5.37428984
 31
0.00000000
  0
LINE
  8
0
  6
CONTINUOUS
 62
10
 10
10.85881763
 20
5.37428984
 30
0.00000000
 11
10.48122819
 21
5.47786050
 31
0.00000000
  0
ARC
  8
0
  6
CONTINUOUS
 62
10
 10
10.54735914
 20
5.71895529
 30
0.00000000
 40
0.25000000
 50
142.97788695
 51
254.66134186
  0
LINE
  8
0
  6
CONTINUOUS
 62
10
 10
10.34775835
 20
5.86948610
 30
0.00000000
 11
10.36391944
 21
5.89091537
 31
0.00000000
  0
ARC
  8
0
  6
CONTINUOUS
 62
10
 10
11.16232262
 20
5.28879217
 30
0.00000000
 40
1.00000000
 50
86.47687355
 51
142.97788695
  0
LINE
  8
0
  6
CONTINUOUS
 62
10
 10
11.22377403
 20
6.28690224
 30
0.00000000
 11
12.54200263
 21
6.20574184
 31
0.00000000
  0
LINE
  8
0
  6
CONTINUOUS
 62
10
 10
12.54200263
 20
6.20574184
 30
0.00000000
 11
12.35141887
 21
6.30861193
 31
0.00000000
  0
ARC
  8
0
  6
CONTINUOUS
 62
10
 10
11.40144381
 20
4.54862688
 30
0.00000000
 40
2.00000000
 50
61.64146181
 51
106.63387933
  0
LINE
  8
0
  6
CONTINUOUS
 62
10
 10
10.82893385
 20
6.46493383
 30
0.00000000
 11
10.32054063
 21
6.31304784
 31
0.00000000
  0
LINE
  8
0
  6
CONTINUOUS
 62
10
 10
10.32054063
 20
6.31304784
 30
0.00000000
 11
9.86837073
 21
6.19058437
 31
0.00000000
  0
ARC
  8
0
  6
CONTINUOUS
 62
10
 10
9.73766221
 20
6.67319735
 30
0.00000000
 40
0.50000000
 50
227.43983251
 51
285.15416097
  0
LINE
  8
0
  6
CONTINUOUS
 62
10
 10
9.39948018
 20
6.30491361
 30
0.00000000
 11
9.23719246
 21
6.45393673
 31
0.00000000
  0
ARC
  8
0
  6
CONTINUOUS
 62
10
 10
9.57537449
 20
6.82222047
 30
0.00000000
 40
0.50000000
 50
130.12330629
 51
227.43983251
  0
LINE
  8
0
  6
CONTINUOUS
 62
10
 10
9.25315713
 20
7.20455013
 30
0.00000000
 11
9.58901784
 21
7.48760469
 31
0.00000000
  0
ARC
  8
0
  6
CONTINUOUS
 62
10
 10
10.23345257
 20
6.72294536
 30
0.00000000
 40
1.00000000
 50
85.84911960
 51
130.12330629
  0
LINE
  8
0
  6
CONTINUOUS
 62
10
 10
10.30583574
 20
7.72032226
 30
0.00000000
 11
11.03342269
 21
7.66751870
 31
0.00000000
  0
ARC
  8
0
  6
CONTINUOUS
 62
10
 10
10.96103952
 20
6.67014180
 30
0.00000000
 40
1.00000000
 50
58.41066074
 51
85.84911960
  0
LINE
  8
0
  6
CONTINUOUS
 62
10
 10
11.48486694
 20
7.52196621
 30
0.00000000
 11
11.44449046
 21
7.54679563
 31
0.00000000
  0
ARC
  8
0
  6
CONTINUOUS
 62
10
 10
14.06362757
 20
11.80591771
 30
0.00000000
 40
5.00000000
 50
238.41066074
 51
278.90453099
  0
LINE
  8
0
  6
CONTINUOUS
 62
10
 10
14.83757014
 20
6.86617957
 30
0.00000000
 11
14.94133963
 21
6.88243784
 31
0.00000000
  0
LINE
  8
0
  6
CONTINUOUS
 62
10
 10
14.94133963
 20
6.88243784
 30
0.00000000
 11
14.67406357
 21
6.89356646
 31
0.00000000
  0
ARC
  8
0
  6
CONTINUOUS
 62
10
 10
14.88206910
 20
11.88923795
 30
0.00000000
 40
5.00000000
 50
233.05900012
 51
267.61574405
  0
LINE
  8
0
  6
CONTINUOUS
 62
10
 10
11.87710754
 20
7.89296394
 30
0.00000000
 11
11.77272561
 21
7.97145297
 31
0.00000000
  0
ARC
  8
0
  6
CONTINUOUS
 62
10
 10
10.87123714
 20
6.77257077
 30
0.00000000
 40
1.50000000
 50
53.05900012
 51
86.11109150
  0
LINE
  8
0
  6
CONTINUOUS
 62
10
 10
10.97297037
 20
8.26911691
 30
0.00000000
 11
10.86641677
 21
8.27636028
 31
0.00000000
  0
ARC
  8
0
  6
CONTINUOUS
 62
10
 10
10.66295031
 20
5.28326800
 30
0.00000000
 40
3.00000000
 50
86.11109150
 51
112.03174364
  0
LINE
  8
0
  6
CONTINUOUS
 62
10
 10
9.53758964
 20
8.06419651
 30
0.00000000
 11
9.28825598
 21
7.96329845
 31
0.00000000
  0
ARC
  8
0
  6
CONTINUOUS
 62
10
 10
8.16289531
 20
10.74422695
 30
0.00000000
 40
3.00000000
 50
286.64312872
 51
292.03174364
  0
LINE
  8
0
  6
CONTINUOUS
 62
10
 10
9.02212426
 20
7.86990519
 30
0.00000000
 11
7.65181474
 21
7.46027477
 31
0.00000000
  0
ARC
  8
0
  6
CONTINUOUS
 62
10
 10
7.50860991
 20
7.93932840
 30
0.00000000
 40
0.50000000
 50
124.15808812
 51
286.64312872
  0
LINE
  8
0
  6
CONTINUOUS
 62
10
 10
7.22787080
 20
8.35307416
 30
0.00000000
 11
7.99979966
 21
8.87685142
 31
0.00000000
  0
ARC
  8
0
  6
CONTINUOUS
 62
10
 10
9.12275610
 20
7.22186839
 30
0.00000000
 40
2.00000000
 50
104.33717892
 51
124.15808812
  0
LINE
  8
0
  6
CONTINUOUS
 62
10
 10
8.62750060
 20
9.15957889
 30
0.00000000
 11
8.78580706
 21
9.20004011
 31
0.00000000
  0
ARC
  8
0
  6
CONTINUOUS
 62
10
 10
9.28106256
 20
7.26232961
 30
0.00000000
 40
2.00000000
 50
89.71372408
 51
104.33717892
  0
LINE
  8
0
  6
CONTINUOUS
 62
10
 10
9.29105543
 20
9.26230465
 30
0.00000000
 11
9.91780173
 21
9.25917311
 31
0.00000000
  0
ARC
  8
0
  6
CONTINUOUS
 62
10
 10
9.90780885
 20
7.25919807
 30
0.00000000
 40
2.00000000
 50
72.86156296
 51
89.71372408
  0
LINE
  8
0
  6
CONTINUOUS
 62
10
 10
10.49717176
 20
9.17038916
 30
0.00000000
 11
11.43908670
 21
8.87992646
 31
0.00000000
  0
ARC
  8
0
  6
CONTINUOUS
 62
10
 10
10.84972378
 20
6.96873537
 30
0.00000000
 40
2.00000000
 50
55.90440713
 51
72.86156296
  0
LINE
  8
0
  6
CONTINUOUS
 62
10
 10
11.97087438
 20
8.62494228
 30
0.00000000
 11
12.16311490
 21
8.49480723
 31
0.00000000
  0
ARC
  8
0
  6
CONTINUOUS
 62
10
 10
13.28426550
 20
10.15101414
 30
0.00000000
 40
2.00000000
 50
235.90440713
 51
295.82077036
  0
LINE
  8
0
  6
CONTINUOUS
 62
10
 10
14.15538040
 20
8.35069227
 30
0.00000000
 11
14.81163372
 21
8.66823107
 31
0.00000000
  0
ARC
  8
0
  6
CONTINUOUS
 62
10
 10
15.68274862
 20
6.86790920
 30
0.00000000
 40
2.00000000
 50
112.51886109
 51
115.82077036
  0
LINE
  8
0
  6
CONTINUOUS
 62
10
 10
14.91677353
 20
8.71541621
 30
0.00000000
 11
15.84644863
 21
9.10085884
 31
0.00000000
  0
LINE
  8
0
  6
CONTINUOUS
 62
10
 10
15.84644863
 20
9.10085884
 30
0.00000000
 11
14.62474256
 21
8.83275322
 31
0.00000000
  0
ARC
  8
0
  6
CONTINUOUS
 62
10
 10
14.19604049
 20
10.78626660
 30
0.00000000
 40
2.00000000
 50
275.84311159
 51
282.37745690
  0
LINE
  8
0
  6
CONTINUOUS
 62
10
 10
14.39965020
 20
8.79665782
 30
0.00000000
 11
14.29510662
 21
8.78595919
 31
0.00000000
  0
ARC
  8
0
  6
CONTINUOUS
 62
10
 10
14.09149691
 20
10.77556797
 30
0.00000000
 40
2.00000000
 50
241.79094691
 51
275.84311159
  0
LINE
  8
0
  6
CONTINUOUS
 62
10
 10
13.14611689
 20
9.01311042
 30
0.00000000
 11
11.10984363
 21
10.10536484
 31
0.00000000
  0
LINE
  8
0
  6
CONTINUOUS
 62
10
 10
11.10984363
 20
10.10536484
 30
0.00000000
 11
11.90805337
 21
10.52334402
 31
0.00000000
  0
ARC
  8
0
  6
CONTINUOUS
 62
10
 10
16.54698509
 20
1.66443254
 30
0.00000000
 40
10.00000000
 50
112.54646337
 51
117.63861351
  0
LINE
  8
0
  6
CONTINUOUS
 62
10
 10
12.71265993
 20
10.90012150
 30
0.00000000
 11
13.25661086
 21
11.12595032
 31
0.00000000
  0
ARC
  8
0
  6
CONTINUOUS
 62
10
 10
13.64004338
 20
10.20238143
 30
0.00000000
 40
1.00000000
 50
59.95121653
 51
112.54646337
  0
LINE
  8
0
  6
CONTINUOUS
 62
10
 10
14.14078056
 20
11.06798080
 30
0.00000000
 11
14.42348492
 21
10.90444027
 31
0.00000000
  0
ARC
  8
0
  6
CONTINUOUS
 62
10
 10
16.92717082
 20
15.23243714
 30
0.00000000
 40
5.00000000
 50
239.95121653
 51
277.23184894
  0
LINE
  8
0
  6
CONTINUOUS
 62
10
 10
17.55659432
 20
10.27221274
 30
0.00000000
 11
17.86586863
 21
10.31145784
 31
0.00000000
  0
LINE
  8
0
  6
CONTINUOUS
 62
10
 10
17.86586863
 20
10.31145784
 30
0.00000000
 11
18.73994843
 21
10.45293320
 31
0.00000000
  0
ARC
  8
0
  6
CONTINUOUS
 62
10
 10
20.33771835
 20
0.58140184
 30
0.00000000
 40
10.00000000
 50
90.00000000
 51
99.19395224
  0
LINE
  8
0
  6
CONTINUOUS
 62
10
 10
20.33771835
 20
10.58140184
 30
0.00000000
 11
20.82562563
 21
10.58140184
 31
0.00000000
  0
LINE
  8
0
  6
CONTINUOUS
 62
10
 10
20.82562563
 20
10.58140184
 30
0.00000000
 11
19.17574350
 21
11.12276938
 31
0.00000000
  0
ARC
  8
0
  6
CONTINUOUS
 62
10
 10
22.29344751
 20
20.62434408
 30
0.00000000
 40
10.00000000
 50
243.27662034
 51
251.83404450
  0
LINE
  8
0
  6
CONTINUOUS
 62
10
 10
17.79661248
 20
11.69246439
 30
0.00000000
 11
17.49417573
 21
11.84472889
 31
0.00000000
  0
ARC
  8
0
  6
CONTINUOUS
 62
10
 10
16.14512522
 20
9.16516499
 30
0.00000000
 40
3.00000000
 50
63.27662034
 51
87.20927211
  0
LINE
  8
0
  6
CONTINUOUS
 62
10
 10
16.29118962
 20
12.16160708
 30
0.00000000
 11
15.54826344
 21
12.19782171
 31
0.00000000
  0
ARC
  8
0
  6
CONTINUOUS
 62
10
 10
15.40219904
 20
9.20137963
 30
0.00000000
 40
3.00000000
 50
87.20927211
 51
107.94421749
  0
LINE
  8
0
  6
CONTINUOUS
 62
10
 10
14.47792631
 20
12.05545039
 30
0.00000000
 11
13.88216778
 21
11.86251776
 31
0.00000000
  0
ARC
  8
0
  6
CONTINUOUS
 62
10
 10
14.80644051
 20
9.00844700
 30
0.00000000
 40
3.00000000
 50
107.94421749
 51
113.98376190
  0
LINE
  8
0
  6
CONTINUOUS
 62
10
 10
13.58700734
 20
11.74942908
 30
0.00000000
 11
12.20090273
 21
11.13276619
 31
0.00000000
  0
ARC
  8
0
  6
CONTINUOUS
 62
10
 10
10.98146957
 20
13.87374827
 30
0.00000000
 40
3.00000000
 50
262.03842715
 51
293.98376190
  0
LINE
  8
0
  6
CONTINUOUS
 62
10
 10
10.56594282
 20
10.90266471
 30
0.00000000
 11
10.30904193
 21
10.93859409
 31
0.00000000
  0
ARC
  8
0
  6
CONTINUOUS
 62
10
 10
10.44755084
 20
11.92895528
 30
0.00000000
 40
1.00000000
 50
178.30034204
 51
262.03842715
  0
ARC
  8
0
  6
CONTINUOUS
 62
10
 10
9.94569099
 20
11.91071432
 30
0.00000000
 40
0.50000000
 50
108.64561011
 51
174.50249185
  0
LINE
  8
0
  6
CONTINUOUS
 62
10
 10
9.78583415
 20
12.38447142
 30
0.00000000
 11
9.85875281
 21
12.40907590
 31
0.00000000
  0
ARC
  8
0
  6
CONTINUOUS
 62
10
 10
10.17846649
 20
11.46156170
 30
0.00000000
 40
1.00000000
 50
71.57721173
 51
108.64561011
  0
LINE
  8
0
  6
CONTINUOUS
 62
10
 10
10.49449289
 20
12.41031209
 30
0.00000000
 11
10.97933063
 21
12.24881384
 31
0.00000000
  0
LINE
  8
0
  6
CONTINUOUS
 62
10
 10
10.97933063
 20
12.24881384
 30
0.00000000
 11
11.05099855
 21
12.22774229
 31
0.00000000
  0
ARC
  8
0
  6
CONTINUOUS
 62
10
 10
12.02224402
 20
15.06617183
 30
0.00000000
 40
3.00000000
 50
251.11023016
 51
298.55360206
  0
LINE
  8
0
  6
CONTINUOUS
 62
10
 10
13.45618616
 20
12.43106084
 30
0.00000000
 11
13.54496763
 21
12.47937284
 31
0.00000000
  0
LINE
  8
0
  6
CONTINUOUS
 62
10
 10
13.54496763
 20
12.47937284
 30
0.00000000
 11
13.02259509
 21
12.38480726
 31
0.00000000
  0
ARC
  8
0
  6
CONTINUOUS
 62
10
 10
12.48818855
 20
15.33682515
 30
0.00000000
 40
3.00000000
 50
251.70650624
 51
280.26117757
  0
LINE
  8
0
  6
CONTINUOUS
 62
10
 10
11.54653462
 20
12.48844177
 30
0.00000000
 11
11.59714419
 21
12.47171063
 31
0.00000000
  0
ARC
  8
0
  6
CONTINUOUS
 62
10
 10
14.73599060
 20
21.96632190
 30
0.00000000
 40
10.00000000
 50
245.03728447
 51
251.70650624
  0
LINE
  8
0
  6
CONTINUOUS
 62
10
 10
10.51570656
 20
12.90049582
 30
0.00000000
 11
10.44295063
 21
12.93436484
 31
0.00000000
  0
LINE
  8
0
  6
CONTINUOUS
 62
10
 10
10.44295063
 20
12.93436484
 30
0.00000000
 11
10.86599892
 21
13.19858192
 31
0.00000000
  0
ARC
  8
0
  6
CONTINUOUS
 62
10
 10
11.39572664
 20
12.35041417
 30
0.00000000
 40
1.00000000
 50
78.36207394
 51
121.98706000
  0
LINE
  8
0
  6
CONTINUOUS
 62
10
 10
11.59745293
 20
13.32985610
 30
0.00000000
 11
12.56954863
 21
13.12964284
 31
0.00000000
  0
LINE
  8
0
  6
CONTINUOUS
 62
10
 10
12.56954863
 20
13.12964284
 30
0.00000000
 11
11.82545825
 21
13.49943595
 31
0.00000000
  0
ARC
  8
0
  6
CONTINUOUS
 62
10
 10
11.38041427
 20
12.60392724
 30
0.00000000
 40
1.00000000
 50
63.57384705
 51
104.11135103
  0
ARC
  8
0
  6
CONTINUOUS
 62
10
 10
9.91892810
 20
18.42322603
 30
0.00000000
 40
5.00001506
 50
271.00438580
 51
284.09527738
  0
LINE
  8
0
  6
CONTINUOUS
 62
10
 10
10.00657307
 20
13.42397920
 30
0.00000000
 11
9.94300079
 21
13.42286468
 31
0.00000000
  0
ARC
  8
0
  6
CONTINUOUS
 62
10
 10
9.92547203
 20
14.42271104
 30
0.00000000
 40
1.00000000
 50
220.77169498
 51
271.00437593
  0
LINE
  8
0
  6
CONTINUOUS
 62
10
 10
9.16815426
 20
13.76966449
 30
0.00000000
 11
8.88410563
 21
14.09906684
 31
0.00000000
  0
LINE
  8
0
  6
CONTINUOUS
 62
10
 10
8.88410563
 20
14.09906684
 30
0.00000000
 11
8.36166394
 21
14.62233392
 31
0.00000000
  0
ARC
  8
0
  6
CONTINUOUS
 62
10
 10
7.65399925
 20
13.91578549
 30
0.00000000
 40
1.00000000
 50
44.95477576
 51
73.56244697
  0
LINE
  8
0
  6
CONTINUOUS
 62
10
 10
7.93696941
 20
14.87491420
 30
0.00000000
 11
7.85942139
 21
14.89779307
 31
0.00000000
  0
ARC
  8
0
  6
CONTINUOUS
 62
10
 10
7.57645124
 20
13.93866435
 30
0.00000000
 40
1.00000000
 50
73.56244697
 51
113.34956056
  0
LINE
  8
0
  6
CONTINUOUS
 62
10
 10
7.18011143
 20
14.85676824
 30
0.00000000
 11
7.05994360
 21
14.80489253
 31
0.00000000
  0
ARC
  8
0
  6
CONTINUOUS
 62
10
 10
6.66360380
 20
15.72299642
 30
0.00000000
 40
1.00000000
 50
232.40031414
 51
293.34956056
  0
LINE
  8
0
  6
CONTINUOUS
 62
10
 10
6.05346298
 20
14.93070344
 30
0.00000000
 11
5.84534558
 21
15.09097359
 31
0.00000000
  0
ARC
  8
0
  6
CONTINUOUS
 62
10
 10
5.23520476
 20
14.29868060
 30
0.00000000
 40
1.00000000
 50
52.40031414
 51
71.06594612
  0
LINE
  8
0
  6
CONTINUOUS
 62
10
 10
5.55968443
 20
15.24457327
 30
0.00000000
 11
5.28814063
 21
15.33772384
 31
0.00000000
  0
LINE
  8
0
  6
CONTINUOUS
 62
10
 10
5.28814063
 20
15.33772384
 30
0.00000000
 11
4.70750263
 21
15.50674884
 31
0.00000000
  0
LINE
  8
0
  6
CONTINUOUS
 62
10
 10
4.70750263
 20
15.50674884
 30
0.00000000
 11
9.12889684
 21
17.22275366
 31
0.00000000
  0
ARC
  8
0
  6
CONTINUOUS
 62
10
 10
10.93799012
 20
12.56151118
 30
0.00000000
 40
5.00000000
 50
102.57427754
 51
111.21192800
  0
LINE
  8
0
  6
CONTINUOUS
 62
10
 10
9.84946467
 20
17.44158416
 30
0.00000000
 11
9.87557331
 21
17.44740783
 31
0.00000000
  0
ARC
  8
0
  6
CONTINUOUS
 62
10
 10
10.96409876
 20
12.56733484
 30
0.00000000
 40
5.00000000
 50
90.00000000
 51
102.57427754
  0
LINE
  8
0
  6
CONTINUOUS
 62
10
 10
10.96409876
 20
17.56733484
 30
0.00000000
 11
10.79367772
 21
17.56733484
 31
0.00000000
  0
ARC
  8
0
  6
CONTINUOUS
 62
10
 10
10.79367772
 20
12.56733484
 30
0.00000000
 40
5.00000000
 50
70.85514497
 51
90.00000000
  0
LINE
  8
0
  6
CONTINUOUS
 62
10
 10
12.43346556
 20
17.29079711
 30
0.00000000
 11
12.58464415
 21
17.23831425
 31
0.00000000
  0
ARC
  8
0
  6
CONTINUOUS
 62
10
 10
10.94485630
 20
12.51485198
 30
0.00000000
 40
5.00000000
 50
56.62348881
 51
70.85514497
  0
LINE
  8
0
  6
CONTINUOUS
 62
10
 10
13.69554851
 20
16.69021932
 30
0.00000000
 11
13.96043163
 21
16.51571684
 31
0.00000000
  0
LINE
  8
0
  6
CONTINUOUS
 62
10
 10
13.96043163
 20
16.51571684
 30
0.00000000
 11
14.64359698
 21
16.78464474
 31
0.00000000
  0
ARC
  8
0
  6
CONTINUOUS
 62
10
 10
16.47505317
 20
12.13214346
 30
0.00000000
 40
5.00000000
 50
80.62947996
 51
111.48706933
  0
LINE
  8
0
  6
CONTINUOUS
 62
10
 10
17.28914481
 20
17.06542379
 30
0.00000000
 11
17.33432814
 21
17.05796762
 31
0.00000000
  0
ARC
  8
0
  6
CONTINUOUS
 62
10
 10
17.00869148
 20
15.08465549
 30
0.00000000
 40
2.00000000
 50
59.56600606
 51
80.62947996
  0
LINE
  8
0
  6
CONTINUOUS
 62
10
 10
18.02178230
 20
16.80908206
 30
0.00000000
 11
18.98467514
 21
16.24338798
 31
0.00000000
  0
ARC
  8
0
  6
CONTINUOUS
 62
10
 10
24.05012924
 20
24.86552082
 30
0.00000000
 40
10.00000000
 50
239.56600606
 51
247.57325668
  0
LINE
  8
0
  6
CONTINUOUS
 62
10
 10
20.23511049
 20
15.62184017
 30
0.00000000
 11
20.67841692
 21
15.43888033
 31
0.00000000
  0
ARC
  8
0
  6
CONTINUOUS
 62
10
 10
22.58592630
 20
20.06072065
 30
0.00000000
 40
5.00000000
 50
247.57325668
 51
263.90840774
  0
LINE
  8
0
  6
CONTINUOUS
 62
10
 10
22.05533551
 20
15.08895302
 30
0.00000000
 11
22.20711952
 21
15.07275452
 31
0.00000000
  0
ARC
  8
0
  6
CONTINUOUS
 62
10
 10
22.73771031
 20
20.04452215
 30
0.00000000
 40
5.00000000
 50
263.90840774
 51
271.48042712
  0
LINE
  8
0
  6
CONTINUOUS
 62
10
 10
22.86688757
 20
15.04619111
 30
0.00000000
 11
23.21721272
 21
15.05524494
 31
0.00000000
  0
ARC
  8
0
  6
CONTINUOUS
 62
10
 10
23.08803546
 20
20.05357598
 30
0.00000000
 40
5.00000000
 50
271.48042712
 51
286.61503584
  0
LINE
  8
0
  6
CONTINUOUS
 62
10
 10
24.51773468
 20
15.26233813
 30
0.00000000
 11
25.55101563
 21
15.57066784
 31
0.00000000
  0
LINE
  8
0
  6
CONTINUOUS
 62
10
 10
25.55101563
 20
15.57066784
 30
0.00000000
 11
24.93687623
 21
15.15698652
 31
0.00000000
  0
ARC
  8
0
  6
CONTINUOUS
 62
10
 10
22.14351557
 20
19.30392952
 30
0.00000000
 40
5.00000000
 50
278.12442988
 51
303.96401641
  0
LINE
  8
0
  6
CONTINUOUS
 62
10
 10
22.85013231
 20
14.35411207
 30
0.00000000
 11
22.76803963
 21
14.34239284
 31
0.00000000
  0
LINE
  8
0
  6
CONTINUOUS
 62
10
 10
22.76803963
 20
14.34239284
 30
0.00000000
 11
23.56732689
 21
14.02402230
 31
0.00000000
  0
ARC
  8
0
  6
CONTINUOUS
 62
10
 10
25.41754315
 20
18.66909494
 30
0.00000000
 40
5.00000000
 50
248.28171530
 51
269.23375857
  0
LINE
  8
0
  6
CONTINUOUS
 62
10
 10
25.35067796
 20
13.66954206
 30
0.00000000
 11
25.28087657
 21
13.67047560
 31
0.00000000
  0
ARC
  8
0
  6
CONTINUOUS
 62
10
 10
25.34774176
 20
18.67002848
 30
0.00000000
 40
5.00000000
 50
269.23375857
 51
282.83132842
  0
LINE
  8
0
  6
CONTINUOUS
 62
10
 10
26.45815006
 20
13.79488813
 30
0.00000000
 11
28.33074363
 21
14.22140784
 31
0.00000000
  0
LINE
  8
0
  6
CONTINUOUS
 62
10
 10
28.33074363
 20
14.22140784
 30
0.00000000
 11
28.04267923
 21
13.99426784
 31
0.00000000
  0
ARC
  8
0
  6
CONTINUOUS
 62
10
 10
24.94680314
 20
17.92053212
 30
0.00000000
 40
5.00000000
 50
281.63539146
 51
308.25592948
  0
LINE
  8
0
  6
CONTINUOUS
 62
10
 10
25.95521796
 20
13.02327784
 30
0.00000000
 11
25.79537546
 21
12.99036398
 31
0.00000000
  0
ARC
  8
0
  6
CONTINUOUS
 62
10
 10
24.78696064
 20
17.88761826
 30
0.00000000
 40
5.00000000
 50
263.83488281
 51
281.63539146
  0
LINE
  8
0
  6
CONTINUOUS
 62
10
 10
24.24999025
 20
12.91653560
 30
0.00000000
 11
22.78932563
 21
13.07431484
 31
0.00000000
  0
LINE
  8
0
  6
CONTINUOUS
 62
10
 10
22.78932563
 20
13.07431484
 30
0.00000000
 11
21.07999762
 21
13.24512580
 31
0.00000000
  0
ARC
  8
0
  6
CONTINUOUS
 62
10
 10
21.03028088
 20
12.74760369
 30
0.00000000
 40
0.50000000
 50
84.29345066
 51
248.60450914
  0
LINE
  8
0
  6
CONTINUOUS
 62
10
 10
20.84787912
 20
12.28206143
 30
0.00000000
 11
21.26911448
 21
12.11701934
 31
0.00000000
  0
ARC
  8
0
  6
CONTINUOUS
 62
10
 10
23.09313203
 20
16.77244198
 30
0.00000000
 40
5.00000000
 50
248.60450914
 51
270.94890427
  0
LINE
  8
0
  6
CONTINUOUS
 62
10
 10
23.17593576
 20
11.77312767
 30
0.00000000
 11
23.57764162
 21
11.77978113
 31
0.00000000
  0
ARC
  8
0
  6
CONTINUOUS
 62
10
 10
23.49483789
 20
16.77909544
 30
0.00000000
 40
5.00000000
 50
270.94890427
 51
291.54317103
  0
LINE
  8
0
  6
CONTINUOUS
 62
10
 10
25.33084874
 20
12.12838967
 30
0.00000000
 11
26.01382129
 21
12.39801434
 31
0.00000000
  0
ARC
  8
0
  6
CONTINUOUS
 62
10
 10
27.84983215
 20
7.74730857
 30
0.00000000
 40
5.00000000
 50
98.58208228
 51
111.54317103
  0
LINE
  8
0
  6
CONTINUOUS
 62
10
 10
27.10370150
 20
12.69132405
 30
0.00000000
 11
27.89833114
 21
12.81124632
 31
0.00000000
  0
ARC
  8
0
  6
CONTINUOUS
 62
10
 10
28.64446179
 20
7.86723084
 30
0.00000000
 40
5.00000000
 50
84.94258643
 51
98.58208228
  0
LINE
  8
0
  6
CONTINUOUS
 62
10
 10
29.08523149
 20
12.84776515
 30
0.00000000
 11
29.30912654
 21
12.82795078
 31
0.00000000
  0
ARC
  8
0
  6
CONTINUOUS
 62
10
 10
28.86835684
 20
7.84741647
 30
0.00000000
 40
5.00000000
 50
67.39459240
 51
84.94258643
  0
LINE
  8
0
  6
CONTINUOUS
 62
10
 10
30.79026911
 20
12.46328618
 30
0.00000000
 11
30.66902124
 21
12.51377022
 31
0.00000000
  0
ARC
  8
0
  6
CONTINUOUS
 62
10
 10
26.82519670
 20
3.28203079
 30
0.00000000
 40
10.00000000
 50
51.09233142
 51
67.39459240
  0
LINE
  8
0
  6
CONTINUOUS
 62
10
 10
33.10586884
 20
11.06362173
 30
0.00000000
 11
33.23504663
 21
10.95935984
 31
0.00000000
  0
LINE
  8
0
  6
CONTINUOUS
 62
10
 10
33.23504663
 20
10.95935984
 30
0.00000000
 11
32.45176625
 21
11.27682850
 31
0.00000000
  0
ARC
  8
0
  6
CONTINUOUS
 62
10
 10
28.69550209
 20
2.00911683
 30
0.00000000
 40
10.00000000
 50
67.93696558
 51
86.28735664
  0
LINE
  8
0
  6
CONTINUOUS
 62
10
 10
29.34302724
 20
11.98813037
 30
0.00000000
 11
28.95796264
 21
12.01311671
 31
0.00000000
  0
ARC
  8
0
  6
CONTINUOUS
 62
10
 10
28.82845761
 20
10.01731400
 30
0.00000000
 40
2.00000000
 50
86.28735664
 51
112.17605588
  0
LINE
  8
0
  6
CONTINUOUS
 62
10
 10
28.07354995
 20
11.86937081
 30
0.00000000
 11
24.86366563
 21
10.56100584
 31
0.00000000
  0
LINE
  8
0
  6
CONTINUOUS
 62
10
 10
24.86366563
 20
10.56100584
 30
0.00000000
 11
26.46209563
 21
10.01726884
 31
0.00000000
  0
LINE
  8
0
  6
CONTINUOUS
 62
10
 10
26.46209563
 20
10.01726884
 30
0.00000000
 11
26.15339272
 21
10.12832287
 31
0.00000000
  0
ARC
  8
0
  6
CONTINUOUS
 62
10
 10
29.53845491
 20
19.53796441
 30
0.00000000
 40
10.00000000
 50
250.21410904
 51
283.26728938
  0
LINE
  8
0
  6
CONTINUOUS
 62
10
 10
31.83339595
 20
9.80486390
 30
0.00000000
 11
32.64015260
 21
9.99508683
 31
0.00000000
  0
ARC
  8
0
  6
CONTINUOUS
 62
10
 10
33.32863491
 20
7.07515668
 30
0.00000000
 40
3.00000000
 50
56.05135810
 51
103.26728938
  0
LINE
  8
0
  6
CONTINUOUS
 62
10
 10
35.00398358
 20
9.56377212
 30
0.00000000
 11
35.95648863
 21
8.92254084
 31
0.00000000
   0
ENDSEC
   0
EOF
