   0
SECTION
   2
ENTITIES
  0
LINE
  8
0
  6
CONTINUOUS
 62
11
 10
-8.98157489
 20
-17.14623353
 30
0.00000000
 11
-8.40075743
 21
-16.70711025
 31
0.00000000
  0
LINE
  8
0
  6
CONTINUOUS
 62
10
 10
-8.40075743
 20
-16.70711025
 30
0.00000000
 11
-7.95989793
 21
-16.37380128
 31
0.00000000
  0
ARC
  8
0
  6
CONTINUOUS
 62
10
 10
-6.75373624
 20
-17.96916142
 30
0.00000000
 40
2.00000000
 50
111.06511113
 51
127.09086718
  0
ARC
  8
0
  6
CONTINUOUS
 62
10
 10
-6.89311385
 20
-18.01702716
 30
0.00000000
 40
2.00000000
 50
90.42090846
 51
106.84238096
  0
LINE
  8
0
  6
CONTINUOUS
 62
10
 10
-6.90780620
 20
-16.01708112
 30
0.00000000
 11
-6.92894494
 21
-16.01723642
 31
0.00000000
  0
ARC
  8
0
  6
CONTINUOUS
 62
10
 10
-6.92159877
 20
-17.01720943
 30
0.00000000
 40
1.00000000
 50
75.58916422
 51
90.42090846
  0
ARC
  8
0
  6
CONTINUOUS
 62
10
 10
-6.79979813
 20
-16.53230148
 30
0.00000000
 40
0.50004359
 50
28.18044166
 51
75.27839409
  0
LINE
  8
0
  6
CONTINUOUS
 62
10
 10
-6.35902735
 20
-16.29615594
 30
0.00000000
 11
-6.35345601
 21
-16.30655542
 31
0.00000000
  0
ARC
  8
0
  6
CONTINUOUS
 62
10
 10
-6.79419269
 20
-16.54267231
 30
0.00000000
 40
0.50000000
 50
359.48091604
 51
28.17939348
  0
LINE
  8
0
  6
CONTINUOUS
 62
10
 10
-6.29421321
 20
-16.54720211
 30
0.00000000
 11
-6.29576536
 21
-16.71852211
 31
0.00000000
  0
ARC
  8
0
  6
CONTINUOUS
 62
10
 10
-5.79578588
 20
-16.72305191
 30
0.00000000
 40
0.50000000
 50
179.48091604
 51
214.62861858
  0
LINE
  8
0
  6
CONTINUOUS
 62
10
 10
-6.20721220
 20
-17.00717932
 30
0.00000000
 11
-5.64546943
 21
-16.44583525
 31
0.00000000
  0
LINE
  8
0
  6
CONTINUOUS
 62
10
 10
-5.64546943
 20
-16.44583525
 30
0.00000000
 11
-4.86124600
 21
-15.73562746
 31
0.00000000
  0
ARC
  8
0
  6
CONTINUOUS
 62
10
 10
-4.52561467
 20
-16.10623724
 30
0.00000000
 40
0.50000000
 50
124.38492701
 51
132.16459242
  0
LINE
  8
0
  6
CONTINUOUS
 62
10
 10
-4.80798963
 20
-15.69360619
 30
0.00000000
 11
-4.45813948
 21
-15.45419396
 31
0.00000000
  0
ARC
  8
0
  6
CONTINUOUS
 62
10
 10
-4.17576452
 20
-15.86682501
 30
0.00000000
 40
0.50000000
 50
117.93415612
 51
124.38492701
  0
LINE
  8
0
  6
CONTINUOUS
 62
10
 10
-4.40999281
 20
-15.42508175
 30
0.00000000
 11
-4.37366558
 21
-15.40581973
 31
0.00000000
  0
ARC
  8
0
  6
CONTINUOUS
 62
10
 10
-3.43675242
 20
-17.17279278
 30
0.00000000
 40
2.00000000
 50
99.88297149
 51
117.93415612
  0
LINE
  8
0
  6
CONTINUOUS
 62
10
 10
-3.78002505
 20
-15.20247202
 30
0.00000000
 11
-3.68262156
 21
-15.18550221
 31
0.00000000
  0
ARC
  8
0
  6
CONTINUOUS
 62
10
 10
-3.33934893
 20
-17.15582297
 30
0.00000000
 40
2.00000000
 50
86.60755210
 51
99.88297149
  0
ARC
  8
0
  6
CONTINUOUS
 62
10
 10
-3.33500548
 20
-17.15630626
 30
0.00000000
 40
2.00023017
 50
70.11231516
 51
86.73256979
  0
LINE
  8
0
  6
CONTINUOUS
 62
10
 10
-2.65457231
 20
-15.27536728
 30
0.00000000
 11
-2.01946843
 21
-15.50512325
 31
0.00000000
  0
LINE
  8
0
  6
CONTINUOUS
 62
10
 10
-2.01946843
 20
-15.50512325
 30
0.00000000
 11
-1.52399905
 21
-15.67016253
 31
0.00000000
  0
ARC
  8
0
  6
CONTINUOUS
 62
10
 10
0.37215590
 20
-9.97765900
 30
0.00000000
 40
6.00000000
 50
251.57724704
 51
264.44628690
  0
LINE
  8
0
  6
CONTINUOUS
 62
10
 10
-0.20851729
 20
-15.94949445
 30
0.00000000
 11
0.05575400
 21
-15.97519095
 31
0.00000000
  0
ARC
  8
0
  6
CONTINUOUS
 62
10
 10
0.24931173
 20
-13.98457913
 30
0.00000000
 40
2.00000000
 50
264.44628690
 51
271.54702136
  0
LINE
  8
0
  6
CONTINUOUS
 62
10
 10
0.30330640
 20
-15.98385014
 30
0.00000000
 11
1.29589057
 21
-15.95704325
 31
0.00000000
  0
LINE
  8
0
  6
CONTINUOUS
 62
10
 10
1.29589057
 20
-15.95704325
 30
0.00000000
 11
1.35624225
 21
-15.95113061
 31
0.00000000
  0
ARC
  8
0
  6
CONTINUOUS
 62
10
 10
0.57621849
 20
-7.98924873
 30
0.00000000
 40
8.00000000
 50
275.59539840
 51
289.42726701
  0
ARC
  8
0
  6
CONTINUOUS
 62
10
 10
2.56631978
 20
-13.64766022
 30
0.00000000
 40
2.00183249
 50
289.57753859
 51
296.45037166
  0
LINE
  8
0
  6
CONTINUOUS
 62
10
 10
3.45798095
 20
-15.43994191
 30
0.00000000
 11
4.44793357
 21
-14.94740525
 31
0.00000000
  0
LINE
  8
0
  6
CONTINUOUS
 62
10
 10
4.44793357
 20
-14.94740525
 30
0.00000000
 11
3.75377168
 21
-15.57100711
 31
0.00000000
  0
ARC
  8
0
  6
CONTINUOUS
 62
10
 10
2.41719725
 20
-14.08320041
 30
0.00000000
 40
2.00000000
 50
289.32204809
 51
311.93500867
  0
LINE
  8
0
  6
CONTINUOUS
 62
10
 10
3.07895236
 20
-15.97054780
 30
0.00000000
 11
2.34624941
 21
-16.22745328
 31
0.00000000
  0
ARC
  8
0
  6
CONTINUOUS
 62
10
 10
0.79313268
 20
-10.43195258
 30
0.00000000
 40
6.00000000
 50
272.87632554
 51
285.00200153
  0
LINE
  8
0
  6
CONTINUOUS
 62
10
 10
1.09421429
 20
-16.42439364
 30
0.00000000
 11
0.21556759
 21
-16.46853998
 31
0.00000000
  0
ARC
  8
0
  6
CONTINUOUS
 62
10
 10
-0.08551401
 20
-10.47609892
 30
0.00000000
 40
6.00000000
 50
268.95909732
 51
272.87632554
  0
LINE
  8
0
  6
CONTINUOUS
 62
10
 10
-0.19451109
 20
-16.47510881
 30
0.00000000
 11
-0.29541128
 21
-16.47327554
 31
0.00000000
  0
ARC
  8
0
  6
CONTINUOUS
 62
10
 10
-0.40440835
 20
-22.47228542
 30
0.00000000
 40
6.00000000
 50
88.95909732
 51
113.51740791
  0
LINE
  8
0
  6
CONTINUOUS
 62
10
 10
-2.79857441
 20
-16.97065213
 30
0.00000000
 11
-3.09446343
 21
-17.09941525
 31
0.00000000
  0
LINE
  8
0
  6
CONTINUOUS
 62
10
 10
-3.09446343
 20
-17.09941525
 30
0.00000000
 11
-3.00450520
 21
-16.92650288
 31
0.00000000
  0
ARC
  8
0
  6
CONTINUOUS
 62
10
 10
-3.89163002
 20
-16.46497329
 30
0.00000000
 40
1.00000000
 50
332.51414712
 51
16.09598151
  0
ARC
  8
0
  6
CONTINUOUS
 62
10
 10
-3.16658124
 20
-16.27092470
 30
0.00000000
 40
0.25000000
 50
19.43849160
 51
64.81455499
  0
LINE
  8
0
  6
CONTINUOUS
 62
10
 10
-3.06019389
 20
-16.04469091
 30
0.00000000
 11
-3.13146803
 21
-16.01117396
 31
0.00000000
  0
ARC
  8
0
  6
CONTINUOUS
 62
10
 10
-3.55701745
 20
-16.91610914
 30
0.00000000
 40
1.00000000
 50
64.81455499
 51
89.31710611
  0
ARC
  8
0
  6
CONTINUOUS
 62
10
 10
-3.47323416
 20
-17.91488861
 30
0.00000000
 40
2.00000000
 50
92.05921898
 51
104.78117538
  0
ARC
  8
0
  6
CONTINUOUS
 62
10
 10
-3.72836225
 20
-16.94798135
 30
0.00000000
 40
1.00000000
 50
104.78117538
 51
188.92342228
  0
ARC
  8
0
  6
CONTINUOUS
 62
10
 10
-4.46928466
 20
-17.06431703
 30
0.00000000
 40
0.25000000
 50
188.92342228
 51
210.71732469
  0
LINE
  8
0
  6
CONTINUOUS
 62
10
 10
-4.68420912
 20
-17.19201776
 30
0.00000000
 11
-4.54273639
 21
-17.43012095
 31
0.00000000
  0
ARC
  8
0
  6
CONTINUOUS
 62
10
 10
-4.32781193
 20
-17.30242023
 30
0.00000000
 40
0.25000000
 50
210.71732469
 51
232.67755218
  0
ARC
  8
0
  6
CONTINUOUS
 62
10
 10
-3.87308699
 20
-16.70599318
 30
0.00000000
 40
1.00000000
 50
232.67755730
 51
264.29344528
  0
LINE
  8
0
  6
CONTINUOUS
 62
10
 10
-3.97252058
 20
-17.70103738
 30
0.00000000
 11
-3.83421343
 21
-17.71485825
 31
0.00000000
  0
LINE
  8
0
  6
CONTINUOUS
 62
10
 10
-3.83421343
 20
-17.71485825
 30
0.00000000
 11
-3.76624983
 21
-17.71485825
 31
0.00000000
  0
ARC
  8
0
  6
CONTINUOUS
 62
10
 10
-3.76624983
 20
-13.71485825
 30
0.00000000
 40
4.00000000
 50
270.00000000
 51
283.71292309
  0
LINE
  8
0
  6
CONTINUOUS
 62
10
 10
-2.81802074
 20
-17.60084095
 30
0.00000000
 11
-1.35841343
 21
-17.24467825
 31
0.00000000
  0
LINE
  8
0
  6
CONTINUOUS
 62
10
 10
-1.35841343
 20
-17.24467825
 30
0.00000000
 11
-0.84753743
 21
-17.12130416
 31
0.00000000
  0
ARC
  8
0
  6
CONTINUOUS
 62
10
 10
1.49993214
 20
-26.84186930
 30
0.00000000
 40
10.00000000
 50
93.77550655
 51
103.57670724
  0
LINE
  8
0
  6
CONTINUOUS
 62
10
 10
0.84145871
 20
-16.86357221
 30
0.00000000
 11
1.17339957
 21
-16.84166725
 31
0.00000000
  0
LINE
  8
0
  6
CONTINUOUS
 62
10
 10
1.17339957
 20
-16.84166725
 30
0.00000000
 11
1.29646714
 21
-16.84166725
 31
0.00000000
  0
ARC
  8
0
  6
CONTINUOUS
 62
10
 10
1.29646714
 20
-22.84166725
 30
0.00000000
 40
6.00000000
 50
71.12730789
 51
90.00000000
  0
LINE
  8
0
  6
CONTINUOUS
 62
10
 10
3.23726593
 20
-17.16422944
 30
0.00000000
 11
3.90860057
 21
-17.39372125
 31
0.00000000
  0
LINE
  8
0
  6
CONTINUOUS
 62
10
 10
3.90860057
 20
-17.39372125
 30
0.00000000
 11
2.74655933
 21
-17.29024692
 31
0.00000000
  0
ARC
  8
0
  6
CONTINUOUS
 62
10
 10
2.21439308
 20
-23.26660025
 30
0.00000000
 40
6.00000000
 50
84.91150007
 51
90.00000000
  0
LINE
  8
0
  6
CONTINUOUS
 62
10
 10
2.21439308
 20
-17.26660025
 30
0.00000000
 11
1.90450990
 21
-17.26660025
 31
0.00000000
  0
ARC
  8
0
  6
CONTINUOUS
 62
10
 10
1.90450990
 20
-20.26660025
 30
0.00000000
 40
3.00000000
 50
90.00000000
 51
108.84065376
  0
LINE
  8
0
  6
CONTINUOUS
 62
10
 10
0.93569799
 20
-17.42733916
 30
0.00000000
 11
0.82724857
 21
-17.46434425
 31
0.00000000
  0
LINE
  8
0
  6
CONTINUOUS
 62
10
 10
0.82724857
 20
-17.46434425
 30
0.00000000
 11
0.52829556
 21
-17.60889612
 31
0.00000000
  0
ARC
  8
0
  6
CONTINUOUS
 62
10
 10
0.74595059
 20
-18.05903642
 30
0.00000000
 40
0.50000000
 50
115.80502504
 51
258.87853106
  0
LINE
  8
0
  6
CONTINUOUS
 62
10
 10
0.64950577
 20
-18.54964665
 30
0.00000000
 11
0.83862387
 21
-18.58682374
 31
0.00000000
  0
ARC
  8
0
  6
CONTINUOUS
 62
10
 10
1.99596175
 20
-12.69950100
 30
0.00000000
 40
6.00000000
 50
258.87853106
 51
267.99188668
  0
LINE
  8
0
  6
CONTINUOUS
 62
10
 10
1.78571567
 20
-18.69581625
 30
0.00000000
 11
2.24978542
 21
-18.71208772
 31
0.00000000
  0
ARC
  8
0
  6
CONTINUOUS
 62
10
 10
2.46003151
 20
-12.71577247
 30
0.00000000
 40
6.00000000
 50
267.99188668
 51
280.73140740
  0
LINE
  8
0
  6
CONTINUOUS
 62
10
 10
3.57726282
 20
-18.61083771
 30
0.00000000
 11
3.61355916
 21
-18.60395884
 31
0.00000000
  0
ARC
  8
0
  6
CONTINUOUS
 62
10
 10
3.47390525
 20
-17.86707568
 30
0.00000000
 40
0.75000000
 50
280.73140740
 51
300.05096517
  0
LINE
  8
0
  6
CONTINUOUS
 62
10
 10
3.84948285
 20
-18.51626091
 30
0.00000000
 11
4.01389278
 21
-18.42114371
 31
0.00000000
  0
ARC
  8
0
  6
CONTINUOUS
 62
10
 10
3.63831517
 20
-17.77195848
 30
0.00000000
 40
0.75000000
 50
300.05096517
 51
52.87290039
  0
LINE
  8
0
  6
CONTINUOUS
 62
10
 10
4.09100404
 20
-17.17398457
 30
0.00000000
 11
4.06408157
 21
-17.15360325
 31
0.00000000
  0
LINE
  8
0
  6
CONTINUOUS
 62
10
 10
4.06408157
 20
-17.15360325
 30
0.00000000
 11
3.99442316
 21
-17.11785806
 31
0.00000000
  0
ARC
  8
0
  6
CONTINUOUS
 62
10
 10
2.62477781
 20
-19.78695372
 30
0.00000000
 40
3.00000000
 50
62.83539149
 51
82.11384485
  0
LINE
  8
0
  6
CONTINUOUS
 62
10
 10
3.03639340
 20
-16.81532578
 30
0.00000000
 11
2.11350157
 21
-16.68749125
 31
0.00000000
  0
LINE
  8
0
  6
CONTINUOUS
 62
10
 10
2.11350157
 20
-16.68749125
 30
0.00000000
 11
3.94237625
 21
-15.94586586
 31
0.00000000
  0
ARC
  8
0
  6
CONTINUOUS
 62
10
 10
5.06973924
 20
-18.72598325
 30
0.00000000
 40
3.00000000
 50
77.53347138
 51
112.07300351
  0
LINE
  8
0
  6
CONTINUOUS
 62
10
 10
5.71734695
 20
-15.79671641
 30
0.00000000
 11
7.39329932
 21
-16.16723905
 31
0.00000000
  0
ARC
  8
0
  6
CONTINUOUS
 62
10
 10
6.74569160
 20
-19.09650589
 30
0.00000000
 40
3.00000000
 50
75.42695529
 51
77.53347138
  0
LINE
  8
0
  6
CONTINUOUS
 62
10
 10
7.50053379
 20
-16.19302294
 30
0.00000000
 11
8.69198324
 21
-16.50277379
 31
0.00000000
  0
ARC
  8
0
  6
CONTINUOUS
 62
10
 10
9.44682543
 20
-13.59929083
 30
0.00000000
 40
3.00000000
 50
255.42695529
 51
260.21061841
  0
LINE
  8
0
  6
CONTINUOUS
 62
10
 10
8.93674481
 20
-16.55560911
 30
0.00000000
 11
10.25303926
 21
-16.78272143
 31
0.00000000
  0
ARC
  8
0
  6
CONTINUOUS
 62
10
 10
10.76311988
 20
-13.82640315
 30
0.00000000
 40
3.00000000
 50
260.21061841
 51
264.24145046
  0
LINE
  8
0
  6
CONTINUOUS
 62
10
 10
10.46211030
 20
-16.81126382
 30
0.00000000
 11
11.27589799
 21
-16.89333060
 31
0.00000000
  0
ARC
  8
0
  6
CONTINUOUS
 62
10
 10
11.57690757
 20
-13.90846993
 30
0.00000000
 40
3.00000000
 50
264.24145046
 51
275.40804172
  0
LINE
  8
0
  6
CONTINUOUS
 62
10
 10
11.85965170
 20
-16.89511616
 30
0.00000000
 11
12.28811253
 21
-16.85455402
 31
0.00000000
  0
ARC
  8
0
  6
CONTINUOUS
 62
10
 10
12.00536840
 20
-13.86790778
 30
0.00000000
 40
3.00000000
 50
275.40804172
 51
288.19640845
  0
LINE
  8
0
  6
CONTINUOUS
 62
10
 10
12.94219451
 20
-16.71788266
 30
0.00000000
 11
13.46691057
 21
-16.54540125
 31
0.00000000
  0
LINE
  8
0
  6
CONTINUOUS
 62
10
 10
13.46691057
 20
-16.54540125
 30
0.00000000
 11
13.26658554
 21
-16.69916484
 31
0.00000000
  0
ARC
  8
0
  6
CONTINUOUS
 62
10
 10
11.43993644
 20
-14.31938479
 30
0.00000000
 40
3.00000000
 50
280.75050689
 51
307.50878272
  0
LINE
  8
0
  6
CONTINUOUS
 62
10
 10
11.99953463
 20
-17.26673104
 30
0.00000000
 11
11.82712770
 21
-17.29946509
 31
0.00000000
  0
ARC
  8
0
  6
CONTINUOUS
 62
10
 10
11.26752951
 20
-14.35211885
 30
0.00000000
 40
3.00000000
 50
271.54705817
 51
280.75050689
  0
LINE
  8
0
  6
CONTINUOUS
 62
10
 10
11.34852345
 20
-17.35102532
 30
0.00000000
 11
10.91190257
 21
-17.36281750
 31
0.00000000
  0
ARC
  8
0
  6
CONTINUOUS
 62
10
 10
10.77691268
 20
-12.36464005
 30
0.00000000
 40
5.00000000
 50
258.87852032
 51
271.54705817
  0
LINE
  8
0
  6
CONTINUOUS
 62
10
 10
9.81246353
 20
-17.27074216
 30
0.00000000
 11
9.00207257
 21
-17.11143425
 31
0.00000000
  0
LINE
  8
0
  6
CONTINUOUS
 62
10
 10
9.00207257
 20
-17.11143425
 30
0.00000000
 11
8.12237244
 21
-16.93850107
 31
0.00000000
  0
ARC
  8
0
  6
CONTINUOUS
 62
10
 10
6.96503115
 20
-22.82582314
 30
0.00000000
 40
6.00000000
 50
78.87849788
 51
98.31543883
  0
LINE
  8
0
  6
CONTINUOUS
 62
10
 10
6.09729416
 20
-16.88890201
 30
0.00000000
 11
5.61170321
 21
-16.95987570
 31
0.00000000
  0
ARC
  8
0
  6
CONTINUOUS
 62
10
 10
5.68401463
 20
-17.45461913
 30
0.00000000
 40
0.50000000
 50
98.31543883
 51
265.17299190
  0
LINE
  8
0
  6
CONTINUOUS
 62
10
 10
5.64194084
 20
-17.95284578
 30
0.00000000
 11
6.75626924
 21
-18.04694755
 31
0.00000000
  0
ARC
  8
0
  6
CONTINUOUS
 62
10
 10
6.92456436
 20
-16.05404094
 30
0.00000000
 40
2.00000000
 50
265.17299190
 51
273.91551555
  0
LINE
  8
0
  6
CONTINUOUS
 62
10
 10
7.06113528
 20
-18.04937259
 30
0.00000000
 11
7.31254637
 21
-18.03216470
 31
0.00000000
  0
ARC
  8
0
  6
CONTINUOUS
 62
10
 10
7.17597546
 20
-16.03683305
 30
0.00000000
 40
2.00000000
 50
273.91551555
 51
290.98510369
  0
LINE
  8
0
  6
CONTINUOUS
 62
10
 10
7.89222589
 20
-17.90418019
 30
0.00000000
 11
8.56588857
 21
-17.64578625
 31
0.00000000
  0
LINE
  8
0
  6
CONTINUOUS
 62
10
 10
8.56588857
 20
-17.64578625
 30
0.00000000
 11
6.84988149
 21
-18.67287342
 31
0.00000000
  0
ARC
  8
0
  6
CONTINUOUS
 62
10
 10
5.82274147
 20
-16.95677803
 30
0.00000000
 40
2.00000000
 50
291.97364420
 51
300.90192043
  0
LINE
  8
0
  6
CONTINUOUS
 62
10
 10
6.57110157
 20
-18.81149018
 30
0.00000000
 11
5.93661004
 21
-19.06750196
 31
0.00000000
  0
ARC
  8
0
  6
CONTINUOUS
 62
10
 10
5.18824994
 20
-17.21278981
 30
0.00000000
 40
2.00000000
 50
285.59341757
 51
291.97364420
  0
LINE
  8
0
  6
CONTINUOUS
 62
10
 10
5.72586827
 20
-19.13917672
 30
0.00000000
 11
5.19212436
 21
-19.28813460
 31
0.00000000
  0
ARC
  8
0
  6
CONTINUOUS
 62
10
 10
3.57926937
 20
-13.50897387
 30
0.00000000
 40
6.00000000
 50
274.62084623
 51
285.59341757
  0
LINE
  8
0
  6
CONTINUOUS
 62
10
 10
4.06263886
 20
-19.48947166
 30
0.00000000
 11
3.39380218
 21
-19.54352991
 31
0.00000000
  0
ARC
  8
0
  6
CONTINUOUS
 62
10
 10
2.91043269
 20
-13.56303212
 30
0.00000000
 40
6.00000000
 50
270.36237580
 51
274.62084623
  0
LINE
  8
0
  6
CONTINUOUS
 62
10
 10
2.94838034
 20
-19.56291211
 30
0.00000000
 11
2.30202513
 21
-19.56700014
 31
0.00000000
  0
ARC
  8
0
  6
CONTINUOUS
 62
10
 10
2.26407747
 20
-13.56712014
 30
0.00000000
 40
6.00000000
 50
254.54923296
 51
270.36237580
  0
LINE
  8
0
  6
CONTINUOUS
 62
10
 10
0.66561596
 20
-19.35027852
 30
0.00000000
 11
0.45578457
 21
-19.29228125
 31
0.00000000
  0
LINE
  8
0
  6
CONTINUOUS
 62
10
 10
0.45578457
 20
-19.29228125
 30
0.00000000
 11
-1.25740380
 21
-18.78259727
 31
0.00000000
  0
ARC
  8
0
  6
CONTINUOUS
 62
10
 10
-2.96832860
 20
-24.53348732
 30
0.00000000
 40
6.00000000
 50
73.43193788
 51
81.41011034
  0
LINE
  8
0
  6
CONTINUOUS
 62
10
 10
-2.07216340
 20
-18.60079081
 30
0.00000000
 11
-1.99795478
 21
-18.61200041
 31
0.00000000
  0
ARC
  8
0
  6
CONTINUOUS
 62
10
 10
-2.89411997
 20
-24.54469693
 30
0.00000000
 40
6.00000000
 50
81.41011034
 51
90.69998053
  0
LINE
  8
0
  6
CONTINUOUS
 62
10
 10
-2.96741994
 20
-18.54514468
 30
0.00000000
 11
-3.50372362
 21
-18.55169701
 31
0.00000000
  0
ARC
  8
0
  6
CONTINUOUS
 62
10
 10
-3.43042365
 20
-24.55124926
 30
0.00000000
 40
6.00000000
 50
90.69998053
 51
106.77140574
  0
LINE
  8
0
  6
CONTINUOUS
 62
10
 10
-5.16174763
 20
-18.80646751
 30
0.00000000
 11
-5.34742343
 21
-18.86242525
 31
0.00000000
  0
LINE
  8
0
  6
CONTINUOUS
 62
10
 10
-5.34742343
 20
-18.86242525
 30
0.00000000
 11
-6.84873446
 21
-19.34052499
 31
0.00000000
  0
ARC
  8
0
  6
CONTINUOUS
 62
10
 10
-8.66937368
 20
-13.62342145
 30
0.00000000
 40
6.00000000
 50
273.02391833
 51
287.66432730
  0
LINE
  8
0
  6
CONTINUOUS
 62
10
 10
-8.35285668
 20
-19.61506705
 30
0.00000000
 11
-8.87371743
 21
-19.64258225
 31
0.00000000
  0
LINE
  8
0
  6
CONTINUOUS
 62
10
 10
-8.87371743
 20
-19.64258225
 30
0.00000000
 11
-8.25599112
 21
-19.99579968
 31
0.00000000
  0
ARC
  8
0
  6
CONTINUOUS
 62
10
 10
-5.27768948
 20
-14.78717996
 30
0.00000000
 40
6.00000000
 50
240.23897157
 51
266.90740890
  0
LINE
  8
0
  6
CONTINUOUS
 62
10
 10
-5.60138763
 20
-20.77844189
 30
0.00000000
 11
-5.43194792
 21
-20.78759645
 31
0.00000000
  0
ARC
  8
0
  6
CONTINUOUS
 62
10
 10
-5.32404854
 20
-18.79050914
 30
0.00000000
 40
2.00000000
 50
266.90740890
 51
287.24736400
  0
LINE
  8
0
  6
CONTINUOUS
 62
10
 10
-4.73105326
 20
-20.70057631
 30
0.00000000
 11
-4.79792858
 21
-20.72133827
 31
0.00000000
  0
ARC
  8
0
  6
CONTINUOUS
 62
10
 10
-5.39092385
 20
-18.81127110
 30
0.00000000
 40
2.00000000
 50
287.24736400
 51
305.75086794
  0
LINE
  8
0
  6
CONTINUOUS
 62
10
 10
-4.22239993
 20
-20.43440136
 30
0.00000000
 11
-3.79001433
 21
-20.12311833
 31
0.00000000
  0
ARC
  8
0
  6
CONTINUOUS
 62
10
 10
-3.93607982
 20
-19.92022704
 30
0.00000000
 40
0.25000000
 50
305.75086794
 51
87.79897252
  0
LINE
  8
0
  6
CONTINUOUS
 62
10
 10
-3.92647839
 20
-19.67041149
 30
0.00000000
 11
-5.31871243
 21
-19.61690225
 31
0.00000000
  0
LINE
  8
0
  6
CONTINUOUS
 62
10
 10
-5.31871243
 20
-19.61690225
 30
0.00000000
 11
-5.23727098
 21
-19.56657289
 31
0.00000000
  0
ARC
  8
0
  6
CONTINUOUS
 62
10
 10
-2.60877513
 20
-23.81992564
 30
0.00000000
 40
5.00000000
 50
101.44663950
 51
121.71532285
  0
LINE
  8
0
  6
CONTINUOUS
 62
10
 10
-3.60105127
 20
-18.91937586
 30
0.00000000
 11
-3.50822639
 21
-18.91212001
 31
0.00000000
  0
LINE
  8
0
  6
CONTINUOUS
 62
10
 10
-3.50822639
 20
-18.91212001
 30
0.00000000
 11
-2.71914877
 21
-18.93235707
 31
0.00000000
  0
ARC
  8
0
  6
CONTINUOUS
 62
10
 10
-2.84733903
 20
-23.93071353
 30
0.00000000
 40
5.00000000
 50
78.27014069
 51
88.53088687
  0
LINE
  8
0
  6
CONTINUOUS
 62
10
 10
-1.83085111
 20
-19.03512854
 30
0.00000000
 11
-1.00865088
 21
-19.20584494
 31
0.00000000
  0
ARC
  8
0
  6
CONTINUOUS
 62
10
 10
-2.22843638
 20
-25.08054691
 30
0.00000000
 40
6.00000000
 50
71.57726878
 51
78.27014069
  0
LINE
  8
0
  6
CONTINUOUS
 62
10
 10
-0.33228359
 20
-19.38804267
 30
0.00000000
 11
0.50345811
 21
-19.66642524
 31
0.00000000
  0
ARC
  8
0
  6
CONTINUOUS
 62
10
 10
2.39961090
 20
-13.97392099
 30
0.00000000
 40
6.00000000
 50
251.57726878
 51
267.71101050
  0
LINE
  8
0
  6
CONTINUOUS
 62
10
 10
2.15997224
 20
-19.96913352
 30
0.00000000
 11
2.92415657
 21
-19.99967925
 31
0.00000000
  0
LINE
  8
0
  6
CONTINUOUS
 62
10
 10
2.92415657
 20
-19.99967925
 30
0.00000000
 11
3.83549422
 21
-19.95831905
 31
0.00000000
  0
ARC
  8
0
  6
CONTINUOUS
 62
10
 10
3.56346988
 20
-13.96448865
 30
0.00000000
 40
6.00000000
 50
272.59853182
 51
285.94795393
  0
LINE
  8
0
  6
CONTINUOUS
 62
10
 10
5.21205422
 20
-19.73355874
 30
0.00000000
 11
5.40073357
 21
-19.67964125
 31
0.00000000
  0
LINE
  8
0
  6
CONTINUOUS
 62
10
 10
5.40073357
 20
-19.67964125
 30
0.00000000
 11
4.97151756
 21
-19.87592264
 31
0.00000000
  0
ARC
  8
0
  6
CONTINUOUS
 62
10
 10
2.47624023
 20
-14.41940442
 30
0.00000000
 40
6.00000000
 50
274.05070754
 51
294.57471846
  0
LINE
  8
0
  6
CONTINUOUS
 62
10
 10
2.90007606
 20
-20.40441596
 30
0.00000000
 11
2.71920231
 21
-20.41722476
 31
0.00000000
  0
ARC
  8
0
  6
CONTINUOUS
 62
10
 10
2.29536649
 20
-14.43221321
 30
0.00000000
 40
6.00000000
 50
259.40472655
 51
274.05070754
  0
LINE
  8
0
  6
CONTINUOUS
 62
10
 10
1.19214491
 20
-20.32991634
 30
0.00000000
 11
0.32480557
 21
-20.16767225
 31
0.00000000
  0
LINE
  8
0
  6
CONTINUOUS
 62
10
 10
0.32480557
 20
-20.16767225
 30
0.00000000
 11
-1.06415888
 21
-19.90785360
 31
0.00000000
  0
ARC
  8
0
  6
CONTINUOUS
 62
10
 10
-1.15609387
 20
-20.39932888
 30
0.00000000
 40
0.50000000
 50
79.40474214
 51
257.01433375
  0
LINE
  8
0
  6
CONTINUOUS
 62
10
 10
-1.26844752
 20
-20.88654204
 30
0.00000000
 11
-1.17777443
 21
-20.90745168
 31
0.00000000
  0
ARC
  8
0
  6
CONTINUOUS
 62
10
 10
-0.95306714
 20
-19.93302537
 30
0.00000000
 40
1.00000000
 50
257.01433375
 51
279.51801686
  0
LINE
  8
0
  6
CONTINUOUS
 62
10
 10
-0.78770940
 20
-20.91925902
 30
0.00000000
 11
0.70673757
 21
-20.66869125
 31
0.00000000
  0
LINE
  8
0
  6
CONTINUOUS
 62
10
 10
0.70673757
 20
-20.66869125
 30
0.00000000
 11
-0.86932902
 21
-21.43488170
 31
0.00000000
  0
ARC
  8
0
  6
CONTINUOUS
 62
10
 10
-3.49261534
 20
-16.03873781
 30
0.00000000
 40
6.00000000
 50
276.10327371
 51
295.92628264
  0
LINE
  8
0
  6
CONTINUOUS
 62
10
 10
-2.85469003
 20
-22.00472903
 30
0.00000000
 11
-2.89001331
 21
-22.00850604
 31
0.00000000
  0
ARC
  8
0
  6
CONTINUOUS
 62
10
 10
-3.52793862
 20
-16.04251482
 30
0.00000000
 40
6.00000000
 50
255.24958084
 51
276.10327371
  0
LINE
  8
0
  6
CONTINUOUS
 62
10
 10
-5.05559275
 20
-21.84477927
 30
0.00000000
 11
-5.53205036
 21
-21.71933473
 31
0.00000000
  0
ARC
  8
0
  6
CONTINUOUS
 62
10
 10
-7.05970450
 20
-27.52159919
 30
0.00000000
 40
6.00000000
 50
75.24958084
 51
82.00713100
  0
LINE
  8
0
  6
CONTINUOUS
 62
10
 10
-6.22540539
 20
-21.57988689
 30
0.00000000
 11
-7.40317727
 21
-21.41451132
 31
0.00000000
  0
ARC
  8
0
  6
CONTINUOUS
 62
10
 10
-8.79367579
 20
-31.31736515
 30
0.00000000
 40
10.00000000
 50
82.00713100
 51
99.40398292
  0
LINE
  8
0
  6
CONTINUOUS
 62
10
 10
-10.42762123
 20
-21.45175709
 30
0.00000000
 11
-11.70237650
 21
-21.66288236
 31
0.00000000
  0
ARC
  8
0
  6
CONTINUOUS
 62
10
 10
-16.69447557
 20
-21.38190751
 30
0.00000000
 40
5.00000000
 50
356.77856833
 51
0.00000000
  0
ARC
  8
0
  6
CONTINUOUS
 62
10
 10
-16.69447557
 20
-21.38190751
 30
0.00000000
 40
5.00000000
 50
0.00000000
 51
114.14286021
  0
LINE
  8
0
  6
CONTINUOUS
 62
10
 10
-18.73954154
 20
-16.81926516
 30
0.00000000
 11
-18.74606026
 21
-16.83436837
 31
0.00000000
  0
ARC
  8
0
  6
CONTINUOUS
 62
10
 10
-17.82792860
 20
-17.23064385
 30
0.00000000
 40
1.00000000
 50
116.69650086
 51
156.65445364
  0
LINE
  8
0
  6
CONTINUOUS
 62
10
 10
-18.27719304
 20
-16.33724503
 30
0.00000000
 11
-18.19385761
 21
-16.29533804
 31
0.00000000
  0
ARC
  8
0
  6
CONTINUOUS
 62
10
 10
-16.84606429
 20
-18.97553453
 30
0.00000000
 40
3.00000000
 50
96.42421805
 51
116.69650086
  0
LINE
  8
0
  6
CONTINUOUS
 62
10
 10
-17.18173121
 20
-15.99437238
 30
0.00000000
 11
-16.82152490
 21
-15.95381460
 31
0.00000000
  0
ARC
  8
0
  6
CONTINUOUS
 62
10
 10
-16.48585799
 20
-18.93497674
 30
0.00000000
 40
3.00000000
 50
89.07768058
 51
96.42421805
  0
LINE
  8
0
  6
CONTINUOUS
 62
10
 10
-16.43756754
 20
-15.93536543
 30
0.00000000
 11
-13.72724740
 21
-15.97899860
 31
0.00000000
  0
ARC
  8
0
  6
CONTINUOUS
 62
10
 10
-13.56627924
 20
-5.98029422
 30
0.00000000
 40
10.00000000
 50
269.07768058
 51
286.75132389
  0
LINE
  8
0
  6
CONTINUOUS
 62
10
 10
-10.68409530
 20
-15.55594124
 30
0.00000000
 11
-10.09286843
 21
-15.37798725
 31
0.00000000
  0
LINE
  8
0
  6
CONTINUOUS
 62
10
 10
-10.09286843
 20
-15.37798725
 30
0.00000000
 11
-8.32977067
 21
-14.77064683
 31
0.00000000
  0
ARC
  8
0
  6
CONTINUOUS
 62
10
 10
-8.00407923
 20
-15.71612294
 30
0.00000000
 40
1.00000000
 50
104.23589694
 51
109.00747127
  0
LINE
  8
0
  6
CONTINUOUS
 62
10
 10
-8.24999394
 20
-14.74683147
 30
0.00000000
 11
-7.30431826
 21
-14.50690822
 31
0.00000000
  0
ARC
  8
0
  6
CONTINUOUS
 62
10
 10
-6.56657412
 20
-17.41478263
 30
0.00000000
 40
3.00000000
 50
97.65232066
 51
104.23589694
  0
LINE
  8
0
  6
CONTINUOUS
 62
10
 10
-6.96605856
 20
-14.44149956
 30
0.00000000
 11
-5.71485443
 21
-14.27339025
 31
0.00000000
  0
LINE
  8
0
  6
CONTINUOUS
 62
10
 10
-5.71485443
 20
-14.27339025
 30
0.00000000
 11
-5.04058849
 21
-14.19779773
 31
0.00000000
  0
ARC
  8
0
  6
CONTINUOUS
 62
10
 10
-5.70906561
 20
-8.23515248
 30
0.00000000
 40
6.00000000
 50
276.39676671
 51
284.35599737
  0
LINE
  8
0
  6
CONTINUOUS
 62
10
 10
-4.22138990
 20
-14.04779569
 30
0.00000000
 11
-3.89647343
 21
-13.96463725
 31
0.00000000
  0
LINE
  8
0
  6
CONTINUOUS
 62
10
 10
-3.89647343
 20
-13.96463725
 30
0.00000000
 11
-3.57032855
 21
-13.86021838
 31
0.00000000
  0
ARC
  8
0
  6
CONTINUOUS
 62
10
 10
-5.39981740
 20
-8.14594060
 30
0.00000000
 40
6.00000000
 50
287.75303864
 51
298.37661073
  0
LINE
  8
0
  6
CONTINUOUS
 62
10
 10
-2.54822692
 20
-13.42499655
 30
0.00000000
 11
-1.50809743
 21
-12.86314925
 31
0.00000000
  0
LINE
  8
0
  6
CONTINUOUS
 62
10
 10
-1.50809743
 20
-12.86314925
 30
0.00000000
 11
-2.08351965
 21
-13.40553787
 31
0.00000000
  0
ARC
  8
0
  6
CONTINUOUS
 62
10
 10
-6.19898493
 20
-9.03942454
 30
0.00000000
 40
6.00000000
 50
297.83076484
 51
313.30728476
  0
LINE
  8
0
  6
CONTINUOUS
 62
10
 10
-3.39781564
 20
-14.34540707
 30
0.00000000
 11
-3.55541743
 21
-14.42860925
 31
0.00000000
  0
LINE
  8
0
  6
CONTINUOUS
 62
10
 10
-3.55541743
 20
-14.42860925
 30
0.00000000
 11
-3.59742187
 21
-14.44844820
 31
0.00000000
  0
ARC
  8
0
  6
CONTINUOUS
 62
10
 10
-6.15983150
 20
-9.02313190
 30
0.00000000
 40
6.00000000
 50
282.73655214
 51
295.28164860
  0
LINE
  8
0
  6
CONTINUOUS
 62
10
 10
-4.83702046
 20
-14.87549646
 30
0.00000000
 11
-4.98256643
 21
-14.90839425
 31
0.00000000
  0
LINE
  8
0
  6
CONTINUOUS
 62
10
 10
-4.98256643
 20
-14.90839425
 30
0.00000000
 11
-6.02492843
 21
-15.08668925
 31
0.00000000
  0
LINE
  8
0
  6
CONTINUOUS
 62
10
 10
-6.02492843
 20
-15.08668925
 30
0.00000000
 11
-6.67748212
 21
-15.20989410
 31
0.00000000
  0
ARC
  8
0
  6
CONTINUOUS
 62
10
 10
-5.90718260
 20
-21.16024188
 30
0.00000000
 40
6.00000000
 50
97.37617666
 51
120.29679331
  0
ARC
  8
0
  6
CONTINUOUS
 62
10
 10
-8.42957910
 20
-16.84312295
 30
0.00000000
 40
1.00000000
 50
120.29679331
 51
134.25440991
  0
LINE
  8
0
  6
CONTINUOUS
 62
10
 10
-9.12742469
 20
-16.12687471
 30
0.00000000
 11
-9.19881744
 21
-16.19643316
 31
0.00000000
  0
ARC
  8
0
  6
CONTINUOUS
 62
10
 10
-8.50097185
 20
-16.91268140
 30
0.00000000
 40
1.00000000
 50
134.25440991
 51
150.69124644
  0
LINE
  8
0
  6
CONTINUOUS
 62
10
 10
-9.37296635
 20
-16.42316572
 30
0.00000000
 11
-9.42949839
 21
-16.52386858
 31
0.00000000
  0
ARC
  8
0
  6
CONTINUOUS
 62
10
 10
-8.55750390
 20
-17.01338426
 30
0.00000000
 40
1.00000000
 50
150.69124644
 51
171.24409909
  0
LINE
  8
0
  6
CONTINUOUS
 62
10
 10
-9.54584974
 20
-16.86115908
 30
0.00000000
 11
-9.58253318
 21
-17.09933206
 31
0.00000000
  0
ARC
  8
0
  6
CONTINUOUS
 62
10
 10
-8.59418734
 20
-17.25155724
 30
0.00000000
 40
1.00000000
 50
171.24409909
 51
185.56832367
  0
LINE
  8
0
  6
CONTINUOUS
 62
10
 10
-9.58946853
 20
-17.34858991
 30
0.00000000
 11
-9.57499021
 21
-17.49709664
 31
0.00000000
  0
ARC
  8
0
  6
CONTINUOUS
 62
10
 10
-8.57970901
 20
-17.40006397
 30
0.00000000
 40
1.00000000
 50
185.56832367
 51
201.47037061
  0
ARC
  8
0
  6
CONTINUOUS
 62
10
 10
-8.63138402
 20
-17.28913683
 30
0.00000000
 40
1.00000000
 50
208.48620609
 51
232.39339134
  0
LINE
  8
0
  6
CONTINUOUS
 62
10
 10
-9.24162057
 20
-18.08135609
 30
0.00000000
 11
-9.21522243
 21
-18.10169025
 31
0.00000000
  0
LINE
  8
0
  6
CONTINUOUS
 62
10
 10
-9.21522243
 20
-18.10169025
 30
0.00000000
 11
-9.07977813
 21
-18.19278985
 31
0.00000000
  0
ARC
  8
0
  6
CONTINUOUS
 62
10
 10
-8.52167513
 20
-17.36301817
 30
0.00000000
 40
1.00000000
 50
236.07529081
 51
250.15780437
  0
LINE
  8
0
  6
CONTINUOUS
 62
10
 10
-8.86110587
 20
-18.30364922
 30
0.00000000
 11
-8.90633800
 21
-18.28732701
 31
0.00000000
  0
ARC
  8
0
  6
CONTINUOUS
 62
10
 10
-8.22747652
 20
-16.40606491
 30
0.00000000
 40
2.00000000
 50
250.15780437
 51
265.29010151
  0
ARC
  8
0
  6
CONTINUOUS
 62
10
 10
-8.26334860
 20
-16.40343398
 30
0.00000000
 40
2.00000000
 50
266.32053500
 51
273.06781775
  0
ARC
  8
0
  6
CONTINUOUS
 62
10
 10
-8.20983066
 20
-17.40200087
 30
0.00000000
 40
1.00000000
 50
273.06781775
 51
314.92283915
  0
ARC
  8
0
  6
CONTINUOUS
 62
10
 10
-7.68021525
 20
-17.93304467
 30
0.00000000
 40
0.25000000
 50
314.92283915
 51
330.46980101
  0
ARC
  8
0
  6
CONTINUOUS
 62
10
 10
-9.25251749
 20
-17.16378440
 30
0.00000000
 40
2.00000000
 50
333.49727251
 51
347.78914000
  0
LINE
  8
0
  6
CONTINUOUS
 62
10
 10
-7.29776584
 20
-17.58680451
 30
0.00000000
 11
-7.29011111
 21
-17.46145668
 31
0.00000000
  0
ARC
  8
0
  6
CONTINUOUS
 62
10
 10
-8.28967331
 20
-17.43186943
 30
0.00000000
 40
1.00000000
 50
358.30452815
 51
32.90940781
  0
ARC
  8
0
  6
CONTINUOUS
 62
10
 10
-7.86990798
 20
-17.16021328
 30
0.00000000
 40
0.50000000
 50
32.90940781
 51
51.60184803
  0
LINE
  8
0
  6
CONTINUOUS
 62
10
 10
-7.55934672
 20
-16.76835653
 30
0.00000000
 11
-7.64194514
 21
-16.70289417
 31
0.00000000
  0
ARC
  8
0
  6
CONTINUOUS
 62
10
 10
-7.95250640
 20
-17.09475092
 30
0.00000000
 40
0.50000000
 50
51.60184803
 51
87.61568361
  0
LINE
  8
0
  6
CONTINUOUS
 62
10
 10
-7.93170531
 20
-16.59518379
 30
0.00000000
 11
-7.97060308
 21
-16.59356415
 31
0.00000000
  0
LINE
  8
0
  6
CONTINUOUS
 62
10
 10
-7.97060308
 20
-16.59356415
 30
0.00000000
 11
-8.00915138
 21
-16.59840792
 31
0.00000000
  0
LINE
  8
0
  6
CONTINUOUS
 62
10
 10
-8.00915138
 20
-16.59840792
 30
0.00000000
 11
-8.40075743
 21
-16.70711025
 31
0.00000000
  0
LINE
  8
0
  6
CONTINUOUS
 62
11
 10
-8.40075743
 20
-16.70711025
 30
0.00000000
 11
-8.45842919
 21
-16.72366221
 31
0.00000000
   0
ENDSEC
   0
EOF
