  0
SECTION
  2
HEADER
  9
$ACADVER
  1
AC1015
  9
$ACADMAINTVER
 70
     6
  9
$DWGCODEPAGE
  3
ANSI_1252
  9
$INSBASE
 10
0.0
 20
0.0
 30
0.0
  9
$EXTMIN
 10
-23.9999730247
 20
-23.8458452244
 30
0.0
  9
$EXTMAX
 10
23.9999730243
 20
23.845845
 30
0.0
  9
$LIMMIN
 10
0.0
 20
0.0
  9
$LIMMAX
 10
420.0
 20
297.0
  9
$ORTHOMODE
 70
     0
  9
$REGENMODE
 70
     1
  9
$FILLMODE
 70
     1
  9
$QTEXTMODE
 70
     0
  9
$MIRRTEXT
 70
     1
  9
$LTSCALE
 40
1.0
  9
$ATTMODE
 70
     1
  9
$TEXTSIZE
 40
3.5
  9
$TRACEWID
 40
1.0
  9
$TEXTSTYLE
  7
Standard
  9
$CLAYER
  8
0
  9
$CELTYPE
  6
ByLayer
  9
$CECOLOR
 62
   256
  9
$CELTSCALE
 40
1.0
  9
$DISPSILH
 70
     0
  9
$DIMSCALE
 40
1.0
  9
$DIMASZ
 40
3.302
  9
$DIMEXO
 40
0.0
  9
$DIMDLI
 40
3.75
  9
$DIMRND
 40
0.0
  9
$DIMDLE
 40
0.0
  9
$DIMEXE
 40
3.175
  9
$DIMTP
 40
0.0
  9
$DIMTM
 40
0.0
  9
$DIMTXT
 40
3.5
  9
$DIMCEN
 40
2.5
  9
$DIMTSZ
 40
0.0
  9
$DIMTOL
 70
     0
  9
$DIMLIM
 70
     0
  9
$DIMTIH
 70
     1
  9
$DIMTOH
 70
     1
  9
$DIMSE1
 70
     0
  9
$DIMSE2
 70
     0
  9
$DIMTAD
 70
     1
  9
$DIMZIN
 70
     1
  9
$DIMBLK
  1

  9
$DIMASO
 70
     1
  9
$DIMSHO
 70
     1
  9
$DIMPOST
  1

  9
$DIMAPOST
  1

  9
$DIMALT
 70
     0
  9
$DIMALTD
 70
     3
  9
$DIMALTF
 40
0.0393700787
  9
$DIMLFAC
 40
1.0
  9
$DIMTOFL
 70
     1
  9
$DIMTVP
 40
0.0
  9
$DIMTIX
 70
     0
  9
$DIMSOXD
 70
     0
  9
$DIMSAH
 70
     0
  9
$DIMBLK1
  1

  9
$DIMBLK2
  1

  9
$DIMSTYLE
  2
ISO-25
  9
$DIMCLRD
 70
     0
  9
$DIMCLRE
 70
     0
  9
$DIMCLRT
 70
     0
  9
$DIMTFAC
 40
1.0
  9
$DIMGAP
 40
1.524
  9
$DIMJUST
 70
     0
  9
$DIMSD1
 70
     0
  9
$DIMSD2
 70
     0
  9
$DIMTOLJ
 70
     0
  9
$DIMTZIN
 70
     1
  9
$DIMALTZ
 70
     0
  9
$DIMALTTZ
 70
     0
  9
$DIMUPT
 70
     0
  9
$DIMDEC
 70
     2
  9
$DIMTDEC
 70
     2
  9
$DIMALTU
 70
     2
  9
$DIMALTTD
 70
     3
  9
$DIMTXSTY
  7
Standard
  9
$DIMAUNIT
 70
     0
  9
$DIMADEC
 70
     4
  9
$DIMALTRND
 40
0.0
  9
$DIMAZIN
 70
     0
  9
$DIMDSEP
 70
    44
  9
$DIMATFIT
 70
     3
  9
$DIMFRAC
 70
     0
  9
$DIMLDRBLK
  1

  9
$DIMLUNIT
 70
     2
  9
$DIMLWD
 70
    -2
  9
$DIMLWE
 70
    -2
  9
$DIMTMOVE
 70
     0
  9
$LUNITS
 70
     2
  9
$LUPREC
 70
     2
  9
$SKETCHINC
 40
1.0
  9
$FILLETRAD
 40
0.0
  9
$AUNITS
 70
     0
  9
$AUPREC
 70
     4
  9
$MENU
  1
.
  9
$ELEVATION
 40
0.0
  9
$PELEVATION
 40
0.0
  9
$THICKNESS
 40
0.0
  9
$LIMCHECK
 70
     0
  9
$CHAMFERA
 40
0.0
  9
$CHAMFERB
 40
0.0
  9
$CHAMFERC
 40
0.0
  9
$CHAMFERD
 40
0.0
  9
$SKPOLY
 70
     0
  9
$TDCREATE
 40
2460865.760018831
  9
$TDUCREATE
 40
2460866.051685498
  9
$TDUPDATE
 40
2460865.760043634
  9
$TDUUPDATE
 40
2460866.051710301
  9
$TDINDWG
 40
0.0000000116
  9
$TDUSRTIMER
 40
0.0000000116
  9
$USRTIMER
 70
     1
  9
$ANGBASE
 50
0.0
  9
$ANGDIR
 70
     0
  9
$PDMODE
 70
     0
  9
$PDSIZE
 40
-1.0
  9
$PLINEWID
 40
0.0
  9
$SPLFRAME
 70
     0
  9
$SPLINETYPE
 70
     6
  9
$SPLINESEGS
 70
     8
  9
$HANDSEED
  5
441
  9
$SURFTAB1
 70
     6
  9
$SURFTAB2
 70
     6
  9
$SURFTYPE
 70
     6
  9
$SURFU
 70
     6
  9
$SURFV
 70
     6
  9
$UCSBASE
  2

  9
$UCSNAME
  2

  9
$UCSORG
 10
0.0
 20
0.0
 30
0.0
  9
$UCSXDIR
 10
1.0
 20
0.0
 30
0.0
  9
$UCSYDIR
 10
0.0
 20
1.0
 30
0.0
  9
$UCSORTHOREF
  2

  9
$UCSORTHOVIEW
 70
     0
  9
$UCSORGTOP
 10
0.0
 20
0.0
 30
0.0
  9
$UCSORGBOTTOM
 10
0.0
 20
0.0
 30
0.0
  9
$UCSORGLEFT
 10
0.0
 20
0.0
 30
0.0
  9
$UCSORGRIGHT
 10
0.0
 20
0.0
 30
0.0
  9
$UCSORGFRONT
 10
0.0
 20
0.0
 30
0.0
  9
$UCSORGBACK
 10
0.0
 20
0.0
 30
0.0
  9
$PUCSBASE
  2

  9
$PUCSNAME
  2

  9
$PUCSORG
 10
0.0
 20
0.0
 30
0.0
  9
$PUCSXDIR
 10
1.0
 20
0.0
 30
0.0
  9
$PUCSYDIR
 10
0.0
 20
1.0
 30
0.0
  9
$PUCSORTHOREF
  2

  9
$PUCSORTHOVIEW
 70
     0
  9
$PUCSORGTOP
 10
0.0
 20
0.0
 30
0.0
  9
$PUCSORGBOTTOM
 10
0.0
 20
0.0
 30
0.0
  9
$PUCSORGLEFT
 10
0.0
 20
0.0
 30
0.0
  9
$PUCSORGRIGHT
 10
0.0
 20
0.0
 30
0.0
  9
$PUCSORGFRONT
 10
0.0
 20
0.0
 30
0.0
  9
$PUCSORGBACK
 10
0.0
 20
0.0
 30
0.0
  9
$USERI1
 70
     0
  9
$USERI2
 70
     0
  9
$USERI3
 70
     0
  9
$USERI4
 70
     0
  9
$USERI5
 70
     0
  9
$USERR1
 40
0.0
  9
$USERR2
 40
0.0
  9
$USERR3
 40
0.0
  9
$USERR4
 40
0.0
  9
$USERR5
 40
0.0
  9
$WORLDVIEW
 70
     1
  9
$SHADEDGE
 70
     3
  9
$SHADEDIF
 70
    70
  9
$TILEMODE
 70
     1
  9
$MAXACTVP
 70
    64
  9
$PINSBASE
 10
0.0
 20
0.0
 30
0.0
  9
$PLIMCHECK
 70
     0
  9
$PEXTMIN
 10
1.0000000000E+20
 20
1.0000000000E+20
 30
1.0000000000E+20
  9
$PEXTMAX
 10
-1.0000000000E+20
 20
-1.0000000000E+20
 30
-1.0000000000E+20
  9
$PLIMMIN
 10
0.0
 20
0.0
  9
$PLIMMAX
 10
420.0
 20
297.0
  9
$UNITMODE
 70
     0
  9
$VISRETAIN
 70
     1
  9
$PLINEGEN
 70
     0
  9
$PSLTSCALE
 70
     1
  9
$TREEDEPTH
 70
  3020
  9
$CMLSTYLE
  2
Standard
  9
$CMLJUST
 70
     0
  9
$CMLSCALE
 40
20.0
  9
$PROXYGRAPHICS
 70
     1
  9
$MEASUREMENT
 70
     1
  9
$CELWEIGHT
370
    -1
  9
$ENDCAPS
280
     0
  9
$JOINSTYLE
280
     0
  9
$LWDISPLAY
290
     1
  9
$INSUNITS
 70
     4
  9
$HYPERLINKBASE
  1

  9
$STYLESHEET
  1

  9
$XEDIT
290
     1
  9
$CEPSNTYPE
380
     0
  9
$PSTYLEMODE
290
     1
  9
$FINGERPRINTGUID
  2
{4a18e6da-9175-450f-88c0-6724f2d8dea8}
  9
$VERSIONGUID
  2
{FAEB1C32-E019-11D5-929B-00C0DF256EC4}
  9
$EXTNAMES
290
     1
  9
$PSVPSCALE
 40
0.0
  9
$OLESTARTUP
290
     0
  0
ENDSEC
  0
SECTION
  2
CLASSES
  0
CLASS
  1
ACDBDICTIONARYWDFLT
  2
AcDbDictionaryWithDefault
  3
ObjectDBX Classes
 90
        0
280
     0
281
     0
  0
CLASS
  1
VISUALSTYLE
  2
AcDbVisualStyle
  3
ObjectDBX Classes
 90
     4095
280
     0
281
     0
  0
CLASS
  1
MATERIAL
  2
AcDbMaterial
  3
ObjectDBX Classes
 90
     1153
280
     0
281
     0
  0
CLASS
  1
SCALE
  2
AcDbScale
  3
ObjectDBX Classes
 90
     1153
280
     0
281
     0
  0
CLASS
  1
TABLESTYLE
  2
AcDbTableStyle
  3
ObjectDBX Classes
 90
     4095
280
     0
281
     0
  0
CLASS
  1
MLEADERSTYLE
  2
AcDbMLeaderStyle
  3
ACDB_MLEADERSTYLE_CLASS
 90
     4095
280
     0
281
     0
  0
CLASS
  1
SUN
  2
AcDbSun
  3
SCENEOE
 90
     1153
280
     0
281
     0
  0
CLASS
  1
ACDBPLACEHOLDER
  2
AcDbPlaceHolder
  3
ObjectDBX Classes
 90
        0
280
     0
281
     0
  0
CLASS
  1
LAYOUT
  2
AcDbLayout
  3
ObjectDBX Classes
 90
        0
280
     0
281
     0
  0
ENDSEC
  0
SECTION
  2
TABLES
  0
TABLE
  2
VPORT
  5
8
330
0
100
AcDbSymbolTable
 70
     1
  0
VPORT
  5
29
330
8
100
AcDbSymbolTableRecord
100
AcDbViewportTableRecord
  2
*Active
 70
     0
 10
0.0
 20
0.0
 11
1.0
 21
1.0
 12
-0.0000000002
 22
-0.0000001122
 13
0.0
 23
0.0
 14
10.0
 24
10.0
 15
10.0
 25
10.0
 16
0.0
 26
0.0
 36
1.0
 17
0.0
 27
0.0
 37
0.0
 40
48.6455240289
 41
1.0064635123
 42
50.0
 43
0.0
 44
0.0
 50
0.0
 51
0.0
 71
     0
 72
   100
 73
     1
 74
     3
 75
     0
 76
     0
 77
     0
 78
     0
281
     0
 65
     1
110
0.0
120
0.0
130
0.0
111
1.0
121
0.0
131
0.0
112
0.0
122
1.0
132
0.0
 79
     0
146
0.0
  0
ENDTAB
  0
TABLE
  2
LTYPE
  5
5
330
0
100
AcDbSymbolTable
 70
     6
  0
LTYPE
  5
14
330
5
100
AcDbSymbolTableRecord
100
AcDbLinetypeTableRecord
  2
ByBlock
 70
     0
  3

 72
    65
 73
     0
 40
0.0
  0
LTYPE
  5
15
330
5
100
AcDbSymbolTableRecord
100
AcDbLinetypeTableRecord
  2
ByLayer
 70
     0
  3

 72
    65
 73
     0
 40
0.0
  0
LTYPE
  5
16
330
5
100
AcDbSymbolTableRecord
100
AcDbLinetypeTableRecord
  2
Continuous
 70
     0
  3
Solid line
 72
    65
 73
     0
 40
0.0
  0
LTYPE
  5
5E
330
5
100
AcDbSymbolTableRecord
100
AcDbLinetypeTableRecord
  2
HIDDEN
 70
     0
  3
Hidden __ __ __ __ __ __ __ __ __ __ __ __ __ __
 72
    65
 73
     2
 40
1.905
 49
1.27
 74
     0
 49
-0.635
 74
     0
  0
LTYPE
  5
5F
330
5
100
AcDbSymbolTableRecord
100
AcDbLinetypeTableRecord
  2
PHANTOM
 70
     0
  3
Phantom ______  __  __  ______  __  __  ______
 72
    65
 73
     6
 40
12.7
 49
6.35
 74
     0
 49
-1.27
 74
     0
 49
1.27
 74
     0
 49
-1.27
 74
     0
 49
1.27
 74
     0
 49
-1.27
 74
     0
  0
LTYPE
  5
60
330
5
100
AcDbSymbolTableRecord
100
AcDbLinetypeTableRecord
  2
CENTER
 70
     0
  3
Center ____ _ ____ _ ____ _ ____ _ ____ _ ____
 72
    65
 73
     4
 40
10.16
 49
6.35
 74
     0
 49
-1.27
 74
     0
 49
1.27
 74
     0
 49
-1.27
 74
     0
  0
LTYPE
  5
61
330
5
100
AcDbSymbolTableRecord
100
AcDbLinetypeTableRecord
  2
CENTERX2
 70
     0
  3
Center (2x) ________  __  ________  __  _____
 72
    65
 73
     4
 40
20.32
 49
12.7
 74
     0
 49
-2.54
 74
     0
 49
2.54
 74
     0
 49
-2.54
 74
     0
  0
LTYPE
  5
62
330
5
100
AcDbSymbolTableRecord
100
AcDbLinetypeTableRecord
  2
DOT2
 70
     0
  3
Dot (.5x) ........................................
 72
    65
 73
     2
 40
0.635
 49
0.0
 74
     0
 49
-0.635
 74
     0
  0
ENDTAB
  0
TABLE
  2
LAYER
  5
2
330
0
100
AcDbSymbolTable
 70
     1
  0
LAYER
  5
10
330
2
100
AcDbSymbolTableRecord
100
AcDbLayerTableRecord
  2
0
 70
     0
 62
     7
  6
Continuous
370
    -3
390
F
  0
ENDTAB
  0
TABLE
  2
STYLE
  5
3
330
0
100
AcDbSymbolTable
 70
     2
  0
STYLE
  5
11
330
3
100
AcDbSymbolTableRecord
100
AcDbTextStyleTableRecord
  2
Standard
 70
     0
 40
0.0
 41
1.0
 50
0.0
 71
     0
 42
3.5
  3
txt
  4

  0
STYLE
  5
43D
330
3
100
AcDbSymbolTableRecord
100
AcDbTextStyleTableRecord
  2
SLDTEXTSTYLE0
 70
     0
 40
0.0
 41
0.7
 50
0.0
 71
     0
 42
3.5
  3
TXT
  4

  0
ENDTAB
  0
TABLE
  2
VIEW
  5
6
330
0
100
AcDbSymbolTable
 70
     0
  0
ENDTAB
  0
TABLE
  2
UCS
  5
7
330
0
100
AcDbSymbolTable
 70
     0
  0
ENDTAB
  0
TABLE
  2
APPID
  5
9
330
0
100
AcDbSymbolTable
 70
     1
  0
APPID
  5
12
330
9
100
AcDbSymbolTableRecord
100
AcDbRegAppTableRecord
  2
ACAD
 70
     0
  0
ENDTAB
  0
TABLE
  2
DIMSTYLE
  5
A
330
0
100
AcDbSymbolTable
 70
     1
100
AcDbDimStyleTable
  0
DIMSTYLE
105
27
330
A
100
AcDbSymbolTableRecord
100
AcDbDimStyleTableRecord
  2
ISO-25
 70
     0
 41
2.5
 42
0.625
 43
3.75
 44
1.25
 73
     0
 74
     0
 77
     1
 78
     8
140
2.5
141
2.5
143
0.0393700787
147
0.625
171
     3
172
     1
178
     0
271
     2
272
     2
274
     3
278
    44
283
     0
284
     8
340
11
  0
ENDTAB
  0
TABLE
  2
BLOCK_RECORD
  5
1
330
0
100
AcDbSymbolTable
 70
     1
  0
BLOCK_RECORD
  5
1F
330
1
100
AcDbSymbolTableRecord
100
AcDbBlockTableRecord
  2
*Model_Space
340
22
  0
BLOCK_RECORD
  5
1B
330
1
100
AcDbSymbolTableRecord
100
AcDbBlockTableRecord
  2
*Paper_Space
340
1E
  0
BLOCK_RECORD
  5
23
330
1
100
AcDbSymbolTableRecord
100
AcDbBlockTableRecord
  2
*Paper_Space0
340
26
  0
ENDTAB
  0
ENDSEC
  0
SECTION
  2
BLOCKS
  0
BLOCK
  5
20
330
1F
100
AcDbEntity
  8
0
100
AcDbBlockBegin
  2
*Model_Space
 70
     0
 10
0.0
 20
0.0
 30
0.0
  3
*Model_Space
  1

  0
ENDBLK
  5
21
330
1F
100
AcDbEntity
  8
0
100
AcDbBlockEnd
  0
BLOCK
  5
1C
330
1B
100
AcDbEntity
 67
     1
  8
0
100
AcDbBlockBegin
  2
*Paper_Space
 70
     0
 10
0.0
 20
0.0
 30
0.0
  3
*Paper_Space
  1

  0
ENDBLK
  5
1D
330
1B
100
AcDbEntity
 67
     1
  8
0
100
AcDbBlockEnd
  0
BLOCK
  5
24
330
23
100
AcDbEntity
  8
0
100
AcDbBlockBegin
  2
*Paper_Space0
 70
     0
 10
0.0
 20
0.0
 30
0.0
  3
*Paper_Space0
  1

  0
ENDBLK
  5
25
330
23
100
AcDbEntity
  8
0
100
AcDbBlockEnd
  0
ENDSEC
  0
SECTION
  2
ENTITIES
  0
LINE
  5
63
330
1F
100
AcDbEntity
  8
0
  6
Continuous
 62
     7
370
    25
100
AcDbLine
 10
-1.9880722619
 20
1.8999792362
 30
0.0
 11
1.9881068086
 21
1.8999792362
 31
0.0
  0
ARC
  5
64
330
1F
100
AcDbEntity
  8
0
  6
Continuous
 62
     7
370
    25
100
AcDbCircle
 10
0.0000172734
 20
-0.0000207638
 30
0.0
 40
2.75
100
AcDbArc
 50
316.2978855626
 51
43.7021144374
  0
LINE
  5
65
330
1F
100
AcDbEntity
  8
0
  6
Continuous
 62
     7
370
    25
100
AcDbLine
 10
-1.9880722619
 20
-1.9000207638
 30
0.0
 11
1.9881068086
 21
-1.9000207638
 31
0.0
  0
ARC
  5
66
330
1F
100
AcDbEntity
  8
0
  6
Continuous
 62
     7
370
    25
100
AcDbCircle
 10
0.0000172734
 20
-0.0000207638
 30
0.0
 40
2.75
100
AcDbArc
 50
136.2978855626
 51
223.7021144374
  0
LINE
  5
67
330
1F
100
AcDbEntity
  8
0
  6
Continuous
 62
     7
370
    25
100
AcDbLine
 10
23.2166612978
 20
6.0815583922
 30
0.0
 11
22.8954461
 21
5.7695777
 31
0.0
  0
ARC
  5
68
330
1F
100
AcDbEntity
  8
0
  6
Continuous
 62
     7
370
    25
100
AcDbCircle
 10
-0.0000226295
 20
-0.0000146894
 30
0.0
 40
23.99999882769561
100
AcDbArc
 50
14.6787326037
 51
18.0485775535
  0
LINE
  5
69
330
1F
100
AcDbEntity
  8
0
  6
Continuous
 62
     7
370
    25
100
AcDbLine
 10
22.3801441
 20
7.5245351
 30
0.0
 11
22.8190365297
 21
7.4357423547
 31
0.0
  0
LINE
  5
6A
330
1F
100
AcDbEntity
  8
0
  6
Continuous
 62
     7
370
    25
100
AcDbLine
 10
21.924887
 20
7.5975859
 30
0.0
 11
22.3801441
 21
7.5245351
 31
0.0
  0
LINE
  5
6B
330
1F
100
AcDbEntity
  8
0
  6
Continuous
 62
     7
370
    25
100
AcDbLine
 10
21.5060561
 20
7.646915
 30
0.0
 11
21.924887
 21
7.5975859
 31
0.0
  0
LINE
  5
6C
330
1F
100
AcDbEntity
  8
0
  6
Continuous
 62
     7
370
    25
100
AcDbLine
 10
21.1197237
 20
7.6761155
 30
0.0
 11
21.5060561
 21
7.646915
 31
0.0
  0
LINE
  5
6D
330
1F
100
AcDbEntity
  8
0
  6
Continuous
 62
     7
370
    25
100
AcDbLine
 10
20.7695422
 20
7.6878778
 30
0.0
 11
21.1197237
 21
7.6761155
 31
0.0
  0
LINE
  5
6E
330
1F
100
AcDbEntity
  8
0
  6
Continuous
 62
     7
370
    25
100
AcDbLine
 10
20.4552721
 20
7.6853026
 30
0.0
 11
20.7695422
 21
7.6878778
 31
0.0
  0
LINE
  5
6F
330
1F
100
AcDbEntity
  8
0
  6
Continuous
 62
     7
370
    25
100
AcDbLine
 10
20.1767714
 20
7.6713482
 30
0.0
 11
20.4552721
 21
7.6853026
 31
0.0
  0
LINE
  5
70
330
1F
100
AcDbEntity
  8
0
  6
Continuous
 62
     7
370
    25
100
AcDbLine
 10
19.9347995
 20
7.6490219
 30
0.0
 11
20.1767714
 21
7.6713482
 31
0.0
  0
LINE
  5
71
330
1F
100
AcDbEntity
  8
0
  6
Continuous
 62
     7
370
    25
100
AcDbLine
 10
19.73335
 20
7.6219283
 30
0.0
 11
19.9347995
 21
7.6490219
 31
0.0
  0
LINE
  5
72
330
1F
100
AcDbEntity
  8
0
  6
Continuous
 62
     7
370
    25
100
AcDbLine
 10
19.4360948
 20
7.5636803
 30
0.0
 11
19.73335
 21
7.6219283
 31
0.0
  0
LINE
  5
73
330
1F
100
AcDbEntity
  8
0
  6
Continuous
 62
     7
370
    25
100
AcDbLine
 10
19.1488665
 20
7.4859797
 30
0.0
 11
19.4360948
 21
7.5636803
 31
0.0
  0
LINE
  5
74
330
1F
100
AcDbEntity
  8
0
  6
Continuous
 62
     7
370
    25
100
AcDbLine
 10
18.9443781
 20
7.4508803
 30
0.0
 11
19.1488665
 21
7.4859797
 31
0.0
  0
LINE
  5
75
330
1F
100
AcDbEntity
  8
0
  6
Continuous
 62
     7
370
    25
100
AcDbLine
 10
18.8538346
 20
7.4443357
 30
0.0
 11
18.9443781
 21
7.4508803
 31
0.0
  0
LINE
  5
76
330
1F
100
AcDbEntity
  8
0
  6
Continuous
 62
     7
370
    25
100
AcDbLine
 10
18.7714324
 20
7.4446863
 30
0.0
 11
18.8538346
 21
7.4443357
 31
0.0
  0
LINE
  5
77
330
1F
100
AcDbEntity
  8
0
  6
Continuous
 62
     7
370
    25
100
AcDbLine
 10
18.697414
 20
7.45157
 30
0.0
 11
18.7714324
 21
7.4446863
 31
0.0
  0
LINE
  5
78
330
1F
100
AcDbEntity
  8
0
  6
Continuous
 62
     7
370
    25
100
AcDbLine
 10
18.6320181
 20
7.4646561
 30
0.0
 11
18.697414
 21
7.45157
 31
0.0
  0
LINE
  5
79
330
1F
100
AcDbEntity
  8
0
  6
Continuous
 62
     7
370
    25
100
AcDbLine
 10
18.575464
 20
7.4835611
 30
0.0
 11
18.6320181
 21
7.4646561
 31
0.0
  0
LINE
  5
7A
330
1F
100
AcDbEntity
  8
0
  6
Continuous
 62
     7
370
    25
100
AcDbLine
 10
18.5279675
 20
7.5079327
 30
0.0
 11
18.575464
 21
7.4835611
 31
0.0
  0
LINE
  5
7B
330
1F
100
AcDbEntity
  8
0
  6
Continuous
 62
     7
370
    25
100
AcDbLine
 10
18.4897345
 20
7.5373924
 30
0.0
 11
18.5279675
 21
7.5079327
 31
0.0
  0
LINE
  5
7C
330
1F
100
AcDbEntity
  8
0
  6
Continuous
 62
     7
370
    25
100
AcDbLine
 10
18.4609353
 20
7.5715671
 30
0.0
 11
18.4897345
 21
7.5373924
 31
0.0
  0
LINE
  5
7D
330
1F
100
AcDbEntity
  8
0
  6
Continuous
 62
     7
370
    25
100
AcDbLine
 10
18.4188308
 20
7.6649666
 30
0.0
 11
18.4609353
 21
7.5715671
 31
0.0
  0
LINE
  5
7E
330
1F
100
AcDbEntity
  8
0
  6
Continuous
 62
     7
370
    25
100
AcDbLine
 10
18.1471583
 20
8.2875295
 30
0.0
 11
18.4188308
 21
7.6649666
 31
0.0
  0
LINE
  5
7F
330
1F
100
AcDbEntity
  8
0
  6
Continuous
 62
     7
370
    25
100
AcDbLine
 10
17.8545643
 20
8.9005379
 30
0.0
 11
18.1471583
 21
8.2875295
 31
0.0
  0
LINE
  5
80
330
1F
100
AcDbEntity
  8
0
  6
Continuous
 62
     7
370
    25
100
AcDbLine
 10
17.8115502
 20
8.993522
 30
0.0
 11
17.8545643
 21
8.9005379
 31
0.0
  0
LINE
  5
81
330
1F
100
AcDbEntity
  8
0
  6
Continuous
 62
     7
370
    25
100
AcDbLine
 10
17.8045822
 20
9.0376666
 30
0.0
 11
17.8115502
 21
8.993522
 31
0.0
  0
LINE
  5
82
330
1F
100
AcDbEntity
  8
0
  6
Continuous
 62
     7
370
    25
100
AcDbLine
 10
17.8073554
 20
9.0858532
 30
0.0
 11
17.8045822
 21
9.0376666
 31
0.0
  0
LINE
  5
83
330
1F
100
AcDbEntity
  8
0
  6
Continuous
 62
     7
370
    25
100
AcDbLine
 10
17.8200401
 20
9.1377087
 30
0.0
 11
17.8073554
 21
9.0858532
 31
0.0
  0
LINE
  5
84
330
1F
100
AcDbEntity
  8
0
  6
Continuous
 62
     7
370
    25
100
AcDbLine
 10
17.8427877
 20
9.1928296
 30
0.0
 11
17.8200401
 21
9.1377087
 31
0.0
  0
LINE
  5
85
330
1F
100
AcDbEntity
  8
0
  6
Continuous
 62
     7
370
    25
100
AcDbLine
 10
17.8757231
 20
9.2508221
 30
0.0
 11
17.8427877
 21
9.1928296
 31
0.0
  0
LINE
  5
86
330
1F
100
AcDbEntity
  8
0
  6
Continuous
 62
     7
370
    25
100
AcDbLine
 10
17.9189925
 20
9.3112693
 30
0.0
 11
17.8757231
 21
9.2508221
 31
0.0
  0
LINE
  5
87
330
1F
100
AcDbEntity
  8
0
  6
Continuous
 62
     7
370
    25
100
AcDbLine
 10
17.9726895
 20
9.3737743
 30
0.0
 11
17.9189925
 21
9.3112693
 31
0.0
  0
LINE
  5
88
330
1F
100
AcDbEntity
  8
0
  6
Continuous
 62
     7
370
    25
100
AcDbLine
 10
18.036929
 20
9.4379168
 30
0.0
 11
17.9726895
 21
9.3737743
 31
0.0
  0
LINE
  5
89
330
1F
100
AcDbEntity
  8
0
  6
Continuous
 62
     7
370
    25
100
AcDbLine
 10
18.1973667
 20
9.5694736
 30
0.0
 11
18.036929
 21
9.4379168
 31
0.0
  0
LINE
  5
8A
330
1F
100
AcDbEntity
  8
0
  6
Continuous
 62
     7
370
    25
100
AcDbLine
 10
18.4441834
 20
9.7356631
 30
0.0
 11
18.1973667
 21
9.5694736
 31
0.0
  0
LINE
  5
8B
330
1F
100
AcDbEntity
  8
0
  6
Continuous
 62
     7
370
    25
100
AcDbLine
 10
18.6828652
 20
9.9221693
 30
0.0
 11
18.4441834
 21
9.7356631
 31
0.0
  0
LINE
  5
8C
330
1F
100
AcDbEntity
  8
0
  6
Continuous
 62
     7
370
    25
100
AcDbLine
 10
18.8352625
 20
10.0566722
 30
0.0
 11
18.6828652
 21
9.9221693
 31
0.0
  0
LINE
  5
8D
330
1F
100
AcDbEntity
  8
0
  6
Continuous
 62
     7
370
    25
100
AcDbLine
 10
19.0105934
 20
10.2249217
 30
0.0
 11
18.8352625
 21
10.0566722
 31
0.0
  0
LINE
  5
8E
330
1F
100
AcDbEntity
  8
0
  6
Continuous
 62
     7
370
    25
100
AcDbLine
 10
19.2035186
 20
10.4262603
 30
0.0
 11
19.0105934
 21
10.2249217
 31
0.0
  0
LINE
  5
8F
330
1F
100
AcDbEntity
  8
0
  6
Continuous
 62
     7
370
    25
100
AcDbLine
 10
19.4112681
 20
10.6620834
 30
0.0
 11
19.2035186
 21
10.4262603
 31
0.0
  0
LINE
  5
90
330
1F
100
AcDbEntity
  8
0
  6
Continuous
 62
     7
370
    25
100
AcDbLine
 10
19.6316988
 20
10.9344355
 30
0.0
 11
19.4112681
 21
10.6620834
 31
0.0
  0
LINE
  5
91
330
1F
100
AcDbEntity
  8
0
  6
Continuous
 62
     7
370
    25
100
AcDbLine
 10
19.8626244
 20
11.2455283
 30
0.0
 11
19.6316988
 21
10.9344355
 31
0.0
  0
LINE
  5
92
330
1F
100
AcDbEntity
  8
0
  6
Continuous
 62
     7
370
    25
100
AcDbLine
 10
20.0996199
 20
11.5943634
 30
0.0
 11
19.8626244
 21
11.2455283
 31
0.0
  0
LINE
  5
93
330
1F
100
AcDbEntity
  8
0
  6
Continuous
 62
     7
370
    25
100
AcDbLine
 10
20.3425418
 20
11.9862618
 30
0.0
 11
20.0996199
 21
11.5943634
 31
0.0
  0
LINE
  5
94
330
1F
100
AcDbEntity
  8
0
  6
Continuous
 62
     7
370
    25
100
AcDbLine
 10
20.5628503
 20
12.3761017
 30
0.0
 11
20.3425418
 21
11.9862618
 31
0.0
  0
ARC
  5
95
330
1F
100
AcDbEntity
  8
0
  6
Continuous
 62
     7
370
    25
100
AcDbCircle
 10
-0.0000226295
 20
-0.0000146894
 30
0.0
 40
24.0
100
AcDbArc
 50
31.042350634
 51
34.4121954201
  0
LINE
  5
96
330
1F
100
AcDbEntity
  8
0
  6
Continuous
 62
     7
370
    25
100
AcDbLine
 10
19.3536845
 20
13.5249538
 30
0.0
 11
19.7998148
 21
13.5634081
 31
0.0
  0
LINE
  5
97
330
1F
100
AcDbEntity
  8
0
  6
Continuous
 62
     7
370
    25
100
AcDbLine
 10
18.8962878
 20
13.4667848
 30
0.0
 11
19.3536845
 21
13.5249538
 31
0.0
  0
LINE
  5
98
330
1F
100
AcDbEntity
  8
0
  6
Continuous
 62
     7
370
    25
100
AcDbLine
 10
18.4805248
 20
13.3961174
 30
0.0
 11
18.8962878
 21
13.4667848
 31
0.0
  0
LINE
  5
99
330
1F
100
AcDbEntity
  8
0
  6
Continuous
 62
     7
370
    25
100
AcDbLine
 10
18.1016148
 20
13.3152927
 30
0.0
 11
18.4805248
 21
13.3961174
 31
0.0
  0
LINE
  5
9A
330
1F
100
AcDbEntity
  8
0
  6
Continuous
 62
     7
370
    25
100
AcDbLine
 10
17.7623043
 20
13.227921
 30
0.0
 11
18.1016148
 21
13.3152927
 31
0.0
  0
LINE
  5
9B
330
1F
100
AcDbEntity
  8
0
  6
Continuous
 62
     7
370
    25
100
AcDbLine
 10
17.4614899
 20
13.1369099
 30
0.0
 11
17.7623043
 21
13.227921
 31
0.0
  0
LINE
  5
9C
330
1F
100
AcDbEntity
  8
0
  6
Continuous
 62
     7
370
    25
100
AcDbLine
 10
17.1982018
 20
13.0450581
 30
0.0
 11
17.4614899
 21
13.1369099
 31
0.0
  0
LINE
  5
9D
330
1F
100
AcDbEntity
  8
0
  6
Continuous
 62
     7
370
    25
100
AcDbLine
 10
16.9723216
 20
12.9554648
 30
0.0
 11
17.1982018
 21
13.0450581
 31
0.0
  0
LINE
  5
9E
330
1F
100
AcDbEntity
  8
0
  6
Continuous
 62
     7
370
    25
100
AcDbLine
 10
16.7866653
 20
12.8727138
 30
0.0
 11
16.9723216
 21
12.9554648
 31
0.0
  0
LINE
  5
9F
330
1F
100
AcDbEntity
  8
0
  6
Continuous
 62
     7
370
    25
100
AcDbLine
 10
16.5178614
 20
12.7330787
 30
0.0
 11
16.7866653
 21
12.8727138
 31
0.0
  0
LINE
  5
A0
330
1F
100
AcDbEntity
  8
0
  6
Continuous
 62
     7
370
    25
100
AcDbLine
 10
16.2641587
 20
12.577604
 30
0.0
 11
16.5178614
 21
12.7330787
 31
0.0
  0
LINE
  5
A1
330
1F
100
AcDbEntity
  8
0
  6
Continuous
 62
     7
370
    25
100
AcDbLine
 10
16.0778422
 20
12.4863154
 30
0.0
 11
16.2641587
 21
12.577604
 31
0.0
  0
LINE
  5
A2
330
1F
100
AcDbEntity
  8
0
  6
Continuous
 62
     7
370
    25
100
AcDbLine
 10
15.9928101
 20
12.4545268
 30
0.0
 11
16.0778422
 21
12.4863154
 31
0.0
  0
LINE
  5
A3
330
1F
100
AcDbEntity
  8
0
  6
Continuous
 62
     7
370
    25
100
AcDbLine
 10
15.913647
 20
12.4316478
 30
0.0
 11
15.9928101
 21
12.4545268
 31
0.0
  0
LINE
  5
A4
330
1F
100
AcDbEntity
  8
0
  6
Continuous
 62
     7
370
    25
100
AcDbLine
 10
15.8406875
 20
12.4173993
 30
0.0
 11
15.913647
 21
12.4316478
 31
0.0
  0
LINE
  5
A5
330
1F
100
AcDbEntity
  8
0
  6
Continuous
 62
     7
370
    25
100
AcDbLine
 10
15.7742538
 20
12.4115312
 30
0.0
 11
15.8406875
 21
12.4173993
 31
0.0
  0
LINE
  5
A6
330
1F
100
AcDbEntity
  8
0
  6
Continuous
 62
     7
370
    25
100
AcDbLine
 10
15.7146644
 20
12.4137373
 30
0.0
 11
15.7742538
 21
12.4115312
 31
0.0
  0
LINE
  5
A7
330
1F
100
AcDbEntity
  8
0
  6
Continuous
 62
     7
370
    25
100
AcDbLine
 10
15.6622255
 20
12.4237404
 30
0.0
 11
15.7146644
 21
12.4137373
 31
0.0
  0
LINE
  5
A8
330
1F
100
AcDbEntity
  8
0
  6
Continuous
 62
     7
370
    25
100
AcDbLine
 10
15.6172415
 20
12.4412352
 30
0.0
 11
15.6622255
 21
12.4237404
 31
0.0
  0
LINE
  5
A9
330
1F
100
AcDbEntity
  8
0
  6
Continuous
 62
     7
370
    25
100
AcDbLine
 10
15.5799807
 20
12.4659119
 30
0.0
 11
15.6172415
 21
12.4412352
 31
0.0
  0
LINE
  5
AA
330
1F
100
AcDbEntity
  8
0
  6
Continuous
 62
     7
370
    25
100
AcDbLine
 10
15.077204
 20
13.0644716
 30
0.0
 11
15.5799807
 21
12.4659119
 31
0.0
  0
LINE
  5
AB
330
1F
100
AcDbEntity
  8
0
  6
Continuous
 62
     7
370
    25
100
AcDbLine
 10
14.5562893
 20
13.6473147
 30
0.0
 11
15.077204
 21
13.0644716
 31
0.0
  0
LINE
  5
AC
330
1F
100
AcDbEntity
  8
0
  6
Continuous
 62
     7
370
    25
100
AcDbLine
 10
14.5371666
 20
13.6877081
 30
0.0
 11
14.5562893
 21
13.6473147
 31
0.0
  0
LINE
  5
AD
330
1F
100
AcDbEntity
  8
0
  6
Continuous
 62
     7
370
    25
100
AcDbLine
 10
14.5262517
 20
13.734724
 30
0.0
 11
14.5371666
 21
13.6877081
 31
0.0
  0
LINE
  5
AE
330
1F
100
AcDbEntity
  8
0
  6
Continuous
 62
     7
370
    25
100
AcDbLine
 10
14.5238132
 20
13.7880527
 30
0.0
 11
14.5262517
 21
13.734724
 31
0.0
  0
LINE
  5
AF
330
1F
100
AcDbEntity
  8
0
  6
Continuous
 62
     7
370
    25
100
AcDbLine
 10
14.5301101
 20
13.8473496
 30
0.0
 11
14.5238132
 21
13.7880527
 31
0.0
  0
LINE
  5
B0
330
1F
100
AcDbEntity
  8
0
  6
Continuous
 62
     7
370
    25
100
AcDbLine
 10
14.5453729
 20
13.9122719
 30
0.0
 11
14.5301101
 21
13.8473496
 31
0.0
  0
LINE
  5
B1
330
1F
100
AcDbEntity
  8
0
  6
Continuous
 62
     7
370
    25
100
AcDbLine
 10
14.5698597
 20
13.9824611
 30
0.0
 11
14.5453729
 21
13.9122719
 31
0.0
  0
LINE
  5
B2
330
1F
100
AcDbEntity
  8
0
  6
Continuous
 62
     7
370
    25
100
AcDbLine
 10
14.6037719
 20
14.0575624
 30
0.0
 11
14.5698597
 21
13.9824611
 31
0.0
  0
LINE
  5
B3
330
1F
100
AcDbEntity
  8
0
  6
Continuous
 62
     7
370
    25
100
AcDbLine
 10
14.6473382
 20
14.137205
 30
0.0
 11
14.6037719
 21
14.0575624
 31
0.0
  0
LINE
  5
B4
330
1F
100
AcDbEntity
  8
0
  6
Continuous
 62
     7
370
    25
100
AcDbLine
 10
14.7642133
 20
14.3086333
 30
0.0
 11
14.6473382
 21
14.137205
 31
0.0
  0
LINE
  5
B5
330
1F
100
AcDbEntity
  8
0
  6
Continuous
 62
     7
370
    25
100
AcDbLine
 10
14.9542111
 20
14.5376273
 30
0.0
 11
14.7642133
 21
14.3086333
 31
0.0
  0
LINE
  5
B6
330
1F
100
AcDbEntity
  8
0
  6
Continuous
 62
     7
370
    25
100
AcDbLine
 10
15.1306797
 20
14.7838231
 30
0.0
 11
14.9542111
 21
14.5376273
 31
0.0
  0
LINE
  5
B7
330
1F
100
AcDbEntity
  8
0
  6
Continuous
 62
     7
370
    25
100
AcDbLine
 10
15.23901
 20
14.955813
 30
0.0
 11
15.1306797
 21
14.7838231
 31
0.0
  0
LINE
  5
B8
330
1F
100
AcDbEntity
  8
0
  6
Continuous
 62
     7
370
    25
100
AcDbLine
 10
15.3598375
 20
15.1666436
 30
0.0
 11
15.23901
 21
14.955813
 31
0.0
  0
LINE
  5
B9
330
1F
100
AcDbEntity
  8
0
  6
Continuous
 62
     7
370
    25
100
AcDbLine
 10
15.4882242
 20
15.4141799
 30
0.0
 11
15.3598375
 21
15.1666436
 31
0.0
  0
LINE
  5
BA
330
1F
100
AcDbEntity
  8
0
  6
Continuous
 62
     7
370
    25
100
AcDbLine
 10
15.6211193
 20
15.6989803
 30
0.0
 11
15.4882242
 21
15.4141799
 31
0.0
  0
LINE
  5
BB
330
1F
100
AcDbEntity
  8
0
  6
Continuous
 62
     7
370
    25
100
AcDbLine
 10
15.7558906
 20
16.0224027
 30
0.0
 11
15.6211193
 21
15.6989803
 31
0.0
  0
LINE
  5
BC
330
1F
100
AcDbEntity
  8
0
  6
Continuous
 62
     7
370
    25
100
AcDbLine
 10
15.8898171
 20
16.3859534
 30
0.0
 11
15.7558906
 21
16.0224027
 31
0.0
  0
LINE
  5
BD
330
1F
100
AcDbEntity
  8
0
  6
Continuous
 62
     7
370
    25
100
AcDbLine
 10
16.0189345
 20
16.7874275
 30
0.0
 11
15.8898171
 21
16.3859534
 31
0.0
  0
LINE
  5
BE
330
1F
100
AcDbEntity
  8
0
  6
Continuous
 62
     7
370
    25
100
AcDbLine
 10
16.1416057
 20
17.2318903
 30
0.0
 11
16.0189345
 21
16.7874275
 31
0.0
  0
LINE
  5
BF
330
1F
100
AcDbEntity
  8
0
  6
Continuous
 62
     7
370
    25
100
AcDbLine
 10
16.2431596508
 20
17.6680072181
 30
0.0
 11
16.1416057
 21
17.2318903
 31
0.0
  0
ARC
  5
C0
330
1F
100
AcDbEntity
  8
0
  6
Continuous
 62
     7
370
    25
100
AcDbCircle
 10
-0.0000116536
 20
-0.0000244
 30
0.0
 40
23.9999990683457
100
AcDbArc
 50
47.4060040037
 51
50.7758489678
  0
LINE
  5
C1
330
1F
100
AcDbEntity
  8
0
  6
Continuous
 62
     7
370
    25
100
AcDbLine
 10
14.7593045
 20
18.4296611
 30
0.0
 11
15.1765292914
 21
18.5922471187
 31
0.0
  0
LINE
  5
C2
330
1F
100
AcDbEntity
  8
0
  6
Continuous
 62
     7
370
    25
100
AcDbLine
 10
14.3368236
 20
18.2449848
 30
0.0
 11
14.7593045
 21
18.4296611
 31
0.0
  0
LINE
  5
C3
330
1F
100
AcDbEntity
  8
0
  6
Continuous
 62
     7
370
    25
100
AcDbLine
 10
13.9578113
 20
18.060046
 30
0.0
 11
14.3368236
 21
18.2449848
 31
0.0
  0
LINE
  5
C4
330
1F
100
AcDbEntity
  8
0
  6
Continuous
 62
     7
370
    25
100
AcDbLine
 10
13.6170208
 20
17.875744
 30
0.0
 11
13.9578113
 21
18.060046
 31
0.0
  0
LINE
  5
C5
330
1F
100
AcDbEntity
  8
0
  6
Continuous
 62
     7
370
    25
100
AcDbLine
 10
13.3160702
 20
17.6963167
 30
0.0
 11
13.6170208
 21
17.875744
 31
0.0
  0
LINE
  5
C6
330
1F
100
AcDbEntity
  8
0
  6
Continuous
 62
     7
370
    25
100
AcDbLine
 10
13.0530816
 20
17.5242429
 30
0.0
 11
13.3160702
 21
17.6963167
 31
0.0
  0
LINE
  5
C7
330
1F
100
AcDbEntity
  8
0
  6
Continuous
 62
     7
370
    25
100
AcDbLine
 10
12.8263363
 20
17.3619349
 30
0.0
 11
13.0530816
 21
17.5242429
 31
0.0
  0
LINE
  5
C8
330
1F
100
AcDbEntity
  8
0
  6
Continuous
 62
     7
370
    25
100
AcDbLine
 10
12.6348471
 20
17.212333
 30
0.0
 11
12.8263363
 21
17.3619349
 31
0.0
  0
LINE
  5
C9
330
1F
100
AcDbEntity
  8
0
  6
Continuous
 62
     7
370
    25
100
AcDbLine
 10
12.4800249
 20
17.0806286
 30
0.0
 11
12.6348471
 21
17.212333
 31
0.0
  0
LINE
  5
CA
330
1F
100
AcDbEntity
  8
0
  6
Continuous
 62
     7
370
    25
100
AcDbLine
 10
12.2614491
 20
16.8709189
 30
0.0
 11
12.4800249
 21
17.0806286
 31
0.0
  0
LINE
  5
CB
330
1F
100
AcDbEntity
  8
0
  6
Continuous
 62
     7
370
    25
100
AcDbLine
 10
12.0618254
 20
16.6502657
 30
0.0
 11
12.2614491
 21
16.8709189
 31
0.0
  0
LINE
  5
CC
330
1F
100
AcDbEntity
  8
0
  6
Continuous
 62
     7
370
    25
100
AcDbLine
 10
11.908775
 20
16.5101834
 30
0.0
 11
12.0618254
 21
16.6502657
 31
0.0
  0
LINE
  5
CD
330
1F
100
AcDbEntity
  8
0
  6
Continuous
 62
     7
370
    25
100
AcDbLine
 10
11.8361432
 20
16.4557263
 30
0.0
 11
11.908775
 21
16.5101834
 31
0.0
  0
LINE
  5
CE
330
1F
100
AcDbEntity
  8
0
  6
Continuous
 62
     7
370
    25
100
AcDbLine
 10
11.7666326
 20
16.4114712
 30
0.0
 11
11.8361432
 21
16.4557263
 31
0.0
  0
LINE
  5
CF
330
1F
100
AcDbEntity
  8
0
  6
Continuous
 62
     7
370
    25
100
AcDbLine
 10
11.7006427
 20
16.3772447
 30
0.0
 11
11.7666326
 21
16.4114712
 31
0.0
  0
LINE
  5
D0
330
1F
100
AcDbEntity
  8
0
  6
Continuous
 62
     7
370
    25
100
AcDbLine
 10
11.6385533
 20
16.3528978
 30
0.0
 11
11.7006427
 21
16.3772447
 31
0.0
  0
LINE
  5
D1
330
1F
100
AcDbEntity
  8
0
  6
Continuous
 62
     7
370
    25
100
AcDbLine
 10
11.5807561
 20
16.3382262
 30
0.0
 11
11.6385533
 21
16.3528978
 31
0.0
  0
LINE
  5
D2
330
1F
100
AcDbEntity
  8
0
  6
Continuous
 62
     7
370
    25
100
AcDbLine
 10
11.5276232
 20
16.3330504
 30
0.0
 11
11.5807561
 21
16.3382262
 31
0.0
  0
LINE
  5
D3
330
1F
100
AcDbEntity
  8
0
  6
Continuous
 62
     7
370
    25
100
AcDbLine
 10
11.4795324
 20
16.3371631
 30
0.0
 11
11.5276232
 21
16.3330504
 31
0.0
  0
LINE
  5
D4
330
1F
100
AcDbEntity
  8
0
  6
Continuous
 62
     7
370
    25
100
AcDbLine
 10
11.4368288
 20
16.3503427
 30
0.0
 11
11.4795324
 21
16.3371631
 31
0.0
  0
LINE
  5
D5
330
1F
100
AcDbEntity
  8
0
  6
Continuous
 62
     7
370
    25
100
AcDbLine
 10
11.3509127
 20
16.4061519
 30
0.0
 11
11.4368288
 21
16.3503427
 31
0.0
  0
LINE
  5
D6
330
1F
100
AcDbEntity
  8
0
  6
Continuous
 62
     7
370
    25
100
AcDbLine
 10
10.7857843
 20
16.783008
 30
0.0
 11
11.3509127
 21
16.4061519
 31
0.0
  0
LINE
  5
D7
330
1F
100
AcDbEntity
  8
0
  6
Continuous
 62
     7
370
    25
100
AcDbLine
 10
10.2082212
 20
17.1405152
 30
0.0
 11
10.7857843
 21
16.783008
 31
0.0
  0
LINE
  5
D8
330
1F
100
AcDbEntity
  8
0
  6
Continuous
 62
     7
370
    25
100
AcDbLine
 10
10.1217644
 20
17.1954832
 30
0.0
 11
10.2082212
 21
17.1405152
 31
0.0
  0
LINE
  5
D9
330
1F
100
AcDbEntity
  8
0
  6
Continuous
 62
     7
370
    25
100
AcDbLine
 10
10.0920362
 20
17.2288528
 30
0.0
 11
10.1217644
 21
17.1954832
 31
0.0
  0
LINE
  5
DA
330
1F
100
AcDbEntity
  8
0
  6
Continuous
 62
     7
370
    25
100
AcDbLine
 10
10.0683175
 20
17.2708892
 30
0.0
 11
10.0920362
 21
17.2288528
 31
0.0
  0
LINE
  5
DB
330
1F
100
AcDbEntity
  8
0
  6
Continuous
 62
     7
370
    25
100
AcDbLine
 10
10.0509534
 20
17.3213708
 30
0.0
 11
10.0683175
 21
17.2708892
 31
0.0
  0
LINE
  5
DC
330
1F
100
AcDbEntity
  8
0
  6
Continuous
 62
     7
370
    25
100
AcDbLine
 10
10.0402893
 20
17.3800397
 30
0.0
 11
10.0509534
 21
17.3213708
 31
0.0
  0
LINE
  5
DD
330
1F
100
AcDbEntity
  8
0
  6
Continuous
 62
     7
370
    25
100
AcDbLine
 10
10.0366432
 20
17.4466323
 30
0.0
 11
10.0402893
 21
17.3800397
 31
0.0
  0
LINE
  5
DE
330
1F
100
AcDbEntity
  8
0
  6
Continuous
 62
     7
370
    25
100
AcDbLine
 10
10.0403635
 20
17.520877
 30
0.0
 11
10.0366432
 21
17.4466323
 31
0.0
  0
LINE
  5
DF
330
1F
100
AcDbEntity
  8
0
  6
Continuous
 62
     7
370
    25
100
AcDbLine
 10
10.0517435
 20
17.6024903
 30
0.0
 11
10.0403635
 21
17.520877
 31
0.0
  0
LINE
  5
E0
330
1F
100
AcDbEntity
  8
0
  6
Continuous
 62
     7
370
    25
100
AcDbLine
 10
10.0711072
 20
17.6911809
 30
0.0
 11
10.0517435
 21
17.6024903
 31
0.0
  0
LINE
  5
E1
330
1F
100
AcDbEntity
  8
0
  6
Continuous
 62
     7
370
    25
100
AcDbLine
 10
10.134951
 20
17.8885927
 30
0.0
 11
10.0711072
 21
17.6911809
 31
0.0
  0
LINE
  5
E2
330
1F
100
AcDbEntity
  8
0
  6
Continuous
 62
     7
370
    25
100
AcDbLine
 10
10.2527376
 20
18.1618394
 30
0.0
 11
10.134951
 21
17.8885927
 31
0.0
  0
LINE
  5
E3
330
1F
100
AcDbEntity
  8
0
  6
Continuous
 62
     7
370
    25
100
AcDbLine
 10
10.3526966
 20
18.4477795
 30
0.0
 11
10.2527376
 21
18.1618394
 31
0.0
  0
LINE
  5
E4
330
1F
100
AcDbEntity
  8
0
  6
Continuous
 62
     7
370
    25
100
AcDbLine
 10
10.4081836
 20
18.6433227
 30
0.0
 11
10.3526966
 21
18.4477795
 31
0.0
  0
LINE
  5
E5
330
1F
100
AcDbEntity
  8
0
  6
Continuous
 62
     7
370
    25
100
AcDbLine
 10
10.4647189
 20
18.8796543
 30
0.0
 11
10.4081836
 21
18.6433227
 31
0.0
  0
LINE
  5
E6
330
1F
100
AcDbEntity
  8
0
  6
Continuous
 62
     7
370
    25
100
AcDbLine
 10
10.518166
 20
19.1533343
 30
0.0
 11
10.4647189
 21
18.8796543
 31
0.0
  0
LINE
  5
E7
330
1F
100
AcDbEntity
  8
0
  6
Continuous
 62
     7
370
    25
100
AcDbLine
 10
10.5654404
 20
19.4640391
 30
0.0
 11
10.518166
 21
19.1533343
 31
0.0
  0
LINE
  5
E8
330
1F
100
AcDbEntity
  8
0
  6
Continuous
 62
     7
370
    25
100
AcDbLine
 10
10.6036338
 20
19.8123302
 30
0.0
 11
10.5654404
 21
19.4640391
 31
0.0
  0
LINE
  5
E9
330
1F
100
AcDbEntity
  8
0
  6
Continuous
 62
     7
370
    25
100
AcDbLine
 10
10.6297113
 20
20.198886
 30
0.0
 11
10.6036338
 21
19.8123302
 31
0.0
  0
LINE
  5
EA
330
1F
100
AcDbEntity
  8
0
  6
Continuous
 62
     7
370
    25
100
AcDbLine
 10
10.6404902
 20
20.6204741
 30
0.0
 11
10.6297113
 21
20.198886
 31
0.0
  0
LINE
  5
EB
330
1F
100
AcDbEntity
  8
0
  6
Continuous
 62
     7
370
    25
100
AcDbLine
 10
10.6329728
 20
21.0814935
 30
0.0
 11
10.6404902
 21
20.6204741
 31
0.0
  0
LINE
  5
EC
330
1F
100
AcDbEntity
  8
0
  6
Continuous
 62
     7
370
    25
100
AcDbLine
 10
10.6075447
 20
21.5285554
 30
0.0
 11
10.6329728
 21
21.0814935
 31
0.0
  0
ARC
  5
ED
330
1F
100
AcDbEntity
  8
0
  6
Continuous
 62
     7
370
    25
100
AcDbCircle
 10
-0.0000116536
 20
-0.0000244
 30
0.0
 40
24.0
100
AcDbArc
 50
63.7696219289
 51
67.1394667199
  0
LINE
  5
EE
330
1F
100
AcDbEntity
  8
0
  6
Continuous
 62
     7
370
    25
100
AcDbLine
 10
8.9692134
 20
21.841307
 30
0.0
 11
9.3237321
 21
22.114853
 31
0.0
  0
LINE
  5
EF
330
1F
100
AcDbEntity
  8
0
  6
Continuous
 62
     7
370
    25
100
AcDbLine
 10
8.6158753
 20
21.5450847
 30
0.0
 11
8.9692134
 21
21.841307
 31
0.0
  0
LINE
  5
F0
330
1F
100
AcDbEntity
  8
0
  6
Continuous
 62
     7
370
    25
100
AcDbLine
 10
8.3043189
 20
21.2608571
 30
0.0
 11
8.6158753
 21
21.5450847
 31
0.0
  0
LINE
  5
F1
330
1F
100
AcDbEntity
  8
0
  6
Continuous
 62
     7
370
    25
100
AcDbLine
 10
8.0292567
 20
20.9880088
 30
0.0
 11
8.3043189
 21
21.2608571
 31
0.0
  0
LINE
  5
F2
330
1F
100
AcDbEntity
  8
0
  6
Continuous
 62
     7
370
    25
100
AcDbLine
 10
7.7910473
 20
20.731062
 30
0.0
 11
8.0292567
 21
20.9880088
 31
0.0
  0
LINE
  5
F3
330
1F
100
AcDbEntity
  8
0
  6
Continuous
 62
     7
370
    25
100
AcDbLine
 10
7.5871903
 20
20.491866
 30
0.0
 11
7.7910473
 21
20.731062
 31
0.0
  0
LINE
  5
F4
330
1F
100
AcDbEntity
  8
0
  6
Continuous
 62
     7
370
    25
100
AcDbLine
 10
7.4153572
 20
20.2722511
 30
0.0
 11
7.5871903
 21
20.491866
 31
0.0
  0
LINE
  5
F5
330
1F
100
AcDbEntity
  8
0
  6
Continuous
 62
     7
370
    25
100
AcDbLine
 10
7.2737725
 20
20.0747603
 30
0.0
 11
7.4153572
 21
20.2722511
 31
0.0
  0
LINE
  5
F6
330
1F
100
AcDbEntity
  8
0
  6
Continuous
 62
     7
370
    25
100
AcDbLine
 10
7.162327
 20
19.9047724
 30
0.0
 11
7.2737725
 21
20.0747603
 31
0.0
  0
LINE
  5
F7
330
1F
100
AcDbEntity
  8
0
  6
Continuous
 62
     7
370
    25
100
AcDbLine
 10
7.0116872
 20
19.6419776
 30
0.0
 11
7.162327
 21
19.9047724
 31
0.0
  0
LINE
  5
F8
330
1F
100
AcDbEntity
  8
0
  6
Continuous
 62
     7
370
    25
100
AcDbLine
 10
6.8823148
 20
19.3740219
 30
0.0
 11
7.0116872
 21
19.6419776
 31
0.0
  0
LINE
  5
F9
330
1F
100
AcDbEntity
  8
0
  6
Continuous
 62
     7
370
    25
100
AcDbLine
 10
6.7749298
 20
19.1964946
 30
0.0
 11
6.8823148
 21
19.3740219
 31
0.0
  0
LINE
  5
FA
330
1F
100
AcDbEntity
  8
0
  6
Continuous
 62
     7
370
    25
100
AcDbLine
 10
6.7205824
 20
19.1237806
 30
0.0
 11
6.7749298
 21
19.1964946
 31
0.0
  0
LINE
  5
FB
330
1F
100
AcDbEntity
  8
0
  6
Continuous
 62
     7
370
    25
100
AcDbLine
 10
6.6663555
 20
19.0617348
 30
0.0
 11
6.7205824
 21
19.1237806
 31
0.0
  0
LINE
  5
FC
330
1F
100
AcDbEntity
  8
0
  6
Continuous
 62
     7
370
    25
100
AcDbLine
 10
6.6126814
 20
19.0103032
 30
0.0
 11
6.6663555
 21
19.0617348
 31
0.0
  0
LINE
  5
FD
330
1F
100
AcDbEntity
  8
0
  6
Continuous
 62
     7
370
    25
100
AcDbLine
 10
6.5599664
 20
18.9694499
 30
0.0
 11
6.6126814
 21
19.0103032
 31
0.0
  0
LINE
  5
FE
330
1F
100
AcDbEntity
  8
0
  6
Continuous
 62
     7
370
    25
100
AcDbLine
 10
6.5086439
 20
18.9390893
 30
0.0
 11
6.5599664
 21
18.9694499
 31
0.0
  0
LINE
  5
FF
330
1F
100
AcDbEntity
  8
0
  6
Continuous
 62
     7
370
    25
100
AcDbLine
 10
6.4591214
 20
18.9191539
 30
0.0
 11
6.5086439
 21
18.9390893
 31
0.0
  0
LINE
  5
100
330
1F
100
AcDbEntity
  8
0
  6
Continuous
 62
     7
370
    25
100
AcDbLine
 10
6.41182
 20
18.9095513
 30
0.0
 11
6.4591214
 21
18.9191539
 31
0.0
  0
LINE
  5
101
330
1F
100
AcDbEntity
  8
0
  6
Continuous
 62
     7
370
    25
100
AcDbLine
 10
6.367133
 20
18.9101659
 30
0.0
 11
6.41182
 21
18.9095513
 31
0.0
  0
LINE
  5
102
330
1F
100
AcDbEntity
  8
0
  6
Continuous
 62
     7
370
    25
100
AcDbLine
 10
6.2689738
 20
18.9395092
 30
0.0
 11
6.367133
 21
18.9101659
 31
0.0
  0
LINE
  5
103
330
1F
100
AcDbEntity
  8
0
  6
Continuous
 62
     7
370
    25
100
AcDbLine
 10
5.6205645
 20
19.1418848
 30
0.0
 11
6.2689738
 21
18.9395092
 31
0.0
  0
LINE
  5
104
330
1F
100
AcDbEntity
  8
0
  6
Continuous
 62
     7
370
    25
100
AcDbLine
 10
4.9656753
 20
19.3221921
 30
0.0
 11
5.6205645
 21
19.1418848
 31
0.0
  0
LINE
  5
105
330
1F
100
AcDbEntity
  8
0
  6
Continuous
 62
     7
370
    25
100
AcDbLine
 10
4.8672344
 20
19.3505759
 30
0.0
 11
4.9656753
 21
19.3221921
 31
0.0
  0
LINE
  5
106
330
1F
100
AcDbEntity
  8
0
  6
Continuous
 62
     7
370
    25
100
AcDbLine
 10
4.829309
 20
19.3742184
 30
0.0
 11
4.8672344
 21
19.3505759
 31
0.0
  0
LINE
  5
107
330
1F
100
AcDbEntity
  8
0
  6
Continuous
 62
     7
370
    25
100
AcDbLine
 10
4.7947081
 20
19.4078697
 30
0.0
 11
4.829309
 21
19.3742184
 31
0.0
  0
LINE
  5
108
330
1F
100
AcDbEntity
  8
0
  6
Continuous
 62
     7
370
    25
100
AcDbLine
 10
4.7638251
 20
19.4514143
 30
0.0
 11
4.7947081
 21
19.4078697
 31
0.0
  0
LINE
  5
109
330
1F
100
AcDbEntity
  8
0
  6
Continuous
 62
     7
370
    25
100
AcDbLine
 10
4.737064
 20
19.5047023
 30
0.0
 11
4.7638251
 21
19.4514143
 31
0.0
  0
LINE
  5
10A
330
1F
100
AcDbEntity
  8
0
  6
Continuous
 62
     7
370
    25
100
AcDbLine
 10
4.7148043
 20
19.5675702
 30
0.0
 11
4.737064
 21
19.5047023
 31
0.0
  0
LINE
  5
10B
330
1F
100
AcDbEntity
  8
0
  6
Continuous
 62
     7
370
    25
100
AcDbLine
 10
4.6974568
 20
19.6398556
 30
0.0
 11
4.7148043
 21
19.5675702
 31
0.0
  0
LINE
  5
10C
330
1F
100
AcDbEntity
  8
0
  6
Continuous
 62
     7
370
    25
100
AcDbLine
 10
4.6853827
 20
19.7213692
 30
0.0
 11
4.6974568
 21
19.6398556
 31
0.0
  0
LINE
  5
10D
330
1F
100
AcDbEntity
  8
0
  6
Continuous
 62
     7
370
    25
100
AcDbLine
 10
4.6789749
 20
19.8119225
 30
0.0
 11
4.6853827
 21
19.7213692
 31
0.0
  0
LINE
  5
10E
330
1F
100
AcDbEntity
  8
0
  6
Continuous
 62
     7
370
    25
100
AcDbLine
 10
4.6846154
 20
20.0193246
 30
0.0
 11
4.6789749
 21
19.8119225
 31
0.0
  0
LINE
  5
10F
330
1F
100
AcDbEntity
  8
0
  6
Continuous
 62
     7
370
    25
100
AcDbLine
 10
4.7206482
 20
20.3146873
 30
0.0
 11
4.6846154
 21
20.0193246
 31
0.0
  0
LINE
  5
110
330
1F
100
AcDbEntity
  8
0
  6
Continuous
 62
     7
370
    25
100
AcDbLine
 10
4.7359996
 20
20.6172065
 30
0.0
 11
4.7206482
 21
20.3146873
 31
0.0
  0
LINE
  5
111
330
1F
100
AcDbEntity
  8
0
  6
Continuous
 62
     7
370
    25
100
AcDbLine
 10
4.7341481
 20
20.8204613
 30
0.0
 11
4.7359996
 21
20.6172065
 31
0.0
  0
LINE
  5
112
330
1F
100
AcDbEntity
  8
0
  6
Continuous
 62
     7
370
    25
100
AcDbLine
 10
4.721811
 20
21.0631476
 30
0.0
 11
4.7341481
 21
20.8204613
 31
0.0
  0
LINE
  5
113
330
1F
100
AcDbEntity
  8
0
  6
Continuous
 62
     7
370
    25
100
AcDbLine
 10
4.6959885
 20
21.3407995
 30
0.0
 11
4.721811
 21
21.0631476
 31
0.0
  0
LINE
  5
114
330
1F
100
AcDbEntity
  8
0
  6
Continuous
 62
     7
370
    25
100
AcDbLine
 10
4.6538123
 20
21.6522373
 30
0.0
 11
4.6959885
 21
21.3407995
 31
0.0
  0
LINE
  5
115
330
1F
100
AcDbEntity
  8
0
  6
Continuous
 62
     7
370
    25
100
AcDbLine
 10
4.5923337
 20
21.9971805
 30
0.0
 11
4.6538123
 21
21.6522373
 31
0.0
  0
LINE
  5
116
330
1F
100
AcDbEntity
  8
0
  6
Continuous
 62
     7
370
    25
100
AcDbLine
 10
4.5084496
 20
22.3754249
 30
0.0
 11
4.5923337
 21
21.9971805
 31
0.0
  0
LINE
  5
117
330
1F
100
AcDbEntity
  8
0
  6
Continuous
 62
     7
370
    25
100
AcDbLine
 10
4.4000167
 20
22.7829725
 30
0.0
 11
4.5084496
 21
22.3754249
 31
0.0
  0
LINE
  5
118
330
1F
100
AcDbEntity
  8
0
  6
Continuous
 62
     7
370
    25
100
AcDbLine
 10
4.2629196
 20
23.2231995
 30
0.0
 11
4.4000167
 21
22.7829725
 31
0.0
  0
LINE
  5
119
330
1F
100
AcDbEntity
  8
0
  6
Continuous
 62
     7
370
    25
100
AcDbLine
 10
4.1125696171
 20
23.6449886327
 30
0.0
 11
4.2629196
 21
23.2231995
 31
0.0
  0
ARC
  5
11A
330
1F
100
AcDbEntity
  8
0
  6
Continuous
 62
     7
370
    25
100
AcDbCircle
 10
0.0000036943
 20
-0.0000267211
 30
0.0
 40
23.99999894896156
100
AcDbArc
 50
80.1332773226
 51
83.5031225116
  0
LINE
  5
11B
330
1F
100
AcDbEntity
  8
0
  6
Continuous
 62
     7
370
    25
100
AcDbLine
 10
2.45249
 20
23.4835
 30
0.0
 11
2.7155811549
 21
23.8458448001
 31
0.0
  0
LINE
  5
11C
330
1F
100
AcDbEntity
  8
0
  6
Continuous
 62
     7
370
    25
100
AcDbLine
 10
2.19692
 20
23.09973
 30
0.0
 11
2.45249
 21
23.4835
 31
0.0
  0
LINE
  5
11D
330
1F
100
AcDbEntity
  8
0
  6
Continuous
 62
     7
370
    25
100
AcDbLine
 10
1.97806
 20
22.73924
 30
0.0
 11
2.19692
 21
23.09973
 31
0.0
  0
LINE
  5
11E
330
1F
100
AcDbEntity
  8
0
  6
Continuous
 62
     7
370
    25
100
AcDbLine
 10
1.79101
 20
22.39995
 30
0.0
 11
1.97806
 21
22.73924
 31
0.0
  0
LINE
  5
11F
330
1F
100
AcDbEntity
  8
0
  6
Continuous
 62
     7
370
    25
100
AcDbLine
 10
1.63484
 20
22.0863
 30
0.0
 11
1.79101
 21
22.39995
 31
0.0
  0
LINE
  5
120
330
1F
100
AcDbEntity
  8
0
  6
Continuous
 62
     7
370
    25
100
AcDbLine
 10
1.50663
 20
21.79936
 30
0.0
 11
1.63484
 21
22.0863
 31
0.0
  0
LINE
  5
121
330
1F
100
AcDbEntity
  8
0
  6
Continuous
 62
     7
370
    25
100
AcDbLine
 10
1.40363
 20
21.54023
 30
0.0
 11
1.50663
 21
21.79936
 31
0.0
  0
LINE
  5
122
330
1F
100
AcDbEntity
  8
0
  6
Continuous
 62
     7
370
    25
100
AcDbLine
 10
1.32342
 20
21.31085
 30
0.0
 11
1.40363
 21
21.54023
 31
0.0
  0
LINE
  5
123
330
1F
100
AcDbEntity
  8
0
  6
Continuous
 62
     7
370
    25
100
AcDbLine
 10
1.26438
 20
21.11635
 30
0.0
 11
1.32342
 21
21.31085
 31
0.0
  0
LINE
  5
124
330
1F
100
AcDbEntity
  8
0
  6
Continuous
 62
     7
370
    25
100
AcDbLine
 10
1.19388
 20
20.82176
 30
0.0
 11
1.26438
 21
21.11635
 31
0.0
  0
LINE
  5
125
330
1F
100
AcDbEntity
  8
0
  6
Continuous
 62
     7
370
    25
100
AcDbLine
 10
1.14524
 20
20.52821
 30
0.0
 11
1.19388
 21
20.82176
 31
0.0
  0
LINE
  5
126
330
1F
100
AcDbEntity
  8
0
  6
Continuous
 62
     7
370
    25
100
AcDbLine
 10
1.09222
 20
20.32762
 30
0.0
 11
1.14524
 21
20.52821
 31
0.0
  0
LINE
  5
127
330
1F
100
AcDbEntity
  8
0
  6
Continuous
 62
     7
370
    25
100
AcDbLine
 10
1.06056
 20
20.24254
 30
0.0
 11
1.09222
 21
20.32762
 31
0.0
  0
LINE
  5
128
330
1F
100
AcDbEntity
  8
0
  6
Continuous
 62
     7
370
    25
100
AcDbLine
 10
1.02601
 20
20.16773
 30
0.0
 11
1.06056
 21
20.24254
 31
0.0
  0
LINE
  5
129
330
1F
100
AcDbEntity
  8
0
  6
Continuous
 62
     7
370
    25
100
AcDbLine
 10
0.989
 20
20.10326
 30
0.0
 11
1.02601
 21
20.16773
 31
0.0
  0
LINE
  5
12A
330
1F
100
AcDbEntity
  8
0
  6
Continuous
 62
     7
370
    25
100
AcDbLine
 10
0.94993
 20
20.04921
 30
0.0
 11
0.989
 21
20.10326
 31
0.0
  0
LINE
  5
12B
330
1F
100
AcDbEntity
  8
0
  6
Continuous
 62
     7
370
    25
100
AcDbLine
 10
0.90924
 20
20.00562
 30
0.0
 11
0.94993
 21
20.04921
 31
0.0
  0
LINE
  5
12C
330
1F
100
AcDbEntity
  8
0
  6
Continuous
 62
     7
370
    25
100
AcDbLine
 10
0.86734
 20
19.97254
 30
0.0
 11
0.90924
 21
20.00562
 31
0.0
  0
LINE
  5
12D
330
1F
100
AcDbEntity
  8
0
  6
Continuous
 62
     7
370
    25
100
AcDbLine
 10
0.82466
 20
19.95
 30
0.0
 11
0.86734
 21
19.97254
 31
0.0
  0
LINE
  5
12E
330
1F
100
AcDbEntity
  8
0
  6
Continuous
 62
     7
370
    25
100
AcDbLine
 10
0.78161
 20
19.938
 30
0.0
 11
0.82466
 21
19.95
 31
0.0
  0
LINE
  5
12F
330
1F
100
AcDbEntity
  8
0
  6
Continuous
 62
     7
370
    25
100
AcDbLine
 10
0.67916
 20
19.9385
 30
0.0
 11
0.78161
 21
19.938
 31
0.0
  0
LINE
  5
130
330
1F
100
AcDbEntity
  8
0
  6
Continuous
 62
     7
370
    25
100
AcDbLine
 10
0.0
 20
19.95
 30
0.0
 11
0.67916
 21
19.9385
 31
0.0
  0
LINE
  5
131
330
1F
100
AcDbEntity
  8
0
  6
Continuous
 62
     7
370
    25
100
AcDbLine
 10
-0.67916
 20
19.9385
 30
0.0
 11
0.0
 21
19.95
 31
0.0
  0
LINE
  5
132
330
1F
100
AcDbEntity
  8
0
  6
Continuous
 62
     7
370
    25
100
AcDbLine
 10
-0.78161
 20
19.938
 30
0.0
 11
-0.67916
 21
19.9385
 31
0.0
  0
LINE
  5
133
330
1F
100
AcDbEntity
  8
0
  6
Continuous
 62
     7
370
    25
100
AcDbLine
 10
-0.82466
 20
19.95
 30
0.0
 11
-0.78161
 21
19.938
 31
0.0
  0
LINE
  5
134
330
1F
100
AcDbEntity
  8
0
  6
Continuous
 62
     7
370
    25
100
AcDbLine
 10
-0.86734
 20
19.97254
 30
0.0
 11
-0.82466
 21
19.95
 31
0.0
  0
LINE
  5
135
330
1F
100
AcDbEntity
  8
0
  6
Continuous
 62
     7
370
    25
100
AcDbLine
 10
-0.90924
 20
20.00562
 30
0.0
 11
-0.86734
 21
19.97254
 31
0.0
  0
LINE
  5
136
330
1F
100
AcDbEntity
  8
0
  6
Continuous
 62
     7
370
    25
100
AcDbLine
 10
-0.94993
 20
20.04921
 30
0.0
 11
-0.90924
 21
20.00562
 31
0.0
  0
LINE
  5
137
330
1F
100
AcDbEntity
  8
0
  6
Continuous
 62
     7
370
    25
100
AcDbLine
 10
-0.989
 20
20.10326
 30
0.0
 11
-0.94993
 21
20.04921
 31
0.0
  0
LINE
  5
138
330
1F
100
AcDbEntity
  8
0
  6
Continuous
 62
     7
370
    25
100
AcDbLine
 10
-1.02601
 20
20.16773
 30
0.0
 11
-0.989
 21
20.10326
 31
0.0
  0
LINE
  5
139
330
1F
100
AcDbEntity
  8
0
  6
Continuous
 62
     7
370
    25
100
AcDbLine
 10
-1.06056
 20
20.24254
 30
0.0
 11
-1.02601
 21
20.16773
 31
0.0
  0
LINE
  5
13A
330
1F
100
AcDbEntity
  8
0
  6
Continuous
 62
     7
370
    25
100
AcDbLine
 10
-1.09222
 20
20.32762
 30
0.0
 11
-1.06056
 21
20.24254
 31
0.0
  0
LINE
  5
13B
330
1F
100
AcDbEntity
  8
0
  6
Continuous
 62
     7
370
    25
100
AcDbLine
 10
-1.14524
 20
20.52821
 30
0.0
 11
-1.09222
 21
20.32762
 31
0.0
  0
LINE
  5
13C
330
1F
100
AcDbEntity
  8
0
  6
Continuous
 62
     7
370
    25
100
AcDbLine
 10
-1.19388
 20
20.82176
 30
0.0
 11
-1.14524
 21
20.52821
 31
0.0
  0
LINE
  5
13D
330
1F
100
AcDbEntity
  8
0
  6
Continuous
 62
     7
370
    25
100
AcDbLine
 10
-1.26438
 20
21.11635
 30
0.0
 11
-1.19388
 21
20.82176
 31
0.0
  0
LINE
  5
13E
330
1F
100
AcDbEntity
  8
0
  6
Continuous
 62
     7
370
    25
100
AcDbLine
 10
-1.32342
 20
21.31085
 30
0.0
 11
-1.26438
 21
21.11635
 31
0.0
  0
LINE
  5
13F
330
1F
100
AcDbEntity
  8
0
  6
Continuous
 62
     7
370
    25
100
AcDbLine
 10
-1.40363
 20
21.54023
 30
0.0
 11
-1.32342
 21
21.31085
 31
0.0
  0
LINE
  5
140
330
1F
100
AcDbEntity
  8
0
  6
Continuous
 62
     7
370
    25
100
AcDbLine
 10
-1.50663
 20
21.79936
 30
0.0
 11
-1.40363
 21
21.54023
 31
0.0
  0
LINE
  5
141
330
1F
100
AcDbEntity
  8
0
  6
Continuous
 62
     7
370
    25
100
AcDbLine
 10
-1.63484
 20
22.0863
 30
0.0
 11
-1.50663
 21
21.79936
 31
0.0
  0
LINE
  5
142
330
1F
100
AcDbEntity
  8
0
  6
Continuous
 62
     7
370
    25
100
AcDbLine
 10
-1.79101
 20
22.39995
 30
0.0
 11
-1.63484
 21
22.0863
 31
0.0
  0
LINE
  5
143
330
1F
100
AcDbEntity
  8
0
  6
Continuous
 62
     7
370
    25
100
AcDbLine
 10
-1.97806
 20
22.73924
 30
0.0
 11
-1.79101
 21
22.39995
 31
0.0
  0
LINE
  5
144
330
1F
100
AcDbEntity
  8
0
  6
Continuous
 62
     7
370
    25
100
AcDbLine
 10
-2.19692
 20
23.09973
 30
0.0
 11
-1.97806
 21
22.73924
 31
0.0
  0
LINE
  5
145
330
1F
100
AcDbEntity
  8
0
  6
Continuous
 62
     7
370
    25
100
AcDbLine
 10
-2.45249
 20
23.4835
 30
0.0
 11
-2.19692
 21
23.09973
 31
0.0
  0
LINE
  5
146
330
1F
100
AcDbEntity
  8
0
  6
Continuous
 62
     7
370
    25
100
AcDbLine
 10
-2.7155813
 20
23.845845
 30
0.0
 11
-2.45249
 21
23.4835
 31
0.0
  0
ARC
  5
147
330
1F
100
AcDbEntity
  8
0
  6
Continuous
 62
     7
370
    25
100
AcDbCircle
 10
0.0000036943
 20
-0.0000267211
 30
0.0
 40
24.00000000000001
100
AcDbArc
 50
96.4968953042
 51
99.8667403456
  0
LINE
  5
148
330
1F
100
AcDbEntity
  8
0
  6
Continuous
 62
     7
370
    25
100
AcDbLine
 10
-4.2629196
 20
23.2231995
 30
0.0
 11
-4.1125697
 21
23.6449884
 31
0.0
  0
LINE
  5
149
330
1F
100
AcDbEntity
  8
0
  6
Continuous
 62
     7
370
    25
100
AcDbLine
 10
-4.4000167
 20
22.7829725
 30
0.0
 11
-4.2629196
 21
23.2231995
 31
0.0
  0
LINE
  5
14A
330
1F
100
AcDbEntity
  8
0
  6
Continuous
 62
     7
370
    25
100
AcDbLine
 10
-4.5084496
 20
22.3754249
 30
0.0
 11
-4.4000167
 21
22.7829725
 31
0.0
  0
LINE
  5
14B
330
1F
100
AcDbEntity
  8
0
  6
Continuous
 62
     7
370
    25
100
AcDbLine
 10
-4.5923337
 20
21.9971805
 30
0.0
 11
-4.5084496
 21
22.3754249
 31
0.0
  0
LINE
  5
14C
330
1F
100
AcDbEntity
  8
0
  6
Continuous
 62
     7
370
    25
100
AcDbLine
 10
-4.6538123
 20
21.6522373
 30
0.0
 11
-4.5923337
 21
21.9971805
 31
0.0
  0
LINE
  5
14D
330
1F
100
AcDbEntity
  8
0
  6
Continuous
 62
     7
370
    25
100
AcDbLine
 10
-4.6959885
 20
21.3407995
 30
0.0
 11
-4.6538123
 21
21.6522373
 31
0.0
  0
LINE
  5
14E
330
1F
100
AcDbEntity
  8
0
  6
Continuous
 62
     7
370
    25
100
AcDbLine
 10
-4.721811
 20
21.0631476
 30
0.0
 11
-4.6959885
 21
21.3407995
 31
0.0
  0
LINE
  5
14F
330
1F
100
AcDbEntity
  8
0
  6
Continuous
 62
     7
370
    25
100
AcDbLine
 10
-4.7341481
 20
20.8204613
 30
0.0
 11
-4.721811
 21
21.0631476
 31
0.0
  0
LINE
  5
150
330
1F
100
AcDbEntity
  8
0
  6
Continuous
 62
     7
370
    25
100
AcDbLine
 10
-4.7359996
 20
20.6172065
 30
0.0
 11
-4.7341481
 21
20.8204613
 31
0.0
  0
LINE
  5
151
330
1F
100
AcDbEntity
  8
0
  6
Continuous
 62
     7
370
    25
100
AcDbLine
 10
-4.7206482
 20
20.3146873
 30
0.0
 11
-4.7359996
 21
20.6172065
 31
0.0
  0
LINE
  5
152
330
1F
100
AcDbEntity
  8
0
  6
Continuous
 62
     7
370
    25
100
AcDbLine
 10
-4.6846154
 20
20.0193246
 30
0.0
 11
-4.7206482
 21
20.3146873
 31
0.0
  0
LINE
  5
153
330
1F
100
AcDbEntity
  8
0
  6
Continuous
 62
     7
370
    25
100
AcDbLine
 10
-4.6789749
 20
19.8119225
 30
0.0
 11
-4.6846154
 21
20.0193246
 31
0.0
  0
LINE
  5
154
330
1F
100
AcDbEntity
  8
0
  6
Continuous
 62
     7
370
    25
100
AcDbLine
 10
-4.6853827
 20
19.7213692
 30
0.0
 11
-4.6789749
 21
19.8119225
 31
0.0
  0
LINE
  5
155
330
1F
100
AcDbEntity
  8
0
  6
Continuous
 62
     7
370
    25
100
AcDbLine
 10
-4.6974568
 20
19.6398556
 30
0.0
 11
-4.6853827
 21
19.7213692
 31
0.0
  0
LINE
  5
156
330
1F
100
AcDbEntity
  8
0
  6
Continuous
 62
     7
370
    25
100
AcDbLine
 10
-4.7148043
 20
19.5675702
 30
0.0
 11
-4.6974568
 21
19.6398556
 31
0.0
  0
LINE
  5
157
330
1F
100
AcDbEntity
  8
0
  6
Continuous
 62
     7
370
    25
100
AcDbLine
 10
-4.737064
 20
19.5047023
 30
0.0
 11
-4.7148043
 21
19.5675702
 31
0.0
  0
LINE
  5
158
330
1F
100
AcDbEntity
  8
0
  6
Continuous
 62
     7
370
    25
100
AcDbLine
 10
-4.7638251
 20
19.4514143
 30
0.0
 11
-4.737064
 21
19.5047023
 31
0.0
  0
LINE
  5
159
330
1F
100
AcDbEntity
  8
0
  6
Continuous
 62
     7
370
    25
100
AcDbLine
 10
-4.7947081
 20
19.4078697
 30
0.0
 11
-4.7638251
 21
19.4514143
 31
0.0
  0
LINE
  5
15A
330
1F
100
AcDbEntity
  8
0
  6
Continuous
 62
     7
370
    25
100
AcDbLine
 10
-4.829309
 20
19.3742184
 30
0.0
 11
-4.7947081
 21
19.4078697
 31
0.0
  0
LINE
  5
15B
330
1F
100
AcDbEntity
  8
0
  6
Continuous
 62
     7
370
    25
100
AcDbLine
 10
-4.8672344
 20
19.3505759
 30
0.0
 11
-4.829309
 21
19.3742184
 31
0.0
  0
LINE
  5
15C
330
1F
100
AcDbEntity
  8
0
  6
Continuous
 62
     7
370
    25
100
AcDbLine
 10
-4.9656753
 20
19.3221921
 30
0.0
 11
-4.8672344
 21
19.3505759
 31
0.0
  0
LINE
  5
15D
330
1F
100
AcDbEntity
  8
0
  6
Continuous
 62
     7
370
    25
100
AcDbLine
 10
-5.6205645
 20
19.1418848
 30
0.0
 11
-4.9656753
 21
19.3221921
 31
0.0
  0
LINE
  5
15E
330
1F
100
AcDbEntity
  8
0
  6
Continuous
 62
     7
370
    25
100
AcDbLine
 10
-6.2689738
 20
18.9395092
 30
0.0
 11
-5.6205645
 21
19.1418848
 31
0.0
  0
LINE
  5
15F
330
1F
100
AcDbEntity
  8
0
  6
Continuous
 62
     7
370
    25
100
AcDbLine
 10
-6.367133
 20
18.9101659
 30
0.0
 11
-6.2689738
 21
18.9395092
 31
0.0
  0
LINE
  5
160
330
1F
100
AcDbEntity
  8
0
  6
Continuous
 62
     7
370
    25
100
AcDbLine
 10
-6.41182
 20
18.9095513
 30
0.0
 11
-6.367133
 21
18.9101659
 31
0.0
  0
LINE
  5
161
330
1F
100
AcDbEntity
  8
0
  6
Continuous
 62
     7
370
    25
100
AcDbLine
 10
-6.4591214
 20
18.9191539
 30
0.0
 11
-6.41182
 21
18.9095513
 31
0.0
  0
LINE
  5
162
330
1F
100
AcDbEntity
  8
0
  6
Continuous
 62
     7
370
    25
100
AcDbLine
 10
-6.5086439
 20
18.9390893
 30
0.0
 11
-6.4591214
 21
18.9191539
 31
0.0
  0
LINE
  5
163
330
1F
100
AcDbEntity
  8
0
  6
Continuous
 62
     7
370
    25
100
AcDbLine
 10
-6.5599664
 20
18.9694499
 30
0.0
 11
-6.5086439
 21
18.9390893
 31
0.0
  0
LINE
  5
164
330
1F
100
AcDbEntity
  8
0
  6
Continuous
 62
     7
370
    25
100
AcDbLine
 10
-6.6126814
 20
19.0103032
 30
0.0
 11
-6.5599664
 21
18.9694499
 31
0.0
  0
LINE
  5
165
330
1F
100
AcDbEntity
  8
0
  6
Continuous
 62
     7
370
    25
100
AcDbLine
 10
-6.6663555
 20
19.0617348
 30
0.0
 11
-6.6126814
 21
19.0103032
 31
0.0
  0
LINE
  5
166
330
1F
100
AcDbEntity
  8
0
  6
Continuous
 62
     7
370
    25
100
AcDbLine
 10
-6.7205824
 20
19.1237806
 30
0.0
 11
-6.6663555
 21
19.0617348
 31
0.0
  0
LINE
  5
167
330
1F
100
AcDbEntity
  8
0
  6
Continuous
 62
     7
370
    25
100
AcDbLine
 10
-6.7749298
 20
19.1964946
 30
0.0
 11
-6.7205824
 21
19.1237806
 31
0.0
  0
LINE
  5
168
330
1F
100
AcDbEntity
  8
0
  6
Continuous
 62
     7
370
    25
100
AcDbLine
 10
-6.8823148
 20
19.3740219
 30
0.0
 11
-6.7749298
 21
19.1964946
 31
0.0
  0
LINE
  5
169
330
1F
100
AcDbEntity
  8
0
  6
Continuous
 62
     7
370
    25
100
AcDbLine
 10
-7.0116872
 20
19.6419776
 30
0.0
 11
-6.8823148
 21
19.3740219
 31
0.0
  0
LINE
  5
16A
330
1F
100
AcDbEntity
  8
0
  6
Continuous
 62
     7
370
    25
100
AcDbLine
 10
-7.162327
 20
19.9047724
 30
0.0
 11
-7.0116872
 21
19.6419776
 31
0.0
  0
LINE
  5
16B
330
1F
100
AcDbEntity
  8
0
  6
Continuous
 62
     7
370
    25
100
AcDbLine
 10
-7.2737725
 20
20.0747603
 30
0.0
 11
-7.162327
 21
19.9047724
 31
0.0
  0
LINE
  5
16C
330
1F
100
AcDbEntity
  8
0
  6
Continuous
 62
     7
370
    25
100
AcDbLine
 10
-7.4153572
 20
20.2722511
 30
0.0
 11
-7.2737725
 21
20.0747603
 31
0.0
  0
LINE
  5
16D
330
1F
100
AcDbEntity
  8
0
  6
Continuous
 62
     7
370
    25
100
AcDbLine
 10
-7.5871903
 20
20.491866
 30
0.0
 11
-7.4153572
 21
20.2722511
 31
0.0
  0
LINE
  5
16E
330
1F
100
AcDbEntity
  8
0
  6
Continuous
 62
     7
370
    25
100
AcDbLine
 10
-7.7910473
 20
20.731062
 30
0.0
 11
-7.5871903
 21
20.491866
 31
0.0
  0
LINE
  5
16F
330
1F
100
AcDbEntity
  8
0
  6
Continuous
 62
     7
370
    25
100
AcDbLine
 10
-8.0292567
 20
20.9880088
 30
0.0
 11
-7.7910473
 21
20.731062
 31
0.0
  0
LINE
  5
170
330
1F
100
AcDbEntity
  8
0
  6
Continuous
 62
     7
370
    25
100
AcDbLine
 10
-8.3043189
 20
21.2608571
 30
0.0
 11
-8.0292567
 21
20.9880088
 31
0.0
  0
LINE
  5
171
330
1F
100
AcDbEntity
  8
0
  6
Continuous
 62
     7
370
    25
100
AcDbLine
 10
-8.6158753
 20
21.5450847
 30
0.0
 11
-8.3043189
 21
21.2608571
 31
0.0
  0
LINE
  5
172
330
1F
100
AcDbEntity
  8
0
  6
Continuous
 62
     7
370
    25
100
AcDbLine
 10
-8.9692134
 20
21.841307
 30
0.0
 11
-8.6158753
 21
21.5450847
 31
0.0
  0
LINE
  5
173
330
1F
100
AcDbEntity
  8
0
  6
Continuous
 62
     7
370
    25
100
AcDbLine
 10
-9.3237322771
 20
22.1148531367
 30
0.0
 11
-8.9692134
 21
21.841307
 31
0.0
  0
ARC
  5
174
330
1F
100
AcDbEntity
  8
0
  6
Continuous
 62
     7
370
    25
100
AcDbCircle
 10
0.0000172734
 20
-0.0000207638
 30
0.0
 40
23.99999902730617
100
AcDbArc
 50
112.8605492777
 51
116.2303942054
  0
LINE
  5
175
330
1F
100
AcDbEntity
  8
0
  6
Continuous
 62
     7
370
    25
100
AcDbLine
 10
-10.6329728
 20
21.0814935
 30
0.0
 11
-10.6075447127
 21
21.5285551767
 31
0.0
  0
LINE
  5
176
330
1F
100
AcDbEntity
  8
0
  6
Continuous
 62
     7
370
    25
100
AcDbLine
 10
-10.6404902
 20
20.6204741
 30
0.0
 11
-10.6329728
 21
21.0814935
 31
0.0
  0
LINE
  5
177
330
1F
100
AcDbEntity
  8
0
  6
Continuous
 62
     7
370
    25
100
AcDbLine
 10
-10.6297113
 20
20.198886
 30
0.0
 11
-10.6404902
 21
20.6204741
 31
0.0
  0
LINE
  5
178
330
1F
100
AcDbEntity
  8
0
  6
Continuous
 62
     7
370
    25
100
AcDbLine
 10
-10.6036338
 20
19.8123302
 30
0.0
 11
-10.6297113
 21
20.198886
 31
0.0
  0
LINE
  5
179
330
1F
100
AcDbEntity
  8
0
  6
Continuous
 62
     7
370
    25
100
AcDbLine
 10
-10.5654404
 20
19.4640391
 30
0.0
 11
-10.6036338
 21
19.8123302
 31
0.0
  0
LINE
  5
17A
330
1F
100
AcDbEntity
  8
0
  6
Continuous
 62
     7
370
    25
100
AcDbLine
 10
-10.518166
 20
19.1533343
 30
0.0
 11
-10.5654404
 21
19.4640391
 31
0.0
  0
LINE
  5
17B
330
1F
100
AcDbEntity
  8
0
  6
Continuous
 62
     7
370
    25
100
AcDbLine
 10
-10.4647189
 20
18.8796543
 30
0.0
 11
-10.518166
 21
19.1533343
 31
0.0
  0
LINE
  5
17C
330
1F
100
AcDbEntity
  8
0
  6
Continuous
 62
     7
370
    25
100
AcDbLine
 10
-10.4081836
 20
18.6433227
 30
0.0
 11
-10.4647189
 21
18.8796543
 31
0.0
  0
LINE
  5
17D
330
1F
100
AcDbEntity
  8
0
  6
Continuous
 62
     7
370
    25
100
AcDbLine
 10
-10.3526966
 20
18.4477795
 30
0.0
 11
-10.4081836
 21
18.6433227
 31
0.0
  0
LINE
  5
17E
330
1F
100
AcDbEntity
  8
0
  6
Continuous
 62
     7
370
    25
100
AcDbLine
 10
-10.2527376
 20
18.1618394
 30
0.0
 11
-10.3526966
 21
18.4477795
 31
0.0
  0
LINE
  5
17F
330
1F
100
AcDbEntity
  8
0
  6
Continuous
 62
     7
370
    25
100
AcDbLine
 10
-10.134951
 20
17.8885927
 30
0.0
 11
-10.2527376
 21
18.1618394
 31
0.0
  0
LINE
  5
180
330
1F
100
AcDbEntity
  8
0
  6
Continuous
 62
     7
370
    25
100
AcDbLine
 10
-10.0711072
 20
17.6911809
 30
0.0
 11
-10.134951
 21
17.8885927
 31
0.0
  0
LINE
  5
181
330
1F
100
AcDbEntity
  8
0
  6
Continuous
 62
     7
370
    25
100
AcDbLine
 10
-10.0517435
 20
17.6024903
 30
0.0
 11
-10.0711072
 21
17.6911809
 31
0.0
  0
LINE
  5
182
330
1F
100
AcDbEntity
  8
0
  6
Continuous
 62
     7
370
    25
100
AcDbLine
 10
-10.0403635
 20
17.520877
 30
0.0
 11
-10.0517435
 21
17.6024903
 31
0.0
  0
LINE
  5
183
330
1F
100
AcDbEntity
  8
0
  6
Continuous
 62
     7
370
    25
100
AcDbLine
 10
-10.0366432
 20
17.4466323
 30
0.0
 11
-10.0403635
 21
17.520877
 31
0.0
  0
LINE
  5
184
330
1F
100
AcDbEntity
  8
0
  6
Continuous
 62
     7
370
    25
100
AcDbLine
 10
-10.0402893
 20
17.3800397
 30
0.0
 11
-10.0366432
 21
17.4466323
 31
0.0
  0
LINE
  5
185
330
1F
100
AcDbEntity
  8
0
  6
Continuous
 62
     7
370
    25
100
AcDbLine
 10
-10.0509534
 20
17.3213708
 30
0.0
 11
-10.0402893
 21
17.3800397
 31
0.0
  0
LINE
  5
186
330
1F
100
AcDbEntity
  8
0
  6
Continuous
 62
     7
370
    25
100
AcDbLine
 10
-10.0683175
 20
17.2708892
 30
0.0
 11
-10.0509534
 21
17.3213708
 31
0.0
  0
LINE
  5
187
330
1F
100
AcDbEntity
  8
0
  6
Continuous
 62
     7
370
    25
100
AcDbLine
 10
-10.0920362
 20
17.2288528
 30
0.0
 11
-10.0683175
 21
17.2708892
 31
0.0
  0
LINE
  5
188
330
1F
100
AcDbEntity
  8
0
  6
Continuous
 62
     7
370
    25
100
AcDbLine
 10
-10.1217644
 20
17.1954832
 30
0.0
 11
-10.0920362
 21
17.2288528
 31
0.0
  0
LINE
  5
189
330
1F
100
AcDbEntity
  8
0
  6
Continuous
 62
     7
370
    25
100
AcDbLine
 10
-10.2082212
 20
17.1405152
 30
0.0
 11
-10.1217644
 21
17.1954832
 31
0.0
  0
LINE
  5
18A
330
1F
100
AcDbEntity
  8
0
  6
Continuous
 62
     7
370
    25
100
AcDbLine
 10
-10.7857843
 20
16.783008
 30
0.0
 11
-10.2082212
 21
17.1405152
 31
0.0
  0
LINE
  5
18B
330
1F
100
AcDbEntity
  8
0
  6
Continuous
 62
     7
370
    25
100
AcDbLine
 10
-11.3509127
 20
16.4061519
 30
0.0
 11
-10.7857843
 21
16.783008
 31
0.0
  0
LINE
  5
18C
330
1F
100
AcDbEntity
  8
0
  6
Continuous
 62
     7
370
    25
100
AcDbLine
 10
-11.4368288
 20
16.3503427
 30
0.0
 11
-11.3509127
 21
16.4061519
 31
0.0
  0
LINE
  5
18D
330
1F
100
AcDbEntity
  8
0
  6
Continuous
 62
     7
370
    25
100
AcDbLine
 10
-11.4795324
 20
16.3371631
 30
0.0
 11
-11.4368288
 21
16.3503427
 31
0.0
  0
LINE
  5
18E
330
1F
100
AcDbEntity
  8
0
  6
Continuous
 62
     7
370
    25
100
AcDbLine
 10
-11.5276232
 20
16.3330504
 30
0.0
 11
-11.4795324
 21
16.3371631
 31
0.0
  0
LINE
  5
18F
330
1F
100
AcDbEntity
  8
0
  6
Continuous
 62
     7
370
    25
100
AcDbLine
 10
-11.5807561
 20
16.3382262
 30
0.0
 11
-11.5276232
 21
16.3330504
 31
0.0
  0
LINE
  5
190
330
1F
100
AcDbEntity
  8
0
  6
Continuous
 62
     7
370
    25
100
AcDbLine
 10
-11.6385533
 20
16.3528978
 30
0.0
 11
-11.5807561
 21
16.3382262
 31
0.0
  0
LINE
  5
191
330
1F
100
AcDbEntity
  8
0
  6
Continuous
 62
     7
370
    25
100
AcDbLine
 10
-11.7006427
 20
16.3772447
 30
0.0
 11
-11.6385533
 21
16.3528978
 31
0.0
  0
LINE
  5
192
330
1F
100
AcDbEntity
  8
0
  6
Continuous
 62
     7
370
    25
100
AcDbLine
 10
-11.7666326
 20
16.4114712
 30
0.0
 11
-11.7006427
 21
16.3772447
 31
0.0
  0
LINE
  5
193
330
1F
100
AcDbEntity
  8
0
  6
Continuous
 62
     7
370
    25
100
AcDbLine
 10
-11.8361432
 20
16.4557263
 30
0.0
 11
-11.7666326
 21
16.4114712
 31
0.0
  0
LINE
  5
194
330
1F
100
AcDbEntity
  8
0
  6
Continuous
 62
     7
370
    25
100
AcDbLine
 10
-11.908775
 20
16.5101834
 30
0.0
 11
-11.8361432
 21
16.4557263
 31
0.0
  0
LINE
  5
195
330
1F
100
AcDbEntity
  8
0
  6
Continuous
 62
     7
370
    25
100
AcDbLine
 10
-12.0618254
 20
16.6502657
 30
0.0
 11
-11.908775
 21
16.5101834
 31
0.0
  0
LINE
  5
196
330
1F
100
AcDbEntity
  8
0
  6
Continuous
 62
     7
370
    25
100
AcDbLine
 10
-12.2614491
 20
16.8709189
 30
0.0
 11
-12.0618254
 21
16.6502657
 31
0.0
  0
LINE
  5
197
330
1F
100
AcDbEntity
  8
0
  6
Continuous
 62
     7
370
    25
100
AcDbLine
 10
-12.4800249
 20
17.0806286
 30
0.0
 11
-12.2614491
 21
16.8709189
 31
0.0
  0
LINE
  5
198
330
1F
100
AcDbEntity
  8
0
  6
Continuous
 62
     7
370
    25
100
AcDbLine
 10
-12.6348471
 20
17.212333
 30
0.0
 11
-12.4800249
 21
17.0806286
 31
0.0
  0
LINE
  5
199
330
1F
100
AcDbEntity
  8
0
  6
Continuous
 62
     7
370
    25
100
AcDbLine
 10
-12.8263363
 20
17.3619349
 30
0.0
 11
-12.6348471
 21
17.212333
 31
0.0
  0
LINE
  5
19A
330
1F
100
AcDbEntity
  8
0
  6
Continuous
 62
     7
370
    25
100
AcDbLine
 10
-13.0530816
 20
17.5242429
 30
0.0
 11
-12.8263363
 21
17.3619349
 31
0.0
  0
LINE
  5
19B
330
1F
100
AcDbEntity
  8
0
  6
Continuous
 62
     7
370
    25
100
AcDbLine
 10
-13.3160702
 20
17.6963167
 30
0.0
 11
-13.0530816
 21
17.5242429
 31
0.0
  0
LINE
  5
19C
330
1F
100
AcDbEntity
  8
0
  6
Continuous
 62
     7
370
    25
100
AcDbLine
 10
-13.6170208
 20
17.875744
 30
0.0
 11
-13.3160702
 21
17.6963167
 31
0.0
  0
LINE
  5
19D
330
1F
100
AcDbEntity
  8
0
  6
Continuous
 62
     7
370
    25
100
AcDbLine
 10
-13.9578113
 20
18.060046
 30
0.0
 11
-13.6170208
 21
17.875744
 31
0.0
  0
LINE
  5
19E
330
1F
100
AcDbEntity
  8
0
  6
Continuous
 62
     7
370
    25
100
AcDbLine
 10
-14.3368236
 20
18.2449848
 30
0.0
 11
-13.9578113
 21
18.060046
 31
0.0
  0
LINE
  5
19F
330
1F
100
AcDbEntity
  8
0
  6
Continuous
 62
     7
370
    25
100
AcDbLine
 10
-14.7593045
 20
18.4296611
 30
0.0
 11
-14.3368236
 21
18.2449848
 31
0.0
  0
LINE
  5
1A0
330
1F
100
AcDbEntity
  8
0
  6
Continuous
 62
     7
370
    25
100
AcDbLine
 10
-15.1765295
 20
18.5922472
 30
0.0
 11
-14.7593045
 21
18.4296611
 31
0.0
  0
ARC
  5
1A1
330
1F
100
AcDbEntity
  8
0
  6
Continuous
 62
     7
370
    25
100
AcDbCircle
 10
0.0000172734
 20
-0.0000207638
 30
0.0
 40
24.0
100
AcDbArc
 50
129.2241671778
 51
132.5940120111
  0
LINE
  5
1A2
330
1F
100
AcDbEntity
  8
0
  6
Continuous
 62
     7
370
    25
100
AcDbLine
 10
-16.1416057
 20
17.2318903
 30
0.0
 11
-16.2431596
 21
17.668007
 31
0.0
  0
LINE
  5
1A3
330
1F
100
AcDbEntity
  8
0
  6
Continuous
 62
     7
370
    25
100
AcDbLine
 10
-16.0189345
 20
16.7874275
 30
0.0
 11
-16.1416057
 21
17.2318903
 31
0.0
  0
LINE
  5
1A4
330
1F
100
AcDbEntity
  8
0
  6
Continuous
 62
     7
370
    25
100
AcDbLine
 10
-15.8898171
 20
16.3859534
 30
0.0
 11
-16.0189345
 21
16.7874275
 31
0.0
  0
LINE
  5
1A5
330
1F
100
AcDbEntity
  8
0
  6
Continuous
 62
     7
370
    25
100
AcDbLine
 10
-15.7558906
 20
16.0224027
 30
0.0
 11
-15.8898171
 21
16.3859534
 31
0.0
  0
LINE
  5
1A6
330
1F
100
AcDbEntity
  8
0
  6
Continuous
 62
     7
370
    25
100
AcDbLine
 10
-15.6211193
 20
15.6989803
 30
0.0
 11
-15.7558906
 21
16.0224027
 31
0.0
  0
LINE
  5
1A7
330
1F
100
AcDbEntity
  8
0
  6
Continuous
 62
     7
370
    25
100
AcDbLine
 10
-15.4882242
 20
15.4141799
 30
0.0
 11
-15.6211193
 21
15.6989803
 31
0.0
  0
LINE
  5
1A8
330
1F
100
AcDbEntity
  8
0
  6
Continuous
 62
     7
370
    25
100
AcDbLine
 10
-15.3598375
 20
15.1666436
 30
0.0
 11
-15.4882242
 21
15.4141799
 31
0.0
  0
LINE
  5
1A9
330
1F
100
AcDbEntity
  8
0
  6
Continuous
 62
     7
370
    25
100
AcDbLine
 10
-15.23901
 20
14.955813
 30
0.0
 11
-15.3598375
 21
15.1666436
 31
0.0
  0
LINE
  5
1AA
330
1F
100
AcDbEntity
  8
0
  6
Continuous
 62
     7
370
    25
100
AcDbLine
 10
-15.1306797
 20
14.7838231
 30
0.0
 11
-15.23901
 21
14.955813
 31
0.0
  0
LINE
  5
1AB
330
1F
100
AcDbEntity
  8
0
  6
Continuous
 62
     7
370
    25
100
AcDbLine
 10
-14.9542111
 20
14.5376273
 30
0.0
 11
-15.1306797
 21
14.7838231
 31
0.0
  0
LINE
  5
1AC
330
1F
100
AcDbEntity
  8
0
  6
Continuous
 62
     7
370
    25
100
AcDbLine
 10
-14.7642133
 20
14.3086333
 30
0.0
 11
-14.9542111
 21
14.5376273
 31
0.0
  0
LINE
  5
1AD
330
1F
100
AcDbEntity
  8
0
  6
Continuous
 62
     7
370
    25
100
AcDbLine
 10
-14.6473382
 20
14.137205
 30
0.0
 11
-14.7642133
 21
14.3086333
 31
0.0
  0
LINE
  5
1AE
330
1F
100
AcDbEntity
  8
0
  6
Continuous
 62
     7
370
    25
100
AcDbLine
 10
-14.6037719
 20
14.0575624
 30
0.0
 11
-14.6473382
 21
14.137205
 31
0.0
  0
LINE
  5
1AF
330
1F
100
AcDbEntity
  8
0
  6
Continuous
 62
     7
370
    25
100
AcDbLine
 10
-14.5698597
 20
13.9824611
 30
0.0
 11
-14.6037719
 21
14.0575624
 31
0.0
  0
LINE
  5
1B0
330
1F
100
AcDbEntity
  8
0
  6
Continuous
 62
     7
370
    25
100
AcDbLine
 10
-14.5453729
 20
13.9122719
 30
0.0
 11
-14.5698597
 21
13.9824611
 31
0.0
  0
LINE
  5
1B1
330
1F
100
AcDbEntity
  8
0
  6
Continuous
 62
     7
370
    25
100
AcDbLine
 10
-14.5301101
 20
13.8473496
 30
0.0
 11
-14.5453729
 21
13.9122719
 31
0.0
  0
LINE
  5
1B2
330
1F
100
AcDbEntity
  8
0
  6
Continuous
 62
     7
370
    25
100
AcDbLine
 10
-14.5238132
 20
13.7880527
 30
0.0
 11
-14.5301101
 21
13.8473496
 31
0.0
  0
LINE
  5
1B3
330
1F
100
AcDbEntity
  8
0
  6
Continuous
 62
     7
370
    25
100
AcDbLine
 10
-14.5262517
 20
13.734724
 30
0.0
 11
-14.5238132
 21
13.7880527
 31
0.0
  0
LINE
  5
1B4
330
1F
100
AcDbEntity
  8
0
  6
Continuous
 62
     7
370
    25
100
AcDbLine
 10
-14.5371666
 20
13.6877081
 30
0.0
 11
-14.5262517
 21
13.734724
 31
0.0
  0
LINE
  5
1B5
330
1F
100
AcDbEntity
  8
0
  6
Continuous
 62
     7
370
    25
100
AcDbLine
 10
-14.5562893
 20
13.6473147
 30
0.0
 11
-14.5371666
 21
13.6877081
 31
0.0
  0
LINE
  5
1B6
330
1F
100
AcDbEntity
  8
0
  6
Continuous
 62
     7
370
    25
100
AcDbLine
 10
-15.077204
 20
13.0644716
 30
0.0
 11
-14.5562893
 21
13.6473147
 31
0.0
  0
LINE
  5
1B7
330
1F
100
AcDbEntity
  8
0
  6
Continuous
 62
     7
370
    25
100
AcDbLine
 10
-15.5799807
 20
12.4659119
 30
0.0
 11
-15.077204
 21
13.0644716
 31
0.0
  0
LINE
  5
1B8
330
1F
100
AcDbEntity
  8
0
  6
Continuous
 62
     7
370
    25
100
AcDbLine
 10
-15.6172415
 20
12.4412352
 30
0.0
 11
-15.5799807
 21
12.4659119
 31
0.0
  0
LINE
  5
1B9
330
1F
100
AcDbEntity
  8
0
  6
Continuous
 62
     7
370
    25
100
AcDbLine
 10
-15.6622255
 20
12.4237404
 30
0.0
 11
-15.6172415
 21
12.4412352
 31
0.0
  0
LINE
  5
1BA
330
1F
100
AcDbEntity
  8
0
  6
Continuous
 62
     7
370
    25
100
AcDbLine
 10
-15.7146644
 20
12.4137373
 30
0.0
 11
-15.6622255
 21
12.4237404
 31
0.0
  0
LINE
  5
1BB
330
1F
100
AcDbEntity
  8
0
  6
Continuous
 62
     7
370
    25
100
AcDbLine
 10
-15.7742538
 20
12.4115312
 30
0.0
 11
-15.7146644
 21
12.4137373
 31
0.0
  0
LINE
  5
1BC
330
1F
100
AcDbEntity
  8
0
  6
Continuous
 62
     7
370
    25
100
AcDbLine
 10
-15.8406875
 20
12.4173993
 30
0.0
 11
-15.7742538
 21
12.4115312
 31
0.0
  0
LINE
  5
1BD
330
1F
100
AcDbEntity
  8
0
  6
Continuous
 62
     7
370
    25
100
AcDbLine
 10
-15.913647
 20
12.4316478
 30
0.0
 11
-15.8406875
 21
12.4173993
 31
0.0
  0
LINE
  5
1BE
330
1F
100
AcDbEntity
  8
0
  6
Continuous
 62
     7
370
    25
100
AcDbLine
 10
-15.9928101
 20
12.4545268
 30
0.0
 11
-15.913647
 21
12.4316478
 31
0.0
  0
LINE
  5
1BF
330
1F
100
AcDbEntity
  8
0
  6
Continuous
 62
     7
370
    25
100
AcDbLine
 10
-16.0778422
 20
12.4863154
 30
0.0
 11
-15.9928101
 21
12.4545268
 31
0.0
  0
LINE
  5
1C0
330
1F
100
AcDbEntity
  8
0
  6
Continuous
 62
     7
370
    25
100
AcDbLine
 10
-16.2641587
 20
12.577604
 30
0.0
 11
-16.0778422
 21
12.4863154
 31
0.0
  0
LINE
  5
1C1
330
1F
100
AcDbEntity
  8
0
  6
Continuous
 62
     7
370
    25
100
AcDbLine
 10
-16.5178614
 20
12.7330787
 30
0.0
 11
-16.2641587
 21
12.577604
 31
0.0
  0
LINE
  5
1C2
330
1F
100
AcDbEntity
  8
0
  6
Continuous
 62
     7
370
    25
100
AcDbLine
 10
-16.7866653
 20
12.8727138
 30
0.0
 11
-16.5178614
 21
12.7330787
 31
0.0
  0
LINE
  5
1C3
330
1F
100
AcDbEntity
  8
0
  6
Continuous
 62
     7
370
    25
100
AcDbLine
 10
-16.9723216
 20
12.9554648
 30
0.0
 11
-16.7866653
 21
12.8727138
 31
0.0
  0
LINE
  5
1C4
330
1F
100
AcDbEntity
  8
0
  6
Continuous
 62
     7
370
    25
100
AcDbLine
 10
-17.1982018
 20
13.0450581
 30
0.0
 11
-16.9723216
 21
12.9554648
 31
0.0
  0
LINE
  5
1C5
330
1F
100
AcDbEntity
  8
0
  6
Continuous
 62
     7
370
    25
100
AcDbLine
 10
-17.4614899
 20
13.1369099
 30
0.0
 11
-17.1982018
 21
13.0450581
 31
0.0
  0
LINE
  5
1C6
330
1F
100
AcDbEntity
  8
0
  6
Continuous
 62
     7
370
    25
100
AcDbLine
 10
-17.7623043
 20
13.227921
 30
0.0
 11
-17.4614899
 21
13.1369099
 31
0.0
  0
LINE
  5
1C7
330
1F
100
AcDbEntity
  8
0
  6
Continuous
 62
     7
370
    25
100
AcDbLine
 10
-18.1016148
 20
13.3152927
 30
0.0
 11
-17.7623043
 21
13.227921
 31
0.0
  0
LINE
  5
1C8
330
1F
100
AcDbEntity
  8
0
  6
Continuous
 62
     7
370
    25
100
AcDbLine
 10
-18.4805248
 20
13.3961174
 30
0.0
 11
-18.1016148
 21
13.3152927
 31
0.0
  0
LINE
  5
1C9
330
1F
100
AcDbEntity
  8
0
  6
Continuous
 62
     7
370
    25
100
AcDbLine
 10
-18.8962878
 20
13.4667848
 30
0.0
 11
-18.4805248
 21
13.3961174
 31
0.0
  0
LINE
  5
1CA
330
1F
100
AcDbEntity
  8
0
  6
Continuous
 62
     7
370
    25
100
AcDbLine
 10
-19.3536845
 20
13.5249538
 30
0.0
 11
-18.8962878
 21
13.4667848
 31
0.0
  0
LINE
  5
1CB
330
1F
100
AcDbEntity
  8
0
  6
Continuous
 62
     7
370
    25
100
AcDbLine
 10
-19.7998150748
 20
13.5634081237
 30
0.0
 11
-19.3536845
 21
13.5249538
 31
0.0
  0
ARC
  5
1CC
330
1F
100
AcDbEntity
  8
0
  6
Continuous
 62
     7
370
    25
100
AcDbCircle
 10
0.0000260552
 20
-0.0000071854
 30
0.0
 40
23.99999882542341
100
AcDbArc
 50
145.5878243052
 51
148.9576692562
  0
LINE
  5
1CD
330
1F
100
AcDbEntity
  8
0
  6
Continuous
 62
     7
370
    25
100
AcDbLine
 10
-20.3425418
 20
11.9862618
 30
0.0
 11
-20.5628501643
 21
12.3761014599
 31
0.0
  0
LINE
  5
1CE
330
1F
100
AcDbEntity
  8
0
  6
Continuous
 62
     7
370
    25
100
AcDbLine
 10
-20.0996199
 20
11.5943634
 30
0.0
 11
-20.3425418
 21
11.9862618
 31
0.0
  0
LINE
  5
1CF
330
1F
100
AcDbEntity
  8
0
  6
Continuous
 62
     7
370
    25
100
AcDbLine
 10
-19.8626244
 20
11.2455283
 30
0.0
 11
-20.0996199
 21
11.5943634
 31
0.0
  0
LINE
  5
1D0
330
1F
100
AcDbEntity
  8
0
  6
Continuous
 62
     7
370
    25
100
AcDbLine
 10
-19.6316988
 20
10.9344355
 30
0.0
 11
-19.8626244
 21
11.2455283
 31
0.0
  0
LINE
  5
1D1
330
1F
100
AcDbEntity
  8
0
  6
Continuous
 62
     7
370
    25
100
AcDbLine
 10
-19.4112681
 20
10.6620834
 30
0.0
 11
-19.6316988
 21
10.9344355
 31
0.0
  0
LINE
  5
1D2
330
1F
100
AcDbEntity
  8
0
  6
Continuous
 62
     7
370
    25
100
AcDbLine
 10
-19.2035186
 20
10.4262603
 30
0.0
 11
-19.4112681
 21
10.6620834
 31
0.0
  0
LINE
  5
1D3
330
1F
100
AcDbEntity
  8
0
  6
Continuous
 62
     7
370
    25
100
AcDbLine
 10
-19.0105934
 20
10.2249217
 30
0.0
 11
-19.2035186
 21
10.4262603
 31
0.0
  0
LINE
  5
1D4
330
1F
100
AcDbEntity
  8
0
  6
Continuous
 62
     7
370
    25
100
AcDbLine
 10
-18.8352625
 20
10.0566722
 30
0.0
 11
-19.0105934
 21
10.2249217
 31
0.0
  0
LINE
  5
1D5
330
1F
100
AcDbEntity
  8
0
  6
Continuous
 62
     7
370
    25
100
AcDbLine
 10
-18.6828652
 20
9.9221693
 30
0.0
 11
-18.8352625
 21
10.0566722
 31
0.0
  0
LINE
  5
1D6
330
1F
100
AcDbEntity
  8
0
  6
Continuous
 62
     7
370
    25
100
AcDbLine
 10
-18.4441834
 20
9.7356631
 30
0.0
 11
-18.6828652
 21
9.9221693
 31
0.0
  0
LINE
  5
1D7
330
1F
100
AcDbEntity
  8
0
  6
Continuous
 62
     7
370
    25
100
AcDbLine
 10
-18.1973667
 20
9.5694736
 30
0.0
 11
-18.4441834
 21
9.7356631
 31
0.0
  0
LINE
  5
1D8
330
1F
100
AcDbEntity
  8
0
  6
Continuous
 62
     7
370
    25
100
AcDbLine
 10
-18.036929
 20
9.4379168
 30
0.0
 11
-18.1973667
 21
9.5694736
 31
0.0
  0
LINE
  5
1D9
330
1F
100
AcDbEntity
  8
0
  6
Continuous
 62
     7
370
    25
100
AcDbLine
 10
-17.9726895
 20
9.3737743
 30
0.0
 11
-18.036929
 21
9.4379168
 31
0.0
  0
LINE
  5
1DA
330
1F
100
AcDbEntity
  8
0
  6
Continuous
 62
     7
370
    25
100
AcDbLine
 10
-17.9189925
 20
9.3112693
 30
0.0
 11
-17.9726895
 21
9.3737743
 31
0.0
  0
LINE
  5
1DB
330
1F
100
AcDbEntity
  8
0
  6
Continuous
 62
     7
370
    25
100
AcDbLine
 10
-17.8757231
 20
9.2508221
 30
0.0
 11
-17.9189925
 21
9.3112693
 31
0.0
  0
LINE
  5
1DC
330
1F
100
AcDbEntity
  8
0
  6
Continuous
 62
     7
370
    25
100
AcDbLine
 10
-17.8427877
 20
9.1928296
 30
0.0
 11
-17.8757231
 21
9.2508221
 31
0.0
  0
LINE
  5
1DD
330
1F
100
AcDbEntity
  8
0
  6
Continuous
 62
     7
370
    25
100
AcDbLine
 10
-17.8200401
 20
9.1377087
 30
0.0
 11
-17.8427877
 21
9.1928296
 31
0.0
  0
LINE
  5
1DE
330
1F
100
AcDbEntity
  8
0
  6
Continuous
 62
     7
370
    25
100
AcDbLine
 10
-17.8073554
 20
9.0858532
 30
0.0
 11
-17.8200401
 21
9.1377087
 31
0.0
  0
LINE
  5
1DF
330
1F
100
AcDbEntity
  8
0
  6
Continuous
 62
     7
370
    25
100
AcDbLine
 10
-17.8045822
 20
9.0376666
 30
0.0
 11
-17.8073554
 21
9.0858532
 31
0.0
  0
LINE
  5
1E0
330
1F
100
AcDbEntity
  8
0
  6
Continuous
 62
     7
370
    25
100
AcDbLine
 10
-17.8115502
 20
8.993522
 30
0.0
 11
-17.8045822
 21
9.0376666
 31
0.0
  0
LINE
  5
1E1
330
1F
100
AcDbEntity
  8
0
  6
Continuous
 62
     7
370
    25
100
AcDbLine
 10
-17.8545643
 20
8.9005379
 30
0.0
 11
-17.8115502
 21
8.993522
 31
0.0
  0
LINE
  5
1E2
330
1F
100
AcDbEntity
  8
0
  6
Continuous
 62
     7
370
    25
100
AcDbLine
 10
-18.1471583
 20
8.2875295
 30
0.0
 11
-17.8545643
 21
8.9005379
 31
0.0
  0
LINE
  5
1E3
330
1F
100
AcDbEntity
  8
0
  6
Continuous
 62
     7
370
    25
100
AcDbLine
 10
-18.4188308
 20
7.6649666
 30
0.0
 11
-18.1471583
 21
8.2875295
 31
0.0
  0
LINE
  5
1E4
330
1F
100
AcDbEntity
  8
0
  6
Continuous
 62
     7
370
    25
100
AcDbLine
 10
-18.4609353
 20
7.5715671
 30
0.0
 11
-18.4188308
 21
7.6649666
 31
0.0
  0
LINE
  5
1E5
330
1F
100
AcDbEntity
  8
0
  6
Continuous
 62
     7
370
    25
100
AcDbLine
 10
-18.4897345
 20
7.5373924
 30
0.0
 11
-18.4609353
 21
7.5715671
 31
0.0
  0
LINE
  5
1E6
330
1F
100
AcDbEntity
  8
0
  6
Continuous
 62
     7
370
    25
100
AcDbLine
 10
-18.5279675
 20
7.5079327
 30
0.0
 11
-18.4897345
 21
7.5373924
 31
0.0
  0
LINE
  5
1E7
330
1F
100
AcDbEntity
  8
0
  6
Continuous
 62
     7
370
    25
100
AcDbLine
 10
-18.575464
 20
7.4835611
 30
0.0
 11
-18.5279675
 21
7.5079327
 31
0.0
  0
LINE
  5
1E8
330
1F
100
AcDbEntity
  8
0
  6
Continuous
 62
     7
370
    25
100
AcDbLine
 10
-18.6320181
 20
7.4646561
 30
0.0
 11
-18.575464
 21
7.4835611
 31
0.0
  0
LINE
  5
1E9
330
1F
100
AcDbEntity
  8
0
  6
Continuous
 62
     7
370
    25
100
AcDbLine
 10
-18.697414
 20
7.45157
 30
0.0
 11
-18.6320181
 21
7.4646561
 31
0.0
  0
LINE
  5
1EA
330
1F
100
AcDbEntity
  8
0
  6
Continuous
 62
     7
370
    25
100
AcDbLine
 10
-18.7714324
 20
7.4446863
 30
0.0
 11
-18.697414
 21
7.45157
 31
0.0
  0
LINE
  5
1EB
330
1F
100
AcDbEntity
  8
0
  6
Continuous
 62
     7
370
    25
100
AcDbLine
 10
-18.8538346
 20
7.4443357
 30
0.0
 11
-18.7714324
 21
7.4446863
 31
0.0
  0
LINE
  5
1EC
330
1F
100
AcDbEntity
  8
0
  6
Continuous
 62
     7
370
    25
100
AcDbLine
 10
-18.9443781
 20
7.4508803
 30
0.0
 11
-18.8538346
 21
7.4443357
 31
0.0
  0
LINE
  5
1ED
330
1F
100
AcDbEntity
  8
0
  6
Continuous
 62
     7
370
    25
100
AcDbLine
 10
-19.1488665
 20
7.4859797
 30
0.0
 11
-18.9443781
 21
7.4508803
 31
0.0
  0
LINE
  5
1EE
330
1F
100
AcDbEntity
  8
0
  6
Continuous
 62
     7
370
    25
100
AcDbLine
 10
-19.4360948
 20
7.5636803
 30
0.0
 11
-19.1488665
 21
7.4859797
 31
0.0
  0
LINE
  5
1EF
330
1F
100
AcDbEntity
  8
0
  6
Continuous
 62
     7
370
    25
100
AcDbLine
 10
-19.73335
 20
7.6219283
 30
0.0
 11
-19.4360948
 21
7.5636803
 31
0.0
  0
LINE
  5
1F0
330
1F
100
AcDbEntity
  8
0
  6
Continuous
 62
     7
370
    25
100
AcDbLine
 10
-19.9347995
 20
7.6490219
 30
0.0
 11
-19.73335
 21
7.6219283
 31
0.0
  0
LINE
  5
1F1
330
1F
100
AcDbEntity
  8
0
  6
Continuous
 62
     7
370
    25
100
AcDbLine
 10
-20.1767714
 20
7.6713482
 30
0.0
 11
-19.9347995
 21
7.6490219
 31
0.0
  0
LINE
  5
1F2
330
1F
100
AcDbEntity
  8
0
  6
Continuous
 62
     7
370
    25
100
AcDbLine
 10
-20.4552721
 20
7.6853026
 30
0.0
 11
-20.1767714
 21
7.6713482
 31
0.0
  0
LINE
  5
1F3
330
1F
100
AcDbEntity
  8
0
  6
Continuous
 62
     7
370
    25
100
AcDbLine
 10
-20.7695422
 20
7.6878778
 30
0.0
 11
-20.4552721
 21
7.6853026
 31
0.0
  0
LINE
  5
1F4
330
1F
100
AcDbEntity
  8
0
  6
Continuous
 62
     7
370
    25
100
AcDbLine
 10
-21.1197237
 20
7.6761155
 30
0.0
 11
-20.7695422
 21
7.6878778
 31
0.0
  0
LINE
  5
1F5
330
1F
100
AcDbEntity
  8
0
  6
Continuous
 62
     7
370
    25
100
AcDbLine
 10
-21.5060561
 20
7.646915
 30
0.0
 11
-21.1197237
 21
7.6761155
 31
0.0
  0
LINE
  5
1F6
330
1F
100
AcDbEntity
  8
0
  6
Continuous
 62
     7
370
    25
100
AcDbLine
 10
-21.924887
 20
7.5975859
 30
0.0
 11
-21.5060561
 21
7.646915
 31
0.0
  0
LINE
  5
1F7
330
1F
100
AcDbEntity
  8
0
  6
Continuous
 62
     7
370
    25
100
AcDbLine
 10
-22.3801441
 20
7.5245351
 30
0.0
 11
-21.924887
 21
7.5975859
 31
0.0
  0
LINE
  5
1F8
330
1F
100
AcDbEntity
  8
0
  6
Continuous
 62
     7
370
    25
100
AcDbLine
 10
-22.8190368
 20
7.4357423
 30
0.0
 11
-22.3801441
 21
7.5245351
 31
0.0
  0
ARC
  5
1F9
330
1F
100
AcDbEntity
  8
0
  6
Continuous
 62
     7
370
    25
100
AcDbCircle
 10
0.0000260552
 20
-0.0000071854
 30
0.0
 40
24.00000000000001
100
AcDbArc
 50
161.9514423374
 51
165.3212871225
  0
LINE
  5
1FA
330
1F
100
AcDbEntity
  8
0
  6
Continuous
 62
     7
370
    25
100
AcDbLine
 10
-22.8954461
 20
5.7695777
 30
0.0
 11
-23.2166611
 21
6.0815582
 31
0.0
  0
LINE
  5
1FB
330
1F
100
AcDbEntity
  8
0
  6
Continuous
 62
     7
370
    25
100
AcDbLine
 10
-22.5519537
 20
5.4619929
 30
0.0
 11
-22.8954461
 21
5.7695777
 31
0.0
  0
LINE
  5
1FC
330
1F
100
AcDbEntity
  8
0
  6
Continuous
 62
     7
370
    25
100
AcDbLine
 10
-22.22628
 20
5.1940575
 30
0.0
 11
-22.5519537
 21
5.4619929
 31
0.0
  0
LINE
  5
1FD
330
1F
100
AcDbEntity
  8
0
  6
Continuous
 62
     7
370
    25
100
AcDbLine
 10
-21.9170635
 20
4.9606254
 30
0.0
 11
-22.22628
 21
5.1940575
 31
0.0
  0
LINE
  5
1FE
330
1F
100
AcDbEntity
  8
0
  6
Continuous
 62
     7
370
    25
100
AcDbLine
 10
-21.6288313
 20
4.7614079
 30
0.0
 11
-21.9170635
 21
4.9606254
 31
0.0
  0
LINE
  5
1FF
330
1F
100
AcDbEntity
  8
0
  6
Continuous
 62
     7
370
    25
100
AcDbLine
 10
-21.3630581
 20
4.5936671
 30
0.0
 11
-21.6288313
 21
4.7614079
 31
0.0
  0
LINE
  5
200
330
1F
100
AcDbEntity
  8
0
  6
Continuous
 62
     7
370
    25
100
AcDbLine
 10
-21.1212241
 20
4.4548374
 30
0.0
 11
-21.3630581
 21
4.5936671
 31
0.0
  0
LINE
  5
201
330
1F
100
AcDbEntity
  8
0
  6
Continuous
 62
     7
370
    25
100
AcDbLine
 10
-20.905594
 20
4.3427997
 30
0.0
 11
-21.1212241
 21
4.4548374
 31
0.0
  0
LINE
  5
202
330
1F
100
AcDbEntity
  8
0
  6
Continuous
 62
     7
370
    25
100
AcDbLine
 10
-20.721476
 20
4.2566804
 30
0.0
 11
-20.905594
 21
4.3427997
 31
0.0
  0
LINE
  5
203
330
1F
100
AcDbEntity
  8
0
  6
Continuous
 62
     7
370
    25
100
AcDbLine
 10
-20.4399177
 20
4.1449734
 30
0.0
 11
-20.721476
 21
4.2566804
 31
0.0
  0
LINE
  5
204
330
1F
100
AcDbEntity
  8
0
  6
Continuous
 62
     7
370
    25
100
AcDbLine
 10
-20.1562778
 20
4.055052
 30
0.0
 11
-20.4399177
 21
4.1449734
 31
0.0
  0
LINE
  5
205
330
1F
100
AcDbEntity
  8
0
  6
Continuous
 62
     7
370
    25
100
AcDbLine
 10
-19.965275
 20
3.9740247
 30
0.0
 11
-20.1562778
 21
4.055052
 31
0.0
  0
LINE
  5
206
330
1F
100
AcDbEntity
  8
0
  6
Continuous
 62
     7
370
    25
100
AcDbLine
 10
-19.8855667
 20
3.9305788
 30
0.0
 11
-19.965275
 21
3.9740247
 31
0.0
  0
LINE
  5
207
330
1F
100
AcDbEntity
  8
0
  6
Continuous
 62
     7
370
    25
100
AcDbLine
 10
-19.8164351
 20
3.8857339
 30
0.0
 11
-19.8855667
 21
3.9305788
 31
0.0
  0
LINE
  5
208
330
1F
100
AcDbEntity
  8
0
  6
Continuous
 62
     7
370
    25
100
AcDbLine
 10
-19.7578884
 20
3.8399256
 30
0.0
 11
-19.8164351
 21
3.8857339
 31
0.0
  0
LINE
  5
209
330
1F
100
AcDbEntity
  8
0
  6
Continuous
 62
     7
370
    25
100
AcDbLine
 10
-19.7099488
 20
3.7935612
 30
0.0
 11
-19.7578884
 21
3.8399256
 31
0.0
  0
LINE
  5
20A
330
1F
100
AcDbEntity
  8
0
  6
Continuous
 62
     7
370
    25
100
AcDbLine
 10
-19.6725933
 20
3.7470818
 30
0.0
 11
-19.7099488
 21
3.7935612
 31
0.0
  0
LINE
  5
20B
330
1F
100
AcDbEntity
  8
0
  6
Continuous
 62
     7
370
    25
100
AcDbLine
 10
-19.645813
 20
3.7009005
 30
0.0
 11
-19.6725933
 21
3.7470818
 31
0.0
  0
LINE
  5
20C
330
1F
100
AcDbEntity
  8
0
  6
Continuous
 62
     7
370
    25
100
AcDbLine
 10
-19.6295764
 20
3.6554472
 30
0.0
 11
-19.645813
 21
3.7009005
 31
0.0
  0
LINE
  5
20D
330
1F
100
AcDbEntity
  8
0
  6
Continuous
 62
     7
370
    25
100
AcDbLine
 10
-19.6238252
 20
3.6111276
 30
0.0
 11
-19.6295764
 21
3.6554472
 31
0.0
  0
LINE
  5
20E
330
1F
100
AcDbEntity
  8
0
  6
Continuous
 62
     7
370
    25
100
AcDbLine
 10
-19.6389003
 20
3.5097915
 30
0.0
 11
-19.6238252
 21
3.6111276
 31
0.0
  0
LINE
  5
20F
330
1F
100
AcDbEntity
  8
0
  6
Continuous
 62
     7
370
    25
100
AcDbLine
 10
-19.7469378
 20
2.839181
 30
0.0
 11
-19.6389003
 21
3.5097915
 31
0.0
  0
LINE
  5
210
330
1F
100
AcDbEntity
  8
0
  6
Continuous
 62
     7
370
    25
100
AcDbLine
 10
-19.8322094
 20
2.1652973
 30
0.0
 11
-19.7469378
 21
2.839181
 31
0.0
  0
LINE
  5
211
330
1F
100
AcDbEntity
  8
0
  6
Continuous
 62
     7
370
    25
100
AcDbLine
 10
-19.8462946
 20
2.0638189
 30
0.0
 11
-19.8322094
 21
2.1652973
 31
0.0
  0
LINE
  5
212
330
1F
100
AcDbEntity
  8
0
  6
Continuous
 62
     7
370
    25
100
AcDbLine
 10
-19.8642991
 20
2.0229149
 30
0.0
 11
-19.8462946
 21
2.0638189
 31
0.0
  0
LINE
  5
213
330
1F
100
AcDbEntity
  8
0
  6
Continuous
 62
     7
370
    25
100
AcDbLine
 10
-19.8926837
 20
1.9838771
 30
0.0
 11
-19.8642991
 21
2.0229149
 31
0.0
  0
LINE
  5
214
330
1F
100
AcDbEntity
  8
0
  6
Continuous
 62
     7
370
    25
100
AcDbLine
 10
-19.93139
 20
1.9471113
 30
0.0
 11
-19.8926837
 21
1.9838771
 31
0.0
  0
LINE
  5
215
330
1F
100
AcDbEntity
  8
0
  6
Continuous
 62
     7
370
    25
100
AcDbLine
 10
-19.9803271
 20
1.913039
 30
0.0
 11
-19.93139
 21
1.9471113
 31
0.0
  0
LINE
  5
216
330
1F
100
AcDbEntity
  8
0
  6
Continuous
 62
     7
370
    25
100
AcDbLine
 10
-20.0393872
 20
1.8820588
 30
0.0
 11
-19.9803271
 21
1.913039
 31
0.0
  0
LINE
  5
217
330
1F
100
AcDbEntity
  8
0
  6
Continuous
 62
     7
370
    25
100
AcDbLine
 10
-20.108468
 20
1.8546005
 30
0.0
 11
-20.0393872
 21
1.8820588
 31
0.0
  0
LINE
  5
218
330
1F
100
AcDbEntity
  8
0
  6
Continuous
 62
     7
370
    25
100
AcDbLine
 10
-20.1874336
 20
1.8310488
 30
0.0
 11
-20.108468
 21
1.8546005
 31
0.0
  0
LINE
  5
219
330
1F
100
AcDbEntity
  8
0
  6
Continuous
 62
     7
370
    25
100
AcDbLine
 10
-20.2761533
 20
1.8118192
 30
0.0
 11
-20.1874336
 21
1.8310488
 31
0.0
  0
LINE
  5
21A
330
1F
100
AcDbEntity
  8
0
  6
Continuous
 62
     7
370
    25
100
AcDbLine
 10
-20.4822471
 20
1.7878858
 30
0.0
 11
-20.2761533
 21
1.8118192
 31
0.0
  0
LINE
  5
21B
330
1F
100
AcDbEntity
  8
0
  6
Continuous
 62
     7
370
    25
100
AcDbLine
 10
-20.7797313
 20
1.7815174
 30
0.0
 11
-20.4822471
 21
1.7878858
 31
0.0
  0
LINE
  5
21C
330
1F
100
AcDbEntity
  8
0
  6
Continuous
 62
     7
370
    25
100
AcDbLine
 10
-21.081356
 20
1.7536595
 30
0.0
 11
-20.7797313
 21
1.7815174
 31
0.0
  0
LINE
  5
21D
330
1F
100
AcDbEntity
  8
0
  6
Continuous
 62
     7
370
    25
100
AcDbLine
 10
-21.2822786
 20
1.7229007
 30
0.0
 11
-21.081356
 21
1.7536595
 31
0.0
  0
LINE
  5
21E
330
1F
100
AcDbEntity
  8
0
  6
Continuous
 62
     7
370
    25
100
AcDbLine
 10
-21.5207389
 20
1.6761513
 30
0.0
 11
-21.2822786
 21
1.7229007
 31
0.0
  0
LINE
  5
21F
330
1F
100
AcDbEntity
  8
0
  6
Continuous
 62
     7
370
    25
100
AcDbLine
 10
-21.7918898
 20
1.6110777
 30
0.0
 11
-21.5207389
 21
1.6761513
 31
0.0
  0
LINE
  5
220
330
1F
100
AcDbEntity
  8
0
  6
Continuous
 62
     7
370
    25
100
AcDbLine
 10
-22.0941553
 20
1.5250085
 30
0.0
 11
-21.7918898
 21
1.6110777
 31
0.0
  0
LINE
  5
221
330
1F
100
AcDbEntity
  8
0
  6
Continuous
 62
     7
370
    25
100
AcDbLine
 10
-22.4268381
 20
1.4150652
 30
0.0
 11
-22.0941553
 21
1.5250085
 31
0.0
  0
LINE
  5
222
330
1F
100
AcDbEntity
  8
0
  6
Continuous
 62
     7
370
    25
100
AcDbLine
 10
-22.7892946
 20
1.2782051
 30
0.0
 11
-22.4268381
 21
1.4150652
 31
0.0
  0
LINE
  5
223
330
1F
100
AcDbEntity
  8
0
  6
Continuous
 62
     7
370
    25
100
AcDbLine
 10
-23.1772624
 20
1.1128758
 30
0.0
 11
-22.7892946
 21
1.2782051
 31
0.0
  0
LINE
  5
224
330
1F
100
AcDbEntity
  8
0
  6
Continuous
 62
     7
370
    25
100
AcDbLine
 10
-23.5934975
 20
0.9145233
 30
0.0
 11
-23.1772624
 21
1.1128758
 31
0.0
  0
LINE
  5
225
330
1F
100
AcDbEntity
  8
0
  6
Continuous
 62
     7
370
    25
100
AcDbLine
 10
-23.9895964147
 20
0.7056767868
 30
0.0
 11
-23.5934975
 21
0.9145233
 31
0.0
  0
ARC
  5
226
330
1F
100
AcDbEntity
  8
0
  6
Continuous
 62
     7
370
    25
100
AcDbCircle
 10
0.0000260552
 20
0.0000071854
 30
0.0
 40
23.9999990798859
100
AcDbArc
 50
178.3150950219
 51
181.6849398416
  0
LINE
  5
227
330
1F
100
AcDbEntity
  8
0
  6
Continuous
 62
     7
370
    25
100
AcDbLine
 10
-23.5934975
 20
-0.9145233
 30
0.0
 11
-23.9895959853
 21
-0.7056770132
 31
0.0
  0
LINE
  5
228
330
1F
100
AcDbEntity
  8
0
  6
Continuous
 62
     7
370
    25
100
AcDbLine
 10
-23.1772624
 20
-1.1128758
 30
0.0
 11
-23.5934975
 21
-0.9145233
 31
0.0
  0
LINE
  5
229
330
1F
100
AcDbEntity
  8
0
  6
Continuous
 62
     7
370
    25
100
AcDbLine
 10
-22.7892946
 20
-1.2782051
 30
0.0
 11
-23.1772624
 21
-1.1128758
 31
0.0
  0
LINE
  5
22A
330
1F
100
AcDbEntity
  8
0
  6
Continuous
 62
     7
370
    25
100
AcDbLine
 10
-22.4268381
 20
-1.4150652
 30
0.0
 11
-22.7892946
 21
-1.2782051
 31
0.0
  0
LINE
  5
22B
330
1F
100
AcDbEntity
  8
0
  6
Continuous
 62
     7
370
    25
100
AcDbLine
 10
-22.0941553
 20
-1.5250085
 30
0.0
 11
-22.4268381
 21
-1.4150652
 31
0.0
  0
LINE
  5
22C
330
1F
100
AcDbEntity
  8
0
  6
Continuous
 62
     7
370
    25
100
AcDbLine
 10
-21.7918898
 20
-1.6110777
 30
0.0
 11
-22.0941553
 21
-1.5250085
 31
0.0
  0
LINE
  5
22D
330
1F
100
AcDbEntity
  8
0
  6
Continuous
 62
     7
370
    25
100
AcDbLine
 10
-21.5207389
 20
-1.6761513
 30
0.0
 11
-21.7918898
 21
-1.6110777
 31
0.0
  0
LINE
  5
22E
330
1F
100
AcDbEntity
  8
0
  6
Continuous
 62
     7
370
    25
100
AcDbLine
 10
-21.2822786
 20
-1.7229007
 30
0.0
 11
-21.5207389
 21
-1.6761513
 31
0.0
  0
LINE
  5
22F
330
1F
100
AcDbEntity
  8
0
  6
Continuous
 62
     7
370
    25
100
AcDbLine
 10
-21.081356
 20
-1.7536595
 30
0.0
 11
-21.2822786
 21
-1.7229007
 31
0.0
  0
LINE
  5
230
330
1F
100
AcDbEntity
  8
0
  6
Continuous
 62
     7
370
    25
100
AcDbLine
 10
-20.7797313
 20
-1.7815174
 30
0.0
 11
-21.081356
 21
-1.7536595
 31
0.0
  0
LINE
  5
231
330
1F
100
AcDbEntity
  8
0
  6
Continuous
 62
     7
370
    25
100
AcDbLine
 10
-20.4822471
 20
-1.7878858
 30
0.0
 11
-20.7797313
 21
-1.7815174
 31
0.0
  0
LINE
  5
232
330
1F
100
AcDbEntity
  8
0
  6
Continuous
 62
     7
370
    25
100
AcDbLine
 10
-20.2761533
 20
-1.8118192
 30
0.0
 11
-20.4822471
 21
-1.7878858
 31
0.0
  0
LINE
  5
233
330
1F
100
AcDbEntity
  8
0
  6
Continuous
 62
     7
370
    25
100
AcDbLine
 10
-20.1874336
 20
-1.8310488
 30
0.0
 11
-20.2761533
 21
-1.8118192
 31
0.0
  0
LINE
  5
234
330
1F
100
AcDbEntity
  8
0
  6
Continuous
 62
     7
370
    25
100
AcDbLine
 10
-20.108468
 20
-1.8546005
 30
0.0
 11
-20.1874336
 21
-1.8310488
 31
0.0
  0
LINE
  5
235
330
1F
100
AcDbEntity
  8
0
  6
Continuous
 62
     7
370
    25
100
AcDbLine
 10
-20.0393872
 20
-1.8820588
 30
0.0
 11
-20.108468
 21
-1.8546005
 31
0.0
  0
LINE
  5
236
330
1F
100
AcDbEntity
  8
0
  6
Continuous
 62
     7
370
    25
100
AcDbLine
 10
-19.9803271
 20
-1.913039
 30
0.0
 11
-20.0393872
 21
-1.8820588
 31
0.0
  0
LINE
  5
237
330
1F
100
AcDbEntity
  8
0
  6
Continuous
 62
     7
370
    25
100
AcDbLine
 10
-19.93139
 20
-1.9471113
 30
0.0
 11
-19.9803271
 21
-1.913039
 31
0.0
  0
LINE
  5
238
330
1F
100
AcDbEntity
  8
0
  6
Continuous
 62
     7
370
    25
100
AcDbLine
 10
-19.8926837
 20
-1.9838771
 30
0.0
 11
-19.93139
 21
-1.9471113
 31
0.0
  0
LINE
  5
239
330
1F
100
AcDbEntity
  8
0
  6
Continuous
 62
     7
370
    25
100
AcDbLine
 10
-19.8642991
 20
-2.0229149
 30
0.0
 11
-19.8926837
 21
-1.9838771
 31
0.0
  0
LINE
  5
23A
330
1F
100
AcDbEntity
  8
0
  6
Continuous
 62
     7
370
    25
100
AcDbLine
 10
-19.8462946
 20
-2.0638189
 30
0.0
 11
-19.8642991
 21
-2.0229149
 31
0.0
  0
LINE
  5
23B
330
1F
100
AcDbEntity
  8
0
  6
Continuous
 62
     7
370
    25
100
AcDbLine
 10
-19.8322094
 20
-2.1652973
 30
0.0
 11
-19.8462946
 21
-2.0638189
 31
0.0
  0
LINE
  5
23C
330
1F
100
AcDbEntity
  8
0
  6
Continuous
 62
     7
370
    25
100
AcDbLine
 10
-19.7469378
 20
-2.839181
 30
0.0
 11
-19.8322094
 21
-2.1652973
 31
0.0
  0
LINE
  5
23D
330
1F
100
AcDbEntity
  8
0
  6
Continuous
 62
     7
370
    25
100
AcDbLine
 10
-19.6389003
 20
-3.5097915
 30
0.0
 11
-19.7469378
 21
-2.839181
 31
0.0
  0
LINE
  5
23E
330
1F
100
AcDbEntity
  8
0
  6
Continuous
 62
     7
370
    25
100
AcDbLine
 10
-19.6238252
 20
-3.6111276
 30
0.0
 11
-19.6389003
 21
-3.5097915
 31
0.0
  0
LINE
  5
23F
330
1F
100
AcDbEntity
  8
0
  6
Continuous
 62
     7
370
    25
100
AcDbLine
 10
-19.6295764
 20
-3.6554472
 30
0.0
 11
-19.6238252
 21
-3.6111276
 31
0.0
  0
LINE
  5
240
330
1F
100
AcDbEntity
  8
0
  6
Continuous
 62
     7
370
    25
100
AcDbLine
 10
-19.645813
 20
-3.7009005
 30
0.0
 11
-19.6295764
 21
-3.6554472
 31
0.0
  0
LINE
  5
241
330
1F
100
AcDbEntity
  8
0
  6
Continuous
 62
     7
370
    25
100
AcDbLine
 10
-19.6725933
 20
-3.7470818
 30
0.0
 11
-19.645813
 21
-3.7009005
 31
0.0
  0
LINE
  5
242
330
1F
100
AcDbEntity
  8
0
  6
Continuous
 62
     7
370
    25
100
AcDbLine
 10
-19.7099488
 20
-3.7935612
 30
0.0
 11
-19.6725933
 21
-3.7470818
 31
0.0
  0
LINE
  5
243
330
1F
100
AcDbEntity
  8
0
  6
Continuous
 62
     7
370
    25
100
AcDbLine
 10
-19.7578884
 20
-3.8399256
 30
0.0
 11
-19.7099488
 21
-3.7935612
 31
0.0
  0
LINE
  5
244
330
1F
100
AcDbEntity
  8
0
  6
Continuous
 62
     7
370
    25
100
AcDbLine
 10
-19.8164351
 20
-3.8857339
 30
0.0
 11
-19.7578884
 21
-3.8399256
 31
0.0
  0
LINE
  5
245
330
1F
100
AcDbEntity
  8
0
  6
Continuous
 62
     7
370
    25
100
AcDbLine
 10
-19.8855667
 20
-3.9305788
 30
0.0
 11
-19.8164351
 21
-3.8857339
 31
0.0
  0
LINE
  5
246
330
1F
100
AcDbEntity
  8
0
  6
Continuous
 62
     7
370
    25
100
AcDbLine
 10
-19.965275
 20
-3.9740247
 30
0.0
 11
-19.8855667
 21
-3.9305788
 31
0.0
  0
LINE
  5
247
330
1F
100
AcDbEntity
  8
0
  6
Continuous
 62
     7
370
    25
100
AcDbLine
 10
-20.1562778
 20
-4.055052
 30
0.0
 11
-19.965275
 21
-3.9740247
 31
0.0
  0
LINE
  5
248
330
1F
100
AcDbEntity
  8
0
  6
Continuous
 62
     7
370
    25
100
AcDbLine
 10
-20.4399177
 20
-4.1449734
 30
0.0
 11
-20.1562778
 21
-4.055052
 31
0.0
  0
LINE
  5
249
330
1F
100
AcDbEntity
  8
0
  6
Continuous
 62
     7
370
    25
100
AcDbLine
 10
-20.721476
 20
-4.2566804
 30
0.0
 11
-20.4399177
 21
-4.1449734
 31
0.0
  0
LINE
  5
24A
330
1F
100
AcDbEntity
  8
0
  6
Continuous
 62
     7
370
    25
100
AcDbLine
 10
-20.905594
 20
-4.3427997
 30
0.0
 11
-20.721476
 21
-4.2566804
 31
0.0
  0
LINE
  5
24B
330
1F
100
AcDbEntity
  8
0
  6
Continuous
 62
     7
370
    25
100
AcDbLine
 10
-21.1212241
 20
-4.4548374
 30
0.0
 11
-20.905594
 21
-4.3427997
 31
0.0
  0
LINE
  5
24C
330
1F
100
AcDbEntity
  8
0
  6
Continuous
 62
     7
370
    25
100
AcDbLine
 10
-21.3630581
 20
-4.5936671
 30
0.0
 11
-21.1212241
 21
-4.4548374
 31
0.0
  0
LINE
  5
24D
330
1F
100
AcDbEntity
  8
0
  6
Continuous
 62
     7
370
    25
100
AcDbLine
 10
-21.6288313
 20
-4.7614079
 30
0.0
 11
-21.3630581
 21
-4.5936671
 31
0.0
  0
LINE
  5
24E
330
1F
100
AcDbEntity
  8
0
  6
Continuous
 62
     7
370
    25
100
AcDbLine
 10
-21.9170635
 20
-4.9606254
 30
0.0
 11
-21.6288313
 21
-4.7614079
 31
0.0
  0
LINE
  5
24F
330
1F
100
AcDbEntity
  8
0
  6
Continuous
 62
     7
370
    25
100
AcDbLine
 10
-22.22628
 20
-5.1940575
 30
0.0
 11
-21.9170635
 21
-4.9606254
 31
0.0
  0
LINE
  5
250
330
1F
100
AcDbEntity
  8
0
  6
Continuous
 62
     7
370
    25
100
AcDbLine
 10
-22.5519537
 20
-5.4619929
 30
0.0
 11
-22.22628
 21
-5.1940575
 31
0.0
  0
LINE
  5
251
330
1F
100
AcDbEntity
  8
0
  6
Continuous
 62
     7
370
    25
100
AcDbLine
 10
-22.8954461
 20
-5.7695777
 30
0.0
 11
-22.5519537
 21
-5.4619929
 31
0.0
  0
LINE
  5
252
330
1F
100
AcDbEntity
  8
0
  6
Continuous
 62
     7
370
    25
100
AcDbLine
 10
-23.2166611
 20
-6.0815582
 30
0.0
 11
-22.8954461
 21
-5.7695777
 31
0.0
  0
ARC
  5
253
330
1F
100
AcDbEntity
  8
0
  6
Continuous
 62
     7
370
    25
100
AcDbCircle
 10
0.0000260552
 20
0.0000071854
 30
0.0
 40
24.0
100
AcDbArc
 50
194.6787128775
 51
198.0485576626
  0
LINE
  5
254
330
1F
100
AcDbEntity
  8
0
  6
Continuous
 62
     7
370
    25
100
AcDbLine
 10
-22.3801441
 20
-7.5245351
 30
0.0
 11
-22.8190368
 21
-7.4357423
 31
0.0
  0
LINE
  5
255
330
1F
100
AcDbEntity
  8
0
  6
Continuous
 62
     7
370
    25
100
AcDbLine
 10
-21.924887
 20
-7.5975859
 30
0.0
 11
-22.3801441
 21
-7.5245351
 31
0.0
  0
LINE
  5
256
330
1F
100
AcDbEntity
  8
0
  6
Continuous
 62
     7
370
    25
100
AcDbLine
 10
-21.5060561
 20
-7.646915
 30
0.0
 11
-21.924887
 21
-7.5975859
 31
0.0
  0
LINE
  5
257
330
1F
100
AcDbEntity
  8
0
  6
Continuous
 62
     7
370
    25
100
AcDbLine
 10
-21.1197237
 20
-7.6761155
 30
0.0
 11
-21.5060561
 21
-7.646915
 31
0.0
  0
LINE
  5
258
330
1F
100
AcDbEntity
  8
0
  6
Continuous
 62
     7
370
    25
100
AcDbLine
 10
-20.7695422
 20
-7.6878778
 30
0.0
 11
-21.1197237
 21
-7.6761155
 31
0.0
  0
LINE
  5
259
330
1F
100
AcDbEntity
  8
0
  6
Continuous
 62
     7
370
    25
100
AcDbLine
 10
-20.4552721
 20
-7.6853026
 30
0.0
 11
-20.7695422
 21
-7.6878778
 31
0.0
  0
LINE
  5
25A
330
1F
100
AcDbEntity
  8
0
  6
Continuous
 62
     7
370
    25
100
AcDbLine
 10
-20.1767714
 20
-7.6713482
 30
0.0
 11
-20.4552721
 21
-7.6853026
 31
0.0
  0
LINE
  5
25B
330
1F
100
AcDbEntity
  8
0
  6
Continuous
 62
     7
370
    25
100
AcDbLine
 10
-19.9347995
 20
-7.6490219
 30
0.0
 11
-20.1767714
 21
-7.6713482
 31
0.0
  0
LINE
  5
25C
330
1F
100
AcDbEntity
  8
0
  6
Continuous
 62
     7
370
    25
100
AcDbLine
 10
-19.73335
 20
-7.6219283
 30
0.0
 11
-19.9347995
 21
-7.6490219
 31
0.0
  0
LINE
  5
25D
330
1F
100
AcDbEntity
  8
0
  6
Continuous
 62
     7
370
    25
100
AcDbLine
 10
-19.4360948
 20
-7.5636803
 30
0.0
 11
-19.73335
 21
-7.6219283
 31
0.0
  0
LINE
  5
25E
330
1F
100
AcDbEntity
  8
0
  6
Continuous
 62
     7
370
    25
100
AcDbLine
 10
-19.1488665
 20
-7.4859797
 30
0.0
 11
-19.4360948
 21
-7.5636803
 31
0.0
  0
LINE
  5
25F
330
1F
100
AcDbEntity
  8
0
  6
Continuous
 62
     7
370
    25
100
AcDbLine
 10
-18.9443781
 20
-7.4508803
 30
0.0
 11
-19.1488665
 21
-7.4859797
 31
0.0
  0
LINE
  5
260
330
1F
100
AcDbEntity
  8
0
  6
Continuous
 62
     7
370
    25
100
AcDbLine
 10
-18.8538346
 20
-7.4443357
 30
0.0
 11
-18.9443781
 21
-7.4508803
 31
0.0
  0
LINE
  5
261
330
1F
100
AcDbEntity
  8
0
  6
Continuous
 62
     7
370
    25
100
AcDbLine
 10
-18.7714324
 20
-7.4446863
 30
0.0
 11
-18.8538346
 21
-7.4443357
 31
0.0
  0
LINE
  5
262
330
1F
100
AcDbEntity
  8
0
  6
Continuous
 62
     7
370
    25
100
AcDbLine
 10
-18.697414
 20
-7.45157
 30
0.0
 11
-18.7714324
 21
-7.4446863
 31
0.0
  0
LINE
  5
263
330
1F
100
AcDbEntity
  8
0
  6
Continuous
 62
     7
370
    25
100
AcDbLine
 10
-18.6320181
 20
-7.4646561
 30
0.0
 11
-18.697414
 21
-7.45157
 31
0.0
  0
LINE
  5
264
330
1F
100
AcDbEntity
  8
0
  6
Continuous
 62
     7
370
    25
100
AcDbLine
 10
-18.575464
 20
-7.4835611
 30
0.0
 11
-18.6320181
 21
-7.4646561
 31
0.0
  0
LINE
  5
265
330
1F
100
AcDbEntity
  8
0
  6
Continuous
 62
     7
370
    25
100
AcDbLine
 10
-18.5279675
 20
-7.5079327
 30
0.0
 11
-18.575464
 21
-7.4835611
 31
0.0
  0
LINE
  5
266
330
1F
100
AcDbEntity
  8
0
  6
Continuous
 62
     7
370
    25
100
AcDbLine
 10
-18.4897345
 20
-7.5373924
 30
0.0
 11
-18.5279675
 21
-7.5079327
 31
0.0
  0
LINE
  5
267
330
1F
100
AcDbEntity
  8
0
  6
Continuous
 62
     7
370
    25
100
AcDbLine
 10
-18.4609353
 20
-7.5715671
 30
0.0
 11
-18.4897345
 21
-7.5373924
 31
0.0
  0
LINE
  5
268
330
1F
100
AcDbEntity
  8
0
  6
Continuous
 62
     7
370
    25
100
AcDbLine
 10
-18.4188308
 20
-7.6649666
 30
0.0
 11
-18.4609353
 21
-7.5715671
 31
0.0
  0
LINE
  5
269
330
1F
100
AcDbEntity
  8
0
  6
Continuous
 62
     7
370
    25
100
AcDbLine
 10
-18.1471583
 20
-8.2875295
 30
0.0
 11
-18.4188308
 21
-7.6649666
 31
0.0
  0
LINE
  5
26A
330
1F
100
AcDbEntity
  8
0
  6
Continuous
 62
     7
370
    25
100
AcDbLine
 10
-17.8545643
 20
-8.9005379
 30
0.0
 11
-18.1471583
 21
-8.2875295
 31
0.0
  0
LINE
  5
26B
330
1F
100
AcDbEntity
  8
0
  6
Continuous
 62
     7
370
    25
100
AcDbLine
 10
-17.8115502
 20
-8.993522
 30
0.0
 11
-17.8545643
 21
-8.9005379
 31
0.0
  0
LINE
  5
26C
330
1F
100
AcDbEntity
  8
0
  6
Continuous
 62
     7
370
    25
100
AcDbLine
 10
-17.8045822
 20
-9.0376666
 30
0.0
 11
-17.8115502
 21
-8.993522
 31
0.0
  0
LINE
  5
26D
330
1F
100
AcDbEntity
  8
0
  6
Continuous
 62
     7
370
    25
100
AcDbLine
 10
-17.8073554
 20
-9.0858532
 30
0.0
 11
-17.8045822
 21
-9.0376666
 31
0.0
  0
LINE
  5
26E
330
1F
100
AcDbEntity
  8
0
  6
Continuous
 62
     7
370
    25
100
AcDbLine
 10
-17.8200401
 20
-9.1377087
 30
0.0
 11
-17.8073554
 21
-9.0858532
 31
0.0
  0
LINE
  5
26F
330
1F
100
AcDbEntity
  8
0
  6
Continuous
 62
     7
370
    25
100
AcDbLine
 10
-17.8427877
 20
-9.1928296
 30
0.0
 11
-17.8200401
 21
-9.1377087
 31
0.0
  0
LINE
  5
270
330
1F
100
AcDbEntity
  8
0
  6
Continuous
 62
     7
370
    25
100
AcDbLine
 10
-17.8757231
 20
-9.2508221
 30
0.0
 11
-17.8427877
 21
-9.1928296
 31
0.0
  0
LINE
  5
271
330
1F
100
AcDbEntity
  8
0
  6
Continuous
 62
     7
370
    25
100
AcDbLine
 10
-17.9189925
 20
-9.3112693
 30
0.0
 11
-17.8757231
 21
-9.2508221
 31
0.0
  0
LINE
  5
272
330
1F
100
AcDbEntity
  8
0
  6
Continuous
 62
     7
370
    25
100
AcDbLine
 10
-17.9726895
 20
-9.3737743
 30
0.0
 11
-17.9189925
 21
-9.3112693
 31
0.0
  0
LINE
  5
273
330
1F
100
AcDbEntity
  8
0
  6
Continuous
 62
     7
370
    25
100
AcDbLine
 10
-18.036929
 20
-9.4379168
 30
0.0
 11
-17.9726895
 21
-9.3737743
 31
0.0
  0
LINE
  5
274
330
1F
100
AcDbEntity
  8
0
  6
Continuous
 62
     7
370
    25
100
AcDbLine
 10
-18.1973667
 20
-9.5694736
 30
0.0
 11
-18.036929
 21
-9.4379168
 31
0.0
  0
LINE
  5
275
330
1F
100
AcDbEntity
  8
0
  6
Continuous
 62
     7
370
    25
100
AcDbLine
 10
-18.4441834
 20
-9.7356631
 30
0.0
 11
-18.1973667
 21
-9.5694736
 31
0.0
  0
LINE
  5
276
330
1F
100
AcDbEntity
  8
0
  6
Continuous
 62
     7
370
    25
100
AcDbLine
 10
-18.6828652
 20
-9.9221693
 30
0.0
 11
-18.4441834
 21
-9.7356631
 31
0.0
  0
LINE
  5
277
330
1F
100
AcDbEntity
  8
0
  6
Continuous
 62
     7
370
    25
100
AcDbLine
 10
-18.8352625
 20
-10.0566722
 30
0.0
 11
-18.6828652
 21
-9.9221693
 31
0.0
  0
LINE
  5
278
330
1F
100
AcDbEntity
  8
0
  6
Continuous
 62
     7
370
    25
100
AcDbLine
 10
-19.0105934
 20
-10.2249217
 30
0.0
 11
-18.8352625
 21
-10.0566722
 31
0.0
  0
LINE
  5
279
330
1F
100
AcDbEntity
  8
0
  6
Continuous
 62
     7
370
    25
100
AcDbLine
 10
-19.2035186
 20
-10.4262603
 30
0.0
 11
-19.0105934
 21
-10.2249217
 31
0.0
  0
LINE
  5
27A
330
1F
100
AcDbEntity
  8
0
  6
Continuous
 62
     7
370
    25
100
AcDbLine
 10
-19.4112681
 20
-10.6620834
 30
0.0
 11
-19.2035186
 21
-10.4262603
 31
0.0
  0
LINE
  5
27B
330
1F
100
AcDbEntity
  8
0
  6
Continuous
 62
     7
370
    25
100
AcDbLine
 10
-19.6316988
 20
-10.9344355
 30
0.0
 11
-19.4112681
 21
-10.6620834
 31
0.0
  0
LINE
  5
27C
330
1F
100
AcDbEntity
  8
0
  6
Continuous
 62
     7
370
    25
100
AcDbLine
 10
-19.8626244
 20
-11.2455283
 30
0.0
 11
-19.6316988
 21
-10.9344355
 31
0.0
  0
LINE
  5
27D
330
1F
100
AcDbEntity
  8
0
  6
Continuous
 62
     7
370
    25
100
AcDbLine
 10
-20.0996199
 20
-11.5943634
 30
0.0
 11
-19.8626244
 21
-11.2455283
 31
0.0
  0
LINE
  5
27E
330
1F
100
AcDbEntity
  8
0
  6
Continuous
 62
     7
370
    25
100
AcDbLine
 10
-20.3425418
 20
-11.9862618
 30
0.0
 11
-20.0996199
 21
-11.5943634
 31
0.0
  0
LINE
  5
27F
330
1F
100
AcDbEntity
  8
0
  6
Continuous
 62
     7
370
    25
100
AcDbLine
 10
-20.562850433
 20
-12.3761019354
 30
0.0
 11
-20.3425418
 21
-11.9862618
 31
0.0
  0
ARC
  5
280
330
1F
100
AcDbEntity
  8
0
  6
Continuous
 62
     7
370
    25
100
AcDbCircle
 10
0.0000172734
 20
0.0000207638
 30
0.0
 40
23.99999877867165
100
AcDbArc
 50
211.0423699702
 51
214.4122149278
  0
LINE
  5
281
330
1F
100
AcDbEntity
  8
0
  6
Continuous
 62
     7
370
    25
100
AcDbLine
 10
-19.3536845
 20
-13.5249538
 30
0.0
 11
-19.7998145306
 21
-13.5634080768
 31
0.0
  0
LINE
  5
282
330
1F
100
AcDbEntity
  8
0
  6
Continuous
 62
     7
370
    25
100
AcDbLine
 10
-18.8962878
 20
-13.4667848
 30
0.0
 11
-19.3536845
 21
-13.5249538
 31
0.0
  0
LINE
  5
283
330
1F
100
AcDbEntity
  8
0
  6
Continuous
 62
     7
370
    25
100
AcDbLine
 10
-18.4805248
 20
-13.3961174
 30
0.0
 11
-18.8962878
 21
-13.4667848
 31
0.0
  0
LINE
  5
284
330
1F
100
AcDbEntity
  8
0
  6
Continuous
 62
     7
370
    25
100
AcDbLine
 10
-18.1016148
 20
-13.3152927
 30
0.0
 11
-18.4805248
 21
-13.3961174
 31
0.0
  0
LINE
  5
285
330
1F
100
AcDbEntity
  8
0
  6
Continuous
 62
     7
370
    25
100
AcDbLine
 10
-17.7623043
 20
-13.227921
 30
0.0
 11
-18.1016148
 21
-13.3152927
 31
0.0
  0
LINE
  5
286
330
1F
100
AcDbEntity
  8
0
  6
Continuous
 62
     7
370
    25
100
AcDbLine
 10
-17.4614899
 20
-13.1369099
 30
0.0
 11
-17.7623043
 21
-13.227921
 31
0.0
  0
LINE
  5
287
330
1F
100
AcDbEntity
  8
0
  6
Continuous
 62
     7
370
    25
100
AcDbLine
 10
-17.1982018
 20
-13.0450581
 30
0.0
 11
-17.4614899
 21
-13.1369099
 31
0.0
  0
LINE
  5
288
330
1F
100
AcDbEntity
  8
0
  6
Continuous
 62
     7
370
    25
100
AcDbLine
 10
-16.9723216
 20
-12.9554648
 30
0.0
 11
-17.1982018
 21
-13.0450581
 31
0.0
  0
LINE
  5
289
330
1F
100
AcDbEntity
  8
0
  6
Continuous
 62
     7
370
    25
100
AcDbLine
 10
-16.7866653
 20
-12.8727138
 30
0.0
 11
-16.9723216
 21
-12.9554648
 31
0.0
  0
LINE
  5
28A
330
1F
100
AcDbEntity
  8
0
  6
Continuous
 62
     7
370
    25
100
AcDbLine
 10
-16.5178614
 20
-12.7330787
 30
0.0
 11
-16.7866653
 21
-12.8727138
 31
0.0
  0
LINE
  5
28B
330
1F
100
AcDbEntity
  8
0
  6
Continuous
 62
     7
370
    25
100
AcDbLine
 10
-16.2641587
 20
-12.577604
 30
0.0
 11
-16.5178614
 21
-12.7330787
 31
0.0
  0
LINE
  5
28C
330
1F
100
AcDbEntity
  8
0
  6
Continuous
 62
     7
370
    25
100
AcDbLine
 10
-16.0778422
 20
-12.4863154
 30
0.0
 11
-16.2641587
 21
-12.577604
 31
0.0
  0
LINE
  5
28D
330
1F
100
AcDbEntity
  8
0
  6
Continuous
 62
     7
370
    25
100
AcDbLine
 10
-15.9928101
 20
-12.4545268
 30
0.0
 11
-16.0778422
 21
-12.4863154
 31
0.0
  0
LINE
  5
28E
330
1F
100
AcDbEntity
  8
0
  6
Continuous
 62
     7
370
    25
100
AcDbLine
 10
-15.913647
 20
-12.4316478
 30
0.0
 11
-15.9928101
 21
-12.4545268
 31
0.0
  0
LINE
  5
28F
330
1F
100
AcDbEntity
  8
0
  6
Continuous
 62
     7
370
    25
100
AcDbLine
 10
-15.8406875
 20
-12.4173993
 30
0.0
 11
-15.913647
 21
-12.4316478
 31
0.0
  0
LINE
  5
290
330
1F
100
AcDbEntity
  8
0
  6
Continuous
 62
     7
370
    25
100
AcDbLine
 10
-15.7742538
 20
-12.4115312
 30
0.0
 11
-15.8406875
 21
-12.4173993
 31
0.0
  0
LINE
  5
291
330
1F
100
AcDbEntity
  8
0
  6
Continuous
 62
     7
370
    25
100
AcDbLine
 10
-15.7146644
 20
-12.4137373
 30
0.0
 11
-15.7742538
 21
-12.4115312
 31
0.0
  0
LINE
  5
292
330
1F
100
AcDbEntity
  8
0
  6
Continuous
 62
     7
370
    25
100
AcDbLine
 10
-15.6622255
 20
-12.4237404
 30
0.0
 11
-15.7146644
 21
-12.4137373
 31
0.0
  0
LINE
  5
293
330
1F
100
AcDbEntity
  8
0
  6
Continuous
 62
     7
370
    25
100
AcDbLine
 10
-15.6172415
 20
-12.4412352
 30
0.0
 11
-15.6622255
 21
-12.4237404
 31
0.0
  0
LINE
  5
294
330
1F
100
AcDbEntity
  8
0
  6
Continuous
 62
     7
370
    25
100
AcDbLine
 10
-15.5799807
 20
-12.4659119
 30
0.0
 11
-15.6172415
 21
-12.4412352
 31
0.0
  0
LINE
  5
295
330
1F
100
AcDbEntity
  8
0
  6
Continuous
 62
     7
370
    25
100
AcDbLine
 10
-15.077204
 20
-13.0644716
 30
0.0
 11
-15.5799807
 21
-12.4659119
 31
0.0
  0
LINE
  5
296
330
1F
100
AcDbEntity
  8
0
  6
Continuous
 62
     7
370
    25
100
AcDbLine
 10
-14.5562893
 20
-13.6473147
 30
0.0
 11
-15.077204
 21
-13.0644716
 31
0.0
  0
LINE
  5
297
330
1F
100
AcDbEntity
  8
0
  6
Continuous
 62
     7
370
    25
100
AcDbLine
 10
-14.5371666
 20
-13.6877081
 30
0.0
 11
-14.5562893
 21
-13.6473147
 31
0.0
  0
LINE
  5
298
330
1F
100
AcDbEntity
  8
0
  6
Continuous
 62
     7
370
    25
100
AcDbLine
 10
-14.5262517
 20
-13.734724
 30
0.0
 11
-14.5371666
 21
-13.6877081
 31
0.0
  0
LINE
  5
299
330
1F
100
AcDbEntity
  8
0
  6
Continuous
 62
     7
370
    25
100
AcDbLine
 10
-14.5238132
 20
-13.7880527
 30
0.0
 11
-14.5262517
 21
-13.734724
 31
0.0
  0
LINE
  5
29A
330
1F
100
AcDbEntity
  8
0
  6
Continuous
 62
     7
370
    25
100
AcDbLine
 10
-14.5301101
 20
-13.8473496
 30
0.0
 11
-14.5238132
 21
-13.7880527
 31
0.0
  0
LINE
  5
29B
330
1F
100
AcDbEntity
  8
0
  6
Continuous
 62
     7
370
    25
100
AcDbLine
 10
-14.5453729
 20
-13.9122719
 30
0.0
 11
-14.5301101
 21
-13.8473496
 31
0.0
  0
LINE
  5
29C
330
1F
100
AcDbEntity
  8
0
  6
Continuous
 62
     7
370
    25
100
AcDbLine
 10
-14.5698597
 20
-13.9824611
 30
0.0
 11
-14.5453729
 21
-13.9122719
 31
0.0
  0
LINE
  5
29D
330
1F
100
AcDbEntity
  8
0
  6
Continuous
 62
     7
370
    25
100
AcDbLine
 10
-14.6037719
 20
-14.0575624
 30
0.0
 11
-14.5698597
 21
-13.9824611
 31
0.0
  0
LINE
  5
29E
330
1F
100
AcDbEntity
  8
0
  6
Continuous
 62
     7
370
    25
100
AcDbLine
 10
-14.6473382
 20
-14.137205
 30
0.0
 11
-14.6037719
 21
-14.0575624
 31
0.0
  0
LINE
  5
29F
330
1F
100
AcDbEntity
  8
0
  6
Continuous
 62
     7
370
    25
100
AcDbLine
 10
-14.7642133
 20
-14.3086333
 30
0.0
 11
-14.6473382
 21
-14.137205
 31
0.0
  0
LINE
  5
2A0
330
1F
100
AcDbEntity
  8
0
  6
Continuous
 62
     7
370
    25
100
AcDbLine
 10
-14.9542111
 20
-14.5376273
 30
0.0
 11
-14.7642133
 21
-14.3086333
 31
0.0
  0
LINE
  5
2A1
330
1F
100
AcDbEntity
  8
0
  6
Continuous
 62
     7
370
    25
100
AcDbLine
 10
-15.1306797
 20
-14.7838231
 30
0.0
 11
-14.9542111
 21
-14.5376273
 31
0.0
  0
LINE
  5
2A2
330
1F
100
AcDbEntity
  8
0
  6
Continuous
 62
     7
370
    25
100
AcDbLine
 10
-15.23901
 20
-14.955813
 30
0.0
 11
-15.1306797
 21
-14.7838231
 31
0.0
  0
LINE
  5
2A3
330
1F
100
AcDbEntity
  8
0
  6
Continuous
 62
     7
370
    25
100
AcDbLine
 10
-15.3598375
 20
-15.1666436
 30
0.0
 11
-15.23901
 21
-14.955813
 31
0.0
  0
LINE
  5
2A4
330
1F
100
AcDbEntity
  8
0
  6
Continuous
 62
     7
370
    25
100
AcDbLine
 10
-15.4882242
 20
-15.4141799
 30
0.0
 11
-15.3598375
 21
-15.1666436
 31
0.0
  0
LINE
  5
2A5
330
1F
100
AcDbEntity
  8
0
  6
Continuous
 62
     7
370
    25
100
AcDbLine
 10
-15.6211193
 20
-15.6989803
 30
0.0
 11
-15.4882242
 21
-15.4141799
 31
0.0
  0
LINE
  5
2A6
330
1F
100
AcDbEntity
  8
0
  6
Continuous
 62
     7
370
    25
100
AcDbLine
 10
-15.7558906
 20
-16.0224027
 30
0.0
 11
-15.6211193
 21
-15.6989803
 31
0.0
  0
LINE
  5
2A7
330
1F
100
AcDbEntity
  8
0
  6
Continuous
 62
     7
370
    25
100
AcDbLine
 10
-15.8898171
 20
-16.3859534
 30
0.0
 11
-15.7558906
 21
-16.0224027
 31
0.0
  0
LINE
  5
2A8
330
1F
100
AcDbEntity
  8
0
  6
Continuous
 62
     7
370
    25
100
AcDbLine
 10
-16.0189345
 20
-16.7874275
 30
0.0
 11
-15.8898171
 21
-16.3859534
 31
0.0
  0
LINE
  5
2A9
330
1F
100
AcDbEntity
  8
0
  6
Continuous
 62
     7
370
    25
100
AcDbLine
 10
-16.1416057
 20
-17.2318903
 30
0.0
 11
-16.0189345
 21
-16.7874275
 31
0.0
  0
LINE
  5
2AA
330
1F
100
AcDbEntity
  8
0
  6
Continuous
 62
     7
370
    25
100
AcDbLine
 10
-16.2431596
 20
-17.668007
 30
0.0
 11
-16.1416057
 21
-17.2318903
 31
0.0
  0
ARC
  5
2AB
330
1F
100
AcDbEntity
  8
0
  6
Continuous
 62
     7
370
    25
100
AcDbCircle
 10
0.0000172734
 20
0.0000207638
 30
0.0
 40
24.0
100
AcDbArc
 50
227.4059879889
 51
230.7758328222
  0
LINE
  5
2AC
330
1F
100
AcDbEntity
  8
0
  6
Continuous
 62
     7
370
    25
100
AcDbLine
 10
-14.7593045
 20
-18.4296611
 30
0.0
 11
-15.1765295
 21
-18.5922472
 31
0.0
  0
LINE
  5
2AD
330
1F
100
AcDbEntity
  8
0
  6
Continuous
 62
     7
370
    25
100
AcDbLine
 10
-14.3368236
 20
-18.2449848
 30
0.0
 11
-14.7593045
 21
-18.4296611
 31
0.0
  0
LINE
  5
2AE
330
1F
100
AcDbEntity
  8
0
  6
Continuous
 62
     7
370
    25
100
AcDbLine
 10
-13.9578113
 20
-18.060046
 30
0.0
 11
-14.3368236
 21
-18.2449848
 31
0.0
  0
LINE
  5
2AF
330
1F
100
AcDbEntity
  8
0
  6
Continuous
 62
     7
370
    25
100
AcDbLine
 10
-13.6170208
 20
-17.875744
 30
0.0
 11
-13.9578113
 21
-18.060046
 31
0.0
  0
LINE
  5
2B0
330
1F
100
AcDbEntity
  8
0
  6
Continuous
 62
     7
370
    25
100
AcDbLine
 10
-13.3160702
 20
-17.6963167
 30
0.0
 11
-13.6170208
 21
-17.875744
 31
0.0
  0
LINE
  5
2B1
330
1F
100
AcDbEntity
  8
0
  6
Continuous
 62
     7
370
    25
100
AcDbLine
 10
-13.0530816
 20
-17.5242429
 30
0.0
 11
-13.3160702
 21
-17.6963167
 31
0.0
  0
LINE
  5
2B2
330
1F
100
AcDbEntity
  8
0
  6
Continuous
 62
     7
370
    25
100
AcDbLine
 10
-12.8263363
 20
-17.3619349
 30
0.0
 11
-13.0530816
 21
-17.5242429
 31
0.0
  0
LINE
  5
2B3
330
1F
100
AcDbEntity
  8
0
  6
Continuous
 62
     7
370
    25
100
AcDbLine
 10
-12.6348471
 20
-17.212333
 30
0.0
 11
-12.8263363
 21
-17.3619349
 31
0.0
  0
LINE
  5
2B4
330
1F
100
AcDbEntity
  8
0
  6
Continuous
 62
     7
370
    25
100
AcDbLine
 10
-12.4800249
 20
-17.0806286
 30
0.0
 11
-12.6348471
 21
-17.212333
 31
0.0
  0
LINE
  5
2B5
330
1F
100
AcDbEntity
  8
0
  6
Continuous
 62
     7
370
    25
100
AcDbLine
 10
-12.2614491
 20
-16.8709189
 30
0.0
 11
-12.4800249
 21
-17.0806286
 31
0.0
  0
LINE
  5
2B6
330
1F
100
AcDbEntity
  8
0
  6
Continuous
 62
     7
370
    25
100
AcDbLine
 10
-12.0618254
 20
-16.6502657
 30
0.0
 11
-12.2614491
 21
-16.8709189
 31
0.0
  0
LINE
  5
2B7
330
1F
100
AcDbEntity
  8
0
  6
Continuous
 62
     7
370
    25
100
AcDbLine
 10
-11.908775
 20
-16.5101834
 30
0.0
 11
-12.0618254
 21
-16.6502657
 31
0.0
  0
LINE
  5
2B8
330
1F
100
AcDbEntity
  8
0
  6
Continuous
 62
     7
370
    25
100
AcDbLine
 10
-11.8361432
 20
-16.4557263
 30
0.0
 11
-11.908775
 21
-16.5101834
 31
0.0
  0
LINE
  5
2B9
330
1F
100
AcDbEntity
  8
0
  6
Continuous
 62
     7
370
    25
100
AcDbLine
 10
-11.7666326
 20
-16.4114712
 30
0.0
 11
-11.8361432
 21
-16.4557263
 31
0.0
  0
LINE
  5
2BA
330
1F
100
AcDbEntity
  8
0
  6
Continuous
 62
     7
370
    25
100
AcDbLine
 10
-11.7006427
 20
-16.3772447
 30
0.0
 11
-11.7666326
 21
-16.4114712
 31
0.0
  0
LINE
  5
2BB
330
1F
100
AcDbEntity
  8
0
  6
Continuous
 62
     7
370
    25
100
AcDbLine
 10
-11.6385533
 20
-16.3528978
 30
0.0
 11
-11.7006427
 21
-16.3772447
 31
0.0
  0
LINE
  5
2BC
330
1F
100
AcDbEntity
  8
0
  6
Continuous
 62
     7
370
    25
100
AcDbLine
 10
-11.5807561
 20
-16.3382262
 30
0.0
 11
-11.6385533
 21
-16.3528978
 31
0.0
  0
LINE
  5
2BD
330
1F
100
AcDbEntity
  8
0
  6
Continuous
 62
     7
370
    25
100
AcDbLine
 10
-11.5276232
 20
-16.3330504
 30
0.0
 11
-11.5807561
 21
-16.3382262
 31
0.0
  0
LINE
  5
2BE
330
1F
100
AcDbEntity
  8
0
  6
Continuous
 62
     7
370
    25
100
AcDbLine
 10
-11.4795324
 20
-16.3371631
 30
0.0
 11
-11.5276232
 21
-16.3330504
 31
0.0
  0
LINE
  5
2BF
330
1F
100
AcDbEntity
  8
0
  6
Continuous
 62
     7
370
    25
100
AcDbLine
 10
-11.4368288
 20
-16.3503427
 30
0.0
 11
-11.4795324
 21
-16.3371631
 31
0.0
  0
LINE
  5
2C0
330
1F
100
AcDbEntity
  8
0
  6
Continuous
 62
     7
370
    25
100
AcDbLine
 10
-11.3509127
 20
-16.4061519
 30
0.0
 11
-11.4368288
 21
-16.3503427
 31
0.0
  0
LINE
  5
2C1
330
1F
100
AcDbEntity
  8
0
  6
Continuous
 62
     7
370
    25
100
AcDbLine
 10
-10.7857843
 20
-16.783008
 30
0.0
 11
-11.3509127
 21
-16.4061519
 31
0.0
  0
LINE
  5
2C2
330
1F
100
AcDbEntity
  8
0
  6
Continuous
 62
     7
370
    25
100
AcDbLine
 10
-10.2082212
 20
-17.1405152
 30
0.0
 11
-10.7857843
 21
-16.783008
 31
0.0
  0
LINE
  5
2C3
330
1F
100
AcDbEntity
  8
0
  6
Continuous
 62
     7
370
    25
100
AcDbLine
 10
-10.1217644
 20
-17.1954832
 30
0.0
 11
-10.2082212
 21
-17.1405152
 31
0.0
  0
LINE
  5
2C4
330
1F
100
AcDbEntity
  8
0
  6
Continuous
 62
     7
370
    25
100
AcDbLine
 10
-10.0920362
 20
-17.2288528
 30
0.0
 11
-10.1217644
 21
-17.1954832
 31
0.0
  0
LINE
  5
2C5
330
1F
100
AcDbEntity
  8
0
  6
Continuous
 62
     7
370
    25
100
AcDbLine
 10
-10.0683175
 20
-17.2708892
 30
0.0
 11
-10.0920362
 21
-17.2288528
 31
0.0
  0
LINE
  5
2C6
330
1F
100
AcDbEntity
  8
0
  6
Continuous
 62
     7
370
    25
100
AcDbLine
 10
-10.0509534
 20
-17.3213708
 30
0.0
 11
-10.0683175
 21
-17.2708892
 31
0.0
  0
LINE
  5
2C7
330
1F
100
AcDbEntity
  8
0
  6
Continuous
 62
     7
370
    25
100
AcDbLine
 10
-10.0402893
 20
-17.3800397
 30
0.0
 11
-10.0509534
 21
-17.3213708
 31
0.0
  0
LINE
  5
2C8
330
1F
100
AcDbEntity
  8
0
  6
Continuous
 62
     7
370
    25
100
AcDbLine
 10
-10.0366432
 20
-17.4466323
 30
0.0
 11
-10.0402893
 21
-17.3800397
 31
0.0
  0
LINE
  5
2C9
330
1F
100
AcDbEntity
  8
0
  6
Continuous
 62
     7
370
    25
100
AcDbLine
 10
-10.0403635
 20
-17.520877
 30
0.0
 11
-10.0366432
 21
-17.4466323
 31
0.0
  0
LINE
  5
2CA
330
1F
100
AcDbEntity
  8
0
  6
Continuous
 62
     7
370
    25
100
AcDbLine
 10
-10.0517435
 20
-17.6024903
 30
0.0
 11
-10.0403635
 21
-17.520877
 31
0.0
  0
LINE
  5
2CB
330
1F
100
AcDbEntity
  8
0
  6
Continuous
 62
     7
370
    25
100
AcDbLine
 10
-10.0711072
 20
-17.6911809
 30
0.0
 11
-10.0517435
 21
-17.6024903
 31
0.0
  0
LINE
  5
2CC
330
1F
100
AcDbEntity
  8
0
  6
Continuous
 62
     7
370
    25
100
AcDbLine
 10
-10.134951
 20
-17.8885927
 30
0.0
 11
-10.0711072
 21
-17.6911809
 31
0.0
  0
LINE
  5
2CD
330
1F
100
AcDbEntity
  8
0
  6
Continuous
 62
     7
370
    25
100
AcDbLine
 10
-10.2527376
 20
-18.1618394
 30
0.0
 11
-10.134951
 21
-17.8885927
 31
0.0
  0
LINE
  5
2CE
330
1F
100
AcDbEntity
  8
0
  6
Continuous
 62
     7
370
    25
100
AcDbLine
 10
-10.3526966
 20
-18.4477795
 30
0.0
 11
-10.2527376
 21
-18.1618394
 31
0.0
  0
LINE
  5
2CF
330
1F
100
AcDbEntity
  8
0
  6
Continuous
 62
     7
370
    25
100
AcDbLine
 10
-10.4081836
 20
-18.6433227
 30
0.0
 11
-10.3526966
 21
-18.4477795
 31
0.0
  0
LINE
  5
2D0
330
1F
100
AcDbEntity
  8
0
  6
Continuous
 62
     7
370
    25
100
AcDbLine
 10
-10.4647189
 20
-18.8796543
 30
0.0
 11
-10.4081836
 21
-18.6433227
 31
0.0
  0
LINE
  5
2D1
330
1F
100
AcDbEntity
  8
0
  6
Continuous
 62
     7
370
    25
100
AcDbLine
 10
-10.518166
 20
-19.1533343
 30
0.0
 11
-10.4647189
 21
-18.8796543
 31
0.0
  0
LINE
  5
2D2
330
1F
100
AcDbEntity
  8
0
  6
Continuous
 62
     7
370
    25
100
AcDbLine
 10
-10.5654404
 20
-19.4640391
 30
0.0
 11
-10.518166
 21
-19.1533343
 31
0.0
  0
LINE
  5
2D3
330
1F
100
AcDbEntity
  8
0
  6
Continuous
 62
     7
370
    25
100
AcDbLine
 10
-10.6036338
 20
-19.8123302
 30
0.0
 11
-10.5654404
 21
-19.4640391
 31
0.0
  0
LINE
  5
2D4
330
1F
100
AcDbEntity
  8
0
  6
Continuous
 62
     7
370
    25
100
AcDbLine
 10
-10.6297113
 20
-20.198886
 30
0.0
 11
-10.6036338
 21
-19.8123302
 31
0.0
  0
LINE
  5
2D5
330
1F
100
AcDbEntity
  8
0
  6
Continuous
 62
     7
370
    25
100
AcDbLine
 10
-10.6404902
 20
-20.6204741
 30
0.0
 11
-10.6297113
 21
-20.198886
 31
0.0
  0
LINE
  5
2D6
330
1F
100
AcDbEntity
  8
0
  6
Continuous
 62
     7
370
    25
100
AcDbLine
 10
-10.6329728
 20
-21.0814935
 30
0.0
 11
-10.6404902
 21
-20.6204741
 31
0.0
  0
LINE
  5
2D7
330
1F
100
AcDbEntity
  8
0
  6
Continuous
 62
     7
370
    25
100
AcDbLine
 10
-10.6075446843
 20
-21.5285556767
 30
0.0
 11
-10.6329728
 21
-21.0814935
 31
0.0
  0
ARC
  5
2D8
330
1F
100
AcDbEntity
  8
0
  6
Continuous
 62
     7
370
    25
100
AcDbCircle
 10
0.0000036943
 20
0.0000267211
 30
0.0
 40
23.99999880542533
100
AcDbArc
 50
243.7696417485
 51
247.1394867074
  0
LINE
  5
2D9
330
1F
100
AcDbEntity
  8
0
  6
Continuous
 62
     7
370
    25
100
AcDbLine
 10
-8.9692134
 20
-21.841307
 30
0.0
 11
-9.3237318806
 21
-22.1148528307
 31
0.0
  0
LINE
  5
2DA
330
1F
100
AcDbEntity
  8
0
  6
Continuous
 62
     7
370
    25
100
AcDbLine
 10
-8.6158753
 20
-21.5450847
 30
0.0
 11
-8.9692134
 21
-21.841307
 31
0.0
  0
LINE
  5
2DB
330
1F
100
AcDbEntity
  8
0
  6
Continuous
 62
     7
370
    25
100
AcDbLine
 10
-8.3043189
 20
-21.2608571
 30
0.0
 11
-8.6158753
 21
-21.5450847
 31
0.0
  0
LINE
  5
2DC
330
1F
100
AcDbEntity
  8
0
  6
Continuous
 62
     7
370
    25
100
AcDbLine
 10
-8.0292567
 20
-20.9880088
 30
0.0
 11
-8.3043189
 21
-21.2608571
 31
0.0
  0
LINE
  5
2DD
330
1F
100
AcDbEntity
  8
0
  6
Continuous
 62
     7
370
    25
100
AcDbLine
 10
-7.7910473
 20
-20.731062
 30
0.0
 11
-8.0292567
 21
-20.9880088
 31
0.0
  0
LINE
  5
2DE
330
1F
100
AcDbEntity
  8
0
  6
Continuous
 62
     7
370
    25
100
AcDbLine
 10
-7.5871903
 20
-20.491866
 30
0.0
 11
-7.7910473
 21
-20.731062
 31
0.0
  0
LINE
  5
2DF
330
1F
100
AcDbEntity
  8
0
  6
Continuous
 62
     7
370
    25
100
AcDbLine
 10
-7.4153572
 20
-20.2722511
 30
0.0
 11
-7.5871903
 21
-20.491866
 31
0.0
  0
LINE
  5
2E0
330
1F
100
AcDbEntity
  8
0
  6
Continuous
 62
     7
370
    25
100
AcDbLine
 10
-7.2737725
 20
-20.0747603
 30
0.0
 11
-7.4153572
 21
-20.2722511
 31
0.0
  0
LINE
  5
2E1
330
1F
100
AcDbEntity
  8
0
  6
Continuous
 62
     7
370
    25
100
AcDbLine
 10
-7.162327
 20
-19.9047724
 30
0.0
 11
-7.2737725
 21
-20.0747603
 31
0.0
  0
LINE
  5
2E2
330
1F
100
AcDbEntity
  8
0
  6
Continuous
 62
     7
370
    25
100
AcDbLine
 10
-7.0116872
 20
-19.6419776
 30
0.0
 11
-7.162327
 21
-19.9047724
 31
0.0
  0
LINE
  5
2E3
330
1F
100
AcDbEntity
  8
0
  6
Continuous
 62
     7
370
    25
100
AcDbLine
 10
-6.8823148
 20
-19.3740219
 30
0.0
 11
-7.0116872
 21
-19.6419776
 31
0.0
  0
LINE
  5
2E4
330
1F
100
AcDbEntity
  8
0
  6
Continuous
 62
     7
370
    25
100
AcDbLine
 10
-6.7749298
 20
-19.1964946
 30
0.0
 11
-6.8823148
 21
-19.3740219
 31
0.0
  0
LINE
  5
2E5
330
1F
100
AcDbEntity
  8
0
  6
Continuous
 62
     7
370
    25
100
AcDbLine
 10
-6.7205824
 20
-19.1237806
 30
0.0
 11
-6.7749298
 21
-19.1964946
 31
0.0
  0
LINE
  5
2E6
330
1F
100
AcDbEntity
  8
0
  6
Continuous
 62
     7
370
    25
100
AcDbLine
 10
-6.6663555
 20
-19.0617348
 30
0.0
 11
-6.7205824
 21
-19.1237806
 31
0.0
  0
LINE
  5
2E7
330
1F
100
AcDbEntity
  8
0
  6
Continuous
 62
     7
370
    25
100
AcDbLine
 10
-6.6126814
 20
-19.0103032
 30
0.0
 11
-6.6663555
 21
-19.0617348
 31
0.0
  0
LINE
  5
2E8
330
1F
100
AcDbEntity
  8
0
  6
Continuous
 62
     7
370
    25
100
AcDbLine
 10
-6.5599664
 20
-18.9694499
 30
0.0
 11
-6.6126814
 21
-19.0103032
 31
0.0
  0
LINE
  5
2E9
330
1F
100
AcDbEntity
  8
0
  6
Continuous
 62
     7
370
    25
100
AcDbLine
 10
-6.5086439
 20
-18.9390893
 30
0.0
 11
-6.5599664
 21
-18.9694499
 31
0.0
  0
LINE
  5
2EA
330
1F
100
AcDbEntity
  8
0
  6
Continuous
 62
     7
370
    25
100
AcDbLine
 10
-6.4591214
 20
-18.9191539
 30
0.0
 11
-6.5086439
 21
-18.9390893
 31
0.0
  0
LINE
  5
2EB
330
1F
100
AcDbEntity
  8
0
  6
Continuous
 62
     7
370
    25
100
AcDbLine
 10
-6.41182
 20
-18.9095513
 30
0.0
 11
-6.4591214
 21
-18.9191539
 31
0.0
  0
LINE
  5
2EC
330
1F
100
AcDbEntity
  8
0
  6
Continuous
 62
     7
370
    25
100
AcDbLine
 10
-6.367133
 20
-18.9101659
 30
0.0
 11
-6.41182
 21
-18.9095513
 31
0.0
  0
LINE
  5
2ED
330
1F
100
AcDbEntity
  8
0
  6
Continuous
 62
     7
370
    25
100
AcDbLine
 10
-6.2689738
 20
-18.9395092
 30
0.0
 11
-6.367133
 21
-18.9101659
 31
0.0
  0
LINE
  5
2EE
330
1F
100
AcDbEntity
  8
0
  6
Continuous
 62
     7
370
    25
100
AcDbLine
 10
-5.6205645
 20
-19.1418848
 30
0.0
 11
-6.2689738
 21
-18.9395092
 31
0.0
  0
LINE
  5
2EF
330
1F
100
AcDbEntity
  8
0
  6
Continuous
 62
     7
370
    25
100
AcDbLine
 10
-4.9656753
 20
-19.3221921
 30
0.0
 11
-5.6205645
 21
-19.1418848
 31
0.0
  0
LINE
  5
2F0
330
1F
100
AcDbEntity
  8
0
  6
Continuous
 62
     7
370
    25
100
AcDbLine
 10
-4.8672344
 20
-19.3505759
 30
0.0
 11
-4.9656753
 21
-19.3221921
 31
0.0
  0
LINE
  5
2F1
330
1F
100
AcDbEntity
  8
0
  6
Continuous
 62
     7
370
    25
100
AcDbLine
 10
-4.829309
 20
-19.3742184
 30
0.0
 11
-4.8672344
 21
-19.3505759
 31
0.0
  0
LINE
  5
2F2
330
1F
100
AcDbEntity
  8
0
  6
Continuous
 62
     7
370
    25
100
AcDbLine
 10
-4.7947081
 20
-19.4078697
 30
0.0
 11
-4.829309
 21
-19.3742184
 31
0.0
  0
LINE
  5
2F3
330
1F
100
AcDbEntity
  8
0
  6
Continuous
 62
     7
370
    25
100
AcDbLine
 10
-4.7638251
 20
-19.4514143
 30
0.0
 11
-4.7947081
 21
-19.4078697
 31
0.0
  0
LINE
  5
2F4
330
1F
100
AcDbEntity
  8
0
  6
Continuous
 62
     7
370
    25
100
AcDbLine
 10
-4.737064
 20
-19.5047023
 30
0.0
 11
-4.7638251
 21
-19.4514143
 31
0.0
  0
LINE
  5
2F5
330
1F
100
AcDbEntity
  8
0
  6
Continuous
 62
     7
370
    25
100
AcDbLine
 10
-4.7148043
 20
-19.5675702
 30
0.0
 11
-4.737064
 21
-19.5047023
 31
0.0
  0
LINE
  5
2F6
330
1F
100
AcDbEntity
  8
0
  6
Continuous
 62
     7
370
    25
100
AcDbLine
 10
-4.6974568
 20
-19.6398556
 30
0.0
 11
-4.7148043
 21
-19.5675702
 31
0.0
  0
LINE
  5
2F7
330
1F
100
AcDbEntity
  8
0
  6
Continuous
 62
     7
370
    25
100
AcDbLine
 10
-4.6853827
 20
-19.7213692
 30
0.0
 11
-4.6974568
 21
-19.6398556
 31
0.0
  0
LINE
  5
2F8
330
1F
100
AcDbEntity
  8
0
  6
Continuous
 62
     7
370
    25
100
AcDbLine
 10
-4.6789749
 20
-19.8119225
 30
0.0
 11
-4.6853827
 21
-19.7213692
 31
0.0
  0
LINE
  5
2F9
330
1F
100
AcDbEntity
  8
0
  6
Continuous
 62
     7
370
    25
100
AcDbLine
 10
-4.6846154
 20
-20.0193246
 30
0.0
 11
-4.6789749
 21
-19.8119225
 31
0.0
  0
LINE
  5
2FA
330
1F
100
AcDbEntity
  8
0
  6
Continuous
 62
     7
370
    25
100
AcDbLine
 10
-4.7206482
 20
-20.3146873
 30
0.0
 11
-4.6846154
 21
-20.0193246
 31
0.0
  0
LINE
  5
2FB
330
1F
100
AcDbEntity
  8
0
  6
Continuous
 62
     7
370
    25
100
AcDbLine
 10
-4.7359996
 20
-20.6172065
 30
0.0
 11
-4.7206482
 21
-20.3146873
 31
0.0
  0
LINE
  5
2FC
330
1F
100
AcDbEntity
  8
0
  6
Continuous
 62
     7
370
    25
100
AcDbLine
 10
-4.7341481
 20
-20.8204613
 30
0.0
 11
-4.7359996
 21
-20.6172065
 31
0.0
  0
LINE
  5
2FD
330
1F
100
AcDbEntity
  8
0
  6
Continuous
 62
     7
370
    25
100
AcDbLine
 10
-4.721811
 20
-21.0631476
 30
0.0
 11
-4.7341481
 21
-20.8204613
 31
0.0
  0
LINE
  5
2FE
330
1F
100
AcDbEntity
  8
0
  6
Continuous
 62
     7
370
    25
100
AcDbLine
 10
-4.6959885
 20
-21.3407995
 30
0.0
 11
-4.721811
 21
-21.0631476
 31
0.0
  0
LINE
  5
2FF
330
1F
100
AcDbEntity
  8
0
  6
Continuous
 62
     7
370
    25
100
AcDbLine
 10
-4.6538123
 20
-21.6522373
 30
0.0
 11
-4.6959885
 21
-21.3407995
 31
0.0
  0
LINE
  5
300
330
1F
100
AcDbEntity
  8
0
  6
Continuous
 62
     7
370
    25
100
AcDbLine
 10
-4.5923337
 20
-21.9971805
 30
0.0
 11
-4.6538123
 21
-21.6522373
 31
0.0
  0
LINE
  5
301
330
1F
100
AcDbEntity
  8
0
  6
Continuous
 62
     7
370
    25
100
AcDbLine
 10
-4.5084496
 20
-22.3754249
 30
0.0
 11
-4.5923337
 21
-21.9971805
 31
0.0
  0
LINE
  5
302
330
1F
100
AcDbEntity
  8
0
  6
Continuous
 62
     7
370
    25
100
AcDbLine
 10
-4.4000167
 20
-22.7829725
 30
0.0
 11
-4.5084496
 21
-22.3754249
 31
0.0
  0
LINE
  5
303
330
1F
100
AcDbEntity
  8
0
  6
Continuous
 62
     7
370
    25
100
AcDbLine
 10
-4.2629196
 20
-23.2231995
 30
0.0
 11
-4.4000167
 21
-22.7829725
 31
0.0
  0
LINE
  5
304
330
1F
100
AcDbEntity
  8
0
  6
Continuous
 62
     7
370
    25
100
AcDbLine
 10
-4.1125697
 20
-23.6449884
 30
0.0
 11
-4.2629196
 21
-23.2231995
 31
0.0
  0
ARC
  5
305
330
1F
100
AcDbEntity
  8
0
  6
Continuous
 62
     7
370
    25
100
AcDbCircle
 10
0.0000036943
 20
0.0000267211
 30
0.0
 40
24.00000000000001
100
AcDbArc
 50
260.1332596544
 51
263.5031046958
  0
LINE
  5
306
330
1F
100
AcDbEntity
  8
0
  6
Continuous
 62
     7
370
    25
100
AcDbLine
 10
-2.45249
 20
-23.4835
 30
0.0
 11
-2.7155813
 21
-23.845845
 31
0.0
  0
LINE
  5
307
330
1F
100
AcDbEntity
  8
0
  6
Continuous
 62
     7
370
    25
100
AcDbLine
 10
-2.19692
 20
-23.09973
 30
0.0
 11
-2.45249
 21
-23.4835
 31
0.0
  0
LINE
  5
308
330
1F
100
AcDbEntity
  8
0
  6
Continuous
 62
     7
370
    25
100
AcDbLine
 10
-1.97806
 20
-22.73924
 30
0.0
 11
-2.19692
 21
-23.09973
 31
0.0
  0
LINE
  5
309
330
1F
100
AcDbEntity
  8
0
  6
Continuous
 62
     7
370
    25
100
AcDbLine
 10
-1.79101
 20
-22.39995
 30
0.0
 11
-1.97806
 21
-22.73924
 31
0.0
  0
LINE
  5
30A
330
1F
100
AcDbEntity
  8
0
  6
Continuous
 62
     7
370
    25
100
AcDbLine
 10
-1.63484
 20
-22.0863
 30
0.0
 11
-1.79101
 21
-22.39995
 31
0.0
  0
LINE
  5
30B
330
1F
100
AcDbEntity
  8
0
  6
Continuous
 62
     7
370
    25
100
AcDbLine
 10
-1.50663
 20
-21.79936
 30
0.0
 11
-1.63484
 21
-22.0863
 31
0.0
  0
LINE
  5
30C
330
1F
100
AcDbEntity
  8
0
  6
Continuous
 62
     7
370
    25
100
AcDbLine
 10
-1.40363
 20
-21.54023
 30
0.0
 11
-1.50663
 21
-21.79936
 31
0.0
  0
LINE
  5
30D
330
1F
100
AcDbEntity
  8
0
  6
Continuous
 62
     7
370
    25
100
AcDbLine
 10
-1.32342
 20
-21.31085
 30
0.0
 11
-1.40363
 21
-21.54023
 31
0.0
  0
LINE
  5
30E
330
1F
100
AcDbEntity
  8
0
  6
Continuous
 62
     7
370
    25
100
AcDbLine
 10
-1.26438
 20
-21.11635
 30
0.0
 11
-1.32342
 21
-21.31085
 31
0.0
  0
LINE
  5
30F
330
1F
100
AcDbEntity
  8
0
  6
Continuous
 62
     7
370
    25
100
AcDbLine
 10
-1.19388
 20
-20.82176
 30
0.0
 11
-1.26438
 21
-21.11635
 31
0.0
  0
LINE
  5
310
330
1F
100
AcDbEntity
  8
0
  6
Continuous
 62
     7
370
    25
100
AcDbLine
 10
-1.14524
 20
-20.52821
 30
0.0
 11
-1.19388
 21
-20.82176
 31
0.0
  0
LINE
  5
311
330
1F
100
AcDbEntity
  8
0
  6
Continuous
 62
     7
370
    25
100
AcDbLine
 10
-1.09222
 20
-20.32762
 30
0.0
 11
-1.14524
 21
-20.52821
 31
0.0
  0
LINE
  5
312
330
1F
100
AcDbEntity
  8
0
  6
Continuous
 62
     7
370
    25
100
AcDbLine
 10
-1.06056
 20
-20.24254
 30
0.0
 11
-1.09222
 21
-20.32762
 31
0.0
  0
LINE
  5
313
330
1F
100
AcDbEntity
  8
0
  6
Continuous
 62
     7
370
    25
100
AcDbLine
 10
-1.02601
 20
-20.16773
 30
0.0
 11
-1.06056
 21
-20.24254
 31
0.0
  0
LINE
  5
314
330
1F
100
AcDbEntity
  8
0
  6
Continuous
 62
     7
370
    25
100
AcDbLine
 10
-0.989
 20
-20.10326
 30
0.0
 11
-1.02601
 21
-20.16773
 31
0.0
  0
LINE
  5
315
330
1F
100
AcDbEntity
  8
0
  6
Continuous
 62
     7
370
    25
100
AcDbLine
 10
-0.94993
 20
-20.04921
 30
0.0
 11
-0.989
 21
-20.10326
 31
0.0
  0
LINE
  5
316
330
1F
100
AcDbEntity
  8
0
  6
Continuous
 62
     7
370
    25
100
AcDbLine
 10
-0.90924
 20
-20.00562
 30
0.0
 11
-0.94993
 21
-20.04921
 31
0.0
  0
LINE
  5
317
330
1F
100
AcDbEntity
  8
0
  6
Continuous
 62
     7
370
    25
100
AcDbLine
 10
-0.86734
 20
-19.97254
 30
0.0
 11
-0.90924
 21
-20.00562
 31
0.0
  0
LINE
  5
318
330
1F
100
AcDbEntity
  8
0
  6
Continuous
 62
     7
370
    25
100
AcDbLine
 10
-0.82466
 20
-19.95
 30
0.0
 11
-0.86734
 21
-19.97254
 31
0.0
  0
LINE
  5
319
330
1F
100
AcDbEntity
  8
0
  6
Continuous
 62
     7
370
    25
100
AcDbLine
 10
-0.78161
 20
-19.938
 30
0.0
 11
-0.82466
 21
-19.95
 31
0.0
  0
LINE
  5
31A
330
1F
100
AcDbEntity
  8
0
  6
Continuous
 62
     7
370
    25
100
AcDbLine
 10
-0.67916
 20
-19.9385
 30
0.0
 11
-0.78161
 21
-19.938
 31
0.0
  0
LINE
  5
31B
330
1F
100
AcDbEntity
  8
0
  6
Continuous
 62
     7
370
    25
100
AcDbLine
 10
0.0
 20
-19.95
 30
0.0
 11
-0.67916
 21
-19.9385
 31
0.0
  0
LINE
  5
31C
330
1F
100
AcDbEntity
  8
0
  6
Continuous
 62
     7
370
    25
100
AcDbLine
 10
0.67916
 20
-19.9385
 30
0.0
 11
0.0
 21
-19.95
 31
0.0
  0
LINE
  5
31D
330
1F
100
AcDbEntity
  8
0
  6
Continuous
 62
     7
370
    25
100
AcDbLine
 10
0.78161
 20
-19.938
 30
0.0
 11
0.67916
 21
-19.9385
 31
0.0
  0
LINE
  5
31E
330
1F
100
AcDbEntity
  8
0
  6
Continuous
 62
     7
370
    25
100
AcDbLine
 10
0.82466
 20
-19.95
 30
0.0
 11
0.78161
 21
-19.938
 31
0.0
  0
LINE
  5
31F
330
1F
100
AcDbEntity
  8
0
  6
Continuous
 62
     7
370
    25
100
AcDbLine
 10
0.86734
 20
-19.97254
 30
0.0
 11
0.82466
 21
-19.95
 31
0.0
  0
LINE
  5
320
330
1F
100
AcDbEntity
  8
0
  6
Continuous
 62
     7
370
    25
100
AcDbLine
 10
0.90924
 20
-20.00562
 30
0.0
 11
0.86734
 21
-19.97254
 31
0.0
  0
LINE
  5
321
330
1F
100
AcDbEntity
  8
0
  6
Continuous
 62
     7
370
    25
100
AcDbLine
 10
0.94993
 20
-20.04921
 30
0.0
 11
0.90924
 21
-20.00562
 31
0.0
  0
LINE
  5
322
330
1F
100
AcDbEntity
  8
0
  6
Continuous
 62
     7
370
    25
100
AcDbLine
 10
0.989
 20
-20.10326
 30
0.0
 11
0.94993
 21
-20.04921
 31
0.0
  0
LINE
  5
323
330
1F
100
AcDbEntity
  8
0
  6
Continuous
 62
     7
370
    25
100
AcDbLine
 10
1.02601
 20
-20.16773
 30
0.0
 11
0.989
 21
-20.10326
 31
0.0
  0
LINE
  5
324
330
1F
100
AcDbEntity
  8
0
  6
Continuous
 62
     7
370
    25
100
AcDbLine
 10
1.06056
 20
-20.24254
 30
0.0
 11
1.02601
 21
-20.16773
 31
0.0
  0
LINE
  5
325
330
1F
100
AcDbEntity
  8
0
  6
Continuous
 62
     7
370
    25
100
AcDbLine
 10
1.09222
 20
-20.32762
 30
0.0
 11
1.06056
 21
-20.24254
 31
0.0
  0
LINE
  5
326
330
1F
100
AcDbEntity
  8
0
  6
Continuous
 62
     7
370
    25
100
AcDbLine
 10
1.14524
 20
-20.52821
 30
0.0
 11
1.09222
 21
-20.32762
 31
0.0
  0
LINE
  5
327
330
1F
100
AcDbEntity
  8
0
  6
Continuous
 62
     7
370
    25
100
AcDbLine
 10
1.19388
 20
-20.82176
 30
0.0
 11
1.14524
 21
-20.52821
 31
0.0
  0
LINE
  5
328
330
1F
100
AcDbEntity
  8
0
  6
Continuous
 62
     7
370
    25
100
AcDbLine
 10
1.26438
 20
-21.11635
 30
0.0
 11
1.19388
 21
-20.82176
 31
0.0
  0
LINE
  5
329
330
1F
100
AcDbEntity
  8
0
  6
Continuous
 62
     7
370
    25
100
AcDbLine
 10
1.32342
 20
-21.31085
 30
0.0
 11
1.26438
 21
-21.11635
 31
0.0
  0
LINE
  5
32A
330
1F
100
AcDbEntity
  8
0
  6
Continuous
 62
     7
370
    25
100
AcDbLine
 10
1.40363
 20
-21.54023
 30
0.0
 11
1.32342
 21
-21.31085
 31
0.0
  0
LINE
  5
32B
330
1F
100
AcDbEntity
  8
0
  6
Continuous
 62
     7
370
    25
100
AcDbLine
 10
1.50663
 20
-21.79936
 30
0.0
 11
1.40363
 21
-21.54023
 31
0.0
  0
LINE
  5
32C
330
1F
100
AcDbEntity
  8
0
  6
Continuous
 62
     7
370
    25
100
AcDbLine
 10
1.63484
 20
-22.0863
 30
0.0
 11
1.50663
 21
-21.79936
 31
0.0
  0
LINE
  5
32D
330
1F
100
AcDbEntity
  8
0
  6
Continuous
 62
     7
370
    25
100
AcDbLine
 10
1.79101
 20
-22.39995
 30
0.0
 11
1.63484
 21
-22.0863
 31
0.0
  0
LINE
  5
32E
330
1F
100
AcDbEntity
  8
0
  6
Continuous
 62
     7
370
    25
100
AcDbLine
 10
1.97806
 20
-22.73924
 30
0.0
 11
1.79101
 21
-22.39995
 31
0.0
  0
LINE
  5
32F
330
1F
100
AcDbEntity
  8
0
  6
Continuous
 62
     7
370
    25
100
AcDbLine
 10
2.19692
 20
-23.09973
 30
0.0
 11
1.97806
 21
-22.73924
 31
0.0
  0
LINE
  5
330
330
1F
100
AcDbEntity
  8
0
  6
Continuous
 62
     7
370
    25
100
AcDbLine
 10
2.45249
 20
-23.4835
 30
0.0
 11
2.19692
 21
-23.09973
 31
0.0
  0
LINE
  5
331
330
1F
100
AcDbEntity
  8
0
  6
Continuous
 62
     7
370
    25
100
AcDbLine
 10
2.7155814629
 20
-23.8458452244
 30
0.0
 11
2.45249
 21
-23.4835
 31
0.0
  0
ARC
  5
332
330
1F
100
AcDbEntity
  8
0
  6
Continuous
 62
     7
370
    25
100
AcDbCircle
 10
-0.0000116536
 20
0.0000244
 30
0.0
 40
23.99999883576533
100
AcDbArc
 50
276.4969151366
 51
279.8667603414
  0
LINE
  5
333
330
1F
100
AcDbEntity
  8
0
  6
Continuous
 62
     7
370
    25
100
AcDbLine
 10
4.2629196
 20
-23.2231995
 30
0.0
 11
4.1125697931
 21
-23.6449881388
 31
0.0
  0
LINE
  5
334
330
1F
100
AcDbEntity
  8
0
  6
Continuous
 62
     7
370
    25
100
AcDbLine
 10
4.4000167
 20
-22.7829725
 30
0.0
 11
4.2629196
 21
-23.2231995
 31
0.0
  0
LINE
  5
335
330
1F
100
AcDbEntity
  8
0
  6
Continuous
 62
     7
370
    25
100
AcDbLine
 10
4.5084496
 20
-22.3754249
 30
0.0
 11
4.4000167
 21
-22.7829725
 31
0.0
  0
LINE
  5
336
330
1F
100
AcDbEntity
  8
0
  6
Continuous
 62
     7
370
    25
100
AcDbLine
 10
4.5923337
 20
-21.9971805
 30
0.0
 11
4.5084496
 21
-22.3754249
 31
0.0
  0
LINE
  5
337
330
1F
100
AcDbEntity
  8
0
  6
Continuous
 62
     7
370
    25
100
AcDbLine
 10
4.6538123
 20
-21.6522373
 30
0.0
 11
4.5923337
 21
-21.9971805
 31
0.0
  0
LINE
  5
338
330
1F
100
AcDbEntity
  8
0
  6
Continuous
 62
     7
370
    25
100
AcDbLine
 10
4.6959885
 20
-21.3407995
 30
0.0
 11
4.6538123
 21
-21.6522373
 31
0.0
  0
LINE
  5
339
330
1F
100
AcDbEntity
  8
0
  6
Continuous
 62
     7
370
    25
100
AcDbLine
 10
4.721811
 20
-21.0631476
 30
0.0
 11
4.6959885
 21
-21.3407995
 31
0.0
  0
LINE
  5
33A
330
1F
100
AcDbEntity
  8
0
  6
Continuous
 62
     7
370
    25
100
AcDbLine
 10
4.7341481
 20
-20.8204613
 30
0.0
 11
4.721811
 21
-21.0631476
 31
0.0
  0
LINE
  5
33B
330
1F
100
AcDbEntity
  8
0
  6
Continuous
 62
     7
370
    25
100
AcDbLine
 10
4.7359996
 20
-20.6172065
 30
0.0
 11
4.7341481
 21
-20.8204613
 31
0.0
  0
LINE
  5
33C
330
1F
100
AcDbEntity
  8
0
  6
Continuous
 62
     7
370
    25
100
AcDbLine
 10
4.7206482
 20
-20.3146873
 30
0.0
 11
4.7359996
 21
-20.6172065
 31
0.0
  0
LINE
  5
33D
330
1F
100
AcDbEntity
  8
0
  6
Continuous
 62
     7
370
    25
100
AcDbLine
 10
4.6846154
 20
-20.0193246
 30
0.0
 11
4.7206482
 21
-20.3146873
 31
0.0
  0
LINE
  5
33E
330
1F
100
AcDbEntity
  8
0
  6
Continuous
 62
     7
370
    25
100
AcDbLine
 10
4.6789749
 20
-19.8119225
 30
0.0
 11
4.6846154
 21
-20.0193246
 31
0.0
  0
LINE
  5
33F
330
1F
100
AcDbEntity
  8
0
  6
Continuous
 62
     7
370
    25
100
AcDbLine
 10
4.6853827
 20
-19.7213692
 30
0.0
 11
4.6789749
 21
-19.8119225
 31
0.0
  0
LINE
  5
340
330
1F
100
AcDbEntity
  8
0
  6
Continuous
 62
     7
370
    25
100
AcDbLine
 10
4.6974568
 20
-19.6398556
 30
0.0
 11
4.6853827
 21
-19.7213692
 31
0.0
  0
LINE
  5
341
330
1F
100
AcDbEntity
  8
0
  6
Continuous
 62
     7
370
    25
100
AcDbLine
 10
4.7148043
 20
-19.5675702
 30
0.0
 11
4.6974568
 21
-19.6398556
 31
0.0
  0
LINE
  5
342
330
1F
100
AcDbEntity
  8
0
  6
Continuous
 62
     7
370
    25
100
AcDbLine
 10
4.737064
 20
-19.5047023
 30
0.0
 11
4.7148043
 21
-19.5675702
 31
0.0
  0
LINE
  5
343
330
1F
100
AcDbEntity
  8
0
  6
Continuous
 62
     7
370
    25
100
AcDbLine
 10
4.7638251
 20
-19.4514143
 30
0.0
 11
4.737064
 21
-19.5047023
 31
0.0
  0
LINE
  5
344
330
1F
100
AcDbEntity
  8
0
  6
Continuous
 62
     7
370
    25
100
AcDbLine
 10
4.7947081
 20
-19.4078697
 30
0.0
 11
4.7638251
 21
-19.4514143
 31
0.0
  0
LINE
  5
345
330
1F
100
AcDbEntity
  8
0
  6
Continuous
 62
     7
370
    25
100
AcDbLine
 10
4.829309
 20
-19.3742184
 30
0.0
 11
4.7947081
 21
-19.4078697
 31
0.0
  0
LINE
  5
346
330
1F
100
AcDbEntity
  8
0
  6
Continuous
 62
     7
370
    25
100
AcDbLine
 10
4.8672344
 20
-19.3505759
 30
0.0
 11
4.829309
 21
-19.3742184
 31
0.0
  0
LINE
  5
347
330
1F
100
AcDbEntity
  8
0
  6
Continuous
 62
     7
370
    25
100
AcDbLine
 10
4.9656753
 20
-19.3221921
 30
0.0
 11
4.8672344
 21
-19.3505759
 31
0.0
  0
LINE
  5
348
330
1F
100
AcDbEntity
  8
0
  6
Continuous
 62
     7
370
    25
100
AcDbLine
 10
5.6205645
 20
-19.1418848
 30
0.0
 11
4.9656753
 21
-19.3221921
 31
0.0
  0
LINE
  5
349
330
1F
100
AcDbEntity
  8
0
  6
Continuous
 62
     7
370
    25
100
AcDbLine
 10
6.2689738
 20
-18.9395092
 30
0.0
 11
5.6205645
 21
-19.1418848
 31
0.0
  0
LINE
  5
34A
330
1F
100
AcDbEntity
  8
0
  6
Continuous
 62
     7
370
    25
100
AcDbLine
 10
6.367133
 20
-18.9101659
 30
0.0
 11
6.2689738
 21
-18.9395092
 31
0.0
  0
LINE
  5
34B
330
1F
100
AcDbEntity
  8
0
  6
Continuous
 62
     7
370
    25
100
AcDbLine
 10
6.41182
 20
-18.9095513
 30
0.0
 11
6.367133
 21
-18.9101659
 31
0.0
  0
LINE
  5
34C
330
1F
100
AcDbEntity
  8
0
  6
Continuous
 62
     7
370
    25
100
AcDbLine
 10
6.4591214
 20
-18.9191539
 30
0.0
 11
6.41182
 21
-18.9095513
 31
0.0
  0
LINE
  5
34D
330
1F
100
AcDbEntity
  8
0
  6
Continuous
 62
     7
370
    25
100
AcDbLine
 10
6.5086439
 20
-18.9390893
 30
0.0
 11
6.4591214
 21
-18.9191539
 31
0.0
  0
LINE
  5
34E
330
1F
100
AcDbEntity
  8
0
  6
Continuous
 62
     7
370
    25
100
AcDbLine
 10
6.5599664
 20
-18.9694499
 30
0.0
 11
6.5086439
 21
-18.9390893
 31
0.0
  0
LINE
  5
34F
330
1F
100
AcDbEntity
  8
0
  6
Continuous
 62
     7
370
    25
100
AcDbLine
 10
6.6126814
 20
-19.0103032
 30
0.0
 11
6.5599664
 21
-18.9694499
 31
0.0
  0
LINE
  5
350
330
1F
100
AcDbEntity
  8
0
  6
Continuous
 62
     7
370
    25
100
AcDbLine
 10
6.6663555
 20
-19.0617348
 30
0.0
 11
6.6126814
 21
-19.0103032
 31
0.0
  0
LINE
  5
351
330
1F
100
AcDbEntity
  8
0
  6
Continuous
 62
     7
370
    25
100
AcDbLine
 10
6.7205824
 20
-19.1237806
 30
0.0
 11
6.6663555
 21
-19.0617348
 31
0.0
  0
LINE
  5
352
330
1F
100
AcDbEntity
  8
0
  6
Continuous
 62
     7
370
    25
100
AcDbLine
 10
6.7749298
 20
-19.1964946
 30
0.0
 11
6.7205824
 21
-19.1237806
 31
0.0
  0
LINE
  5
353
330
1F
100
AcDbEntity
  8
0
  6
Continuous
 62
     7
370
    25
100
AcDbLine
 10
6.8823148
 20
-19.3740219
 30
0.0
 11
6.7749298
 21
-19.1964946
 31
0.0
  0
LINE
  5
354
330
1F
100
AcDbEntity
  8
0
  6
Continuous
 62
     7
370
    25
100
AcDbLine
 10
7.0116872
 20
-19.6419776
 30
0.0
 11
6.8823148
 21
-19.3740219
 31
0.0
  0
LINE
  5
355
330
1F
100
AcDbEntity
  8
0
  6
Continuous
 62
     7
370
    25
100
AcDbLine
 10
7.162327
 20
-19.9047724
 30
0.0
 11
7.0116872
 21
-19.6419776
 31
0.0
  0
LINE
  5
356
330
1F
100
AcDbEntity
  8
0
  6
Continuous
 62
     7
370
    25
100
AcDbLine
 10
7.2737725
 20
-20.0747603
 30
0.0
 11
7.162327
 21
-19.9047724
 31
0.0
  0
LINE
  5
357
330
1F
100
AcDbEntity
  8
0
  6
Continuous
 62
     7
370
    25
100
AcDbLine
 10
7.4153572
 20
-20.2722511
 30
0.0
 11
7.2737725
 21
-20.0747603
 31
0.0
  0
LINE
  5
358
330
1F
100
AcDbEntity
  8
0
  6
Continuous
 62
     7
370
    25
100
AcDbLine
 10
7.5871903
 20
-20.491866
 30
0.0
 11
7.4153572
 21
-20.2722511
 31
0.0
  0
LINE
  5
359
330
1F
100
AcDbEntity
  8
0
  6
Continuous
 62
     7
370
    25
100
AcDbLine
 10
7.7910473
 20
-20.731062
 30
0.0
 11
7.5871903
 21
-20.491866
 31
0.0
  0
LINE
  5
35A
330
1F
100
AcDbEntity
  8
0
  6
Continuous
 62
     7
370
    25
100
AcDbLine
 10
8.0292567
 20
-20.9880088
 30
0.0
 11
7.7910473
 21
-20.731062
 31
0.0
  0
LINE
  5
35B
330
1F
100
AcDbEntity
  8
0
  6
Continuous
 62
     7
370
    25
100
AcDbLine
 10
8.3043189
 20
-21.2608571
 30
0.0
 11
8.0292567
 21
-20.9880088
 31
0.0
  0
LINE
  5
35C
330
1F
100
AcDbEntity
  8
0
  6
Continuous
 62
     7
370
    25
100
AcDbLine
 10
8.6158753
 20
-21.5450847
 30
0.0
 11
8.3043189
 21
-21.2608571
 31
0.0
  0
LINE
  5
35D
330
1F
100
AcDbEntity
  8
0
  6
Continuous
 62
     7
370
    25
100
AcDbLine
 10
8.9692134
 20
-21.841307
 30
0.0
 11
8.6158753
 21
-21.5450847
 31
0.0
  0
LINE
  5
35E
330
1F
100
AcDbEntity
  8
0
  6
Continuous
 62
     7
370
    25
100
AcDbLine
 10
9.3237321
 20
-22.114853
 30
0.0
 11
8.9692134
 21
-21.841307
 31
0.0
  0
ARC
  5
35F
330
1F
100
AcDbEntity
  8
0
  6
Continuous
 62
     7
370
    25
100
AcDbCircle
 10
-0.0000116536
 20
0.0000244
 30
0.0
 40
24.0
100
AcDbArc
 50
292.8605332801
 51
296.2303780711
  0
LINE
  5
360
330
1F
100
AcDbEntity
  8
0
  6
Continuous
 62
     7
370
    25
100
AcDbLine
 10
10.6329728
 20
-21.0814935
 30
0.0
 11
10.6075447
 21
-21.5285554
 31
0.0
  0
LINE
  5
361
330
1F
100
AcDbEntity
  8
0
  6
Continuous
 62
     7
370
    25
100
AcDbLine
 10
10.6404902
 20
-20.6204741
 30
0.0
 11
10.6329728
 21
-21.0814935
 31
0.0
  0
LINE
  5
362
330
1F
100
AcDbEntity
  8
0
  6
Continuous
 62
     7
370
    25
100
AcDbLine
 10
10.6297113
 20
-20.198886
 30
0.0
 11
10.6404902
 21
-20.6204741
 31
0.0
  0
LINE
  5
363
330
1F
100
AcDbEntity
  8
0
  6
Continuous
 62
     7
370
    25
100
AcDbLine
 10
10.6036338
 20
-19.8123302
 30
0.0
 11
10.6297113
 21
-20.198886
 31
0.0
  0
LINE
  5
364
330
1F
100
AcDbEntity
  8
0
  6
Continuous
 62
     7
370
    25
100
AcDbLine
 10
10.5654404
 20
-19.4640391
 30
0.0
 11
10.6036338
 21
-19.8123302
 31
0.0
  0
LINE
  5
365
330
1F
100
AcDbEntity
  8
0
  6
Continuous
 62
     7
370
    25
100
AcDbLine
 10
10.518166
 20
-19.1533343
 30
0.0
 11
10.5654404
 21
-19.4640391
 31
0.0
  0
LINE
  5
366
330
1F
100
AcDbEntity
  8
0
  6
Continuous
 62
     7
370
    25
100
AcDbLine
 10
10.4647189
 20
-18.8796543
 30
0.0
 11
10.518166
 21
-19.1533343
 31
0.0
  0
LINE
  5
367
330
1F
100
AcDbEntity
  8
0
  6
Continuous
 62
     7
370
    25
100
AcDbLine
 10
10.4081836
 20
-18.6433227
 30
0.0
 11
10.4647189
 21
-18.8796543
 31
0.0
  0
LINE
  5
368
330
1F
100
AcDbEntity
  8
0
  6
Continuous
 62
     7
370
    25
100
AcDbLine
 10
10.3526966
 20
-18.4477795
 30
0.0
 11
10.4081836
 21
-18.6433227
 31
0.0
  0
LINE
  5
369
330
1F
100
AcDbEntity
  8
0
  6
Continuous
 62
     7
370
    25
100
AcDbLine
 10
10.2527376
 20
-18.1618394
 30
0.0
 11
10.3526966
 21
-18.4477795
 31
0.0
  0
LINE
  5
36A
330
1F
100
AcDbEntity
  8
0
  6
Continuous
 62
     7
370
    25
100
AcDbLine
 10
10.134951
 20
-17.8885927
 30
0.0
 11
10.2527376
 21
-18.1618394
 31
0.0
  0
LINE
  5
36B
330
1F
100
AcDbEntity
  8
0
  6
Continuous
 62
     7
370
    25
100
AcDbLine
 10
10.0711072
 20
-17.6911809
 30
0.0
 11
10.134951
 21
-17.8885927
 31
0.0
  0
LINE
  5
36C
330
1F
100
AcDbEntity
  8
0
  6
Continuous
 62
     7
370
    25
100
AcDbLine
 10
10.0517435
 20
-17.6024903
 30
0.0
 11
10.0711072
 21
-17.6911809
 31
0.0
  0
LINE
  5
36D
330
1F
100
AcDbEntity
  8
0
  6
Continuous
 62
     7
370
    25
100
AcDbLine
 10
10.0403635
 20
-17.520877
 30
0.0
 11
10.0517435
 21
-17.6024903
 31
0.0
  0
LINE
  5
36E
330
1F
100
AcDbEntity
  8
0
  6
Continuous
 62
     7
370
    25
100
AcDbLine
 10
10.0366432
 20
-17.4466323
 30
0.0
 11
10.0403635
 21
-17.520877
 31
0.0
  0
LINE
  5
36F
330
1F
100
AcDbEntity
  8
0
  6
Continuous
 62
     7
370
    25
100
AcDbLine
 10
10.0402893
 20
-17.3800397
 30
0.0
 11
10.0366432
 21
-17.4466323
 31
0.0
  0
LINE
  5
370
330
1F
100
AcDbEntity
  8
0
  6
Continuous
 62
     7
370
    25
100
AcDbLine
 10
10.0509534
 20
-17.3213708
 30
0.0
 11
10.0402893
 21
-17.3800397
 31
0.0
  0
LINE
  5
371
330
1F
100
AcDbEntity
  8
0
  6
Continuous
 62
     7
370
    25
100
AcDbLine
 10
10.0683175
 20
-17.2708892
 30
0.0
 11
10.0509534
 21
-17.3213708
 31
0.0
  0
LINE
  5
372
330
1F
100
AcDbEntity
  8
0
  6
Continuous
 62
     7
370
    25
100
AcDbLine
 10
10.0920362
 20
-17.2288528
 30
0.0
 11
10.0683175
 21
-17.2708892
 31
0.0
  0
LINE
  5
373
330
1F
100
AcDbEntity
  8
0
  6
Continuous
 62
     7
370
    25
100
AcDbLine
 10
10.1217644
 20
-17.1954832
 30
0.0
 11
10.0920362
 21
-17.2288528
 31
0.0
  0
LINE
  5
374
330
1F
100
AcDbEntity
  8
0
  6
Continuous
 62
     7
370
    25
100
AcDbLine
 10
10.2082212
 20
-17.1405152
 30
0.0
 11
10.1217644
 21
-17.1954832
 31
0.0
  0
LINE
  5
375
330
1F
100
AcDbEntity
  8
0
  6
Continuous
 62
     7
370
    25
100
AcDbLine
 10
10.7857843
 20
-16.783008
 30
0.0
 11
10.2082212
 21
-17.1405152
 31
0.0
  0
LINE
  5
376
330
1F
100
AcDbEntity
  8
0
  6
Continuous
 62
     7
370
    25
100
AcDbLine
 10
11.3509127
 20
-16.4061519
 30
0.0
 11
10.7857843
 21
-16.783008
 31
0.0
  0
LINE
  5
377
330
1F
100
AcDbEntity
  8
0
  6
Continuous
 62
     7
370
    25
100
AcDbLine
 10
11.4368288
 20
-16.3503427
 30
0.0
 11
11.3509127
 21
-16.4061519
 31
0.0
  0
LINE
  5
378
330
1F
100
AcDbEntity
  8
0
  6
Continuous
 62
     7
370
    25
100
AcDbLine
 10
11.4795324
 20
-16.3371631
 30
0.0
 11
11.4368288
 21
-16.3503427
 31
0.0
  0
LINE
  5
379
330
1F
100
AcDbEntity
  8
0
  6
Continuous
 62
     7
370
    25
100
AcDbLine
 10
11.5276232
 20
-16.3330504
 30
0.0
 11
11.4795324
 21
-16.3371631
 31
0.0
  0
LINE
  5
37A
330
1F
100
AcDbEntity
  8
0
  6
Continuous
 62
     7
370
    25
100
AcDbLine
 10
11.5807561
 20
-16.3382262
 30
0.0
 11
11.5276232
 21
-16.3330504
 31
0.0
  0
LINE
  5
37B
330
1F
100
AcDbEntity
  8
0
  6
Continuous
 62
     7
370
    25
100
AcDbLine
 10
11.6385533
 20
-16.3528978
 30
0.0
 11
11.5807561
 21
-16.3382262
 31
0.0
  0
LINE
  5
37C
330
1F
100
AcDbEntity
  8
0
  6
Continuous
 62
     7
370
    25
100
AcDbLine
 10
11.7006427
 20
-16.3772447
 30
0.0
 11
11.6385533
 21
-16.3528978
 31
0.0
  0
LINE
  5
37D
330
1F
100
AcDbEntity
  8
0
  6
Continuous
 62
     7
370
    25
100
AcDbLine
 10
11.7666326
 20
-16.4114712
 30
0.0
 11
11.7006427
 21
-16.3772447
 31
0.0
  0
LINE
  5
37E
330
1F
100
AcDbEntity
  8
0
  6
Continuous
 62
     7
370
    25
100
AcDbLine
 10
11.8361432
 20
-16.4557263
 30
0.0
 11
11.7666326
 21
-16.4114712
 31
0.0
  0
LINE
  5
37F
330
1F
100
AcDbEntity
  8
0
  6
Continuous
 62
     7
370
    25
100
AcDbLine
 10
11.908775
 20
-16.5101834
 30
0.0
 11
11.8361432
 21
-16.4557263
 31
0.0
  0
LINE
  5
380
330
1F
100
AcDbEntity
  8
0
  6
Continuous
 62
     7
370
    25
100
AcDbLine
 10
12.0618254
 20
-16.6502657
 30
0.0
 11
11.908775
 21
-16.5101834
 31
0.0
  0
LINE
  5
381
330
1F
100
AcDbEntity
  8
0
  6
Continuous
 62
     7
370
    25
100
AcDbLine
 10
12.2614491
 20
-16.8709189
 30
0.0
 11
12.0618254
 21
-16.6502657
 31
0.0
  0
LINE
  5
382
330
1F
100
AcDbEntity
  8
0
  6
Continuous
 62
     7
370
    25
100
AcDbLine
 10
12.4800249
 20
-17.0806286
 30
0.0
 11
12.2614491
 21
-16.8709189
 31
0.0
  0
LINE
  5
383
330
1F
100
AcDbEntity
  8
0
  6
Continuous
 62
     7
370
    25
100
AcDbLine
 10
12.6348471
 20
-17.212333
 30
0.0
 11
12.4800249
 21
-17.0806286
 31
0.0
  0
LINE
  5
384
330
1F
100
AcDbEntity
  8
0
  6
Continuous
 62
     7
370
    25
100
AcDbLine
 10
12.8263363
 20
-17.3619349
 30
0.0
 11
12.6348471
 21
-17.212333
 31
0.0
  0
LINE
  5
385
330
1F
100
AcDbEntity
  8
0
  6
Continuous
 62
     7
370
    25
100
AcDbLine
 10
13.0530816
 20
-17.5242429
 30
0.0
 11
12.8263363
 21
-17.3619349
 31
0.0
  0
LINE
  5
386
330
1F
100
AcDbEntity
  8
0
  6
Continuous
 62
     7
370
    25
100
AcDbLine
 10
13.3160702
 20
-17.6963167
 30
0.0
 11
13.0530816
 21
-17.5242429
 31
0.0
  0
LINE
  5
387
330
1F
100
AcDbEntity
  8
0
  6
Continuous
 62
     7
370
    25
100
AcDbLine
 10
13.6170208
 20
-17.875744
 30
0.0
 11
13.3160702
 21
-17.6963167
 31
0.0
  0
LINE
  5
388
330
1F
100
AcDbEntity
  8
0
  6
Continuous
 62
     7
370
    25
100
AcDbLine
 10
13.9578113
 20
-18.060046
 30
0.0
 11
13.6170208
 21
-17.875744
 31
0.0
  0
LINE
  5
389
330
1F
100
AcDbEntity
  8
0
  6
Continuous
 62
     7
370
    25
100
AcDbLine
 10
14.3368236
 20
-18.2449848
 30
0.0
 11
13.9578113
 21
-18.060046
 31
0.0
  0
LINE
  5
38A
330
1F
100
AcDbEntity
  8
0
  6
Continuous
 62
     7
370
    25
100
AcDbLine
 10
14.7593045
 20
-18.4296611
 30
0.0
 11
14.3368236
 21
-18.2449848
 31
0.0
  0
LINE
  5
38B
330
1F
100
AcDbEntity
  8
0
  6
Continuous
 62
     7
370
    25
100
AcDbLine
 10
15.1765297526
 20
-18.5922472984
 30
0.0
 11
14.7593045
 21
-18.4296611
 31
0.0
  0
ARC
  5
38C
330
1F
100
AcDbEntity
  8
0
  6
Continuous
 62
     7
370
    25
100
AcDbCircle
 10
-0.0000226295
 20
0.0000146894
 30
0.0
 40
23.999998917341
100
AcDbArc
 50
309.2241865721
 51
312.5940315574
  0
LINE
  5
38D
330
1F
100
AcDbEntity
  8
0
  6
Continuous
 62
     7
370
    25
100
AcDbLine
 10
16.1416057
 20
-17.2318903
 30
0.0
 11
16.2431595385
 21
-17.668006736
 31
0.0
  0
LINE
  5
38E
330
1F
100
AcDbEntity
  8
0
  6
Continuous
 62
     7
370
    25
100
AcDbLine
 10
16.0189345
 20
-16.7874275
 30
0.0
 11
16.1416057
 21
-17.2318903
 31
0.0
  0
LINE
  5
38F
330
1F
100
AcDbEntity
  8
0
  6
Continuous
 62
     7
370
    25
100
AcDbLine
 10
15.8898171
 20
-16.3859534
 30
0.0
 11
16.0189345
 21
-16.7874275
 31
0.0
  0
LINE
  5
390
330
1F
100
AcDbEntity
  8
0
  6
Continuous
 62
     7
370
    25
100
AcDbLine
 10
15.7558906
 20
-16.0224027
 30
0.0
 11
15.8898171
 21
-16.3859534
 31
0.0
  0
LINE
  5
391
330
1F
100
AcDbEntity
  8
0
  6
Continuous
 62
     7
370
    25
100
AcDbLine
 10
15.6211193
 20
-15.6989803
 30
0.0
 11
15.7558906
 21
-16.0224027
 31
0.0
  0
LINE
  5
392
330
1F
100
AcDbEntity
  8
0
  6
Continuous
 62
     7
370
    25
100
AcDbLine
 10
15.4882242
 20
-15.4141799
 30
0.0
 11
15.6211193
 21
-15.6989803
 31
0.0
  0
LINE
  5
393
330
1F
100
AcDbEntity
  8
0
  6
Continuous
 62
     7
370
    25
100
AcDbLine
 10
15.3598375
 20
-15.1666436
 30
0.0
 11
15.4882242
 21
-15.4141799
 31
0.0
  0
LINE
  5
394
330
1F
100
AcDbEntity
  8
0
  6
Continuous
 62
     7
370
    25
100
AcDbLine
 10
15.23901
 20
-14.955813
 30
0.0
 11
15.3598375
 21
-15.1666436
 31
0.0
  0
LINE
  5
395
330
1F
100
AcDbEntity
  8
0
  6
Continuous
 62
     7
370
    25
100
AcDbLine
 10
15.1306797
 20
-14.7838231
 30
0.0
 11
15.23901
 21
-14.955813
 31
0.0
  0
LINE
  5
396
330
1F
100
AcDbEntity
  8
0
  6
Continuous
 62
     7
370
    25
100
AcDbLine
 10
14.9542111
 20
-14.5376273
 30
0.0
 11
15.1306797
 21
-14.7838231
 31
0.0
  0
LINE
  5
397
330
1F
100
AcDbEntity
  8
0
  6
Continuous
 62
     7
370
    25
100
AcDbLine
 10
14.7642133
 20
-14.3086333
 30
0.0
 11
14.9542111
 21
-14.5376273
 31
0.0
  0
LINE
  5
398
330
1F
100
AcDbEntity
  8
0
  6
Continuous
 62
     7
370
    25
100
AcDbLine
 10
14.6473382
 20
-14.137205
 30
0.0
 11
14.7642133
 21
-14.3086333
 31
0.0
  0
LINE
  5
399
330
1F
100
AcDbEntity
  8
0
  6
Continuous
 62
     7
370
    25
100
AcDbLine
 10
14.6037719
 20
-14.0575624
 30
0.0
 11
14.6473382
 21
-14.137205
 31
0.0
  0
LINE
  5
39A
330
1F
100
AcDbEntity
  8
0
  6
Continuous
 62
     7
370
    25
100
AcDbLine
 10
14.5698597
 20
-13.9824611
 30
0.0
 11
14.6037719
 21
-14.0575624
 31
0.0
  0
LINE
  5
39B
330
1F
100
AcDbEntity
  8
0
  6
Continuous
 62
     7
370
    25
100
AcDbLine
 10
14.5453729
 20
-13.9122719
 30
0.0
 11
14.5698597
 21
-13.9824611
 31
0.0
  0
LINE
  5
39C
330
1F
100
AcDbEntity
  8
0
  6
Continuous
 62
     7
370
    25
100
AcDbLine
 10
14.5301101
 20
-13.8473496
 30
0.0
 11
14.5453729
 21
-13.9122719
 31
0.0
  0
LINE
  5
39D
330
1F
100
AcDbEntity
  8
0
  6
Continuous
 62
     7
370
    25
100
AcDbLine
 10
14.5238132
 20
-13.7880527
 30
0.0
 11
14.5301101
 21
-13.8473496
 31
0.0
  0
LINE
  5
39E
330
1F
100
AcDbEntity
  8
0
  6
Continuous
 62
     7
370
    25
100
AcDbLine
 10
14.5262517
 20
-13.734724
 30
0.0
 11
14.5238132
 21
-13.7880527
 31
0.0
  0
LINE
  5
39F
330
1F
100
AcDbEntity
  8
0
  6
Continuous
 62
     7
370
    25
100
AcDbLine
 10
14.5371666
 20
-13.6877081
 30
0.0
 11
14.5262517
 21
-13.734724
 31
0.0
  0
LINE
  5
3A0
330
1F
100
AcDbEntity
  8
0
  6
Continuous
 62
     7
370
    25
100
AcDbLine
 10
14.5562893
 20
-13.6473147
 30
0.0
 11
14.5371666
 21
-13.6877081
 31
0.0
  0
LINE
  5
3A1
330
1F
100
AcDbEntity
  8
0
  6
Continuous
 62
     7
370
    25
100
AcDbLine
 10
15.077204
 20
-13.0644716
 30
0.0
 11
14.5562893
 21
-13.6473147
 31
0.0
  0
LINE
  5
3A2
330
1F
100
AcDbEntity
  8
0
  6
Continuous
 62
     7
370
    25
100
AcDbLine
 10
15.5799807
 20
-12.4659119
 30
0.0
 11
15.077204
 21
-13.0644716
 31
0.0
  0
LINE
  5
3A3
330
1F
100
AcDbEntity
  8
0
  6
Continuous
 62
     7
370
    25
100
AcDbLine
 10
15.6172415
 20
-12.4412352
 30
0.0
 11
15.5799807
 21
-12.4659119
 31
0.0
  0
LINE
  5
3A4
330
1F
100
AcDbEntity
  8
0
  6
Continuous
 62
     7
370
    25
100
AcDbLine
 10
15.6622255
 20
-12.4237404
 30
0.0
 11
15.6172415
 21
-12.4412352
 31
0.0
  0
LINE
  5
3A5
330
1F
100
AcDbEntity
  8
0
  6
Continuous
 62
     7
370
    25
100
AcDbLine
 10
15.7146644
 20
-12.4137373
 30
0.0
 11
15.6622255
 21
-12.4237404
 31
0.0
  0
LINE
  5
3A6
330
1F
100
AcDbEntity
  8
0
  6
Continuous
 62
     7
370
    25
100
AcDbLine
 10
15.7742538
 20
-12.4115312
 30
0.0
 11
15.7146644
 21
-12.4137373
 31
0.0
  0
LINE
  5
3A7
330
1F
100
AcDbEntity
  8
0
  6
Continuous
 62
     7
370
    25
100
AcDbLine
 10
15.8406875
 20
-12.4173993
 30
0.0
 11
15.7742538
 21
-12.4115312
 31
0.0
  0
LINE
  5
3A8
330
1F
100
AcDbEntity
  8
0
  6
Continuous
 62
     7
370
    25
100
AcDbLine
 10
15.913647
 20
-12.4316478
 30
0.0
 11
15.8406875
 21
-12.4173993
 31
0.0
  0
LINE
  5
3A9
330
1F
100
AcDbEntity
  8
0
  6
Continuous
 62
     7
370
    25
100
AcDbLine
 10
15.9928101
 20
-12.4545268
 30
0.0
 11
15.913647
 21
-12.4316478
 31
0.0
  0
LINE
  5
3AA
330
1F
100
AcDbEntity
  8
0
  6
Continuous
 62
     7
370
    25
100
AcDbLine
 10
16.0778422
 20
-12.4863154
 30
0.0
 11
15.9928101
 21
-12.4545268
 31
0.0
  0
LINE
  5
3AB
330
1F
100
AcDbEntity
  8
0
  6
Continuous
 62
     7
370
    25
100
AcDbLine
 10
16.2641587
 20
-12.577604
 30
0.0
 11
16.0778422
 21
-12.4863154
 31
0.0
  0
LINE
  5
3AC
330
1F
100
AcDbEntity
  8
0
  6
Continuous
 62
     7
370
    25
100
AcDbLine
 10
16.5178614
 20
-12.7330787
 30
0.0
 11
16.2641587
 21
-12.577604
 31
0.0
  0
LINE
  5
3AD
330
1F
100
AcDbEntity
  8
0
  6
Continuous
 62
     7
370
    25
100
AcDbLine
 10
16.7866653
 20
-12.8727138
 30
0.0
 11
16.5178614
 21
-12.7330787
 31
0.0
  0
LINE
  5
3AE
330
1F
100
AcDbEntity
  8
0
  6
Continuous
 62
     7
370
    25
100
AcDbLine
 10
16.9723216
 20
-12.9554648
 30
0.0
 11
16.7866653
 21
-12.8727138
 31
0.0
  0
LINE
  5
3AF
330
1F
100
AcDbEntity
  8
0
  6
Continuous
 62
     7
370
    25
100
AcDbLine
 10
17.1982018
 20
-13.0450581
 30
0.0
 11
16.9723216
 21
-12.9554648
 31
0.0
  0
LINE
  5
3B0
330
1F
100
AcDbEntity
  8
0
  6
Continuous
 62
     7
370
    25
100
AcDbLine
 10
17.4614899
 20
-13.1369099
 30
0.0
 11
17.1982018
 21
-13.0450581
 31
0.0
  0
LINE
  5
3B1
330
1F
100
AcDbEntity
  8
0
  6
Continuous
 62
     7
370
    25
100
AcDbLine
 10
17.7623043
 20
-13.227921
 30
0.0
 11
17.4614899
 21
-13.1369099
 31
0.0
  0
LINE
  5
3B2
330
1F
100
AcDbEntity
  8
0
  6
Continuous
 62
     7
370
    25
100
AcDbLine
 10
18.1016148
 20
-13.3152927
 30
0.0
 11
17.7623043
 21
-13.227921
 31
0.0
  0
LINE
  5
3B3
330
1F
100
AcDbEntity
  8
0
  6
Continuous
 62
     7
370
    25
100
AcDbLine
 10
18.4805248
 20
-13.3961174
 30
0.0
 11
18.1016148
 21
-13.3152927
 31
0.0
  0
LINE
  5
3B4
330
1F
100
AcDbEntity
  8
0
  6
Continuous
 62
     7
370
    25
100
AcDbLine
 10
18.8962878
 20
-13.4667848
 30
0.0
 11
18.4805248
 21
-13.3961174
 31
0.0
  0
LINE
  5
3B5
330
1F
100
AcDbEntity
  8
0
  6
Continuous
 62
     7
370
    25
100
AcDbLine
 10
19.3536845
 20
-13.5249538
 30
0.0
 11
18.8962878
 21
-13.4667848
 31
0.0
  0
LINE
  5
3B6
330
1F
100
AcDbEntity
  8
0
  6
Continuous
 62
     7
370
    25
100
AcDbLine
 10
19.7998148
 20
-13.5634081
 30
0.0
 11
19.3536845
 21
-13.5249538
 31
0.0
  0
ARC
  5
3B7
330
1F
100
AcDbEntity
  8
0
  6
Continuous
 62
     7
370
    25
100
AcDbCircle
 10
-0.0000226295
 20
0.0000146894
 30
0.0
 40
24.0
100
AcDbArc
 50
325.5878045799
 51
328.957649366
  0
LINE
  5
3B8
330
1F
100
AcDbEntity
  8
0
  6
Continuous
 62
     7
370
    25
100
AcDbLine
 10
20.3425418
 20
-11.9862618
 30
0.0
 11
20.5628503
 21
-12.3761017
 31
0.0
  0
LINE
  5
3B9
330
1F
100
AcDbEntity
  8
0
  6
Continuous
 62
     7
370
    25
100
AcDbLine
 10
20.0996199
 20
-11.5943634
 30
0.0
 11
20.3425418
 21
-11.9862618
 31
0.0
  0
LINE
  5
3BA
330
1F
100
AcDbEntity
  8
0
  6
Continuous
 62
     7
370
    25
100
AcDbLine
 10
19.8626244
 20
-11.2455283
 30
0.0
 11
20.0996199
 21
-11.5943634
 31
0.0
  0
LINE
  5
3BB
330
1F
100
AcDbEntity
  8
0
  6
Continuous
 62
     7
370
    25
100
AcDbLine
 10
19.6316988
 20
-10.9344355
 30
0.0
 11
19.8626244
 21
-11.2455283
 31
0.0
  0
LINE
  5
3BC
330
1F
100
AcDbEntity
  8
0
  6
Continuous
 62
     7
370
    25
100
AcDbLine
 10
19.4112681
 20
-10.6620834
 30
0.0
 11
19.6316988
 21
-10.9344355
 31
0.0
  0
LINE
  5
3BD
330
1F
100
AcDbEntity
  8
0
  6
Continuous
 62
     7
370
    25
100
AcDbLine
 10
19.2035186
 20
-10.4262603
 30
0.0
 11
19.4112681
 21
-10.6620834
 31
0.0
  0
LINE
  5
3BE
330
1F
100
AcDbEntity
  8
0
  6
Continuous
 62
     7
370
    25
100
AcDbLine
 10
19.0105934
 20
-10.2249217
 30
0.0
 11
19.2035186
 21
-10.4262603
 31
0.0
  0
LINE
  5
3BF
330
1F
100
AcDbEntity
  8
0
  6
Continuous
 62
     7
370
    25
100
AcDbLine
 10
18.8352625
 20
-10.0566722
 30
0.0
 11
19.0105934
 21
-10.2249217
 31
0.0
  0
LINE
  5
3C0
330
1F
100
AcDbEntity
  8
0
  6
Continuous
 62
     7
370
    25
100
AcDbLine
 10
18.6828652
 20
-9.9221693
 30
0.0
 11
18.8352625
 21
-10.0566722
 31
0.0
  0
LINE
  5
3C1
330
1F
100
AcDbEntity
  8
0
  6
Continuous
 62
     7
370
    25
100
AcDbLine
 10
18.4441834
 20
-9.7356631
 30
0.0
 11
18.6828652
 21
-9.9221693
 31
0.0
  0
LINE
  5
3C2
330
1F
100
AcDbEntity
  8
0
  6
Continuous
 62
     7
370
    25
100
AcDbLine
 10
18.1973667
 20
-9.5694736
 30
0.0
 11
18.4441834
 21
-9.7356631
 31
0.0
  0
LINE
  5
3C3
330
1F
100
AcDbEntity
  8
0
  6
Continuous
 62
     7
370
    25
100
AcDbLine
 10
18.036929
 20
-9.4379168
 30
0.0
 11
18.1973667
 21
-9.5694736
 31
0.0
  0
LINE
  5
3C4
330
1F
100
AcDbEntity
  8
0
  6
Continuous
 62
     7
370
    25
100
AcDbLine
 10
17.9726895
 20
-9.3737743
 30
0.0
 11
18.036929
 21
-9.4379168
 31
0.0
  0
LINE
  5
3C5
330
1F
100
AcDbEntity
  8
0
  6
Continuous
 62
     7
370
    25
100
AcDbLine
 10
17.9189925
 20
-9.3112693
 30
0.0
 11
17.9726895
 21
-9.3737743
 31
0.0
  0
LINE
  5
3C6
330
1F
100
AcDbEntity
  8
0
  6
Continuous
 62
     7
370
    25
100
AcDbLine
 10
17.8757231
 20
-9.2508221
 30
0.0
 11
17.9189925
 21
-9.3112693
 31
0.0
  0
LINE
  5
3C7
330
1F
100
AcDbEntity
  8
0
  6
Continuous
 62
     7
370
    25
100
AcDbLine
 10
17.8427877
 20
-9.1928296
 30
0.0
 11
17.8757231
 21
-9.2508221
 31
0.0
  0
LINE
  5
3C8
330
1F
100
AcDbEntity
  8
0
  6
Continuous
 62
     7
370
    25
100
AcDbLine
 10
17.8200401
 20
-9.1377087
 30
0.0
 11
17.8427877
 21
-9.1928296
 31
0.0
  0
LINE
  5
3C9
330
1F
100
AcDbEntity
  8
0
  6
Continuous
 62
     7
370
    25
100
AcDbLine
 10
17.8073554
 20
-9.0858532
 30
0.0
 11
17.8200401
 21
-9.1377087
 31
0.0
  0
LINE
  5
3CA
330
1F
100
AcDbEntity
  8
0
  6
Continuous
 62
     7
370
    25
100
AcDbLine
 10
17.8045822
 20
-9.0376666
 30
0.0
 11
17.8073554
 21
-9.0858532
 31
0.0
  0
LINE
  5
3CB
330
1F
100
AcDbEntity
  8
0
  6
Continuous
 62
     7
370
    25
100
AcDbLine
 10
17.8115502
 20
-8.993522
 30
0.0
 11
17.8045822
 21
-9.0376666
 31
0.0
  0
LINE
  5
3CC
330
1F
100
AcDbEntity
  8
0
  6
Continuous
 62
     7
370
    25
100
AcDbLine
 10
17.8545643
 20
-8.9005379
 30
0.0
 11
17.8115502
 21
-8.993522
 31
0.0
  0
LINE
  5
3CD
330
1F
100
AcDbEntity
  8
0
  6
Continuous
 62
     7
370
    25
100
AcDbLine
 10
18.1471583
 20
-8.2875295
 30
0.0
 11
17.8545643
 21
-8.9005379
 31
0.0
  0
LINE
  5
3CE
330
1F
100
AcDbEntity
  8
0
  6
Continuous
 62
     7
370
    25
100
AcDbLine
 10
18.4188308
 20
-7.6649666
 30
0.0
 11
18.1471583
 21
-8.2875295
 31
0.0
  0
LINE
  5
3CF
330
1F
100
AcDbEntity
  8
0
  6
Continuous
 62
     7
370
    25
100
AcDbLine
 10
18.4609353
 20
-7.5715671
 30
0.0
 11
18.4188308
 21
-7.6649666
 31
0.0
  0
LINE
  5
3D0
330
1F
100
AcDbEntity
  8
0
  6
Continuous
 62
     7
370
    25
100
AcDbLine
 10
18.4897345
 20
-7.5373924
 30
0.0
 11
18.4609353
 21
-7.5715671
 31
0.0
  0
LINE
  5
3D1
330
1F
100
AcDbEntity
  8
0
  6
Continuous
 62
     7
370
    25
100
AcDbLine
 10
18.5279675
 20
-7.5079327
 30
0.0
 11
18.4897345
 21
-7.5373924
 31
0.0
  0
LINE
  5
3D2
330
1F
100
AcDbEntity
  8
0
  6
Continuous
 62
     7
370
    25
100
AcDbLine
 10
18.575464
 20
-7.4835611
 30
0.0
 11
18.5279675
 21
-7.5079327
 31
0.0
  0
LINE
  5
3D3
330
1F
100
AcDbEntity
  8
0
  6
Continuous
 62
     7
370
    25
100
AcDbLine
 10
18.6320181
 20
-7.4646561
 30
0.0
 11
18.575464
 21
-7.4835611
 31
0.0
  0
LINE
  5
3D4
330
1F
100
AcDbEntity
  8
0
  6
Continuous
 62
     7
370
    25
100
AcDbLine
 10
18.697414
 20
-7.45157
 30
0.0
 11
18.6320181
 21
-7.4646561
 31
0.0
  0
LINE
  5
3D5
330
1F
100
AcDbEntity
  8
0
  6
Continuous
 62
     7
370
    25
100
AcDbLine
 10
18.7714324
 20
-7.4446863
 30
0.0
 11
18.697414
 21
-7.45157
 31
0.0
  0
LINE
  5
3D6
330
1F
100
AcDbEntity
  8
0
  6
Continuous
 62
     7
370
    25
100
AcDbLine
 10
18.8538346
 20
-7.4443357
 30
0.0
 11
18.7714324
 21
-7.4446863
 31
0.0
  0
LINE
  5
3D7
330
1F
100
AcDbEntity
  8
0
  6
Continuous
 62
     7
370
    25
100
AcDbLine
 10
18.9443781
 20
-7.4508803
 30
0.0
 11
18.8538346
 21
-7.4443357
 31
0.0
  0
LINE
  5
3D8
330
1F
100
AcDbEntity
  8
0
  6
Continuous
 62
     7
370
    25
100
AcDbLine
 10
19.1488665
 20
-7.4859797
 30
0.0
 11
18.9443781
 21
-7.4508803
 31
0.0
  0
LINE
  5
3D9
330
1F
100
AcDbEntity
  8
0
  6
Continuous
 62
     7
370
    25
100
AcDbLine
 10
19.4360948
 20
-7.5636803
 30
0.0
 11
19.1488665
 21
-7.4859797
 31
0.0
  0
LINE
  5
3DA
330
1F
100
AcDbEntity
  8
0
  6
Continuous
 62
     7
370
    25
100
AcDbLine
 10
19.73335
 20
-7.6219283
 30
0.0
 11
19.4360948
 21
-7.5636803
 31
0.0
  0
LINE
  5
3DB
330
1F
100
AcDbEntity
  8
0
  6
Continuous
 62
     7
370
    25
100
AcDbLine
 10
19.9347995
 20
-7.6490219
 30
0.0
 11
19.73335
 21
-7.6219283
 31
0.0
  0
LINE
  5
3DC
330
1F
100
AcDbEntity
  8
0
  6
Continuous
 62
     7
370
    25
100
AcDbLine
 10
20.1767714
 20
-7.6713482
 30
0.0
 11
19.9347995
 21
-7.6490219
 31
0.0
  0
LINE
  5
3DD
330
1F
100
AcDbEntity
  8
0
  6
Continuous
 62
     7
370
    25
100
AcDbLine
 10
20.4552721
 20
-7.6853026
 30
0.0
 11
20.1767714
 21
-7.6713482
 31
0.0
  0
LINE
  5
3DE
330
1F
100
AcDbEntity
  8
0
  6
Continuous
 62
     7
370
    25
100
AcDbLine
 10
20.7695422
 20
-7.6878778
 30
0.0
 11
20.4552721
 21
-7.6853026
 31
0.0
  0
LINE
  5
3DF
330
1F
100
AcDbEntity
  8
0
  6
Continuous
 62
     7
370
    25
100
AcDbLine
 10
21.1197237
 20
-7.6761155
 30
0.0
 11
20.7695422
 21
-7.6878778
 31
0.0
  0
LINE
  5
3E0
330
1F
100
AcDbEntity
  8
0
  6
Continuous
 62
     7
370
    25
100
AcDbLine
 10
21.5060561
 20
-7.646915
 30
0.0
 11
21.1197237
 21
-7.6761155
 31
0.0
  0
LINE
  5
3E1
330
1F
100
AcDbEntity
  8
0
  6
Continuous
 62
     7
370
    25
100
AcDbLine
 10
21.924887
 20
-7.5975859
 30
0.0
 11
21.5060561
 21
-7.646915
 31
0.0
  0
LINE
  5
3E2
330
1F
100
AcDbEntity
  8
0
  6
Continuous
 62
     7
370
    25
100
AcDbLine
 10
22.3801441
 20
-7.5245351
 30
0.0
 11
21.924887
 21
-7.5975859
 31
0.0
  0
LINE
  5
3E3
330
1F
100
AcDbEntity
  8
0
  6
Continuous
 62
     7
370
    25
100
AcDbLine
 10
22.8190370368
 20
-7.4357422521
 30
0.0
 11
22.3801441
 21
-7.5245351
 31
0.0
  0
ARC
  5
3E4
330
1F
100
AcDbEntity
  8
0
  6
Continuous
 62
     7
370
    25
100
AcDbCircle
 10
-0.0000269757
 20
0.0
 30
0.0
 40
23.9999988593458
100
AcDbArc
 50
341.9514596121
 51
345.3213045575
  0
LINE
  5
3E5
330
1F
100
AcDbEntity
  8
0
  6
Continuous
 62
     7
370
    25
100
AcDbLine
 10
22.8954461
 20
-5.7695777
 30
0.0
 11
23.2166609267
 21
-6.0815580316
 31
0.0
  0
LINE
  5
3E6
330
1F
100
AcDbEntity
  8
0
  6
Continuous
 62
     7
370
    25
100
AcDbLine
 10
22.5519537
 20
-5.4619929
 30
0.0
 11
22.8954461
 21
-5.7695777
 31
0.0
  0
LINE
  5
3E7
330
1F
100
AcDbEntity
  8
0
  6
Continuous
 62
     7
370
    25
100
AcDbLine
 10
22.22628
 20
-5.1940575
 30
0.0
 11
22.5519537
 21
-5.4619929
 31
0.0
  0
LINE
  5
3E8
330
1F
100
AcDbEntity
  8
0
  6
Continuous
 62
     7
370
    25
100
AcDbLine
 10
21.9170635
 20
-4.9606254
 30
0.0
 11
22.22628
 21
-5.1940575
 31
0.0
  0
LINE
  5
3E9
330
1F
100
AcDbEntity
  8
0
  6
Continuous
 62
     7
370
    25
100
AcDbLine
 10
21.6288313
 20
-4.7614079
 30
0.0
 11
21.9170635
 21
-4.9606254
 31
0.0
  0
LINE
  5
3EA
330
1F
100
AcDbEntity
  8
0
  6
Continuous
 62
     7
370
    25
100
AcDbLine
 10
21.3630581
 20
-4.5936671
 30
0.0
 11
21.6288313
 21
-4.7614079
 31
0.0
  0
LINE
  5
3EB
330
1F
100
AcDbEntity
  8
0
  6
Continuous
 62
     7
370
    25
100
AcDbLine
 10
21.1212241
 20
-4.4548374
 30
0.0
 11
21.3630581
 21
-4.5936671
 31
0.0
  0
LINE
  5
3EC
330
1F
100
AcDbEntity
  8
0
  6
Continuous
 62
     7
370
    25
100
AcDbLine
 10
20.905594
 20
-4.3427997
 30
0.0
 11
21.1212241
 21
-4.4548374
 31
0.0
  0
LINE
  5
3ED
330
1F
100
AcDbEntity
  8
0
  6
Continuous
 62
     7
370
    25
100
AcDbLine
 10
20.721476
 20
-4.2566804
 30
0.0
 11
20.905594
 21
-4.3427997
 31
0.0
  0
LINE
  5
3EE
330
1F
100
AcDbEntity
  8
0
  6
Continuous
 62
     7
370
    25
100
AcDbLine
 10
20.4399177
 20
-4.1449734
 30
0.0
 11
20.721476
 21
-4.2566804
 31
0.0
  0
LINE
  5
3EF
330
1F
100
AcDbEntity
  8
0
  6
Continuous
 62
     7
370
    25
100
AcDbLine
 10
20.1562778
 20
-4.055052
 30
0.0
 11
20.4399177
 21
-4.1449734
 31
0.0
  0
LINE
  5
3F0
330
1F
100
AcDbEntity
  8
0
  6
Continuous
 62
     7
370
    25
100
AcDbLine
 10
19.965275
 20
-3.9740247
 30
0.0
 11
20.1562778
 21
-4.055052
 31
0.0
  0
LINE
  5
3F1
330
1F
100
AcDbEntity
  8
0
  6
Continuous
 62
     7
370
    25
100
AcDbLine
 10
19.8855667
 20
-3.9305788
 30
0.0
 11
19.965275
 21
-3.9740247
 31
0.0
  0
LINE
  5
3F2
330
1F
100
AcDbEntity
  8
0
  6
Continuous
 62
     7
370
    25
100
AcDbLine
 10
19.8164351
 20
-3.8857339
 30
0.0
 11
19.8855667
 21
-3.9305788
 31
0.0
  0
LINE
  5
3F3
330
1F
100
AcDbEntity
  8
0
  6
Continuous
 62
     7
370
    25
100
AcDbLine
 10
19.7578884
 20
-3.8399256
 30
0.0
 11
19.8164351
 21
-3.8857339
 31
0.0
  0
LINE
  5
3F4
330
1F
100
AcDbEntity
  8
0
  6
Continuous
 62
     7
370
    25
100
AcDbLine
 10
19.7099488
 20
-3.7935612
 30
0.0
 11
19.7578884
 21
-3.8399256
 31
0.0
  0
LINE
  5
3F5
330
1F
100
AcDbEntity
  8
0
  6
Continuous
 62
     7
370
    25
100
AcDbLine
 10
19.6725933
 20
-3.7470818
 30
0.0
 11
19.7099488
 21
-3.7935612
 31
0.0
  0
LINE
  5
3F6
330
1F
100
AcDbEntity
  8
0
  6
Continuous
 62
     7
370
    25
100
AcDbLine
 10
19.645813
 20
-3.7009005
 30
0.0
 11
19.6725933
 21
-3.7470818
 31
0.0
  0
LINE
  5
3F7
330
1F
100
AcDbEntity
  8
0
  6
Continuous
 62
     7
370
    25
100
AcDbLine
 10
19.6295764
 20
-3.6554472
 30
0.0
 11
19.645813
 21
-3.7009005
 31
0.0
  0
LINE
  5
3F8
330
1F
100
AcDbEntity
  8
0
  6
Continuous
 62
     7
370
    25
100
AcDbLine
 10
19.6238252
 20
-3.6111276
 30
0.0
 11
19.6295764
 21
-3.6554472
 31
0.0
  0
LINE
  5
3F9
330
1F
100
AcDbEntity
  8
0
  6
Continuous
 62
     7
370
    25
100
AcDbLine
 10
19.6389003
 20
-3.5097915
 30
0.0
 11
19.6238252
 21
-3.6111276
 31
0.0
  0
LINE
  5
3FA
330
1F
100
AcDbEntity
  8
0
  6
Continuous
 62
     7
370
    25
100
AcDbLine
 10
19.7469378
 20
-2.839181
 30
0.0
 11
19.6389003
 21
-3.5097915
 31
0.0
  0
LINE
  5
3FB
330
1F
100
AcDbEntity
  8
0
  6
Continuous
 62
     7
370
    25
100
AcDbLine
 10
19.8322094
 20
-2.1652973
 30
0.0
 11
19.7469378
 21
-2.839181
 31
0.0
  0
LINE
  5
3FC
330
1F
100
AcDbEntity
  8
0
  6
Continuous
 62
     7
370
    25
100
AcDbLine
 10
19.8462946
 20
-2.0638189
 30
0.0
 11
19.8322094
 21
-2.1652973
 31
0.0
  0
LINE
  5
3FD
330
1F
100
AcDbEntity
  8
0
  6
Continuous
 62
     7
370
    25
100
AcDbLine
 10
19.8642991
 20
-2.0229149
 30
0.0
 11
19.8462946
 21
-2.0638189
 31
0.0
  0
LINE
  5
3FE
330
1F
100
AcDbEntity
  8
0
  6
Continuous
 62
     7
370
    25
100
AcDbLine
 10
19.8926837
 20
-1.9838771
 30
0.0
 11
19.8642991
 21
-2.0229149
 31
0.0
  0
LINE
  5
3FF
330
1F
100
AcDbEntity
  8
0
  6
Continuous
 62
     7
370
    25
100
AcDbLine
 10
19.93139
 20
-1.9471113
 30
0.0
 11
19.8926837
 21
-1.9838771
 31
0.0
  0
LINE
  5
400
330
1F
100
AcDbEntity
  8
0
  6
Continuous
 62
     7
370
    25
100
AcDbLine
 10
19.9803271
 20
-1.913039
 30
0.0
 11
19.93139
 21
-1.9471113
 31
0.0
  0
LINE
  5
401
330
1F
100
AcDbEntity
  8
0
  6
Continuous
 62
     7
370
    25
100
AcDbLine
 10
20.0393872
 20
-1.8820588
 30
0.0
 11
19.9803271
 21
-1.913039
 31
0.0
  0
LINE
  5
402
330
1F
100
AcDbEntity
  8
0
  6
Continuous
 62
     7
370
    25
100
AcDbLine
 10
20.108468
 20
-1.8546005
 30
0.0
 11
20.0393872
 21
-1.8820588
 31
0.0
  0
LINE
  5
403
330
1F
100
AcDbEntity
  8
0
  6
Continuous
 62
     7
370
    25
100
AcDbLine
 10
20.1874336
 20
-1.8310488
 30
0.0
 11
20.108468
 21
-1.8546005
 31
0.0
  0
LINE
  5
404
330
1F
100
AcDbEntity
  8
0
  6
Continuous
 62
     7
370
    25
100
AcDbLine
 10
20.2761533
 20
-1.8118192
 30
0.0
 11
20.1874336
 21
-1.8310488
 31
0.0
  0
LINE
  5
405
330
1F
100
AcDbEntity
  8
0
  6
Continuous
 62
     7
370
    25
100
AcDbLine
 10
20.4822471
 20
-1.7878858
 30
0.0
 11
20.2761533
 21
-1.8118192
 31
0.0
  0
LINE
  5
406
330
1F
100
AcDbEntity
  8
0
  6
Continuous
 62
     7
370
    25
100
AcDbLine
 10
20.7797313
 20
-1.7815174
 30
0.0
 11
20.4822471
 21
-1.7878858
 31
0.0
  0
LINE
  5
407
330
1F
100
AcDbEntity
  8
0
  6
Continuous
 62
     7
370
    25
100
AcDbLine
 10
21.081356
 20
-1.7536595
 30
0.0
 11
20.7797313
 21
-1.7815174
 31
0.0
  0
LINE
  5
408
330
1F
100
AcDbEntity
  8
0
  6
Continuous
 62
     7
370
    25
100
AcDbLine
 10
21.2822786
 20
-1.7229007
 30
0.0
 11
21.081356
 21
-1.7536595
 31
0.0
  0
LINE
  5
409
330
1F
100
AcDbEntity
  8
0
  6
Continuous
 62
     7
370
    25
100
AcDbLine
 10
21.5207389
 20
-1.6761513
 30
0.0
 11
21.2822786
 21
-1.7229007
 31
0.0
  0
LINE
  5
40A
330
1F
100
AcDbEntity
  8
0
  6
Continuous
 62
     7
370
    25
100
AcDbLine
 10
21.7918898
 20
-1.6110777
 30
0.0
 11
21.5207389
 21
-1.6761513
 31
0.0
  0
LINE
  5
40B
330
1F
100
AcDbEntity
  8
0
  6
Continuous
 62
     7
370
    25
100
AcDbLine
 10
22.0941553
 20
-1.5250085
 30
0.0
 11
21.7918898
 21
-1.6110777
 31
0.0
  0
LINE
  5
40C
330
1F
100
AcDbEntity
  8
0
  6
Continuous
 62
     7
370
    25
100
AcDbLine
 10
22.4268381
 20
-1.4150652
 30
0.0
 11
22.0941553
 21
-1.5250085
 31
0.0
  0
LINE
  5
40D
330
1F
100
AcDbEntity
  8
0
  6
Continuous
 62
     7
370
    25
100
AcDbLine
 10
22.7892946
 20
-1.2782051
 30
0.0
 11
22.4268381
 21
-1.4150652
 31
0.0
  0
LINE
  5
40E
330
1F
100
AcDbEntity
  8
0
  6
Continuous
 62
     7
370
    25
100
AcDbLine
 10
23.1772624
 20
-1.1128758
 30
0.0
 11
22.7892946
 21
-1.2782051
 31
0.0
  0
LINE
  5
40F
330
1F
100
AcDbEntity
  8
0
  6
Continuous
 62
     7
370
    25
100
AcDbLine
 10
23.5934975
 20
-0.9145233
 30
0.0
 11
23.1772624
 21
-1.1128758
 31
0.0
  0
LINE
  5
410
330
1F
100
AcDbEntity
  8
0
  6
Continuous
 62
     7
370
    25
100
AcDbLine
 10
23.9895962
 20
-0.7056769
 30
0.0
 11
23.5934975
 21
-0.9145233
 31
0.0
  0
ARC
  5
411
330
1F
100
AcDbEntity
  8
0
  6
Continuous
 62
     7
370
    25
100
AcDbCircle
 10
-0.0000269757
 20
0.0
 30
0.0
 40
24.0
100
AcDbArc
 50
358.3150776548
 51
1.6849223452
  0
LINE
  5
412
330
1F
100
AcDbEntity
  8
0
  6
Continuous
 62
     7
370
    25
100
AcDbLine
 10
23.5934975
 20
0.9145233
 30
0.0
 11
23.9895962
 21
0.7056769
 31
0.0
  0
LINE
  5
413
330
1F
100
AcDbEntity
  8
0
  6
Continuous
 62
     7
370
    25
100
AcDbLine
 10
23.1772624
 20
1.1128758
 30
0.0
 11
23.5934975
 21
0.9145233
 31
0.0
  0
LINE
  5
414
330
1F
100
AcDbEntity
  8
0
  6
Continuous
 62
     7
370
    25
100
AcDbLine
 10
22.7892946
 20
1.2782051
 30
0.0
 11
23.1772624
 21
1.1128758
 31
0.0
  0
LINE
  5
415
330
1F
100
AcDbEntity
  8
0
  6
Continuous
 62
     7
370
    25
100
AcDbLine
 10
22.4268381
 20
1.4150652
 30
0.0
 11
22.7892946
 21
1.2782051
 31
0.0
  0
LINE
  5
416
330
1F
100
AcDbEntity
  8
0
  6
Continuous
 62
     7
370
    25
100
AcDbLine
 10
22.0941553
 20
1.5250085
 30
0.0
 11
22.4268381
 21
1.4150652
 31
0.0
  0
LINE
  5
417
330
1F
100
AcDbEntity
  8
0
  6
Continuous
 62
     7
370
    25
100
AcDbLine
 10
21.7918898
 20
1.6110777
 30
0.0
 11
22.0941553
 21
1.5250085
 31
0.0
  0
LINE
  5
418
330
1F
100
AcDbEntity
  8
0
  6
Continuous
 62
     7
370
    25
100
AcDbLine
 10
21.5207389
 20
1.6761513
 30
0.0
 11
21.7918898
 21
1.6110777
 31
0.0
  0
LINE
  5
419
330
1F
100
AcDbEntity
  8
0
  6
Continuous
 62
     7
370
    25
100
AcDbLine
 10
21.2822786
 20
1.7229007
 30
0.0
 11
21.5207389
 21
1.6761513
 31
0.0
  0
LINE
  5
41A
330
1F
100
AcDbEntity
  8
0
  6
Continuous
 62
     7
370
    25
100
AcDbLine
 10
21.081356
 20
1.7536595
 30
0.0
 11
21.2822786
 21
1.7229007
 31
0.0
  0
LINE
  5
41B
330
1F
100
AcDbEntity
  8
0
  6
Continuous
 62
     7
370
    25
100
AcDbLine
 10
20.7797313
 20
1.7815174
 30
0.0
 11
21.081356
 21
1.7536595
 31
0.0
  0
LINE
  5
41C
330
1F
100
AcDbEntity
  8
0
  6
Continuous
 62
     7
370
    25
100
AcDbLine
 10
20.4822471
 20
1.7878858
 30
0.0
 11
20.7797313
 21
1.7815174
 31
0.0
  0
LINE
  5
41D
330
1F
100
AcDbEntity
  8
0
  6
Continuous
 62
     7
370
    25
100
AcDbLine
 10
20.2761533
 20
1.8118192
 30
0.0
 11
20.4822471
 21
1.7878858
 31
0.0
  0
LINE
  5
41E
330
1F
100
AcDbEntity
  8
0
  6
Continuous
 62
     7
370
    25
100
AcDbLine
 10
20.1874336
 20
1.8310488
 30
0.0
 11
20.2761533
 21
1.8118192
 31
0.0
  0
LINE
  5
41F
330
1F
100
AcDbEntity
  8
0
  6
Continuous
 62
     7
370
    25
100
AcDbLine
 10
20.108468
 20
1.8546005
 30
0.0
 11
20.1874336
 21
1.8310488
 31
0.0
  0
LINE
  5
420
330
1F
100
AcDbEntity
  8
0
  6
Continuous
 62
     7
370
    25
100
AcDbLine
 10
20.0393872
 20
1.8820588
 30
0.0
 11
20.108468
 21
1.8546005
 31
0.0
  0
LINE
  5
421
330
1F
100
AcDbEntity
  8
0
  6
Continuous
 62
     7
370
    25
100
AcDbLine
 10
19.9803271
 20
1.913039
 30
0.0
 11
20.0393872
 21
1.8820588
 31
0.0
  0
LINE
  5
422
330
1F
100
AcDbEntity
  8
0
  6
Continuous
 62
     7
370
    25
100
AcDbLine
 10
19.93139
 20
1.9471113
 30
0.0
 11
19.9803271
 21
1.913039
 31
0.0
  0
LINE
  5
423
330
1F
100
AcDbEntity
  8
0
  6
Continuous
 62
     7
370
    25
100
AcDbLine
 10
19.8926837
 20
1.9838771
 30
0.0
 11
19.93139
 21
1.9471113
 31
0.0
  0
LINE
  5
424
330
1F
100
AcDbEntity
  8
0
  6
Continuous
 62
     7
370
    25
100
AcDbLine
 10
19.8642991
 20
2.0229149
 30
0.0
 11
19.8926837
 21
1.9838771
 31
0.0
  0
LINE
  5
425
330
1F
100
AcDbEntity
  8
0
  6
Continuous
 62
     7
370
    25
100
AcDbLine
 10
19.8462946
 20
2.0638189
 30
0.0
 11
19.8642991
 21
2.0229149
 31
0.0
  0
LINE
  5
426
330
1F
100
AcDbEntity
  8
0
  6
Continuous
 62
     7
370
    25
100
AcDbLine
 10
19.8322094
 20
2.1652973
 30
0.0
 11
19.8462946
 21
2.0638189
 31
0.0
  0
LINE
  5
427
330
1F
100
AcDbEntity
  8
0
  6
Continuous
 62
     7
370
    25
100
AcDbLine
 10
19.7469378
 20
2.839181
 30
0.0
 11
19.8322094
 21
2.1652973
 31
0.0
  0
LINE
  5
428
330
1F
100
AcDbEntity
  8
0
  6
Continuous
 62
     7
370
    25
100
AcDbLine
 10
19.6389003
 20
3.5097915
 30
0.0
 11
19.7469378
 21
2.839181
 31
0.0
  0
LINE
  5
429
330
1F
100
AcDbEntity
  8
0
  6
Continuous
 62
     7
370
    25
100
AcDbLine
 10
19.6238252
 20
3.6111276
 30
0.0
 11
19.6389003
 21
3.5097915
 31
0.0
  0
LINE
  5
42A
330
1F
100
AcDbEntity
  8
0
  6
Continuous
 62
     7
370
    25
100
AcDbLine
 10
19.6295764
 20
3.6554472
 30
0.0
 11
19.6238252
 21
3.6111276
 31
0.0
  0
LINE
  5
42B
330
1F
100
AcDbEntity
  8
0
  6
Continuous
 62
     7
370
    25
100
AcDbLine
 10
19.645813
 20
3.7009005
 30
0.0
 11
19.6295764
 21
3.6554472
 31
0.0
  0
LINE
  5
42C
330
1F
100
AcDbEntity
  8
0
  6
Continuous
 62
     7
370
    25
100
AcDbLine
 10
19.6725933
 20
3.7470818
 30
0.0
 11
19.645813
 21
3.7009005
 31
0.0
  0
LINE
  5
42D
330
1F
100
AcDbEntity
  8
0
  6
Continuous
 62
     7
370
    25
100
AcDbLine
 10
19.7099488
 20
3.7935612
 30
0.0
 11
19.6725933
 21
3.7470818
 31
0.0
  0
LINE
  5
42E
330
1F
100
AcDbEntity
  8
0
  6
Continuous
 62
     7
370
    25
100
AcDbLine
 10
19.7578884
 20
3.8399256
 30
0.0
 11
19.7099488
 21
3.7935612
 31
0.0
  0
LINE
  5
42F
330
1F
100
AcDbEntity
  8
0
  6
Continuous
 62
     7
370
    25
100
AcDbLine
 10
19.8164351
 20
3.8857339
 30
0.0
 11
19.7578884
 21
3.8399256
 31
0.0
  0
LINE
  5
430
330
1F
100
AcDbEntity
  8
0
  6
Continuous
 62
     7
370
    25
100
AcDbLine
 10
19.8855667
 20
3.9305788
 30
0.0
 11
19.8164351
 21
3.8857339
 31
0.0
  0
LINE
  5
431
330
1F
100
AcDbEntity
  8
0
  6
Continuous
 62
     7
370
    25
100
AcDbLine
 10
19.965275
 20
3.9740247
 30
0.0
 11
19.8855667
 21
3.9305788
 31
0.0
  0
LINE
  5
432
330
1F
100
AcDbEntity
  8
0
  6
Continuous
 62
     7
370
    25
100
AcDbLine
 10
20.1562778
 20
4.055052
 30
0.0
 11
19.965275
 21
3.9740247
 31
0.0
  0
LINE
  5
433
330
1F
100
AcDbEntity
  8
0
  6
Continuous
 62
     7
370
    25
100
AcDbLine
 10
20.4399177
 20
4.1449734
 30
0.0
 11
20.1562778
 21
4.055052
 31
0.0
  0
LINE
  5
434
330
1F
100
AcDbEntity
  8
0
  6
Continuous
 62
     7
370
    25
100
AcDbLine
 10
20.721476
 20
4.2566804
 30
0.0
 11
20.4399177
 21
4.1449734
 31
0.0
  0
LINE
  5
435
330
1F
100
AcDbEntity
  8
0
  6
Continuous
 62
     7
370
    25
100
AcDbLine
 10
20.905594
 20
4.3427997
 30
0.0
 11
20.721476
 21
4.2566804
 31
0.0
  0
LINE
  5
436
330
1F
100
AcDbEntity
  8
0
  6
Continuous
 62
     7
370
    25
100
AcDbLine
 10
21.1212241
 20
4.4548374
 30
0.0
 11
20.905594
 21
4.3427997
 31
0.0
  0
LINE
  5
437
330
1F
100
AcDbEntity
  8
0
  6
Continuous
 62
     7
370
    25
100
AcDbLine
 10
21.3630581
 20
4.5936671
 30
0.0
 11
21.1212241
 21
4.4548374
 31
0.0
  0
LINE
  5
438
330
1F
100
AcDbEntity
  8
0
  6
Continuous
 62
     7
370
    25
100
AcDbLine
 10
21.6288313
 20
4.7614079
 30
0.0
 11
21.3630581
 21
4.5936671
 31
0.0
  0
LINE
  5
439
330
1F
100
AcDbEntity
  8
0
  6
Continuous
 62
     7
370
    25
100
AcDbLine
 10
21.9170635
 20
4.9606254
 30
0.0
 11
21.6288313
 21
4.7614079
 31
0.0
  0
LINE
  5
43A
330
1F
100
AcDbEntity
  8
0
  6
Continuous
 62
     7
370
    25
100
AcDbLine
 10
22.22628
 20
5.1940575
 30
0.0
 11
21.9170635
 21
4.9606254
 31
0.0
  0
LINE
  5
43B
330
1F
100
AcDbEntity
  8
0
  6
Continuous
 62
     7
370
    25
100
AcDbLine
 10
22.5519537
 20
5.4619929
 30
0.0
 11
22.22628
 21
5.1940575
 31
0.0
  0
LINE
  5
43C
330
1F
100
AcDbEntity
  8
0
  6
Continuous
 62
     7
370
    25
100
AcDbLine
 10
22.8954461
 20
5.7695777
 30
0.0
 11
22.5519537
 21
5.4619929
 31
0.0
  0
MTEXT
  5
43E
330
1F
100
AcDbEntity
  8
0
  6
Continuous
 62
     7
100
AcDbMText
 10
-23.9999730247
 20
-24.8654116161
 30
0.0
 40
4.83362
 41
0.0
 71
     1
 72
     1
  1
SOLIDWORKS Educational Product.
  7
SLDTEXTSTYLE0
 73
     1
 44
1.0
  0
MTEXT
  5
43F
330
1F
100
AcDbEntity
  8
0
  6
Continuous
 62
     7
100
AcDbMText
 10
-23.9999730247
 20
-32.1158416161
 30
0.0
 40
4.83362
 41
0.0
 71
     1
 72
     1
  1
For Instructional Use Only.
  7
SLDTEXTSTYLE0
 73
     1
 44
1.0
  0
ENDSEC
  0
SECTION
  2
OBJECTS
  0
DICTIONARY
  5
C
330
0
100
AcDbDictionary
281
     1
  3
ACAD_GROUP
350
D
  3
ACAD_LAYOUT
350
1A
  3
ACAD_MLINESTYLE
350
17
  3
ACAD_PLOTSETTINGS
350
19
  3
ACAD_PLOTSTYLENAME
350
E
  3
ACAD_SCALELIST
350
47
  3
DWGPROPS
350
440
  0
DICTIONARY
  5
D
102
{ACAD_REACTORS
330
C
102
}
330
C
100
AcDbDictionary
281
     1
  0
DICTIONARY
  5
1A
102
{ACAD_REACTORS
330
C
102
}
330
C
100
AcDbDictionary
281
     1
  3
Layout1
350
1E
  3
Layout2
350
26
  3
Model
350
22
  0
DICTIONARY
  5
17
102
{ACAD_REACTORS
330
C
102
}
330
C
100
AcDbDictionary
281
     1
  3
Standard
350
18
  0
DICTIONARY
  5
19
102
{ACAD_REACTORS
330
C
102
}
330
C
100
AcDbDictionary
281
     1
  0
ACDBDICTIONARYWDFLT
  5
E
102
{ACAD_REACTORS
330
C
102
}
330
C
100
AcDbDictionary
281
     1
  3
Normal
350
F
100
AcDbDictionaryWithDefault
340
F
  0
DICTIONARY
  5
47
102
{ACAD_REACTORS
330
C
102
}
330
C
100
AcDbDictionary
281
     1
  3
A0
350
48
  3
A1
350
49
  3
A2
350
4A
  3
A3
350
4B
  3
A4
350
4C
  3
A5
350
4D
  3
A6
350
4E
  3
A7
350
4F
  3
A8
350
50
  3
A9
350
51
  3
B0
350
52
  3
B1
350
53
  3
B2
350
54
  3
B3
350
55
  3
B4
350
56
  3
B5
350
57
  3
B6
350
58
  0
XRECORD
  5
440
102
{ACAD_REACTORS
330
C
102
}
330
C
100
AcDbXrecord
280
     1
  1
DWGPROPS COOKIE
  2

  3

  4

  6

  7

  8
Connor
  9

300
=
301
=
302
=
303
=
304
=
305
=
306
=
307
=
308
=
309
=
 40
0.0
 41
2460866.051685498
 42
2460866.051710301
  1

 90
        0
  0
LAYOUT
  5
1E
102
{ACAD_REACTORS
330
1A
102
}
330
1A
100
AcDbPlotSettings
  1

  2
none_device
  4

  6

 40
0.0
 41
0.0
 42
0.0
 43
0.0
 44
0.0
 45
0.0
 46
0.0
 47
0.0
 48
0.0
 49
0.0
140
0.0
141
0.0
142
1.0
143
1.0
 70
   688
 72
     1
 73
     0
 74
     5
  7

 75
    16
147
1.0
148
0.0
149
0.0
100
AcDbLayout
  1
Layout1
 70
     1
 71
     1
 10
0.0
 20
0.0
 11
420.0
 21
297.0
 12
0.0
 22
0.0
 32
0.0
 14
1.0000000000E+20
 24
1.0000000000E+20
 34
1.0000000000E+20
 15
-1.0000000000E+20
 25
-1.0000000000E+20
 35
-1.0000000000E+20
146
0.0
 13
0.0
 23
0.0
 33
0.0
 16
1.0
 26
0.0
 36
0.0
 17
0.0
 27
1.0
 37
0.0
 76
     0
330
1B
  0
LAYOUT
  5
26
102
{ACAD_REACTORS
330
1A
102
}
330
1A
100
AcDbPlotSettings
  1

  2
none_device
  4

  6

 40
0.0
 41
0.0
 42
0.0
 43
0.0
 44
0.0
 45
0.0
 46
0.0
 47
0.0
 48
0.0
 49
0.0
140
0.0
141
0.0
142
1.0
143
1.0
 70
   688
 72
     1
 73
     0
 74
     5
  7

 75
    16
147
1.0
148
0.0
149
0.0
100
AcDbLayout
  1
Layout2
 70
     1
 71
     2
 10
0.0
 20
0.0
 11
0.0
 21
0.0
 12
0.0
 22
0.0
 32
0.0
 14
0.0
 24
0.0
 34
0.0
 15
0.0
 25
0.0
 35
0.0
146
0.0
 13
0.0
 23
0.0
 33
0.0
 16
1.0
 26
0.0
 36
0.0
 17
0.0
 27
1.0
 37
0.0
 76
     0
330
23
  0
LAYOUT
  5
22
102
{ACAD_REACTORS
330
1A
102
}
330
1A
100
AcDbPlotSettings
  1

  2
none_device
  4
ANSI_A_(11.00_x_8.50_Inches)
  6

 40
6.35
 41
19.05
 42
6.35000508
 43
19.05000254
 44
279.4
 45
215.9
 46
133.3499974609
 47
88.8999992328
 48
0.0
 49
0.0
140
0.0
141
0.0
142
0.1764458328
143
1.0
 70
  1696
 72
     0
 73
     0
 74
     0
  7

 75
     0
147
0.0179189148
148
-1300.4909072572
149
0.0
100
AcDbLayout
  1
Model
 70
     1
 71
     0
 10
0.0
 20
0.0
 11
420.0
 21
297.0
 12
0.0
 22
0.0
 32
0.0
 14
-23.9999730247
 24
-23.8458452244
 34
0.0
 15
23.9999730243
 25
23.845845
 35
0.0
146
0.0
 13
0.0
 23
0.0
 33
0.0
 16
1.0
 26
0.0
 36
0.0
 17
0.0
 27
1.0
 37
0.0
 76
     0
330
1F
331
29
  0
MLINESTYLE
  5
18
102
{ACAD_REACTORS
330
17
102
}
330
17
100
AcDbMlineStyle
  2
Standard
 70
     0
  3

 62
   256
 51
90.0
 52
90.0
 71
     2
 49
0.5
 62
   256
  6
BYLAYER
 49
-0.5
 62
   256
  6
BYLAYER
  0
ACDBPLACEHOLDER
  5
F
102
{ACAD_REACTORS
330
E
102
}
330
E
  0
SCALE
  5
48
102
{ACAD_REACTORS
330
47
102
}
330
47
100
AcDbScale
 70
     0
300
1:1
140
1.0
141
1.0
290
     1
  0
SCALE
  5
49
102
{ACAD_REACTORS
330
47
102
}
330
47
100
AcDbScale
 70
     0
300
1:2
140
1.0
141
2.0
290
     0
  0
SCALE
  5
4A
102
{ACAD_REACTORS
330
47
102
}
330
47
100
AcDbScale
 70
     0
300
1:4
140
1.0
141
4.0
290
     0
  0
SCALE
  5
4B
102
{ACAD_REACTORS
330
47
102
}
330
47
100
AcDbScale
 70
     0
300
1:5
140
1.0
141
5.0
290
     0
  0
SCALE
  5
4C
102
{ACAD_REACTORS
330
47
102
}
330
47
100
AcDbScale
 70
     0
300
1:8
140
1.0
141
8.0
290
     0
  0
SCALE
  5
4D
102
{ACAD_REACTORS
330
47
102
}
330
47
100
AcDbScale
 70
     0
300
1:10
140
1.0
141
10.0
290
     0
  0
SCALE
  5
4E
102
{ACAD_REACTORS
330
47
102
}
330
47
100
AcDbScale
 70
     0
300
1:16
140
1.0
141
16.0
290
     0
  0
SCALE
  5
4F
102
{ACAD_REACTORS
330
47
102
}
330
47
100
AcDbScale
 70
     0
300
1:20
140
1.0
141
20.0
290
     0
  0
SCALE
  5
50
102
{ACAD_REACTORS
330
47
102
}
330
47
100
AcDbScale
 70
     0
300
1:30
140
1.0
141
30.0
290
     0
  0
SCALE
  5
51
102
{ACAD_REACTORS
330
47
102
}
330
47
100
AcDbScale
 70
     0
300
1:40
140
1.0
141
40.0
290
     0
  0
SCALE
  5
52
102
{ACAD_REACTORS
330
47
102
}
330
47
100
AcDbScale
 70
     0
300
1:50
140
1.0
141
50.0
290
     0
  0
SCALE
  5
53
102
{ACAD_REACTORS
330
47
102
}
330
47
100
AcDbScale
 70
     0
300
1:100
140
1.0
141
100.0
290
     0
  0
SCALE
  5
54
102
{ACAD_REACTORS
330
47
102
}
330
47
100
AcDbScale
 70
     0
300
2:1
140
2.0
141
1.0
290
     0
  0
SCALE
  5
55
102
{ACAD_REACTORS
330
47
102
}
330
47
100
AcDbScale
 70
     0
300
4:1
140
4.0
141
1.0
290
     0
  0
SCALE
  5
56
102
{ACAD_REACTORS
330
47
102
}
330
47
100
AcDbScale
 70
     0
300
8:1
140
8.0
141
1.0
290
     0
  0
SCALE
  5
57
102
{ACAD_REACTORS
330
47
102
}
330
47
100
AcDbScale
 70
     0
300
10:1
140
10.0
141
1.0
290
     0
  0
SCALE
  5
58
102
{ACAD_REACTORS
330
47
102
}
330
47
100
AcDbScale
 70
     0
300
100:1
140
100.0
141
1.0
290
     0
  0
ENDSEC
  0
EOF
